<?xml version="1.0" encoding="utf-8"?>
<!-- Generator: Adobe Illustrator 26.0.1, SVG Export Plug-In . SVG Version: 6.00 Build 0)  -->
<svg version="1.1" id="Layer_1" xmlns="http://www.w3.org/2000/svg" xmlns:xlink="http://www.w3.org/1999/xlink" x="0px" y="0px"
	 viewBox="0 0 700 700" style="enable-background:new 0 0 700 700;" xml:space="preserve">
<style type="text/css">
	.st0{fill-rule:evenodd;clip-rule:evenodd;fill:#D3D3D3;}
</style>
<path class="st0" d="M404.3,188.4c-22.2,0-40.2-18-40.2-40.2s18-40.2,40.2-40.2c22.2,0,40.2,18,40.2,40.2S426.5,188.4,404.3,188.4z
	 M461.1,148.2c0-31.3-25.5-56.8-56.8-56.8s-56.8,25.5-56.8,56.8c0,31.3,25.5,56.8,56.8,56.8S461.1,179.5,461.1,148.2z M598.8,468
	V163.4l-98.7,30.9c-13.5,29.6-35.9,62.2-56.1,89.2v233L598.8,468z M101.2,211.9L256,163.4V468l-154.8,48.5V211.9z M397.9,325.9
	c-39.9-49.7-84.7-109.5-98-154l-27.3-8.6V468l154.8,48.5l0-211.4c-5.7,7.2-10.8,13.6-15.2,19l-1.5,1.8c-1.6,2-4,3.1-6.5,3.1
	C401.8,329,399.4,327.9,397.9,325.9L397.9,325.9z M404.3,56.5c-50.6,0-91.8,41.2-91.8,91.8c0,41.5,61.5,121.1,91.8,159.1
	c29.3-36.7,91.8-116.9,91.8-159.1C496.1,97.7,455,56.5,404.3,56.5L404.3,56.5z M612,145.4c-2.2-1.6-4.9-2-7.4-1.2L508,174.4
	c3-9.4,4.7-18.2,4.7-26.1c0-59.8-48.6-108.4-108.4-108.4C344.6,39.9,296,88.6,296,148.3c0,1.6,0.1,3.3,0.2,5l-29.4-9.2
	c-1.6-0.5-3.3-0.5-4.9,0L90.4,197.8c-3.5,1.1-5.8,4.3-5.8,7.9v322c0,2.6,1.3,5.1,3.4,6.7c1.4,1.1,3.2,1.6,4.9,1.6
	c0.8,0,1.7-0.1,2.4-0.4l168.9-52.9l169,52.9c1.6,0.5,3.3,0.5,4.9,0L609.6,482c3.5-1.1,5.8-4.3,5.8-7.9v-322
	C615.4,149.4,614.1,147,612,145.4L612,145.4z"/>
</svg>
