<?xml version="1.0" encoding="utf-8"?>
<!-- Generator: Adobe Illustrator 26.0.1, SVG Export Plug-In . SVG Version: 6.00 Build 0)  -->
<svg version="1.1" id="Layer_1" xmlns="http://www.w3.org/2000/svg" xmlns:xlink="http://www.w3.org/1999/xlink" x="0px" y="0px"
	 viewBox="0 0 200 167.4" style="enable-background:new 0 0 200 167.4;" xml:space="preserve">
<style type="text/css">
	.st0{fill:#D9C79F;stroke:#000000;stroke-width:0.2;stroke-linecap:round;stroke-linejoin:round;}
	.st1{fill:#ADD194;stroke:#000000;stroke-width:0.2;stroke-linecap:round;stroke-linejoin:round;}
	.st2{fill:#EDFEFF;stroke:#000000;stroke-width:0.2;stroke-linecap:round;stroke-linejoin:round;}
	.st3{fill:#D7E09F;stroke:#000000;stroke-width:0.2;stroke-linecap:round;stroke-linejoin:round;}
	.st4{fill:#ECECEC;stroke:#000000;stroke-width:0.2;stroke-linecap:round;stroke-linejoin:round;}
	.st5{fill:#D9C79F;}
</style>
<path id="AL" class="st1" d="M93.7,137l0.2,0.7l0.8-0.3l0.7,0.9l0.7,0.4l0.3,1.3l-0.3,1.2l0.6,1.5l1.3,0.8l0.1,0.9l-0.9,0.5L97,146
	l-1.2,1.7l-0.5-0.2l-0.1-0.8l-1.7-1.2l-0.4-1.7l0.1-2.4l0.3-1l-0.5-0.6l-0.3-1.2L93.7,137L93.7,137z"/>
<path id="AM" class="st0" d="M172.6,150.8l-1,0.1l-1.5-2l-0.1-0.6h-1.3l-1-0.9l-0.6,0.1l-1.3-1l-2.3-0.9l-0.1-1.7l-0.7-1.2l3.9-0.6
	l0.8,0.9l1.2,0.6l-0.4,0.9l1.8,1.2l-0.6,1.2l1.4,0.9l1.4,0.6L172.6,150.8L172.6,150.8z"/>
<path id="AT" class="st1" d="M84.1,116.4l-0.2,0.4l0.4,1.2l-0.1,1.4h-1.5l0.6,0.8l-0.7,2.2l-0.5,0.6l-2.4,0.1l-1.3,0.8l-2.3-0.3
	l-4-0.9l-0.7-1.2l-2.7,0.6l-0.3,0.7l-1.7-0.5l-1.4-0.1l-1.3-0.7l0.4-0.8l-0.1-0.6l0.8-0.2l1.5,0.9l0.3-0.9l2.4,0.2l1.9-0.6l1.3,0.1
	l0.9,0.7l0.2-0.6l-0.6-2.3l0.9-0.4l0.9-1.6l2.1,1.2l1.4-1.4l0.9-0.3l2.2,1l1.3-0.2L84.1,116.4L84.1,116.4z"/>
<path class="st0" d="M171.6,150.9l-2.1-0.5l-1.8-1.6l-0.7-1.4l0.6-0.1l1,0.9h1.3l0.1,0.6L171.6,150.9z"/>
<path class="st1" d="M175,141.5l1.4-1.4l1.9,1.8l2,2.5l1.4,0.2l1,0.9l-2.3,0.3l0.1,2.8l-0.2,1.2l-0.9,0.8l0.4,1.7l-0.7,0.2l-2.2-1.9
	l0.7-1.7l-1-1l-1,0.3l-2.9,2.6l-0.5-2.5l-1.4-0.6l-1.4-0.9l0.6-1.2l-1.8-1.2l0.4-0.9l-1.2-0.6l-0.8-0.9l0.6-0.6l2.3,1l1.6,0.2
	l0.3-0.4l-1.8-1.9l0.7-0.4l0.8,0.1l2.4,2.1l1.3,0.3L175,141.5z"/>
<path id="BE" class="st1" d="M54.2,108.9l-0.2,2.3l-0.7,0.1l-0.2,1.9l-2.4-1.6l-1.4,0.3l-1.9-1.6l-1.3-1.4l-1.2-0.1l-0.4-1.2
	l2.2-0.7l2,0.3l2.5-0.7l1.7,1.5L54.2,108.9L54.2,108.9z"/>
<path id="BG" class="st1" d="M118.3,133.4l-1.3,1.4l-0.7,2.5l1.2,2l-2.5-0.4l-2.8,1.1l0.2,1.8l-2.5,0.3l-2.2-1.3l-2.2,1l-2.1-0.1
	l-0.4-2.3l-1.5-1.2l0.4-0.4l-0.3-0.4l0.3-1.1l1-1.1l-1.5-1.5l-0.4-1.3l0.6-0.8l1,1.4l1-0.2l2.2,0.5l4.2,0.2l1.3-0.9l3.3-0.8l2.2,1.3
	L118.3,133.4L118.3,133.4z"/>
<path id="BA" class="st1" d="M91,129.4l1-0.1l-0.6,1.5l1.5,1.4l-0.3,1.6l-0.6,0.2l-0.5,0.3l-0.9,0.8l-0.2,1.9l-2.7-1.3l-1.2-1.5
	l-1.2-0.8l-1.4-1.3l-0.7-1l-1.5-1.7l0.4-1.4l1.1,0.8l0.6-0.8l1.3-0.1l2.5,0.6l1.9-0.1L91,129.4L91,129.4z"/>
<path id="BY" class="st1" d="M123.3,100.9l-2.2-0.1l-0.4,0.3l0.8,1.1l1.1,2.2l-2.3,0.2l-0.7,0.8l0.2,1.7l-1.2-0.3l-2.4,0.2l-0.8-0.8
	l-0.9,0.6l-1-0.5l-2.2-0.1l-3.1-0.8l-2.7-0.3l-2.1,0.1l-1.3,0.9l-1.3,0.2l-0.3-1.5l-1-1.5l1.5-0.7l-0.2-1.3l-0.9-1.3l-0.3-1.5h2.6
	l2.7-1.3l0.3-1.9l2-1.1l-0.6-1.5L108,92l2.5-1.3l2.9,0.8l0.5,0.8l1.3-0.4l2.7,0.8l0.6,1.6l-0.4,0.9l2.1,2.2l1.2,0.6v0.6l1.9,0.6
	l0.9,0.9L123.3,100.9L123.3,100.9z"/>
<path id="CH" class="st1" d="M64.1,120.1l0.1,0.6l-0.4,0.8l1.3,0.7l1.4,0.1l-0.2,1.4l-1.2,0.6l-2.1-0.4l-0.6,1.4l-1.3,0.1l-0.5-0.6
	l-1.5,1.2l-1.4,0.2l-1.2-0.8l-1-1.5l-1.3,0.6v-1.6l2-1.9l-0.1-0.9l1.3,0.3l0.7-0.6h2.3l0.6-0.7L64.1,120.1L64.1,120.1z"/>
<path id="CZ" class="st1" d="M78.1,107.8l1.4,1.1l2,0.3l-0.1,0.9l1.5,0.7l0.3-0.9l1.9,0.4l0.4,1.1l2,0.2l1.4,1.7h-0.8l-0.4,0.6
	l-0.6,0.2l-0.1,0.8l-0.5,0.2l-0.1,0.3l-0.9,0.3l-1.2-0.1l-0.3,0.8l-1.3-0.7l-1.3,0.2l-2.2-1l-0.9,0.3l-1.4,1.4l-2.1-1.2l-1.7-1.4
	l-1.4-0.8l-0.4-1.5l-0.6-1l1.9-0.7l0.9-0.9l1.9-0.7l0.6-0.7l0.7,0.4L78.1,107.8L78.1,107.8z"/>
<path id="DE" class="st1" d="M74.9,98.8l0.8,1.7l-0.7,0.9l1,1.2l0.8,1.8l-0.1,1.2l1.3,2.2l-1.2,0.3l-0.7-0.4l-0.6,0.7l-1.9,0.7
	l-0.9,0.9l-1.9,0.7l0.6,1l0.4,1.5l1.4,0.8l1.7,1.4l-0.9,1.6l-0.9,0.4l0.6,2.3l-0.2,0.6l-0.9-0.7l-1.3-0.1l-1.9,0.6l-2.4-0.2
	l-0.3,0.9l-1.5-0.9l-0.8,0.2l-3-1l-0.6,0.7h-2.3l0.2-2.5l1.3-2.3l-4-0.7l-1.3-0.9l0.1-1.5l-0.6-0.8l0.2-2.3l-0.6-3.6h1.6l0.7-1.3
	l0.5-3.1l-0.5-1.2l0.4-0.7l2.2-0.2l0.6,0.7l1.7-1.7l-0.7-1.3l-0.2-1.9l2,0.4l1.6-0.5l0.2,1.3l2.7,0.8l0.1,1.2l2.6-0.7l1.4-0.9
	l3.1,1.3L74.9,98.8L74.9,98.8z"/>
<path class="st1" d="M70.6,92.6l-1.3,2.7l-2.9-1.9L65.9,92l3.8-1.1L70.6,92.6z"/>
<path class="st1" d="M63.5,94.7l-1.6,0.5l-2-0.4l-1.2-1.9l-0.2-3.4l0.3-0.9l0.7-1l2.2-0.2l0.9-0.9l2-0.9v1.7L64,88.4l0.4,0.9
	l1.4,0.5L65.2,91l-0.8-0.3l-1.7,2.4L63.5,94.7z"/>
<path id="DZ" class="st0" d="M62.2,157.2l-0.6,1.8l0.6,3.4l-0.6,2.9l-1.8,2l0.3,2.6l2.5,2.2l0.1,0.8l1.9,1.4l1.4,6.3l1,3.1l0.2,1.7
	l-0.4,2.9l0.2,1.7l-0.3,1.9l0.3,2.2l-1.2,1.5l1.9,2.6l0.1,1.5l1.2,2l1.4-0.7l2.5,1.7l1.4,2.2l-10.4,6.8l-8.8,7l-4.3,1.5l-3.4,0.4
	l-0.1-2.3l-1.4-0.6l-1.9-1l-0.7-1.7l-10.3-7.7l-10.3-7.7L11.3,191l0.1-0.7l0.1-0.2l0.1-4.2l4.9-2.6l3-0.6l2.5-0.9L23,180l3.5-1.4
	l0.2-2.6l1.7-0.3l1.4-1.3l3.9-0.6l0.6-1.4l-0.8-0.8l-1-3.8l-0.2-2.2l-1-2.3l2.8-1.9l3.2-0.6l1.8-1.4l2.8-1.1l5-0.6l4.9-0.3l1.5,0.5
	l2.7-1.4l3.1-0.1l1.2,0.8L62.2,157.2L62.2,157.2z"/>
<path id="EE" class="st1" d="M107.9,79.9l0.5,0.6l-1.4,1.9l1.3,3.1l-0.9,1l-2.1-0.1l-2.4-1.2l-1.2-0.4l-2.1,0.6l-0.1-1.9l-0.8,0.4
	l-1.8-1.2l-0.6-1.9l3-0.9l3.1-0.4l2.8,0.5L107.9,79.9L107.9,79.9z"/>
<path id="FI" class="st1" d="M102.6,49.8l0.2,2.1l4,2l-1.6,2.3l3.6,3.5l-0.9,2.6l2.7,2.3l-0.5,2.1l4.1,2.2l-0.5,1.6l-1.9,1.9
	l-4.4,4.1l-4.4,0.3L98.8,78l-3.9,0.7l-1.8-1.8l-2.6-1l0.1-3.2l-1.7-2.9l0.9-1.9l1.8-1.9l4.9-3.4l1.4-0.7l-0.5-1.3l-3.6-1.4l-1-1.2
	l-1-4.7l-4-2l-3.3-1.5l1.2-0.8l2.8,1.5l2.9-0.1l2.6,0.7l1.9-1.3l0.6-2.2l3.3-1l3.2,1.2L102.6,49.8L102.6,49.8z"/>
<path class="st1" d="M21.2,98.4l-1.9-0.7l-1.7,0.1l0.7-1.8l-0.5-1.8l2.2-0.2l2.7,2.1L21.2,98.4z"/>
<path class="st1" d="M30,82.6l-2.8,3.6l2.6-0.4h2.8l-0.7,2.7l-2.4,3l2.7,0.2l0.2,0.4l2.3,3.9l1.8,0.6l1.6,3.9l0.8,1.3l3.3,0.6
	l-0.3,2.2l-1.3,1l1,1.8l-2.4,1.8l-3.6-0.1l-4.6,1l-1.2-0.7l-1.8,1.6l-2.5-0.4l-2,1.3l-1.4-0.7l4-3.6l2.4-0.8l-4.2-0.6l-0.7-1.4
	l2.8-1l-1.4-1.8l0.6-2.2l3.9,0.3l0.4-2l-1.7-2L28.1,96l-3.1-0.6l-0.6-0.9l1-1.5L24.5,92L23,93.6L23,90.4l-1.2-1.7l1-3.4l2.1-2.6
	l2,0.2L30,82.6z"/>
<path id="GE" class="st1" d="M164.2,136.9l2.8,0.7l1.2,1.4l2,0.8l-0.7,0.4l1.8,1.9l-0.3,0.4l-1.6-0.2l-2.3-1l-0.6,0.6l-3.9,0.6
	l-3.1-1.8l-3,0.2l0.2-1.5l-1.2-2.4l-1.9-1.3l-1.7-0.4l-1.2-1l0.2-0.4l2.5,0.6l4.3,0.6l4.2,1.7l0.7,0.7L164.2,136.9L164.2,136.9z"/>
<path class="st1" d="M107.4,161.6l1.7,1.2l2.3-0.2l2.2,0.2v0.7l1.5-0.4l-0.3,1l-4.2,0.3l-0.1-0.6l-3.6-0.7L107.4,161.6z"/>
<path class="st1" d="M112.4,143.5l-1.8-0.1l-1.5-0.3l-3.4,0.9l2.2,2l-1.4,0.6H105l-1.7-1.8l-0.5,0.8l0.9,2.1l1.6,1.7l-1,0.8l1.8,1.6
	l1.5,1l0.2,2l-2.8-0.9l1,1.8l-1.8,0.3l1.4,3.1l-1.9,0.1l-2.5-1.5l-1.3-2.8l-0.7-2.4l-1.3-1.6l-1.7-2l-0.3-1L97,146l0.1-1.2l0.9-0.5
	l-0.1-0.9l1.9-0.3l1-0.8l1.5,0.1l0.4-0.6l0.6-0.1l2.1,0.1l2.2-1l2.2,1.3l2.5-0.3l-0.2-1.8l1.5,0.9l-0.6,2.2L112.4,143.5z"/>
<path id="GL" class="st2" d="M-12.1,11.9l11,1.7l-3.7,0.8l-7.2,0.1l-10.2,0.2l0.8,0.4l6.8-0.3l5.4,0.8l3.9-0.7l1.3,0.8L-6.6,17
	l5.1-0.9l9.4-0.8l5.5,0.4l0.9,0.9l-8.2,1.6L5,18.8l-6.3,0.4l4.5,0.1l-2.7,1.8l-2,1.6l-0.7,2.9l2,1.8l-3.3,0.1L-7,28.3l3.5,1.4
	L-3.6,32l-2.3,0.3l2.3,2.4l-4.8,0.2l2.2,1.1l-0.9,1l-3.1,0.4l-3,0.1l2.3,1.9l-0.3,1.3l-4-1.2l-1.3,0.8l2.8,0.7l2.5,1.8l0.3,2.4
	l-4.1,0.6l-1.5-1.2l-2.3-1.7l0.3,2l-3,1.5l5.9,0.1l3,0.2l-6.6,2.6l-6.7,2.4l-7,1l-2.5,0.1l-2.7,1.2l-4.1,3.2l-5.6,2.2l-1.7,0.2
	l-3.4,0.7l-3.6,0.8l-2.6,1.9l-0.8,2.2l-1.9,2.1l-4.7,2.5l0.2,2.5l-2,2.6l-2.3,3.1l-3.6,0.2l-2.8-2.6l-5-0.1l-1.8-1.8l-0.4-3.1
	l-2.6-4l-0.4-2l0.8-2.8l-2-2.8l1.8-2.3l-1-1.1l3.9-3.5l4-1.2l1.4-1.2l1.5-2.3l-3,1l-1.4,0.4l-2.3,0.4l-2.3-0.9l0.8-2l1.7-1.5
	l2.1-0.1l4.2,0.8l-2.9-1.9l-1.5-1l-2.4,0.4l-1.4-0.7l3.9-2.6l-0.7-1.1l-0.6-1.9l-0.8-3l-2-1l0.8-1.2l-4.5-1.6l-4.3-0.2l-5.6,0.1
	l-5.2,0.2l-1.7-0.9l-2.1-1.7l6.1-0.8l4.2-0.1l-8.1-0.7l-3.6-1l1.2-1l8.7-1.2l8.3-1.2l1.5-0.9l-4.5-0.9l2.5-0.9l8.1-1.6l3-0.2l0.1-1
	l5-0.6l6.1-0.3h5.7l1.5,0.7l5.9-1.2l3.9,0.8l2.5,0.2l3.4,0.7l-3.7-1.2l0.9-0.9l7-1.2l6.4,0.1l2.8-0.8l6.6-0.2L-12.1,11.9L-12.1,11.9
	z"/>
<path id="HR" class="st1" d="M90.1,125.7l0.8,1.4l0.9,1l-0.9,1.3l-1.3-0.8l-1.9,0.1l-2.5-0.6l-1.3,0.1l-0.6,0.8l-1.1-0.8l-0.4,1.4
	l1.5,1.7l0.7,1l1.4,1.3l1.2,0.8l1.2,1.5l2.7,1.3l-0.3,0.6l-2.8-1.3l-1.8-1.3l-2.7-1l-2.6-2.5l0.6-0.3l-1.4-1.5l-0.2-1.2l-1.8-0.6
	l-0.8,1.5l-0.9-1.2v-1.2l0.1-0.1l2,0.1l0.4-0.6l1,0.6l1.1,0.1l-0.1-0.9l0.9-0.4l0.2-1.4l2.2-0.9l0.9,0.4l2.2,1.5l2.4,0.7L90.1,125.7
	L90.1,125.7z"/>
<path id="HU" class="st1" d="M98.2,117l1.7,0.9l0.3,0.9l-1.6,0.7l-1,2.3l-1.4,2.4l-2.2,0.7l-1.8-0.2l-2,0.9l-1,0.6l-2.4-0.7
	l-2.2-1.5l-0.9-0.4l-0.7-1.2l-0.4-0.1l0.7-2.2l-0.6-0.8h1.5l0.1-1.4l1.5,0.9l1,0.3l2.3-0.4l0.2-0.7l1-0.1l1.3-0.5l0.3,0.2l1.3-0.4
	l0.6-0.8l0.9-0.2l3,1L98.2,117L98.2,117z"/>
<path id="IE" class="st1" d="M21.2,98.4l0.4,2.4l-2.2,3l-4.9,2l-3.8-0.5l2.4-3.5l-1.2-3.4l3.7-2.6l2-1.5l0.5,1.8l-0.7,1.8l1.7-0.1
	L21.2,98.4L21.2,98.4z"/>
<path id="IR" class="st0" d="M171.6,150.9l1-0.1l2.9-2.6l1-0.3l1,1l-0.7,1.7l2.2,1.9l0.7-0.2l1.4,2.6l2.9,0.7l2.4,1.8l4.3,0.6
	l4.4-0.9l0.1-0.8l2.4-0.7l1.7-2l2,0.1l1.1-0.7l2.2,0.3l3.6,1.8l2.4,0.4l4,3.1l2.2,0.2l0.9,2.9l-0.3,4.4l-0.3,2.6l1.4,0.6l-0.9,1.9
	l1.5,2.8l0.7,2.3l2.4,0.6l0.6,2.3l-2.2,3.2l1.8,1.9l1.5,2.2l3.1,1.5l0.6,3.1l1.5,0.6l0.5,1.6l-4.1,1.9l-0.6,4.1l-5.9-1l-3.4-0.8
	l-3.5-0.4l-1.8-4.4l-1.5-0.6l-2.3,0.6l-2.8,1.7l-3.9-1.2l-3.4-2.8l-3-1L191,186l-2.9-4.7l-1.5,0.6l-2-1.2l-0.9,1.4l-1.9-1.9
	l-0.3-1.9h-0.9l0.1-2.6l-1.9-2.6l-3.9-2l-2.5-3.4l0.3-2.8l1.3-1.2l-0.5-2l-2.1-1.1l-2.6-4.2l-2.1-2.8l0.4-1.1l-1.6-4l1.8-1l0.7,1.4
	l1.8,1.6L171.6,150.9L171.6,150.9z"/>
<path id="IQ" class="st0" d="M168.5,156.4l2.6,4.2l2.1,1.1l0.5,2l-1.3,1.2l-0.3,2.8l2.5,3.4l3.9,2l1.9,2.6l-0.1,2.6h0.9l0.3,1.9
	l1.9,1.9l-1.8-0.2l-2-0.3l-1.8,3.4l-5.6-0.3l-9.3-7.1l-4.7-2.5l-3.8-1l-1.7-4.3l6.1-3.7l0.6-4.3l-0.7-2.6l1.5-0.9l1.2-2.2l1.2-0.6
	l3.5,0.5l1.2,0.9L168.5,156.4L168.5,156.4z"/>
<path id="IS" class="st2" d="M3.6,57.8l-0.8,2l2.4,2.1l-3.4,2.4l-7.2,2.2L-7.5,67l-3.1-0.5l-6.6-1l2.6-1.4l-5-1.5l4.4-0.6l0.1-0.9
	l-4.9-0.7l2-2l3.6-0.4L-11,60l3.9-1.7l2.8,0.8l4-1.6L3.6,57.8L3.6,57.8z"/>
<path class="st1" d="M82.8,152.7l-0.9,2.8l0.5,1l-0.5,1.8l-2.3-1.3l-1.5-0.4l-4.1-1.8l0.3-1.8l3.4,0.3l3-0.4L82.8,152.7z"/>
<path class="st1" d="M64,142.2l1.8,2.5l-0.2,4.7l-1.3-0.2l-1.2,1.2l-1.1-0.9l-0.3-4.3l-0.7-2l1.6,0.2L64,142.2z"/>
<path class="st1" d="M76,123.7l-0.2,1.7l0.8,1.5l-2.3-0.6l-2.2,1.3l0.2,1.7l-0.3,1l1,1.8l2.8,1.8l1.6,2.9l3.4,2.8l2.2-0.1l0.8,0.8
	l-0.8,0.7l2.7,1.3l2.2,1l2.6,1.9l0.3,0.6l-0.4,1.3l-1.7-1.7l-2.5-0.6l-1,2.3l2.2,1.3l-0.2,1.8l-1.2,0.2l-1.4,3l-1.2,0.3l-0.1-1.1
	l0.5-1.9l0.6-0.8l-1.3-2l-1-1.8l-1.2-0.4l-1-1.5l-1.9-0.7l-1.3-1.4l-2.1-0.2l-2.4-1.5l-2.7-2.3l-2-2l-1-3.5l-1.4-0.4l-2.3-1.2
	l-1.3,0.4l-1.6,1.7l-1.2,0.2l0.3-1.5l-1.5-0.4l-0.8-2.7l0.9-1l-0.8-1.3l0.1-1l1.2,0.8l1.4-0.2l1.5-1.2l0.5,0.6l1.3-0.1l0.6-1.4
	l2.1,0.4l1.2-0.6l0.2-1.4l1.7,0.5l0.3-0.7l2.7-0.6l0.7,1.2L76,123.7z"/>
<path id="KZ" class="st0" d="M231.9,99.7l2.4-0.2l5.1-3.2l-0.4,1.1l4.6,2.6l10.1,8.6l0.6-1.8l4.6,1.9l3.4-0.9l1.8,0.6l2.3,2l2.2,0.7
	l1.8,1.5l3.3-0.5l2.4,2.1l-1,2.3l-2.1,0.3l1.4,3.4l-0.9,1.6l-6-1.2l0.6,6.2l-1.1,0.8l-5,1.4l4.9,6.1l-1.6,0.9l0.9,2l-1.9-0.6
	l-1.9-1.3l-4.4-0.3l-4.7-0.1l-0.9,0.4l-4.5-1.5l-1.4,0.8l0.3,2l-5.1-1.2l-1.7,0.5l-0.2,1.5l-1.4,0.7l-3,2.4l-0.5,2.5h-1.1l-1.3-1.7
	l-3.7-0.1l-1.4-2.9l-1.4-0.1l-0.8-3.5l-4.2-2.5l-4.7,0.3l-3.1,0.5l-3.6-3.1l-2.7-1.3l-5.1-2.5l-0.6-0.3l-6.6,2l3.4,12.9l-1.4,0.2
	l-2.7-2.8l-2.2-1l-3.1,0.7l-1,1.2l-0.3-0.9l0.3-1.4l-0.8-1.2l-3.6-1.2l-2-3.1l-1.8-0.9l-0.3-1.2l2.8,0.3l-0.6-2.5l2.3-0.6l2.6,0.5
	l-0.4-3.4l-1-2.2l-2.8,0.2l-2.6-0.8l-2.8,1.5l-2.4,0.8l-1.5-0.6l-0.1-1.8l-2.4-2.3l-2,0.1l-2.9-2.3l0.9-2.6l-1-0.7l1.2-3.8l3.3,2
	l-0.3-2.5l4.5-3.7l4.2-0.1l6.6,2.4l3.6,1.4l2.4-1.4l4.3-0.1l4,1.8l0.4-1l3.9,0.2l0.1-1.6l-5.2-2.4l1.9-1.7l-0.8-0.9l2.2-0.9
	l-2.8-2.3l0.8-1.2l9.4-1.2l0.9-0.8l6-1.3l1.7-1.4l5,0.7l2.4,3.5l2.4-0.8l3.9,1.2L231.9,99.7L231.9,99.7z"/>
<path id="LB" class="st0" d="M144,170.2l-0.8,0.1l-0.2,0.6h-1l0.7-2.9l1.2-2.5v-0.1l1.4,0.2l0.7,1.4l-1.5,1.4L144,170.2L144,170.2z"
	/>
<path id="LT" class="st1" d="M106.5,92.6l0.6,1.5l-2,1.1l-0.3,1.9l-2.7,1.3h-2.6l-0.8-1l-1.4-0.4L97,96.1l0.1-0.9l-1.2-0.5L93.1,94
	l-0.9-2.8l2.8-1l4.4,0.2l2.5-0.3l0.5,0.7l1.4,0.2L106.5,92.6L106.5,92.6z"/>
<path id="LU" class="st1" d="M54.5,113.5l-0.8,0.1l-0.6-0.3l0.2-1.9l0.7-0.1l0.6,0.8L54.5,113.5z"/>
<path id="LV" class="st1" d="M107.4,86.5l1.4,0.7l0.6,1.6l1.2,2L108,92l-1.5,0.6l-2.8-1.6l-1.4-0.2l-0.5-0.7l-2.5,0.3L95,90.2
	l-2.8,1l-0.3-2.5l0.9-2.1l2.3-1.1l2.4,2.5l2-0.1l0.1-2.5l2.1-0.6l1.2,0.4l2.4,1.2L107.4,86.5L107.4,86.5z"/>
<path id="MA" class="st0" d="M31.2,163.5l1,2.3l0.2,2.2l1,3.8l0.8,0.8l-0.6,1.4l-3.9,0.6l-1.4,1.3l-1.7,0.3l-0.2,2.6L23,180
	l-1.2,1.8l-2.5,0.9l-3,0.6l-4.9,2.6l-0.1,4.2h-0.5L11,192l-1.9,0.1l-1,0.8H6.7l-1.1-0.5l-2.5,0.4l-1,2.8l-1,0.3l-1.5,4.5l-4.4,3.8
	l-1.1,4.9l-1.3,1.6l-0.4,1.3l-6.9,0.3h-0.1l0.2-1.7l1.2-0.9l1-1.9l-0.2-1.2l1.1-2.5l1.8-2.3l1-0.6l0.9-2l0.1-1.9l1.2-2.2l2.1-1.3
	l2-3.6l0.1-0.1l1.6-1.4l2.8-0.4l2.4-2.4l1.5-0.9l2.6-3l-0.7-4.4l1.2-3.1l0.5-1.9l2-2.4l3-1.6l2.3-1.5l2-3.6l1-2.2l2.2,0.1l1.7,1.5
	l2.8-0.2l3,0.8L31.2,163.5L31.2,163.5z"/>
<path id="MD" class="st1" d="M116.6,127.2l-0.7-1.6l0.1-1.5l-0.3-1.5l-1.9-2.1l-1.1-1.4l-1-1l-0.9-0.4l0.6-0.5l1.8-0.3l2.2,1
	l1.1,0.2l1.4,0.9l-0.1,1.2l1.1,0.6l0.6,1.4l1.1,0.9l-0.1,0.6l0.6,0.3l-0.7,0.3l-1.7-0.1l-0.3-0.5l-0.6,0.3l0.3,0.6l-0.6,1.2
	l-0.3,1.2L116.6,127.2L116.6,127.2z"/>
<path id="MK" class="st1" d="M103.4,141.7l-0.6,0.1l-0.4,0.6l-1.5-0.1l-1,0.8l-1.9,0.3l-1.3-0.8l-0.6-1.5l0.3-1.2l0.4,0.1l0.1-0.7
	l1.6-0.6l0.7-0.2l0.9-0.2l1.3-0.1l1.5,1.2L103.4,141.7L103.4,141.7z"/>
<path id="ME" class="st1" d="M95.1,136.5l-0.4,0.8l-0.8,0.3l-0.2-0.7l-1,1.7l0.3,1.2l-0.6-0.3l-0.9-1.2l-1.3-0.7l0.3-0.6l0.2-1.9
	l0.9-0.8l0.5-0.3l0.8,0.6l0.5,0.5l0.9,0.4l1.2,0.7L95.1,136.5L95.1,136.5z"/>
<path class="st1" d="M107.9,48.4l-3.5,1.2l-1.8,0.3l0.4-2.1l-3.2-1.2l-3.3,1L96,49.7l-1.9,1.3l-2.6-0.7l-2.9,0.1l-2.8-1.5l-1.2,0.8
	l-1.4,0.1l0.1,2l-4.4-0.5L78.4,53h-2.2l-1.3,2.2l-1.9,3.4l-3.1,4.4l1,1.1l-0.7,1.2l-2.4-0.1l-1.3,3l0.6,4.3l1.7,1.6l-0.4,3.8
	L66.4,80l-1,1.9l-1.8-2l-4.7,3.8l-3.4,0.8l-3.6-1.7l-1-3.5l-1.1-7.5l2.2-2l6.2-2.7l4.5-3.3l4-4.3l4.9-5.9l3.5-2.3l5.7-3.8l4.7-1.3
	l3.7,0.2l2.9-2.4l4.1,0.1l3.9-0.6l7.6,2.2l-2.7,0.8L107.9,48.4z"/>
<path class="st2" d="M87.4,25l-4.2,1l-3.8-0.6l1.2-0.7L79.2,24l4-0.5l1,0.9L87.4,25z"/>
<path class="st2" d="M73.3,20.3l7,1.9l-4.7,1l-0.7,1.9l-1.7,0.5l-0.5,2.2l-2.4,0.1l-4.7-1.6l1.7-0.9l-3.1-0.8l-4.3-2.2L58,20.5
	l5.1-0.9l1.3,0.8h2.8l0.6-0.8l2.9-0.1L73.3,20.3z"/>
<path class="st2" d="M86.8,18.7l4.1,0.8l-2.4,1.3l-5.6,0.3l-5.9-0.4L76.4,20h-2.8l-2.4-1.1l5.8-0.7l3,0.6l1.7-0.7L86.8,18.7z"/>
<path id="PL" class="st1" d="M89.2,96.6l3.3,0.4l4.9-0.1l1.4,0.4l0.8,1l0.3,1.5l0.9,1.3l0.2,1.3l-1.5,0.7l1,1.5l0.3,1.5l1.8,3
	l-0.2,0.9l-1.3,0.4l-2.1,2.9l0.9,1.5l-0.6-0.2l-2.8-1.3l-1.9,0.5l-1.3-0.3l-1.5,0.7l-1.5-1.2l-1,0.5l-0.2-0.2l-1.4-1.7l-2-0.2
	l-0.4-1.1l-1.9-0.4l-0.3,0.9l-1.5-0.7l0.1-0.9l-2-0.3l-1.4-1.1l-1.3-2.2l0.1-1.2l-0.8-1.8l-1-1.2l0.7-0.9l-0.8-1.7l1.7-1l3.9-1.5
	l3.2-1.1l2.7,0.6l0.3,0.8L89.2,96.6L89.2,96.6z"/>
<path id="RO" class="st1" d="M110.8,117.7l0.9,0.4l1,1l1.1,1.4l1.9,2.1l0.3,1.5l-0.1,1.5l0.7,1.6l1.3,0.7l1.3-0.6l1.3,0.6l0.2,0.9
	l-1.3,0.7l-0.9-0.3l-0.2,4.3l-1.7-0.4l-2.2-1.3l-3.3,0.8l-1.3,0.9l-4.2-0.2l-2.2-0.5l-1,0.2l-1-1.4l-0.6-0.6l0.6-0.6l-0.7-0.4
	l-0.8,0.8l-1.7-1l-0.4-1.4l-1.8-0.8l-0.4-1.2l-1.7-1.3l2.2-0.7l1.4-2.4l1-2.3l1.6-0.7l1.1-0.8l1.8,0.4h1.8l1.4,0.9l0.9-0.6l2-0.3
	l0.6-0.8L110.8,117.7L110.8,117.7z"/>
<path id="RS" class="st1" d="M101.4,131.6l-0.6,0.8l0.4,1.3l1.5,1.5l-1,1.1l-0.3,1.1l0.3,0.4l-0.4,0.4l-1.3,0.1l-0.9,0.2l-0.2-0.3
	l0.3-0.4l0.2-0.9l-0.4,0.1l-0.6-0.7l-0.5-0.2l-0.4-0.6l-0.6-0.2l-0.4-0.5l-0.5,0.2l-0.3,1.2l-0.7,0.2l0.2-0.3l-1.2-0.7l-0.9-0.4
	l-0.5-0.5l-0.8-0.6l0.6-0.2l0.3-1.6l-1.5-1.4l0.6-1.5l-1,0.1l0.9-1.3l-0.9-1l-0.8-1.4l2-0.9l1.8,0.2l1.7,1.3l0.4,1.2l1.8,0.8
	l0.4,1.4l1.7,1l0.8-0.8l0.7,0.4l-0.6,0.6L101.4,131.6L101.4,131.6z"/>
<path id="SK" class="st1" d="M99.3,114.7l-0.7,0.9l-0.4,1.4l-0.6,0.3l-3-1l-0.9,0.2l-0.6,0.8l-1.3,0.4l-0.3-0.2l-1.3,0.5l-1,0.1
	l-0.2,0.7l-2.3,0.4l-1-0.3l-1.5-0.9l-0.4-1.2l0.2-0.4l0.3-0.8l1.2,0.1l0.9-0.3l0.1-0.3l0.5-0.2l0.1-0.8l0.6-0.2l0.4-0.6H89l0.2,0.2
	l1-0.5l1.5,1.2l1.5-0.7l1.3,0.3l1.9-0.5L99.3,114.7L99.3,114.7z"/>
<path id="SI" class="st1" d="M83.7,123.7l-2.2,0.9l-0.2,1.4l-0.9,0.4l0.1,0.9l-1.1-0.1l-1-0.6l-0.4,0.6l-2-0.1l0.6-0.3l-0.8-1.5
	l0.2-1.7l2.3,0.3l1.3-0.8l2.4-0.1l0.5-0.6l0.4,0.1L83.7,123.7L83.7,123.7z"/>
<path id="SE" class="st1" d="M93.8,59.1L90,60L88,62.2l0.7,1.9l-3.4,2.5L81,69.3l-1.2,4.5l2,2.3l2.7,1.8l-1.8,3.6l-2.5,0.8l-0.3,5.5
	L78.7,91l-3.1-0.3l-1.2,2.6l-3,0.2l-1-3.1l-2.5-3.8l-2.3-4.6l1-1.9l1.9-2.2l0.4-3.8L67,72.4l-0.6-4.3l1.3-3l2.4,0.1l0.7-1.2l-1-1.1
	l3.1-4.4l1.9-3.4l1.3-2.2h2.2l0.3-1.7l4.4,0.5l-0.1-2l1.4-0.1l3.3,1.5l4,2l1,4.7L93.8,59.1L93.8,59.1z"/>
<path id="SY" class="st0" d="M152.8,169.8l-5.4,3.8l-3.5-1.4h-0.1l0.3-0.6l-0.2-1.4l0.5-1.9l1.5-1.4l-0.7-1.4l-1.4-0.2l-0.6-2.7
	l0.6-1.5l0.7-0.8l0.7-0.8l-0.1-1.9l1,0.7l3.1-1l1.7,0.7h2.4l3.1-1.3l1.6,0.1l3.3-0.6l-1.2,2.2l-1.5,0.9l0.7,2.6l-0.6,4.3
	L152.8,169.8L152.8,169.8z"/>
<path id="TM" class="st0" d="M231.9,155.7l-0.9-0.1l-1.6-0.9l-0.2,1.2l-2.3,0.7l0.1,2.8l-1.4,1.1l-2.2,0.5l-0.2,1.6l-2.2,0.5
	l-3.3-1.4l-0.9-2.9l-2.2-0.2l-4-3.1l-2.4-0.4l-3.6-1.8l-2.2-0.3l-1.1,0.7l-2-0.1l-1.7,2l-2.4,0.7l-1-2.5l-0.3-3.7l-2.5-1.2l0.2-2.4
	l-1.9-0.2l-0.1-3l2.9,0.9l2.3-1.1l-2.6-2.2l-1.3-2l-2.1,0.9l0.3,2.6l-1.4-2.3l1-1.2l3.1-0.7l2.2,1l2.7,2.8l1.4-0.2l3.3-0.1l-0.9-1.8
	l2.1-1.2l1.9-2l4.4,1.9l1,2.8l1.3,0.7l3-0.2l1.2,0.7l2.4,3.6l3.9,2.4l2.3,1.7l3.5,1.7l4.3,1.5L231.9,155.7L231.9,155.7z"/>
<path id="TN" class="st1" d="M71.7,170.7l-0.1,2.7l-1.4,1l-0.9,1.2l-2,1.4l0.3,1.4l-0.2,1.5l-1.4,0.8l-1.4-6.3l-1.9-1.4l-0.1-0.8
	l-2.5-2.2l-0.3-2.6l1.8-2l0.6-2.9l-0.6-3.4l0.6-1.8l3.1-1.4l2,0.4v1.8l2.4-1.3l0.2,0.7l-1.4,1.8l0.1,1.6l1,0.9l-0.3,3.1l-1.9,1.8
	l0.7,1.9l1.5,0.1l0.8,1.7L71.7,170.7L71.7,170.7z"/>
<path class="st0" d="M156.5,141l3-0.2l3.1,1.8l0.7,1.2l0.1,1.7l2.3,0.9l1.3,1l-1.8,1l1.6,4l-0.4,1.1l2.1,2.8l-1.3,0.6l-1.2-0.9
	l-3.5-0.5l-1.2,0.6l-3.3,0.6l-1.6-0.1l-3.1,1.3H151l-1.7-0.7l-3.1,1l-1-0.7l0.1,1.9l-0.7,0.8l-0.7,0.8l-1.3-1.6l0.9-1.3l-1.8,0.3
	l-2.5-0.8l-1.8,2l-4.4,0.4l-2.6-1.9l-3.1-0.1l-0.6,1.4l-2,0.4l-3-1.9l-3.2,0.1l-2.1-3.5l-2.3-1.9l1.1-2.8l-2-1.7l2.8-3.4l4.4-0.1
	l0.9-2.7l5.5,0.5l3.1-2.3l3.2-1l4.7-0.1l5.4,2.5l4.4,1.4l3.2-0.6l2.5,0.3L156.5,141z"/>
<path class="st1" d="M112.4,143.5l0.7-0.4l0.6-2.2l-1.5-0.9l2.8-1.1l2.5,0.4l0.5,1.4l2.7,1.1l-0.4,0.9l-3.4,0.2l-1.1,1.1l-2.2,1.9
	l-1.1-1.6L112.4,143.5z"/>
<path id="UA" class="st1" d="M131.9,107.5l1.3,1.5l0.1,0.7l3.7,1.2l2-0.6l2,1.6l1.6-0.1l4.3,1.1l0.2,1l-0.7,1.8l1,1.9l-0.2,1.2
	l-2.7,0.2l-1.2,1l0.2,1.5l-2.2,0.3l-1.7,1.2l-2.5,0.2l-2.2,1.3l0.6,2.2l1.5,0.8l2.8-0.2l-0.3,1.3l-3,0.6l-3.5,2l-1.7-0.7l0.4-1.6
	l-3.3-1l0.4-0.7l2.5-1.2l-0.9-0.8l-4.5-0.9l-0.4-1.3l-2.5,0.4l-0.7,1.9l-1.8,2.5l-1.3-0.6l-1.3,0.6l-1.3-0.7l0.7-0.4l0.3-1.2
	l0.6-1.2l-0.3-0.6l0.6-0.3l0.3,0.5l1.7,0.1l0.7-0.3l-0.6-0.3l0.1-0.6l-1.1-0.9l-0.6-1.4l-1.1-0.6l0.1-1.2l-1.4-0.9l-1.1-0.2l-2.2-1
	l-1.8,0.3l-0.6,0.5h-1.2l-0.6,0.8l-2,0.3l-0.9,0.6l-1.4-0.9H103l-1.8-0.4l-1.1,0.8l-0.3-0.9l-1.7-0.9l0.4-1.4l0.7-0.9l0.6,0.2
	l-0.9-1.5l2.1-2.9l1.3-0.4l0.2-0.9l-1.8-3l1.3-0.2l1.3-0.9l2.1-0.1l2.7,0.3l3.1,0.8l2.2,0.1l1,0.5l0.9-0.6l0.8,0.8l2.4-0.2l1.2,0.3
	l-0.2-1.7l0.7-0.8l2.3-0.2l1,0.1l0.6-0.8l0.8,0.2l2.7-0.3l2.1,1.9l-0.5,0.7l0.4,1L131.9,107.5L131.9,107.5z"/>
<path id="UZ" class="st0" d="M239.8,138.5l0.9,0.3l-1.7,2.3l2.5,1.3l1.8-0.9l4,1.9l-2.9,2.5l-2.3-0.3l-1.2,0.1l-0.7-0.9l0.1-1.7
	l-3.6,0.8l-0.3,2.3l-0.8,1.9l-2.4-0.2l-0.3,1.5l2.3,0.8l1.3,2.6l-0.7,3.6l-2.4-0.8h-1.7l-0.4-2.2l-4.3-1.5l-3.5-1.7l-2.3-1.7
	l-3.9-2.4l-2.4-3.6l-1.2-0.7l-3,0.2l-1.3-0.7l-1-2.8l-4.4-1.9l-1.9,2l-2.1,1.2l0.9,1.8l-3.3,0.1l-3.4-12.9l6.6-2l0.6,0.3l5.1,2.5
	l2.7,1.3l3.6,3.1l3.1-0.5l4.7-0.3l4.2,2.5l0.8,3.5l1.4,0.1l1.4,2.9l3.7,0.1l1.3,1.7h1.1l0.5-2.5l3-2.4L239.8,138.5L239.8,138.5z"/>
<path id="XK" class="st1" d="M99.1,138.5l-0.7,0.2l-1.6,0.6l-0.1,0.7l-0.4-0.1l-0.3-1.3l-0.7-0.4l-0.7-0.9l0.4-0.8l0.7-0.2l0.3-1.2
	l0.5-0.2l0.4,0.5l0.6,0.2l0.4,0.6l0.5,0.2l0.6,0.7l0.4-0.1l-0.2,0.9l-0.3,0.4L99.1,138.5L99.1,138.5z"/>
<path id="NL" class="st1" d="M54.2,108.9l-1.5-0.8l-1.7-1.5l-2.5,0.7l-2-0.3l1.4-0.9l2.2-5l3.6-1.4l2.2,0.1l0.5,1.2l-0.5,3.1
	l-0.7,1.3h-1.6L54.2,108.9L54.2,108.9z"/>
<path id="PT" class="st1" d="M15.8,156.7l-1.2,0.9l-1.5-0.5l-1.5,0.4l0.5-2.8l-0.2-2.2l-1.3-0.3l-0.6-1.3l0.3-2.3l1.2-1.3l0.3-1.4
	l0.7-2.1v-1.5l-0.5-1.3l-0.1-1.2l1-0.9l1.2-0.5l0.7,1.7h1.7l0.5-0.4l1.7,0.1l0.7,1.8l-1.3,0.9l-0.2,2.8l-0.4,0.5l-0.2,1.7l-1.3,0.3
	l1.1,2.1l-0.9,2.3l1,1l-0.4,0.9l-1.1,1.3L15.8,156.7L15.8,156.7z"/>
<path class="st1" d="M97.4,96.9L92.5,97l-3.3-0.4l0.4-1.4l3.5-1.1l2.8,0.6l1.2,0.5L97,96.1L97.4,96.9z"/>
<path class="st2" d="M165.9,44.9l-1.2,0.2l-7.5-0.4l-1.3-1.3l-4.4-0.8l-1.1-1.6l1.9-0.6l-0.9-1.5l3-2.4l-2.2-0.3l3.7-2.5l-1.4-1.3
	l3.8-1.4l5.7-1.8l6.5-0.5l2.8-1l3.7-0.3l2.3,1l-0.7,0.8l-6.3,1.4l-5.5,1.3l-4.8,2.6l-1.5,2.8l-1.8,2.8l1.7,2.4L165.9,44.9z"/>
<path class="st1" d="M410.4,138.6l-0.8-0.6l-1-1.8l1.4-0.1l-2.2-4.1l-2.6-3l1.6-1.2l3.8,0.6l-0.3-3.4l-1.5-3.8l0.2-1.3l-0.7-3.1
	l-3.8,1l-1.4,1.3h-4.2l-3.3-3.2l-5-2.5l-5.5-1.1l-3.4-3.3l-2.5-2.1l-2.1-1.5l-4.3-3.4l-3.3-1.2l-4.7-1l-3.4,0.1l-2.8,0.6l-0.9,1.7
	l2,0.8l1.4,1.9l-0.7,1.1l0.1,3.6l1,1.5l-2.4,2.2l-4.1-1.3l-3.1,0.3l-2.2-1.2l-1.9-0.4l-2.4,2.4l-3.3,0.6l-2,0.9l-3.8-0.6h-2.5
	l-2.7-1.8l-3.6-1.6l-3-0.5l-3.1,0.4l-2.2,0.7l-4.7-1.4l-2-2.5l-3.7-0.9L306,106l-3.9-1.4l-0.7,3.5l2.2,2l-1.3,2.4l-4.4-0.9l-2.8-0.1
	l-2.7-1.6l-2.9-0.1l-2.9-1l-3.3,1.6l-3.7,2.9l-2.6,0.6l-0.9,0.3l-2.4-2.1l-3.3,0.5l-1.8-1.5l-2.2-0.7l-2.3-2l-1.8-0.6l-3.4,0.9
	l-4.6-1.9l-0.6,1.8l-10.1-8.6l-4.6-2.6l0.4-1.1l-5.1,3.2l-2.4,0.2l-0.6-1.8l-3.9-1.2l-2.4,0.8l-2.4-3.5l-5-0.7l-1.7,1.4l-6,1.3
	l-0.9,0.8l-9.4,1.2l-0.8,1.2l2.8,2.3l-2.2,0.9l0.8,0.9l-1.9,1.7l5.2,2.4l-0.1,1.6l-3.9-0.2l-0.4,1l-4-1.8l-4.3,0.1l-2.4,1.4
	l-3.6-1.4l-6.6-2.4l-4.2,0.1l-4.5,3.7l0.3,2.5l-3.3-2l-1.2,3.8l1,0.7l-0.9,2.6l2.9,2.3l2-0.1l2.4,2.3l0.1,1.8l1.5,0.6l-0.8,2
	l-2.5,0.6l-2,3.6l3.3,3.4l0.2,2.3l4,4.1l-1.4,1.4l-0.3,0.9l-1.3-0.3L171,140l-0.8-0.1l-2-0.8l-1.2-1.4l-2.8-0.7l-1.6,0.6l-0.7-0.7
	l-4.2-1.7l-4.3-0.6l-2.5-0.6l-0.2,0.4l-4.2-3l-3.4-1.3l-2.8-2l2-0.6l1.8-2.9l-1.8-1.4l3.8-1.4l-0.2-0.8l-2.4,0.6l-0.2-1.5l1.2-1
	l2.6-0.2l0.2-1.2l-1-1.9l0.7-1.8l-0.2-1l-4.3-1.1l-1.6,0.1l-2-1.6l-2,0.6l-3.7-1.2l-0.1-0.7l-1.3-1.5l-2.2-0.2l-0.4-1l0.5-0.7
	l-2.1-1.9L125,104l-0.8-0.2l-0.6,0.8l-1-0.1l-1.1-2.2l-0.8-1.1l0.4-0.3l2.2,0.1l0.9-0.7l-0.9-0.9l-1.9-0.6v-0.6l-1.2-0.6l-2.1-2.2
	l0.4-0.9l-0.6-1.6l-2.7-0.8l-1.3,0.4l-0.5-0.8l-2.9-0.8l-1.2-2l-0.6-1.6l-1.4-0.7l0.9-1l-1.3-3.1l1.4-1.9l-0.5-0.6l2.5-1.8l-3-1.5
	l4.4-4.1l1.9-1.9l0.5-1.6l-4.1-2.2l0.5-2.1l-2.7-2.3l0.9-2.6l-3.6-3.5l1.6-2.3l-4-2l-0.2-2.1l1.8-0.3l3.5-1.2l2-1l4.3,1.8l6.5,0.7
	l9.8,3.4l2.3,1.4l0.8,2l-2,1.6l-3.6,0.8l-11.2-2.3l-1.6,0.4l4.5,2.3l0.6,1.4l1,3.2l3.4,0.9l2.1,0.8l-0.1-1.5l-1.9-1.3l1.2-1.2l6.4,2
	L134,63l-2.4-2.3l4.5-3l2.3,0.2l2.5,1l0.6-2.1l-2.6-1.8l0.4-1.8l-2.4-1.9l6.8,1l2,1.7l-2.8,0.4l0.7,1.7l2.3,1l3.3-0.7l-0.2-1.9
	l4.3-1.5l6.8-2.5l1.8,0.1l-1.4,1.8l3,0.3l1.2-1l4.3-0.1l2.8-1.3l3.5,1.8l1.5-2l-3.3-1.7l0.7-1l7.2,0.9l3.6,0.9l10.3,3.4l0.6-1.5
	l-3.3-1.6L192,49l-2.9-0.3l-0.1-1.4l-2.6-2.3l-0.6-0.9l2.4-2.6l-0.3-2.6l1.2-0.6l6.3,0.8l1.6,1.6l-0.5,2.3l2,0.9l2.1,2l2.1,4.1
	l3.7,1.8l0.3,2l-1.9,4.3l2.9,0.4l0.3-1.1l2.1-0.8l-0.3-1.5l1-1.5l-2.4-1.7l-0.2-2l-2.7-0.2l-1.6-1.7l-0.2-3l-4.5-2.4l2.6-1.9l-2-2
	l1-0.1l2.3,1.5l1.2,2.8l2.8,0.6l-2.5-2.1l2.8-1.2l4.5-0.2l5.3,1.7l-3.8-2.4l-2.7-3l3.3-0.6l5.2,0.1l4.3-0.4l-3.1-1.4l0.7-1.8
	l2.3-0.1L226,31l5.1-0.4l-0.1-0.8l5.1-0.2l2.4,0.6l3-1.4l3.9,0.1l-0.8-1.2l0.5-1.1l3.4-1.1l4.6,0.9l-1.9,0.7l5.2,0.4l2.3,1.3l1-0.7
	l6,0.1l6.4,1.3l3,1l1.4,1.4l-1.3,0.8l-3.6,1.5l-0.6,0.8l3.1,0.4l4,0.7l1.3-0.6l3.2,1.8l0.1-0.7l2.9-0.4l7.5,0.4l2.1,1.3l9.6,0.4
	l-2.7-2.2l5.2,0.5l3.4-0.1l5.5,1.5l3.3,1.8l0.2,1.2l5.6,2.3l5,1.2l-1.7-3l5.2,1.3l2.8-0.8l5.4,0.9l0.6-0.8l4.2,0.4l-5.2-2.7l1.2-1.2
	l22.3,1.9l4.4,1.7l9,2.2l8.2-0.6l5.1,0.5l3.6,1.2l2.8,2.2l4,0.8l2.2-0.6l3.9-0.1l5.1,0.6l3.8-0.3l7.9,2.6l1.4-0.9l-4.7-1.9l-1-1.3
	l8.4,0.8l4.4-0.2l8.7,1.4l5.2,1.3l18.3,12.2l-1.1,1.4l-3.4-0.2l4.5,1.7l5,2.6l2.3,0.8l2.1,1.3l0.6,0.8l-5.5-0.7l-3.6,2.4l-1.7,0.4
	l-0.9,2.3l-1.1,2l0.9,1.5l-6.3-2.3l-3.4,2.5l-2.6-1.2l-0.8,1.4l-3.9-0.5l1.7,2.2l0.6,3.2l1.6,1.3l3.8,0.7l5,4.8l-2.3,0.2l1.9,2.8
	l2.6,1.4l-2.8,1.7l3,3.9l-3.1,0.8l2.5,3.4l-0.9,3.2l-3.1-2.4l-5.8-4.9l-8.9-7.5l-3.6-4.6l0.1-2l-1.5-1.5l3.1-0.7l-0.1-4.1l0.4-3.3
	l1.4-2.6l-3.6-4.5l-2.6,0.3l1.8,2.6l-2,3.5l-6.8-4l-5,1.1V79l4.3,2l-4.7,0.9l-3.5,0.3l-2.4-2.4l-4.4-0.5l-1.4,1.6l-8.3-0.6l-7.3,0.9
	l-1.9,6.5l-2.8,7.8l4.5,0.4l3.1,2.1l3.2,0.7l0.2-1.7l3.1,0.2l7.1,3.7l2.6,2.9l0.8,3.4l3,4.1l2.9,5.5l-0.6,5l0.7,2.4l-1.1,4.1l-1.2,4
	l-0.5,2l-2.5,2l-1.7,0.1l-2.9-1.7l-2.3,2.6L410.4,138.6z"/>
<path class="st2" d="M136.1,18.3l-2.4,0.3l-1.6,0.2v0.4l-2,0.4l-2.5-0.6l0.6-0.8l-4.3-0.1l3.5-0.4h2.9l0.8,0.6l0.7-0.6l1.5-0.4
	l3.2,0.5L136.1,18.3z"/>
<path id="ES" class="st1" d="M32.2,134.4l1.1,1.3l5.2,1.6l1-0.8l3.2,1.6l3.3-0.4l0.2,2l-2.7,2.3l-3.6,0.8l-0.3,1.2l-1.8,1.9
	l-1.1,2.9l1.1,2l-1.7,1.5l-0.7,2.3l-2.2,0.7l-2,2.7l-3.8,0.1l-2.8-0.1l-1.9,1.2l-1.2,1.3l-1.4-0.3l-1-1.2l-0.8-2l-2.7-0.6l-0.2-1.2
	l1.1-1.3l0.4-0.9l-1-1l0.9-2.3l-1.1-2.1l1.3-0.3l0.2-1.7l0.4-0.5l0.2-2.8l1.3-0.9l-0.7-1.8l-1.7-0.1l-0.5,0.4h-1.7l-0.7-1.7
	l-1.2,0.5l-1,0.9l0.3-2.5l-1.1-1.5l4.1-2.5l3.4,0.6h3.8l3,0.6l2.4-0.2L32.2,134.4L32.2,134.4z"/>
<path class="st1" d="M64.8,138.9l-0.8,2.7l-1.3-0.7l-0.7-2.3l0.5-1.3l1.8-1.3L64.8,138.9z"/>
<path class="st1" d="M53.1,113.2l0.6,0.3l0.8-0.1l1.3,0.9l4,0.7l-1.3,2.3l-0.2,2.5l-0.7,0.6l-1.3-0.3l0.1,0.9l-2,1.9v1.6l1.3-0.6
	l1,1.5l-0.1,1l0.8,1.3l-0.9,1l0.8,2.7l1.5,0.4l-0.3,1.5l-2.5,2l-5.6-0.9l-4.1,1.2l-0.3,2.1l-3.3,0.4l-3.2-1.6l-1,0.8l-5.2-1.6
	l-1.1-1.3l1.5-2.1l0.6-7l-2.8-3.6l-2-1.8l-4.2-1.3l-0.2-2.5l3.6-0.7l4.6,0.9l-0.8-3.9l2.6,1.5l6.3-2.6l0.8-2.8l2.3-0.7l0.4,1.2
	l1.2,0.1l1.3,1.4l1.9,1.6l1.4-0.3L53.1,113.2z"/>
<path class="st1" d="M138,163.9l0.1,0.1l0.2,0.2l-0.2-0.1h-0.2l-0.2,0.1l-0.2-0.2v-0.2l0.2-0.1l0.1,0.1L138,163.9z"/>
<path class="st1" d="M137.1,164.1L137.1,164.1l-0.1,0.2l-0.1,0.3l-0.1,0.1h-0.2l-0.1,0.1l-0.3,0.1l-0.1,0.1l-0.3,0.2l-0.2-0.1
	l-0.3,0.1l-0.2,0.2l-0.1-0.2l-0.2,0.1h-0.1l-0.2-0.2l-0.2,0.2h-0.3l-0.3-0.1l-0.3-0.1l-0.2-0.2l-0.2-0.3l-0.2-0.2l-0.1-0.4l-0.1-0.2
	l0.1-0.2l0.3,0.2l0.2-0.1l0.1-0.2l0.1-0.2l0.2-0.1l0.1,0.1l0.1-0.1h0.1l0.1,0.2l0.3,0.1l0.1,0.1h0.3l0.3-0.3l0.2,0.1l0.2-0.1
	l0.2,0.1l0.2,0.1l0.1-0.2h0.2l0.2,0.2v0.3l0.2-0.1l0.2,0.1l0.1-0.1L137.1,164.1z"/>
<path class="st1" d="M20.6,72.9l0.2,0.1H21l0.1,0.1v0.2l0.1,0.2l-0.1,0.1l-0.3-0.2l-0.1-0.2l-0.1-0.1l-0.1-0.2
	C20.5,72.9,20.6,72.9,20.6,72.9z"/>
<path class="st1" d="M20.8,72.1l0.4,0.1l0.1,0.1l-0.1,0.2l-0.1,0.1L21,72.3l-0.3-0.1L20.6,72L20.8,72.1z"/>
<path class="st1" d="M20.1,71.3l0.1,0.1h0.2v0.2h-0.2L20,71.7l-0.3-0.1l-0.1-0.1l-0.1-0.2l0.3-0.1l0.1-0.1L20.1,71.3l-0.2-0.1
	l0.1-0.4l0.3,0.1l0.2,0.3v0.1l0.3,0.1l0.2,0.3l0.2,0.1l-0.1,0.3l-0.3-0.2l-0.1-0.1l-0.1-0.1l-0.1-0.1l-0.1-0.1L20.1,71.3L20.1,71.3z
	"/>
<path class="st1" d="M22.1,70.9L22,70.8l0.2-0.1L22.1,70.9z"/>
<path class="st1" d="M20.8,71.2l-0.2-0.1l-0.2-0.2l-0.1-0.2l0.1-0.1l0.2-0.1h0.2l0.3,0.2L21.1,71l0.1,0.1l0.3,0.1v0.1l-0.2,0.2
	L20.8,71.2z"/>
<path class="st1" d="M22,70.9l-0.2,0.2L21.7,71h-0.2l0.1-0.2l-0.1-0.2l0.1-0.1l0.1,0.2L22,70.9z"/>
<path class="st1" d="M21.5,70.9h-0.1l-0.1-0.2l0.1-0.2l0.1,0.2L21.5,70.9z"/>
<path class="st1" d="M80.4,161.1l-0.1,0.2l-0.3-0.1l-0.3-0.2v-0.3l-0.1-0.1H80l0.2,0.2l0.1,0.1L80.4,161.1z"/>
<path class="st1" d="M79.5,160.5l-0.3-0.1v-0.1l0.2-0.1l0.2,0.2L79.5,160.5z"/>
<polygon id="_x30_" class="st1" points="44,115.5 44,115.5 44,115.5 "/>
<path id="GW_00000087371357201578306690000015846488772542158977_" class="st5" d="M34.3,152.2l-2.9,1.6l-1.6,4.4h-5l-1.9,1.2l0.1-5
	l2.6-4.1l0.5-1.8l0,0l0.8-2l-0.2-1.3l0.7-1l0.6-0.1l0.4-1.1l0.7-0.4l1.8,0.3l0.9,2l0.9,2.3l0.8,1.9L34.3,152.2z"/>
</svg>
