<?xml version="1.0" encoding="utf-8"?>
<!-- Generator: Adobe Illustrator 26.0.1, SVG Export Plug-In . SVG Version: 6.00 Build 0)  -->
<svg version="1.1" id="Layer_1" xmlns="http://www.w3.org/2000/svg" xmlns:xlink="http://www.w3.org/1999/xlink" x="0px" y="0px"
	 viewBox="0 0 300 200" style="enable-background:new 0 0 300 200;" xml:space="preserve">
<style type="text/css">
	.st0{fill:#FFFFFF;stroke:#D3D3D3;stroke-width:0.25;stroke-linecap:round;stroke-linejoin:round;}
	.st1{fill:#FFFFFF;stroke:#D3D3D3;stroke-width:0.25;stroke-miterlimit:10;}
</style>
<path id="AL" class="st0" d="M120.2,139.1l0.2,0.7l0.8-0.3l0.7,0.9l0.7,0.4l0.3,1.3l-0.3,1.2l0.6,1.5l1.3,0.8l0.1,0.9l-1,0.5
	l-0.1,1.2l-1.2,1.7l-0.5-0.2l-0.1-0.8l-1.7-1.2l-0.4-1.7l0.1-2.4l0.3-1l-0.5-0.6l-0.3-1.2L120.2,139.1L120.2,139.1z"/>
<path class="st0" d="M-111,483.4l-1.7-0.1h-2.8l-3.3-7.5l1.7,1.5l2.4,2.5l4.3,2l4,0.8l-0.4,1.7l-2.4,0.2L-111,483.4z"/>
<path class="st0" d="M-127.9,369.1l6.2,5.7l2.5,0.6l4,2.6l3.3,1.4l0.6,1.5l-2.3,5.4l3.2,0.9l3.5,0.6l2.3-0.6l2.4-2.8l0.2-3.1
	l1.4-0.7l1.8,2.1l0.2,2.8l-2.3,1.9l-1.8,1.4l-2.9,3.5l-3.3,4.8l-0.3,2.9l-0.2,3.6l0.7,3.5l-0.5,0.8l0.2,2.3l0.2,1.9l4.3,3l0.1,2.4
	l2.2,1.5l0.2,1.7l-1.8,4.5l-3.9,1.9l-5.6,0.7l-3.3-0.4l1.2,2.2l0.1,2.6l1,1.8l-1.4,1.3l-2.8,0.5l-3.1-1.3l-0.8,0.9l1.4,3.5l2.2,1
	l1.3-1.1l1.4,1.8l-2.3,1.1l-1.6,2.2l0.7,3.5l-0.1,1.9h-3l-1.7,1.8l0.1,2.6l3.6,2.5l2.9,0.7l0.1,3.1l-2.5,1.9l-0.3,4l-1.9,1.3
	l-0.5,1.6l2.3,3.6l2.5,1.9l-1.2-0.2l-2.7-0.6l-6.7-0.4l-1.9-2l-1-2.5l-1.7,0.2l-1.4-1.3l-1.7-3.6l1.5-1.5l0.1-2.2l-1-1.8l0.4-3
	l-0.6-4.6l-1-2l1-0.7l-0.8-1.3l-1.5-0.7l0.4-1.5l-1.7-1.3l-2-4l0.9-0.7l-1.8-4.3l-0.4-3.6l-0.1-3.1l1.4-1.3l-1.8-3.5l-0.9-3.2
	l1.7-2.3l-0.8-3l0.9-3.4l-0.8-3.3l-0.9-0.7l-2.7-6.1l1.2-3.6l-0.9-3.4l0.5-3.3l1.4-3.3l1.8-2.2l-1.1-1.4l0.4-1.2l-0.9-5.9l3.1-1.7
	l0.7-3.7l-0.5-0.9l2.2-3.2l4.1,0.9l2,2.5l0.9-2.9l3.5,0.2L-127.9,369.1z"/>
<path id="AM" class="st0" d="M199.1,152.9l-1,0.1l-1.5-2l-0.1-0.6h-1.3l-1-0.9l-0.6,0.1l-1.3-1l-2.3-0.9l-0.1-1.7l-0.7-1.2l3.9-0.6
	l0.8,0.9l1.2,0.6l-0.4,0.9l1.8,1.2l-0.6,1.2l1.4,0.9l1.4,0.6L199.1,152.9L199.1,152.9z"/>
<path class="st0" d="M481.8,434.8l2,1.2l1.8-0.5l2.7-0.7l1.5,0.2l-2.5,4.2l-1.8,1.2l-2.2,2.9l-0.3-1l-3.6,2.4l-0.4-0.2l-1.7-0.1
	l0.3-3l1.1-2.3l0.3-3.1l1.1-1.6L481.8,434.8z"/>
<path class="st0" d="M509.7,339.1l0.7,2.8l2.2-1.3l0.8,1.5l1.3,1.4l-0.6,1.6l0.1,3l0.1,1.8l0.7,0.4l0.2,3l-0.7,1.8l0.4,2.4l3,1.9
	l1.8,1.7l1.8,1.5l-0.6,0.9l1.3,2.2l0.3,3.9l1.4-0.8l0.8,1.5l0.9-0.5l-0.4,3.8l1.6,2.2l1,1.3l1.5,2.9v2.9l-0.6,2l-1,2.2l0.4,3
	l-1.4,3.1l-1.2,1.7l-2.1,3.1l-0.8,2l-1.7,2.5l-2.8,3.2l-3,1.8l-2.4,2.7l-1.8,1.8l-2.4,3l-2,1.8l-2.2,2.6l-1.7,2.4l-0.4,1.2l-2.4,1.2
	l-3.4,0.1l-3.5,1.5l-2.1,1.3l-2.7,1.5l-1.5-1.6l-1.4-0.6l1.4-1.8l-1.9,0.7l-4,2.5l-2-0.9l-1.3-0.6l-1.5-0.3l-2.3-1l-0.7-2.2l0.8-2.7
	l0.2-1.8l-0.8-1.4l-2.6-0.4l1.8-1.8l0.5-2.6l-2.6,2.4l-2.9,0.7l2.5-1.9l1.4-2l1.9-1.8l0.9-2.6l-3.8,3l-2.4,1.2l-2.4,2.8l-1.7-1.4
	l0.9-1.9l-0.8-2.6l-1-1.3l0.9-0.8l-2.9-2.2l-2.1-0.1l-2.2-1.8l-5.5,0.3l-4.4,1.3l-3.8,1.2l-2.8-0.2l-3.9,1.8l-2.9,0.8l-1.3,1.9
	l-1.7,1.4l-2.6,0.1l-2,0.3l-2.3-0.6l-2.3,0.4l-2.1,0.2l-2.5,1.9l-0.8-0.2l-1.9,1l-1.9,1.1l-2.1-0.1h-1.9l-2.3-2.3l-1.3-0.7l0.8-2
	l1.6-0.5l0.8-0.8l0.3-1.3l1.3-2.5l0.4-2.1l-0.4-3.6l0.1-2l0.8-2l-0.5-2.3l0.2-1l-0.9-1.4l0.4-2.8l-1-2.8l-0.1-1.5l1,1.5l-0.3-3.3
	l1.3,1l0.6,1.4l0.3-1.8l-0.9-2.8l-0.1-1.1l-0.4-1l0.7-2l0.8-0.9l0.7-1.8l0.1-2.1l1.7-2.5l-0.2,2.7l1.7-2.4l2.7-1.2l1.8-1.5l2.6-1.3
	l1.4-0.3l0.8,0.4l2.7-1.3l1.9-0.4l0.6-0.8l0.8-0.3l1.7,0.1l3.4-1l1.9-1.6l1.1-1.9l2.2-1.8l0.4-1.4l0.4-1.9l2.7-3l0.8,3.1l1.4-0.7
	l-0.8-1.7l1.3-1.7l1.2,0.8l0.8-2.7l1.9-1.8l1-1.4l1.6-0.6l0.2-1l1.3,0.4l0.2-0.9l1.4-0.5l1.5-0.5l2,1.7l1.4,2.1h1.9l1.9,0.3
	l-0.4-1.9l1.9-2.8l1.5-0.9l-0.3-0.9l1.6-2l2-1.3l1.5,0.4l2.7-0.7l0.2-1.8l-2.2-1.2l1.7-0.5l2,0.9l1.5,1.4l2.5,0.9l0.9-0.3l1.8,1.1
	l1.9-1l1.1,0.3l0.8-0.7l1.2,1.8l-1.1,1.9l-1.4,1.4l-1,0.1l0.2,1.4l-1.2,1.8l-1.4,1.8l0.1,1l2.1,2l2.2,1.1l1.4,1.2l1.8,2.1h0.9
	l1.4,0.9l0.3,1.1l2.7,1.2l2.3-1.2l1-1.9l0.9-1.6l0.7-1.9l1.4-2.8l-0.1-1.7l0.4-1l-0.1-2l0.8-2.7l0.7-0.7l-0.3-1.2l1-1.9l0.8-1.9
	l0.2-1l1.3-1.3l0.7,1.8l0.9,1.8l0.7,0.4l-0.1,1.5l0.9,1.8l-0.1,2L509.7,339.1z"/>
<path id="AT" class="st0" d="M110.6,118.6l-0.2,0.4l0.4,1.2l-0.1,1.4h-1.5l0.6,0.8l-0.7,2.2l-0.5,0.6l-2.4,0.1l-1.3,0.8l-2.3-0.3
	l-4-0.9l-0.7-1.2l-2.7,0.6l-0.3,0.7l-1.7-0.5l-1.4-0.1l-1.3-0.7l0.4-0.8l-0.1-0.6l0.8-0.2l1.5,0.9l0.3-0.9l2.4,0.2l1.9-0.6l1.3,0.1
	l0.9,0.7l0.2-0.6l-0.6-2.3l0.9-0.4l0.9-1.6l2.1,1.2l1.4-1.4l0.9-0.3l2.2,1l1.3-0.2L110.6,118.6L110.6,118.6z"/>
<path class="st0" d="M198.1,153l-2.1-0.5l-1.8-1.6l-0.7-1.4l0.6-0.1l1,0.9h1.3l0.1,0.6L198.1,153z"/>
<path class="st0" d="M201.5,143.6l1.4-1.4l1.9,1.8l2,2.5l1.4,0.2l1,0.9l-2.3,0.3l0.1,2.8l-0.2,1.2l-0.9,0.8l0.4,1.7l-0.7,0.2
	l-2.2-1.9l0.7-1.7l-1-1l-1,0.3l-2.9,2.6l-0.5-2.5l-1.4-0.6l-1.4-0.9l0.6-1.2l-1.8-1.2l0.4-0.9l-1.2-0.6l-0.8-0.9l0.6-0.6l2.3,1
	l1.6,0.2l0.3-0.4l-1.8-1.9l0.7-0.4l0.8,0.1l2.4,2.1l1.3,0.3L201.5,143.6z"/>
<path id="BE" class="st0" d="M80.7,111l-0.2,2.3l-0.7,0.1l-0.2,1.9l-2.4-1.6l-1.4,0.3l-1.9-1.6l-1.3-1.4l-1.2-0.1l-0.4-1.2l2.2-0.7
	l2,0.3l2.5-0.7l1.7,1.5L80.7,111L80.7,111z"/>
<path id="BD" class="st0" d="M348,212.1l0.3,2.5l-1.2-0.6l0.6,2.9l-1.2-1.8l-0.4-1.8l-0.8-1.7l-1.5-2l-2.9-0.2l0.5,1.5l-0.7,1.9
	l-1.4-0.7l-0.3,0.7l-0.9-0.4l-1.2-0.3l-0.9-2.9l-1.4-2.6l0.2-2.2l-2-0.9l0.5-1.3l1.7-1.3l-2.5-1.9l0.7-2.4l2.7,1.5l1.5,0.2l0.7,2.5
	l3,0.5l2.8-0.1l1.9,0.6l-0.9,3l-1.3,0.2l-0.7,2l2,1.9l0.2-2.3h0.8L348,212.1L348,212.1z"/>
<path id="BG" class="st0" d="M144.8,135.6l-1.2,1.4l-0.7,2.5l1.2,2l-2.5-0.4l-2.8,1.1l0.2,1.8l-2.5,0.3l-2.2-1.3l-2.2,1l-2.1-0.1
	l-0.4-2.3l-1.5-1.2l0.4-0.4l-0.3-0.4l0.3-1.1l1-1.1l-1.5-1.5l-0.4-1.3l0.6-0.8l1,1.4l1-0.2l2.2,0.5l4.2,0.2l1.3-0.9l3.3-0.8l2.2,1.3
	L144.8,135.6L144.8,135.6z"/>
<path id="BA" class="st0" d="M117.5,131.5l1-0.1l-0.6,1.5l1.5,1.4l-0.3,1.6l-0.6,0.2l-0.5,0.3l-0.9,0.8l-0.2,1.9l-2.7-1.3l-1.2-1.5
	l-1.2-0.8l-1.4-1.3l-0.7-1l-1.5-1.7l0.4-1.4l1.1,0.8l0.6-0.8l1.3-0.1l2.5,0.6l1.9-0.1L117.5,131.5L117.5,131.5z"/>
<path id="BY" class="st0" d="M149.8,103l-2.2-0.1l-0.4,0.3l0.8,1.1l1.1,2.2l-2.3,0.2l-0.7,0.8l0.2,1.7l-1.2-0.3l-2.4,0.2l-0.8-0.8
	l-0.9,0.6l-1-0.5l-2.2-0.1l-3.1-0.8l-2.7-0.3l-2.1,0.1l-1.3,0.9l-1.3,0.2l-0.3-1.5l-1-1.5l1.5-0.7l-0.2-1.3l-0.9-1.3l-0.3-1.5h2.6
	l2.7-1.3l0.3-1.9l2-1.1l-0.6-1.5l1.5-0.6l2.5-1.3l2.9,0.8l0.5,0.8l1.3-0.4l2.6,0.8l0.6,1.6l-0.4,0.9l2.1,2.2l1.2,0.6v0.6l1.9,0.6
	l0.9,0.9L149.8,103L149.8,103z"/>
<path id="BZ" class="st0" d="M-211.1,233.9h-0.9l0.7-4l0.4-2.8l0.1-0.6l0.4-0.2l0.5,0.4l1.4-2.2l0.6-0.1l-0.1,0.6h0.6l-0.2,1
	l-0.7,1.5l0.2,0.6l-0.5,1.3l0.2,0.3l-0.6,1.8l-0.7,0.9l-0.6,0.1L-211.1,233.9L-211.1,233.9z"/>
<path id="BO" class="st0" d="M-114.7,361.8l-0.2-1.1l-3-1.8l-2.9-0.1l-5.3,1l-1.2,3.1l0.1,1.9l-0.8,4.3l-0.6-0.8l-3.5-0.2l-0.9,2.9
	l-2-2.5l-4.1-0.9l-2.2,3.2l-2.2,0.5l-1.7-4.9l-2-4l0.6-3.4l-1.8-1.5l-0.7-2.5l-1.8-2.4l1.6-3.8l-1.6-3l0.6-1.2l-0.7-1.3l1-1.8
	l-0.2-3V336l0.6-1.2l-3-5.7l2.3,0.3l1.6-0.1l0.6-1l2.6-1.4l1.6-1.3l4-0.6l-0.2,2.6l0.5,1.4l-0.2,2.4l3.6,3.1l3.5,0.6l1.3,1.3
	l2.2,0.7l1.4,1h1.9l1.9,1l0.3,2l0.7,1l0.2,1.5l-0.9,0.1l1.5,4.1l5.9,0.2l-0.3,2l0.4,1.4l1.8,1l0.9,2.2l-0.3,2.8l-0.7,1.5l0.4,2
	L-114.7,361.8L-114.7,361.8z"/>
<path id="BR" class="st0" d="M-112.9,283.5l1.7,0.3l0.3-0.8l-0.6-0.7l0.3-1l1.3,0.3l1.5-0.4l1.8,0.8l1.4,0.7l0.9-0.9l0.7,0.1l0.4,1
	l1.5-0.2l1.2-1.4l1-2.6l1.9-3.3l1.1-0.2l0.7,2l1.7,6.2l1.7,0.6l0.1,2.4l-2.4,2.9l0.9,1l5.6,0.6l0.1,3.6l2.4-2.3l3.9,1.3l5.2,2.2
	l1.5,2l-0.5,2l3.6-1.1l6.1,1.9l4.7-0.1l4.6,2.9l4.1,4l2.4,1l2.6,0.2l1.2,1.1l1.1,4.5l0.6,2.2l-1.2,5.9l-1.5,2.3l-4.3,4.9l-1.9,4
	l-2.2,3l-0.8,0.1l-0.7,2.6l0.5,6.6l-0.6,5.5l-0.2,2.3l-0.9,1.4l-0.3,4.7l-2.9,4.6l0.2,3.8l-2.4,1.5l-0.6,2.2h-3.3l-4.7,1.3l-2,1.6
	l-3.3,1l-3.4,2.8l-2.3,3.5l-0.2,2.6l0.7,1.9l-0.2,3.6l-0.4,1.7l-1.9,2l-2.5,6.2l-2.2,2.8l-1.8,1.7l-0.8,3.4l-1.6,2l-1.2-2l1-1.7
	l-2.1-2.4l-2.6-2l-3.5-2.3l-1,0.1l-3.5-2.8l-1.9,0.4l3.3-4.8l2.9-3.5l1.8-1.4l2.3-1.9l-0.2-2.8l-1.8-2.1l-1.4,0.7l0.4-2l0.2-2.1
	l-0.2-2l-1.2-0.6l-1.1,0.6l-1.2-0.2l-0.4-1.3l-0.6-3.3l-0.7-1l-2.2-1l-1.2,0.7l-3.3-0.7l-0.2-4.8l-1.1-1.9l0.9-0.8l-0.4-2l0.7-1.5
	l0.3-2.8l-0.9-2.2l-1.8-1l-0.4-1.4l0.3-2l-5.9-0.2l-1.5-4.1l0.9-0.1l-0.2-1.5l-0.7-1l-0.3-2l-1.9-1h-1.9l-1.4-1l-2.2-0.7l-1.3-1.3
	l-3.5-0.6l-3.6-3.1l0.2-2.4l-0.5-1.4l0.2-2.6l-4,0.6l-1.6,1.3l-2.6,1.4l-0.6,1l-1.6,0.1l-2.3-0.3l-1.8,0.6l-1.4-0.4l-0.1-5.4l-2.4,2
	l-2.8-0.1l-1.3-1.9l-2.1-0.2l0.6-1.5l-1.8-2.2l-1.4-3.2l0.8-0.6l-0.1-1.5l1.9-1l-0.4-1.9l0.8-1.2l0.2-1.7l3.5-2.4l2.5-0.7l0.4-0.6
	l2.8,0.2l1.2-9.7l0.1-1.5l-0.5-2l-1.4-1.3l0.1-2.6l1.8-0.6l0.6,0.4l0.1-1.4l-1.8-0.4v-2.2l6.1,0.1l1-1.3l0.9,1.2l0.6,2.1l0.6-0.4
	l1.7,1.9l2.4-0.2l0.6-1.1l2.3-0.8l1.3-0.6l0.4-1.5l2.3-1l-0.2-0.8l-2.6-0.3l-0.4-2.3l0.2-2.4l-1.4-0.9l0.6-0.3l2.3,0.4l2.5,0.9
	l0.9-0.8l2.3-0.6l3.5-1.3l1.2-1.4l-0.4-1l1.7-0.1l0.7,0.8l-0.4,1.6l1.1,0.5l0.7,1.7l-0.9,1.3l-0.6,3l0.8,1.8l0.2,1.7l1.9,1.7
	l1.5,0.2l0.3-0.7l1-0.2l1.4-0.6l1-0.9l1.8,0.3L-112.9,283.5L-112.9,283.5z"/>
<path id="BN" class="st0" d="M421.2,274.2l1.2-1.3l2.5-2l-0.1,1.8l-0.1,2.3l-1.5-0.1l-0.6,1.2L421.2,274.2L421.2,274.2z"/>
<path id="BT" class="st0" d="M341.5,191.8l1.4,1.2l0.3,2.2l-2.5,0.1l-2.6-0.2l-1.8,0.6l-3-1.4l-0.2-0.7l1.4-2.6l1.4-0.9l2.4,0.8
	l1.6,0.1L341.5,191.8L341.5,191.8z"/>
<path id="BW" class="st0" d="M142.1,353.1l1,2.8l0.6,0.7l0.9,2l3.4,3.9l1.3,0.4l-0.1,1.3l0.8,2.3l2.4,0.6l1.9,1.6l-4.5,2.6l-2.9,2.6
	l-1.1,2.4l-1,1.3l-1.7,0.3l-0.7,1.7l-0.3,1.1l-2,0.8l-2.5-0.2l-1.4-1l-1.3-0.4l-1.5,0.8l-0.8,1.7l-1.5,1l-1.5,1.6l-2.2,0.4l-0.6-1.3
	l0.3-2.2l-1.7-3.4l-0.8-0.6l0.3-10.3l3-0.1l0.7-12.5l2.3-0.1l4.8-1.3l1.1,1.5l2-1.4h0.9l1.8-0.8L142.1,353.1L142.1,353.1z"/>
<path class="st0" d="M-112.8,125.6l1.9,0.5l2.6-0.1l-1.8,1.4l-1.1,0.2l-3-1.5l-0.3-1.2l1.4-1L-112.8,125.6z"/>
<path class="st0" d="M-104.9,116.8l-1.3,0.1l-3.2-1l-1.9-1.7l1-0.3l3.3,0.9l2.3,1.4L-104.9,116.8z"/>
<path class="st0" d="M-274.9,118.8l-1.7,0.5l-3.5-1.5v-1.2l-1.6-1.2l0.2-1l-2.4-0.6l0.3-1.9l0.8-0.8l2.3,0.7l1.3,0.6l2.3,0.3
	l0.1,1.2l0.2,1.6l1.8,1.4L-274.9,118.8z"/>
<path class="st0" d="M-87.6,111.4l-2.8,3l2.2-1.2l1.6,0.8l-1.3,1.2l2.1,0.9l1.5-0.8l2.4,1l-1.5,2.5l2.1-0.6l-0.2,1.8l0.3,2.2l-2,3.1
	l-1.3,0.1l-1.6-0.7l1.4-2.8l-0.7-0.4l-4,3l-1.7-0.1l2.4-1.7l-2.4-0.8l-3,0.2l-5.3-0.1l-0.1-1l2.1-1.3l-0.9-0.9l3-2.1l4.5-5.5
	l2.3-1.9l2.8-1.2l1.2,0.1l-0.8,0.9L-87.6,111.4z"/>
<path class="st0" d="M-286.4,99.6l0.8,0.4l2.8-0.3l-4,3.8l0.2,2.8h-1l-0.4-1.5l0.3-1.6l-0.4-1l0.7-1.5L-286.4,99.6z"/>
<path class="st0" d="M-129.9,73.3l-2,1.7l-0.9-0.3l-0.1-0.9l0.2-0.2l1.5-0.9l0.9,0.1L-129.9,73.3z"/>
<path class="st0" d="M-135.3,71.6l-4,1.8l-1.7-0.1v-0.8l2.8-1.5l3.3,0.1L-135.3,71.6z"/>
<path class="st0" d="M-137,62.3l-0.5,1.4l1.5-0.5l0.8,0.8l1.9,1.1l2.1,0.9l-0.8,1.5l1.9-0.2l1,1l-2.8,1l-3.3-0.8l-0.4-1.4l-3.5,1.7
	l-4.5,1.6l0.4-1.8l-3.5,0.3l3.1-1.5l2-2.5l2.8-2.8L-137,62.3z"/>
<path class="st0" d="M-112.2,57.7l-2.7,0.2l0.4-1.5l2.1-1.7l2.4-0.4l1.3,0.8l-0.8,1.3l-0.5,0.4L-112.2,57.7z"/>
<path class="st0" d="M-153.3,51.8l-2.3,1l-2.3-0.9l-2.2,0.3l-1.9-1.3l2.8-0.9l2.7-1.3l1.7,0.8l0.9,0.6l0.2,0.6L-153.3,51.8z"/>
<path class="st0" d="M-124.1,130.5l-1.2-2l1.6-4.7l-0.9-1l-2,0.6l-0.6-0.9l-3,2.6l-1.8,2.7l-1.5,1.6l-1.4,0.6l-0.9,0.2l-0.6,0.8
	h-5.1l-4.3,0.1l-1.5,0.6l-3.8,2.4V134l-0.5-0.2l-1.1,0.5l-1,0.7l-1-0.6l-2.6,0.4l-2.2,0.5l-1,0.4l-1.3,1.2l1,0.4l0.9-0.2h0.2l-0.2,1
	l-2.6,0.4l-1.5,0.4l-0.9,0.6l-1.4-0.3l-0.9,0.2l-1.6,1l-2.5,1.1l-1.5-0.2l1.1-1.2l2-1.9l2.3-1.2l0.6-1l0.5-1.7l2.1-1.9l0.5-2.2
	l0.6,2.2l2.1,0.5l1.3-1.2l-0.8-2.6l-0.5-1.1l-2.2-0.7l-2.1-0.4h-2.2l-1.9-0.4l-0.2-0.8l-0.8,0.5l-0.7-0.1l1-1.2l-1-0.4l1-1.3l-0.7-1
	l0.9-1l-2.9-0.5l-0.1-2l-0.4-0.4l-1.8-0.1l-2.3-0.7l-0.8,0.4l-1,0.8l-1.8,0.6l-1.7,1.4l-3-0.9l-2.4,0.4l-2.2-1l-2.5-0.6l-1.8-0.2
	l-0.6-0.6l0.5-1.9h-0.9l-0.7,1.3h-5.6h-9.4h-9.3h-8.2h-8.2h-8.1h-8.3h-2.6h-8.1h-7.8h-0.4l-3-3.4l-0.9-1.5l-3.9-1.4l0.7-3l2-2
	l-2.3-1.5l1.7-2.7l-1.2-2.4l1.4-1.8l2.8-1.6l1.8-2.1l-2.5-2.1l0.8-3.8l0.6-2.3l-0.9-1.5l-0.4-1.3l0.3-1.7l-3.6,1l-4.2,1.8l-0.2-2.1
	l-0.3-1.4l-1.5-0.9l-2.3-0.1l19.7-18.1l13.6-11.3l3.3,0.7l1.8,1.4l2,0.3l3.5-1.2l3.9-0.9l2.9,0.3l4.9-1.3l4.5-0.7l0.1,1.2l2.5-0.7
	l2.2-1.4l1.2,0.3l0.8,2.6l5.2-2l-2.2,2.3l3.3-0.5l1.8-0.8l2.5,0.2l2.2,1.2l4.1,1.1l2.6,0.5l2.4-0.2l1.6,1.5l-4.7,1.5l3.5,0.6
	l6.6-0.3l2.4-0.6l0.8,1.8l3.9-1.5l-1.2-1.3l2.5-1l2.9-0.2l2.2-0.3l1.2,0.7l0.8,1.6l2.8-0.2l2.9,1.4l4-0.5l3.3,0.1l1.3-1.9l2.5-0.5
	l2.7,1l-2.4,2.9l3.4-2.4l1.8,0.1l3.5-3l-0.9-1.8l-1.6-1.2l3-3.3l4.5-2.1l2.5,0.5l1.1,1.3l0.2,3.3l-3.2,1.4l3.7,0.6l-2.4,3l4.9-2.3
	l1.2,1.9l-2.4,2.2l0.7,2l4-2.2l3.6-2.6l2.6-3.3l3,0.2l3,0.4l2,1.5l-0.9,1.5l-2.8,1.6l0.5,1.6l-1.3,1.5l-6,2.2l-3.6,0.5l-1.8-0.9
	l-1.8,1.5l-4.1,2.6l-1.7,1.4l-4.3,2.1l-3.6,0.2l-2.8,1.3l-1.6,2.1l-3.1,0.4l-4.8,2.6l-5.2,3.6l-2.8,2.5l-2.7,3.8l3.3,0.6l-0.8,3
	l-0.4,2.5l4-0.7l3.9,1.4l1.8,1.3l0.9,1.5l2.7,0.9l2,1.4l4.2,0.2l2.6,0.3l-2,2.9l-0.9,3.4l0.1,3.8l2.4,3.3l2.6-1.1l3.1-3.5l1.3-5.3
	l-0.9-1.8l5-1.6l4.1-2.3l2.6-2.3l0.9-2.2l-0.2-2.8l-1.8-2.5l4.9-3.4l0.6-2.9l2.2-5l2.1-0.8l3.7,0.9l2.3,0.3l2.5-0.9l1.7,1.1l2,1.9
	l0.1,1.2l4.3,0.3l-1.4,2.7l-1.3,4.1l2.1,0.6l0.9,1.9l4.5-1.8l4.1-3.6l2.3-1.5l0.6,2.9l1.4,4.1l1.1,4l-1.9,2.1l2.6,1.9l1.6,1.9
	l3.8,0.9l1.3,1v2.9l1.9,0.4l0.6,1.3l-1.1,3.8l-2.4,1.3l-2.3,1.2l-4.9,1.2l-4.4,2.8l-4.7,0.6l-5.6-0.8h-4l-2.9,0.2l-3.1,2.5l-4.1,1.5
	l-5.6,4.5l-4.4,3.2l2.6-0.6l6-4.6l6.8-2.9l4.2-0.3l1.8,1.7l-3.4,2.3l-0.3,3.7l0.1,2.6l3.1,1.7l4.7-0.5l4-3.9l-0.6,2.5l1.4,1.3
	l-4.1,2.3l-6.8,2.1l-3.2,1.4l-4,2.5l-2-0.3l0.8-2.9l5.7-2.9l-4.5,0.1L-124.1,130.5z"/>
<path class="st0" d="M-182.9,40.1l-2.6,1.3l5.8-0.8l1.4,1.4l4-1.5l1,0.9l-1.2,2.8l2.4-1.2l1.5-2.9l2.4-0.4l1.7,0.4l1.2,1.2l-1.5,2.8
	l-1.3,2l2.3,1.4l2.8,1.4l-1.4,1.3l-3.9,0.3l0.4,1.1l-1.8,1.1l-3.7-0.4l-3.1-0.8l-2.8,0.2l-5.2,1l-6.2,0.4l-4.4,0.3l0.2-1.4l-2.3-0.8
	l-2.4,0.3l-0.3-2.4l1.8-0.3l4-0.5l3,0.2l3.4-0.6l-3.6-0.7l-5,0.2l-3.1-0.1v-1l6.5-1.2l-3.5,0.1l-3-0.8l4.3-2.2l2.9-1.2l7.8-1.7
	L-182.9,40.1z"/>
<path class="st0" d="M-161.1,39.3l-3.9,1.9l-1.3-2l1.2-0.4l3-0.1L-161.1,39.3z"/>
<path class="st0" d="M-101.1,40.2l-0.4,0.8l-2.3-0.1l-2.3-0.1l-2.7,0.4l-0.5-0.2l-1.2-1.5l0.9-1l1.2-0.2l4.6,0.3L-101.1,40.2z"/>
<path class="st0" d="M-123.1,40l0.2,1.8l4-2.3l6.5-1.2l1.3,2.9l-1.8,1.9l5-0.8l2.9-1.2l3.8,1.4l2,1.4l-0.6,1.3l4.5-0.7l1,1.9
	l4.6,1.2l1.2,1.2l0.5,2.8l-5,1.4l4.3,2l3.3,0.7l1.8,2.8l3.6,0.2l-1.8,2.2l-6,3.6l-2.2-1.3l-2.1-3l-3.3,0.4l-1.3,1.8l1.5,1.8l2.5,1.4
	l0.6,0.8l-0.1,3.1l-2,2.3l-2.6-0.9l-4.7-2.5l2,2.7L-98,73l-0.2,1.1l-6-1.3l-4.2-1.9l-2.1-1.5l1.3-0.9l-2.6-1.6l-2.6-1.5l-0.5,0.9
	l-7.2,0.5l-1.3-1l3-2.3l4.5-0.1l5.1-0.4l-0.1-1.1l1.7-1.5l4.9-3l0.2-1.4l-0.3-1l-2.6-1.5l-3.9-1l1.9-0.8l-1.1-1.9l-1.9-0.2l-1-1
	l-1.8,0.9l-4.4,0.4l-7.7-0.7l-4.1-0.9l-3.3-0.4l-1-1l3.5-1.3h-3.1l1.8-2.9l3.9-2.5l3.3-1.2l6.2-0.8L-123.1,40z"/>
<path class="st0" d="M-150.9,38.1l2,0.6l4.2-0.4l-0.3,0.8l-3.4,1.4l2.1,1.2l-2.9,2.6l-4.6,1.1l-1.9-0.2l-0.5-1.1l-3.3-2.2l0.9-0.9
	l4.1,0.3l-0.5-1.8L-150.9,38.1z"/>
<path class="st0" d="M-138.4,41.1l-4.3,2.2l-2.4-0.1l1-2.5l1.4-1.4l2.3-1.2l2.9-0.8l4.4,0.1l3.4,0.7l-5.6,2.5L-138.4,41.1z"/>
<path class="st0" d="M-202.4,45.1l-7.5,1.4l0.3-1.3l-3.3-1.5l2.4-1.2l4.1-2.1l4.2-1.9l0.2-1.7l7.7-0.4l2.3,0.6l5.2,0.2l1,0.8
	l0.9,1.2l-3.6,0.7l-7.7,2l-5.1,2L-202.4,45.1z"/>
<path class="st0" d="M-133.2,34.9l-2.3,1l-2.9-0.2l-1.8-0.7l2.5-1.2l3.8-0.8l0.8,1L-133.2,34.9z"/>
<path class="st0" d="M-138.1,30.1l0.1,1.3l-1.5,1.4l-3.2,2.1l-3.8,0.3l-1.8-0.4l1.9-1.6l-3.6,0.2l2.4-2.1l2.1,0.1l4.3-0.9l2.7,0.2
	L-138.1,30.1z"/>
<path class="st0" d="M-159.9,31.5l-0.4,0.9l2.4-0.4l2,0.1l-1.3,1.4l-2.8,1.3l-7.7,0.4l-6.8,1.2l-3.3,0.1l0.8-0.9l5.9-1.3l-9.9,0.3
	l-2.3-0.5l6.5-2.6l3-0.8l4.6,0.9l1.6,1.6l3.4,0.2l0.4-2.6l3.2-1l1.7,0.3L-159.9,31.5z"/>
<path class="st0" d="M-129.1,29.1l1.3,0.9h4.1l0.8,0.9l-1.5,1l1.7,0.6l0.7,0.7l2.7,0.1l2.8,0.2l3.9-0.6l4.5-0.3l3.2,0.2l1.3,1
	l-0.6,1.1l-2,0.8l-3.7,0.6l-2.5-0.3l-6.5,0.4l-4.4,0.1l-3.1-0.3l-4.7-0.9l0.9-1.5l1.2-1.3l-0.8-1.2l-3.9-0.3l-1.4-0.8l2.1-1.1
	H-129.1z"/>
<path class="st0" d="M-170.9,27.7l-3.2,2l-2.9,0.9l-2.1,0.1l-5.5,1.2l-3.9,0.4l-2-0.6l6.5-2l6.7-1.7l3,0.1L-170.9,27.7z"/>
<path class="st0" d="M-126.1,28l-1,0.1l-3.6-0.2l0.4-0.7l4,0.1l0.9,0.4L-126.1,28z"/>
<path class="st0" d="M-158.5,27.5l-4.9,0.8l-1.8-0.8l2.8-0.8l3.3-0.3l2.3,0.4L-158.5,27.5z"/>
<path class="st0" d="M-154.2,25.2l-3.1,0.5h-3.3l0.6-0.4l3.1-0.7l0.9,0.1L-154.2,25.2z"/>
<path class="st0" d="M-128.4,26.6l-3.6,0.6l-0.9-0.6l0.3-0.9l1.2-1l2.4,0.1l0.9,0.2l1.3,0.9L-128.4,26.6z"/>
<path class="st0" d="M-136,25.9l-0.6,1l-2.9-0.3l-2.2-0.8l-4.3-0.1l2.9-0.7l-1.5-0.6l1.2-1l3.4,0.3l4.1,0.9L-136,25.9z"/>
<path class="st0" d="M-106.1,22.6l1.5,0.8l-3.6,0.7l-5.9,1.9l-3.8,0.2l-3.8-0.3l-0.9-1l1.2-0.9l2.4-0.7h-3.6l-1.1-0.8l0.2-1l2.7-1
	l2.3-0.7l2.2-0.2l-0.2-0.6l4.6-0.1l0.9,1.2l2.6,0.5l2.6,0.5L-106.1,22.6z"/>
<path class="st0" d="M-62.4,14.8l4.8,0.2l3.7,0.3l2.9,0.6l-0.6,0.6l-5.4,0.9l-5,0.4l-2.2,0.5h4.1l-5.8,1.4l-3.8,0.7l-5.1,1.9
	l-4.5,0.4l-1.7,0.6l-6.2,0.2l2.4,0.3l-1.8,0.4l0.4,1.3l-2.8,0.9l-3.8,0.7l-1.9,1l-3.6,0.8l-0.3,0.6l3.6-0.1l-0.6,0.7l-7,1.6
	l-4.7-0.8l-6.5,0.4l-2.8-0.3l-3.8-0.2l1.2-1.3l4.4-0.6l1.1-1.9l1.4-0.2l4.1,1.1l-0.9-1.7l-2.7-0.5l2.8-1l4.2-0.6l1.5-0.9l-1.7-0.9
	l0.6-1.2l5.2,0.1l1.2,0.3l4-0.9l-4-0.3l-7,0.2l-2.4-0.8l-0.4-0.9l-1.4-0.7l0.6-0.7l3.3-0.4l2.3-0.1l4.1-0.3l3.8-0.8l2.2,0.1l1.3,0.6
	l2.8-1.1l2.9-0.3l3.6-0.2l5.7-0.1l0.7,0.2l5.7-0.3l3.9,0.1C-66.3,14.8-62.4,14.8-62.4,14.8z"/>
<path id="CH" class="st0" d="M90.6,122.3l0.1,0.6l-0.4,0.8l1.3,0.7l1.4,0.1l-0.2,1.4l-1.2,0.6l-2-0.5l-0.6,1.4l-1.3,0.1l-0.5-0.6
	l-1.5,1.2l-1.4,0.2l-1.2-0.8l-1-1.5l-1.3,0.6V125l2-1.9l-0.1-0.9l1.3,0.3l0.7-0.6H87l0.6-0.7L90.6,122.3L90.6,122.3z"/>
<path class="st0" d="M404.1,224.1l-2.4,1.7l-2.7-1.1l-0.6-3l1.2-1.6l3.2-1l1.8,0.1l0.9,1.4l-1.1,1.5L404.1,224.1z"/>
<path id="CO" class="st0" d="M-157.8,248.5l-2,0.6l-0.9,1.8l-1.3,1l-1,1.3l-0.5,2.5l-1,2.1l1.6,0.2l0.3,1.6l0.7,0.8l0.2,1.4
	l-0.4,1.3l0.1,0.8l0.8,0.3l0.7,1.2l4-0.3l1.8,0.4l2.1,3.1l1.3-0.4l2.3,0.2l1.8-0.4l1.1,0.6l-0.7,1.9l-0.7,1.2l-0.3,2.5l0.6,2.4
	l0.8,1l0.1,0.8l-1.6,1.8l1.1,0.8l0.8,1.3l0.9,3.5l-0.6,0.4l-0.6-2.1l-0.9-1.2l-1,1.3l-6.1-0.1v2.2l1.8,0.4l-0.1,1.4l-0.6-0.4
	l-1.8,0.6l-0.1,2.6l1.4,1.3l0.5,2l-0.1,1.5l-1.2,9.7l-1.6-1.9l-0.9-0.1l1.9-3.6l-2.4-1.7l-1.9,0.3l-1.2-0.6l-1.7,0.9l-2.3-0.5
	l-1.9-3.7l-1.4-0.9l-1-1.7l-2.1-1.7l-0.8,0.3l-1.3-0.8l-1.5-1.2l-0.9,0.6l-2.6-0.5l-0.8-1.5l-0.6,0.1l-3.1-2l-0.4-1.1l1.2-0.3
	l-0.1-1.8l0.8-1.3l1.5-0.2l1.4-2.2l1.2-1.9l-1.1-0.8l0.7-2l-0.6-3.3l0.7-0.9l-0.4-3l-1.2-1.9l0.5-1.7l1,0.3l0.6-1l-0.6-2.1l0.4-0.5
	l1.6,0.1l2.5-2.5l1.3-0.4l0.1-1.2l0.8-3l1.9-1.6l1.9-0.1l0.3-0.7l2.4,0.3l2.5-1.8l1.3-0.8l1.6-1.7l1.1,0.2l0.7,0.9L-157.8,248.5
	L-157.8,248.5z"/>
<path id="CR" class="st0" d="M-196.3,251.5l0.7,1.9l1.1,1.4l1.4,1.5l-1.2,0.3l-0.1,1.4l0.6,0.5l-0.5,0.4l0.1,0.6l-0.3,0.7l-0.2,0.7
	l-1.7-0.8l-0.6-0.8l0.4-0.6l-0.1-0.8l-0.8-0.8l-1.2-0.7l-1-0.4l-0.2-1l-0.8-0.6l0.1,1l-0.7,0.9l-0.7-1l-0.9-0.4l-0.4-0.7l0.1-1.1
	l0.5-1.1l-0.8-0.5l0.8-0.7l0.5-0.4l2,0.9l0.7-0.4l1,0.3l0.4,0.7l0.9,0.3L-196.3,251.5L-196.3,251.5z"/>
<path id="CU" class="st0" d="M-179.7,209.6l1,1.3l2.9-0.4l1,0.8l2.3,2.2l1.8,1.6l1-0.1l1.8,0.7l-0.3,1l2.2,0.2l2.2,1.4l-0.4,0.8
	l-2.1,0.4l-2.1,0.2l-2-0.3l-4.5,0.3l2.3-1.9l-1.2-0.9l-2-0.2l-0.9-1l-0.4-2l-1.8,0.1l-2.8-0.9l-0.8-0.8l-3.9-0.6l-1-0.7l1.3-0.9
	l-3-0.2l-2.4,1.8l-1.3,0.1l-0.6,0.9l-1.5,0.4l-1.3-0.4l1.8-1l0.8-1.3l1.5-0.8l1.7-0.7l2.4-0.3l0.8-0.4l2.6,0.3l2.4,0.1L-179.7,209.6
	L-179.7,209.6z"/>
<path id="CZ" class="st0" d="M104.6,109.9l1.4,1.1l2,0.3l-0.1,0.9l1.5,0.7l0.3-0.9l1.9,0.4l0.4,1.1l2,0.2l1.4,1.7h-0.8l-0.4,0.6
	l-0.6,0.2v0.8l-0.5,0.2l-0.1,0.3l-0.9,0.3l-1.2-0.1l-0.3,0.8l-1.3-0.7L108,118l-2.2-1l-0.9,0.3l-1.4,1.4l-2.1-1.2l-1.7-1.4l-1.4-0.8
	l-0.4-1.5l-0.6-1l1.9-0.7l0.9-0.9l1.9-0.7l0.6-0.7l0.7,0.4L104.6,109.9L104.6,109.9z"/>
<path id="DE" class="st0" d="M101.4,100.9l0.8,1.7l-0.7,0.9l1,1.2l0.8,1.8l-0.1,1.2l1.3,2.2l-1.2,0.3l-0.7-0.4l-0.6,0.7l-1.9,0.7
	l-0.9,0.9l-1.9,0.7l0.6,1l0.4,1.5l1.4,0.8l1.7,1.4l-0.9,1.6l-0.9,0.4l0.6,2.3l-0.2,0.6l-0.9-0.7l-1.3-0.1l-1.9,0.6l-2.4-0.2
	l-0.3,0.9l-1.5-0.9l-0.8,0.2l-3-1l-0.6,0.7H85l0.2-2.5l1.3-2.3l-4-0.7l-1.3-0.9l0.1-1.5l-0.6-0.8l0.2-2.3l-0.6-3.6h1.6l0.7-1.3
	l0.5-3.1l-0.5-1.2L83,101l2.2-0.2l0.6,0.7l1.7-1.7l-0.7-1.3l-0.2-1.9l2,0.4l1.6-0.5l0.2,1.3l2.7,0.8l0.1,1.2l2.6-0.7l1.4-0.9
	l3.1,1.3L101.4,100.9L101.4,100.9z"/>
<path class="st0" d="M97.1,94.8l-1.3,2.7l-2.9-1.9l-0.5-1.4l3.8-1.1L97.1,94.8z"/>
<path class="st0" d="M90,96.9l-1.6,0.5l-2-0.4l-1.2-1.9L85,91.7l0.3-0.9l0.7-1l2.2-0.2l0.9-0.9l2-0.9v1.7l-0.7,1.1l0.4,0.9l1.4,0.5
	l-0.6,1.3L90.8,93l-1.7,2.4L90,96.9z"/>
<path id="DO" class="st0" d="M-157.1,226.3l0.2-1l-0.7-1l0.8-0.6l0.4-1.4l-0.1-1.9l0.4-0.6h2.4l1.8,0.9l0.8-0.1l0.4,1.3l1.7-0.1
	l-0.2,1l1.4,0.2l1.4,1.3l-1.3,1.4l-1.4-0.8l-1.4,0.2l-1-0.2l-0.6,0.7l-1.2,0.2l-0.4-0.9l-1,0.5l-1.5,2.4l-0.7-0.6L-157.1,226.3
	L-157.1,226.3z"/>
<path id="EC" class="st0" d="M-171.8,290.8l0.4,2.7l-0.9,2.3l-3.4,3.8l-3.7,1.4l-1.9,3.1l-0.5,2.4l-1.7,1.5l-1.4-1.8l-1.3-0.4
	l-1.3,0.3l-0.2-1.3l0.9-0.8l-0.4-1.5l1.6-2.6l-0.7-1.5l-1.2,1.7l-1.9-1.6l0.6-1l-0.6-3.2l1.1-0.6l0.6-2.2l1.2-2.3l-0.2-1.4l1.7-0.8
	l2.2-1.4l3.1,2l0.6-0.1l0.8,1.5l2.6,0.5l0.9-0.6l1.5,1.2L-171.8,290.8L-171.8,290.8z"/>
<path id="EE" class="st0" d="M134.4,82l0.5,0.6l-1.4,1.9l1.3,3.1l-0.9,1l-2.1-0.1l-2.4-1.2l-1.2-0.4l-2.1,0.6l-0.1-1.9l-0.8,0.4
	l-1.8-1.2l-0.6-1.9l3-0.9l3.1-0.4l2.8,0.5L134.4,82L134.4,82z"/>
<path id="FI" class="st0" d="M129.1,51.9l0.2,2.1l4,2l-1.6,2.3l3.6,3.5l-0.9,2.6l2.7,2.3l-0.5,2.1l4.1,2.2l-0.5,1.6l-1.9,1.9
	l-4.4,4.1l-4.4,0.3l-4.2,1.2l-3.9,0.7l-1.8-1.8l-2.6-1l0.1-3.2l-1.7-2.9l0.9-1.9l1.8-1.9l4.9-3.4l1.4-0.7l-0.5-1.3l-3.6-1.4l-1-1.2
	l-1-4.7l-4-2l-3.3-1.5l1.2-0.8l2.8,1.5l2.9-0.1l2.6,0.7l1.9-1.3l0.6-2.2l3.3-1l3.2,1.2L129.1,51.9L129.1,51.9z"/>
<path class="st0" d="M47.7,100.6l-1.9-0.7l-1.7,0.1l0.7-1.8l-0.5-1.8l2.2-0.2l2.7,2.1L47.7,100.6z"/>
<path class="st0" d="M56.5,84.7l-2.8,3.6l2.6-0.4h2.8l-0.7,2.7l-2.4,3l2.7,0.2l0.2,0.4l2.3,3.9l1.8,0.6l1.6,3.9l0.8,1.3l3.3,0.6
	l-0.3,2.2l-1.3,1l1,1.8l-2.4,1.8l-3.6-0.1l-4.6,1l-1.2-0.7l-1.8,1.6l-2.5-0.4l-2,1.3l-1.4-0.7l4-3.6l2.4-0.8l-4.2-0.6l-0.7-1.4
	l2.8-1l-1.4-1.8l0.6-2.2l3.9,0.3l0.4-2l-1.7-2l-0.1-0.1l-3.1-0.6l-0.6-0.9l1-1.5l-0.8-0.9l-1.4,1.6l-0.1-3.3l-1.2-1.7l1-3.4l2.1-2.6
	l2,0.2L56.5,84.7z"/>
<path id="GE" class="st0" d="M190.7,139l2.8,0.7l1.2,1.4l2,0.8l-0.7,0.4l1.8,1.9l-0.3,0.4l-1.6-0.2l-2.3-1L193,144l-3.9,0.6
	l-3.1-1.8l-3,0.2l0.2-1.5l-1.2-2.4l-1.9-1.3l-1.7-0.4l-1.2-1l0.2-0.4l2.5,0.6l4.3,0.6l4.2,1.7l0.7,0.7L190.7,139L190.7,139z"/>
<path class="st0" d="M133.9,163.7l1.7,1.2l2.3-0.2l2.2,0.2v0.7l1.5-0.4l-0.3,1l-4.2,0.3l-0.1-0.6l-3.6-0.7L133.9,163.7z"/>
<path class="st0" d="M138.9,145.7l-1.8-0.1l-1.5-0.3l-3.4,0.9l2.2,2l-1.4,0.6h-1.6l-1.7-1.8l-0.5,0.8l0.9,2.1l1.6,1.7l-1,0.8
	l1.8,1.6l1.5,1l0.2,2l-2.8-0.9l1,1.8l-1.8,0.3l1.4,3.1l-1.9,0.1l-2.5-1.5l-1.3-2.8l-0.7-2.4l-1.3-1.6l-1.7-2l-0.3-1l1.2-1.7l0.1-1.2
	l0.9-0.5l-0.1-0.9l1.9-0.3l1-0.8l1.5,0.1l0.4-0.6l0.6-0.1l2.1,0.1l2.2-1l2.2,1.3l2.5-0.3l-0.2-1.8l1.5,0.9l-0.6,2.2L138.9,145.7z"/>
<path id="GT" class="st0" d="M-211,227.2l-0.4,2.8l-0.7,4h0.9l0.9,0.7l0.3-0.6l0.8,0.4l-1.5,1.4l-1.6,1l-0.3,0.7l0.2,0.7l-0.7,0.9
	l-0.8,0.2l0.2,0.4l-0.7,0.4l-1.1,0.9l-0.2,0.5l-1.5-0.6l-1.9-0.1l-1.3-0.7l-1.5-1.4l0.2-1l0.4-0.8l-0.4-0.7l1.8-2.9h4l0.2-1.2
	l-0.4-0.2l-0.3-0.8l-1-0.8l-1-1.2l1.4-0.1l0.3-2h2.9L-211,227.2L-211,227.2z"/>
<path id="GY" class="st0" d="M-114.5,269.1l-0.6,3.2l-1.9,0.9l0.2,0.8l-0.6,1.9l1.3,2.5h1l0.4,2l1.8,3.1l-0.7,0.2l-1.8-0.3l-1,0.9
	l-1.4,0.6l-1,0.2l-0.3,0.7l-1.5-0.2l-1.9-1.7l-0.2-1.7l-0.8-1.8l0.6-3l0.9-1.3l-0.7-1.7l-1.1-0.5l0.4-1.6l-0.7-0.8l-1.7,0.1l-2-2.6
	l0.9-1v-1.7l1.9-0.6l0.8-0.7l-1-1.3l0.3-1.3l2.6-2.1l2,1.3l1.8,2.3l0.1,1.9l1.2,0.1l1.7,1.7L-114.5,269.1L-114.5,269.1z"/>
<path id="HN" class="st0" d="M-193.6,237.1l-1-0.1l-0.5,0.5l-1.1,0.4h-0.8l-0.7,0.4l-0.6-0.1l-0.5-0.6l-0.3,0.1l-0.5,0.8l-0.3-0.1
	l-0.1,0.8l-1.2,0.9l-0.7,0.4l-0.3,0.4l-0.8-0.7l-0.8,0.9h-0.7l-0.7,0.1l-0.1,1.8h-0.4l-0.4,0.8l-1,0.2l-0.4-1.1l-0.9-0.3l0.4-1.4
	l-0.4-0.4l-0.7-0.2l-1.4,0.4l-0.1-0.4l-0.9-0.6l-0.6-0.7l-0.9-0.3l0.7-0.9l-0.2-0.7l0.3-0.7l1.6-1l1.5-1.4l0.3,0.2l0.7-0.6l0.9-0.1
	l0.3,0.3l0.5-0.2l1.4,0.3l1.4-0.1l1-0.4l0.4-0.4l0.9,0.2l0.7,0.2l0.8-0.1l0.7-0.3l1.4,0.5l0.4,0.1l0.9,0.7l0.8,0.8l1,0.6
	L-193.6,237.1L-193.6,237.1z"/>
<path id="HR" class="st0" d="M116.6,127.8l0.8,1.4l0.9,1l-0.9,1.3l-1.3-0.8l-1.9,0.1l-2.5-0.6l-1.3,0.1l-0.6,0.8l-1.1-0.8l-0.4,1.4
	l1.5,1.7l0.7,1l1.4,1.3l1.2,0.8l1.2,1.5l2.7,1.3l-0.3,0.6l-2.8-1.3l-1.8-1.3l-2.6-1l-2.6-2.5l0.6-0.3l-1.4-1.5l-0.2-1.2l-1.8-0.6
	l-0.8,1.5l-0.9-1.2v-1.2l0.1-0.1l2,0.1l0.4-0.6l1,0.6l1.1,0.1l-0.1-0.9l0.9-0.4l0.2-1.4l2.2-0.9l0.9,0.4l2.2,1.5l2.4,0.7
	L116.6,127.8L116.6,127.8z"/>
<path id="HT" class="st0" d="M-156.5,220.4l0.1,1.9l-0.4,1.4l-0.8,0.6l0.7,1l-0.2,1l-2-0.6l-1.5,0.2l-1.9-0.2l-1.5,0.7l-1.5-1.1
	l0.4-1.2l2.8,0.5l2.3,0.3l1.2-0.8l-1.3-1.5l0.2-1.4l-1.9-0.6l0.8-0.9l1.9,0.1L-156.5,220.4z"/>
<path id="HU" class="st0" d="M124.7,119.2l1.7,0.9l0.3,0.9l-1.6,0.7l-1,2.3l-1.4,2.4l-2.2,0.7l-1.8-0.2l-2,0.9l-1,0.6l-2.4-0.7
	l-2.2-1.5l-0.9-0.4l-0.7-1.2l-0.4-0.1l0.7-2.2l-0.6-0.8h1.5l0.1-1.4l1.5,0.9l1,0.3l2.3-0.4l0.2-0.7l1-0.1l1.3-0.5l0.3,0.2l1.3-0.4
	l0.6-0.8l0.9-0.2l3,1L124.7,119.2L124.7,119.2z"/>
<path class="st0" d="M440.1,326.6l-1.3,0.1l-3.9-2.5l3-0.7l1.5,1.1l1,1L440.1,326.6z"/>
<path class="st0" d="M453.8,321.8l0.3,0.7l-0.1,1l-2.3,2.6l-2.8,0.8l-0.3-0.4l0.4-1.2l1.5-2.2L453.8,321.8z"/>
<path class="st0" d="M432,319l1,0.9l2-0.3l0.7,1.5l-3.7,0.7l-2.2,0.5l-1.7-0.1l1.2-2h1.8L432,319z"/>
<path class="st0" d="M447.6,319l-0.6,2l-4.7,1l-4.1-0.4l0.1-1.3l2.5-0.7l1.9,1l2.1-0.3L447.6,319z"/>
<path class="st0" d="M403.3,314.3l6,0.4l0.8-1.5l5.7,1.7l1,2.3l4.6,0.7l3.7,2.1l-3.6,1.3l-3.4-1.4l-2.8,0.1l-3.2-0.3l-2.9-0.6
	l-3.5-1.4l-2.3-0.3l-1.3,0.4l-5.6-1.5l-0.4-1.5l-2.8-0.3l2.3-3.4l3.8,0.2l2.4,1.4l1.3,0.3L403.3,314.3z"/>
<path class="st0" d="M485,312.3l-1.8,2.4l-0.1-2.6l0.6-1.3l0.7-1.2l0.7,1L485,312.3z"/>
<path class="st0" d="M462.1,302.5l-1.2,1.2l-2.1-0.7l-0.6-1.5l3.1-0.2L462.1,302.5z"/>
<path class="st0" d="M472.3,301.2l1,2.7l-2.5-1.5l-2.6-0.3l-1.8,0.2l-2.2-0.1l0.8-1.9l3.9-0.2L472.3,301.2z"/>
<path class="st0" d="M505.3,299.5l-0.6,11.5l-0.9,11.6l-2.5-2.9l-3.1-0.7l-0.8,1l-4,0.1l1.5-2.9l2-1l-0.6-3.9l-1.3-2.9l-5.9-3
	l-2.5-0.3l-4.6-3.3l-1,1.8l-1.2,0.3l-0.6-1.3l0.1-1.5l-2.3-1.8l3.4-1.3l2.2,0.1l-0.2-0.9h-4.6l-1.2-2.1l-2.8-0.7l-1.3-1.8l4.2-0.8
	l1.6-1.2l5,1.4l0.5,1.3l0.7,5.7l3.1,2.1l2.8-3.8l3.6-2.1h2.8l2.7,1.2l2.3,1.3L505.3,299.5z"/>
<path class="st0" d="M456.1,285.2l-2.5,3.5l-2.4,0.7l-3-0.7l-5.2,0.2l-2.7,0.5l-0.4,2.7l2.8,3.1l1.7-1.6l5.9-1.2L450,294l-1.4-0.5
	l-1.4,2.1l-2.8,1.4l2.8,4.5l-0.6,1.2l2.6,4.1l-0.2,2.3l-1.7,1l-1.2-1.3l1.7-2.9l-3.1,1.4l-0.7-1l0.4-1.4l-2.2-2.1l0.4-3.4l-2.2,1
	l0.1,4.1l-0.1,5.1l-2,0.5l-1.3-1l1-3.3l-0.3-3.4l-1.3-0.1l-0.9-2.4l1.4-2.3l0.5-2.8l1.7-5.4l0.6-1.4l2.6-2.6l2.5,1l3.9,0.5l3.6-0.2
	l3.1-2.5L456.1,285.2z"/>
<path class="st0" d="M466.9,286.3l-0.2,3.1l-1.6-0.4l-0.5,2.2l1.3,1.9l-0.9,0.4l-1.2-2.3l-0.9-4.5l0.6-2.8l1-1.3l0.3,1.9l1.9,0.3
	L466.9,286.3z"/>
<path class="st0" d="M407.3,283.1l0.6,2.4l2.2,2l2-0.7l2,0.2l1.8-1.8l1.5-0.3l3,1l2.5-0.8l1.4-4.9l1.2-1.2l0.9-4h3.6l2.8,0.6
	l-1.7,3.2l2.4,3.3l-0.5,1.7l3.5,3.3l-3.7,0.4l-1,2.4l0.1,3.2l-3,2.4l-0.2,3.5l-1.4,5.4l-0.4-1.3l-3.6,1.6l-1.2-2.2l-2.2-0.2
	l-1.5-1.2l-3.8,1.3l-1-1.8l-2.1,0.2l-2.5-0.4l-0.3-4.7l-1.5-1l-1.5-3l-0.4-3.1l0.3-3.3L407.3,283.1z"/>
<path class="st0" d="M394.7,311l-3.4,0.1l-2.5-2.9l-3.9-2.9l-1.3-2.2l-2.3-2.9l-1.5-2.6l-2.3-5l-2.7-3l-0.9-3l-1.2-2.8l-2.9-2.2
	l-1.7-3l-2.4-2l-3.4-3.9l-0.3-1.8l2,0.2l4.9,0.7l2.9,3.5l2.5,2.4l1.8,1.4l3,3.8l3.2,0.1l2.7,2.4l1.9,3l2.4,1.7L388,293l1.8,1.2
	l1.1,0.1l0.5,2.5l1,1.9l2.3,0.3l1.4,2.3l-0.9,4.4L394.7,311z"/>
<path id="IE" class="st0" d="M47.7,100.6l0.4,2.4l-2.2,3l-4.9,2l-3.8-0.5l2.4-3.5l-1.2-3.4l3.7-2.6l2-1.5l0.5,1.8l-0.7,1.8l1.7-0.1
	L47.7,100.6L47.7,100.6z"/>
<path class="st0" d="M109.3,154.8l-0.9,2.8l0.5,1l-0.5,1.8l-2.3-1.3l-1.5-0.4l-4.1-1.8l0.3-1.8l3.4,0.3l3-0.4L109.3,154.8z"/>
<path class="st0" d="M90.5,144.3l1.8,2.5l-0.2,4.7l-1.3-0.2l-1.2,1.2l-1.1-0.9l-0.3-4.3l-0.7-2l1.6,0.2L90.5,144.3z"/>
<path class="st0" d="M102.5,125.8l-0.2,1.7l0.8,1.5l-2.3-0.6l-2.2,1.3l0.2,1.7l-0.3,1l1,1.8l2.8,1.8l1.6,2.9l3.4,2.8l2.2-0.1
	l0.8,0.8l-0.8,0.7l2.7,1.3l2.2,1l2.6,1.9l0.3,0.6l-0.4,1.3l-1.7-1.7l-2.5-0.6l-1,2.3l2.2,1.3l-0.2,1.8l-1.2,0.2l-1.4,3l-1.2,0.3
	l-0.1-1.1l0.5-1.9l0.6-0.8l-1.3-2l-1-1.8l-1.2-0.4l-1-1.5l-1.9-0.7l-1.3-1.4l-2.1-0.2l-2.4-1.5l-2.7-2.3l-2-2l-1-3.5l-1.4-0.4
	l-2.3-1.2l-1.3,0.4l-1.6,1.7l-1.2,0.2l0.3-1.5l-1.5-0.4l-0.8-2.7l0.9-1l-0.8-1.3l0.1-1l1.2,0.8l1.4-0.2l1.5-1.2l0.5,0.6l1.3-0.1
	l0.6-1.4l2.1,0.4l1.2-0.6l0.2-1.4l1.7,0.5l0.3-0.7l2.7-0.6l0.7,1.2L102.5,125.8z"/>
<path id="JM" class="st0" d="M-173.2,226.9l-1,0.6l-1.7-0.6l-1.6-1.3l0.4-0.8l1.3-0.2l0.7,0.1l2,0.3l1.5,0.8l0.4,1L-173.2,226.9
	L-173.2,226.9z"/>
<path class="st0" d="M462.8,169.2l0.9,1.2l-0.7,2.2l-1.7-1.2l-1.2,0.8l0.1,2l-2.4-1l-0.7-1.7l0.7-2.2l1.9,0.4l0.6-1.5L462.8,169.2z"
	/>
<path class="st0" d="M476.4,158.6l0.3,2.8l1.4,1.8l-0.3,2.5l-3,1.7l-5.1,0.2l-2.4,4.1l-2.6-1.4l-1.3-2.6l-4.7,0.8l-2.8,1.7l-3.4,0.1
	l4.1,2.6l0.4,6l-1.4,1.5l-2-1.4l-0.5-3.2l-2.3-1l-2.2-2.4l2.4-1.1l0.6-2.3l2.2-1.8l1.1-2.4l5.4-1l3.5,0.7V158l2.8,1.7l2.5-3.5
	l0.9-1.4l-0.6-4.3l-2.8-4l-0.1-2.2l2.7-0.7l4.5,4.9l1.5,2.8l-0.7,3.6L476.4,158.6z"/>
<path class="st0" d="M469.8,133.9l2.5,0.7l1-1.4l3.3,3.9l-3.5,0.9l-0.2,3.5l-6-2.4l0.9,3.8l-3.1,0.1l-2.6-3.5l-0.3-2.7l2.9-0.2
	l-2.4-4.9l-1-2.7l5.8,3.6L469.8,133.9z"/>
<path id="KH" class="st0" d="M397.3,239.9l1,2.4l0.1,4.3l-5,2.8l1.5,2.1l-3.3,0.3l-2.5,1.4l-2.7-0.5l-1.4-1.9l-1.9-3.6l-1.2-4.3
	l1.7-2.9l3.9-0.7l2.9,0.5l2.8,1.4l1.1-2.4L397.3,239.9L397.3,239.9z"/>
<path id="KR" class="st0" d="M432.1,156.5v-0.3l1.4,0.1l0.3-1.5l2-0.2l1.1-0.2v-0.8l4.6,4.1l1.8,2.3l1.9,4.1l-0.3,1.9l-2.4,0.7
	l-1.7,1.5l-2.5,0.3l-1.2-1.9l-0.6-2.6l-2.9-3.6l1.9-0.6L432.1,156.5L432.1,156.5z"/>
<path id="LA" class="st0" d="M397.3,239.9l-2.9-1.3l-1.1,2.4l-2.8-1.4l0.8-1.6l-0.2-3l-2.9-3.1l-0.7-3.5l-2.8-2.9l-2.4-0.2l-0.4,1.2
	l-1.8,0.1l-1-0.6l-2.9,2.1l-0.6-3.1l0.2-3.7l-2.1-0.2l-0.5-2.2l-1.5-1.1l0.4-1.3l2.3-2.3l0.4,0.8l1.7,0.1l-1.1-4.1l1.5-0.5l2.2,2.8
	l1.9,3.2h3.8l1.7,3.1l-1.8,0.9l-0.7,1.3l4,2.2l3.1,4.2l2.4,3.1l2.7,2.5l1.1,2.5L397.3,239.9L397.3,239.9z"/>
<path id="LB" class="st0" d="M170.5,172.3l-0.8,0.1l-0.2,0.6h-1l0.7-2.9l1.2-2.5v-0.1l1.4,0.2l0.7,1.4l-1.5,1.4L170.5,172.3
	L170.5,172.3z"/>
<path id="LK" class="st0" d="M317.8,268.3l-2.7,0.8l-1.6-2.8l-0.8-5.1l1.1-5.7l2.3,1.9l1.5,2.5l1.7,3.7l-0.3,3.7L317.8,268.3
	L317.8,268.3z"/>
<path id="LS" class="st0" d="M148.4,398.5l-1.1,0.4l-2-2.8l1.8-2.2l1.7-1.4l1.5-0.8l1.2,1.1l0.9,1.1l-1,1.7l-0.6,1.2l-1.7,0.6
	L148.4,398.5L148.4,398.5z"/>
<path id="LT" class="st0" d="M133,94.7l0.6,1.5l-2,1.1l-0.3,1.9l-2.7,1.3H126l-0.8-1l-1.4-0.4l-0.3-0.8l0.1-0.9l-1.2-0.5l-2.8-0.6
	l-0.9-2.8l2.8-1l4.4,0.2l2.5-0.3l0.5,0.7l1.4,0.2L133,94.7L133,94.7z"/>
<path id="LU" class="st0" d="M81,115.6l-0.8,0.1l-0.6-0.3l0.2-1.9l0.7-0.1l0.6,0.8L81,115.6z"/>
<path id="LV" class="st0" d="M133.9,88.6l1.4,0.7l0.6,1.6l1.2,2l-2.5,1.3l-1.5,0.6l-2.8-1.6l-1.4-0.2l-0.5-0.7l-2.5,0.3l-4.4-0.2
	l-2.8,1l-0.3-2.5l0.9-2.1l2.3-1.1l2.4,2.5l2-0.1l0.1-2.5l2.1-0.6l1.2,0.4l2.4,1.2L133.9,88.6L133.9,88.6z"/>
<path id="MD" class="st0" d="M143.1,129.3l-0.7-1.6l0.1-1.5l-0.3-1.5l-1.9-2.1l-1.1-1.4l-1-1l-0.9-0.4l0.6-0.5l1.8-0.3l2.2,1
	l1.1,0.2l1.4,0.9l-0.1,1.2l1.1,0.6l0.6,1.4l1.1,0.9l-0.1,0.6l0.6,0.3l-0.7,0.3l-1.7-0.1l-0.3-0.5l-0.6,0.3l0.3,0.6l-0.6,1.2
	l-0.3,1.2L143.1,129.3L143.1,129.3z"/>
<path id="MG" class="st0" d="M219.5,338.3l0.2,4.3l0.7,1.7L220,346l-0.7,1l-0.9-2l-0.7,1l0.4,2.6l-0.4,1.5l-0.9,0.8l-0.4,3l-1.5,4.1
	l-1.9,4.9l-2.4,6.7l-1.6,4.9l-1.7,4.1l-2.5,0.8l-2.8,1.5l-1.7-0.9l-2.3-1.3l-0.4-1.7v-3.1l-0.8-2.8l-0.1-2.6l0.7-2.5l1.4-0.6
	l0.1-1.2l1.6-2.7l0.4-2.3l-0.6-1.7l-0.4-2.3l-0.1-3.3l1.2-2l0.6-2.3l1.5-0.1l1.8-0.7l1.2-0.7l1.3-0.1l1.9-2l2.7-2.2l1-1.8l-0.3-1.5
	l1.3,0.4l1.8-2.4l0.2-2.2l1.1-1.6l1,1.5l0.8,1.5L219.5,338.3L219.5,338.3z"/>
<path id="MX" class="st0" d="M-232.4,198.7l1.2-0.1l-1.8,3.1l-1,2.5l-1,4.7l-0.6,1.7l0.2,1.9l0.7,1.8l0.2,2.7l1.7,2.6l0.4,2l0.9,1.7
	l3.1,0.9l1,1.5l2.9-1l2.4-0.3l2.4-0.7l2-0.6l2.2-1.4l1-2l0.7-3l0.7-1l2.2-0.9l3.4-0.8l2.7,0.2l1.9-0.3l0.7,0.8l-0.3,1.7l-1.9,2.1
	l-1,2.2l0.5,0.6l-0.7,1.5l-1.2,2.8l-0.7-0.9l-0.6,0.1l-0.6,0.1l-1.4,2.2l-0.5-0.4l-0.4,0.2l-0.1,0.6l-2.9-0.1h-2.9l-0.3,2l-1.4,0.1
	l1,1.2l1,0.8l0.3,0.8l0.4,0.2l-0.2,1.2h-4l-1.8,2.9l0.4,0.7l-0.4,0.8l-0.2,1l-3.1-3.8l-1.4-1.2l-2.4-0.9l-1.8,0.3l-2.6,1.3l-1.6,0.3
	l-2-0.9l-2.3-0.7l-2.6-1.6l-2.3-0.5l-3.3-1.7l-2.4-1.7l-0.6-0.9l-1.7-0.2l-3-1.1l-1-1.6l-3-2l-1.2-2.2l-0.4-1.8l1-0.3l-0.2-1
	l0.9-0.9l0.2-1.2l-0.8-1.6v-1.4l-0.7-1.8l-2-4l-2.5-2.8l-1-2.2l-2.3-1.4l-0.4-0.9l0.9-2.2l-1.3-0.8l-1.4-1.7l-0.1-2.4l-1.5-0.3
	l-1.3-1.8l-0.9-1.8l0.2-1.1l-0.8-2.6l-0.2-2.7l0.4-1.4l-1.7-1.4l-1,0.2l-1.3-0.9l-1,1.4l-0.1,1.7l-0.6,2.7l0.6,1.4l1.5,2.4l0.2,0.9
	l0.4,0.2l0.1,1.2l0.6-0.1v2.3l0.7,0.9l0.3,1.3l1.5,1.8l0.2,3.3l0.6,1.5l0.5,1.7l-0.2,1.9l1.4,0.1l0.9,1.6l0.8,1.6l-0.2,0.7l-1.5,1.3
	h-0.6l-0.4-2.2l-1.6-2l-1.9-1.7l-1.4-0.9l0.7-2.6l-0.1-1.9l-1.2-1.1l-1.7-1.5l-0.5,0.4l-0.6-0.9l-1.7-0.8l-1.2-2.1l0.3-0.2l1.2,0.2
	l1.5-1.3l0.6-1.6l-1.6-2.5l-1.4-0.9l-0.4-2.2l-0.3-2.4l-0.4-2.8l-0.1-3.2l3.5-0.3l3.9-0.4l-0.5,0.7l3.9,1.7l6,2.5h6h2.4l0.4-1.5h5.2
	l0.7,1.3l1.2,1.2l1.3,1.5l0.4,1.8l0.2,2l1.3,1l2.2,1l2.6-2.8l2.5-0.1l1.8,1.4l0.9,2.4l0.5,2.1l1.3,2l0.1,2.5l0.5,1.7l2.2,1.1
	L-232.4,198.7L-232.4,198.7z"/>
<path id="MK" class="st0" d="M129.9,143.8l-0.6,0.1l-0.4,0.6l-1.5-0.1l-1,0.8l-1.9,0.3l-1.3-0.8l-0.6-1.5l0.3-1.2l0.4,0.1l0.1-0.7
	l1.6-0.6l0.7-0.2l0.9-0.2l1.3-0.1l1.5,1.2L129.9,143.8L129.9,143.8z"/>
<path id="MM" class="st0" d="M374.4,214.3l-2.3,2.3l-0.4,1.3l-1.7,0.8l-1.5,1.5l-2.2,0.2l-0.8,3.8l-1.2,0.7l1.9,3.1l2.3,2.6l1.6,2.4
	l-0.8,3l-1,0.7l1,1.8l2.4,2.8l0.6,2l0.1,1.7l1.5,3.3l-1.4,3.3l-1.2,3.6l-0.5-2.6l0.7-2.7l-1.2-2.1l-0.1-3.9l-1.4-1.9l-1.5-4.2
	l-1.1-4.5l-1.7-3l-1.8,1.8l-3.2,2.5l-1.8-0.3l-2-0.8l0.5-4.4l-1.1-3.3l-2.9-4.1l0.2-1.3l-1.9-0.5L348,217l-0.6-2.9l1.2,0.6l-0.3-2.5
	l1.4-0.8l-0.6-1.5l0.6-1.2l-0.5-3.7l2.5,0.8l0.9-2.9l-0.2-1.7l1.1-3l-0.5-2l3.4-2.4l2.3,0.6l-0.8-2.2l0.9-0.7l-0.6-1.3l1.7-0.3
	l1.5,2.1l1.5,0.8l0.7,2.7l0.5,2.9l-2.3,3l0.4,4.2l3.1-0.6l1.3,3.3l2,0.7l-0.4,2.9l2.5,1.3l1.4,0.7l2.1-1L374.4,214.3L374.4,214.3z"
	/>
<path id="ME" class="st0" d="M121.7,138.7l-0.4,0.8l-0.8,0.3l-0.2-0.7l-1,1.7l0.3,1.2l-0.6-0.3l-0.9-1.2l-1.3-0.7l0.3-0.6l0.2-1.9
	l0.9-0.8l0.5-0.3l0.8,0.6l0.5,0.5l0.9,0.4l1.2,0.7L121.7,138.7L121.7,138.7z"/>
<path id="MN" class="st0" d="M345.6,113.4l2.2-0.7l3.1-0.4l3,0.5l3.6,1.6l2.7,1.8h2.5l3.8,0.6l2-0.9l3.3-0.6l2.4-2.4l1.9,0.4
	l2.2,1.2l3.1-0.3l0.3,2.6l0.2,3.5l1.5,1.4l1.3-0.4l3,0.6l1.4-1.3l2.9,1.1l4,2.4l0.4,1.2l-2.4-0.4l-3.8,0.4l-1.4,1l-0.7,2.3l-3.5,1.3
	l-1.8,1.9l-3.3-0.7l-1.8-0.3l-0.3,2.3l1.6,1.3l1,1.2l-1.3,1.2l-1.1,1.9l-2.7,1.2l-4.2,0.1l-4,1.2l-2.4,1.9l-1.8-1h-3.4l-5.2-2.2
	l-3.1-0.5l-3.5,0.5l-6.2-0.8l-3.1,0.1l-2.6-2.1l-2.8-3.2l-1.9-0.4l-4.4-2.2l-4-0.4l-3.6-0.6l-1.7-1.5l-0.8-4L313,122l-4.5-1.3
	l-3.1-1.8l-1.8-2.4l2.6-0.6l3.7-2.9l3.3-1.6l2.9,1l2.9,0.1l2.7,1.6l2.8,0.1l4.4,0.9l1.3-2.4l-2.2-2l0.7-3.5l3.9,1.4l2.7,0.4l3.7,0.9
	l2,2.5L345.6,113.4L345.6,113.4z"/>
<path class="st0" d="M383.2,268.2l0.8,0.3l1.9,2.2l1.4,2.4l0.3,2.4l-0.3,1.6l0.3,1.2l0.3,2.1l1.2,1l1.3,3.1v1.2l-2.2,0.3l-3-2.6
	l-3.8-2.8l-0.4-1.8l-1.9-2.4l-0.6-2.9l-1.2-1.9l0.2-2.6l-0.8-1.5l0.5-0.6l2.7,1.5l0.3,1.8l2-0.4L383.2,268.2z"/>
<path class="st0" d="M432.7,275.6l-2.8-0.6h-3.6l-0.9,4l-1.2,1.2l-1.4,4.9l-2.5,0.8l-3-1l-1.5,0.3L414,287l-2-0.2l-2,0.7l-2.2-2
	l-0.6-2.4l2.3,1.2l2.4-0.7l0.6-3l1.3-0.7l3.8-0.8l2.1-2.8l1.4-2.2l1.5,1.8l0.6-1.2l1.5,0.1l0.1-2.3l0.1-1.8l2.3-2.4l1.4-2.8l1.3-0.1
	l1.7,1.8l0.2,1.5l2.1,1l2.7,1l-0.1,1.4l-2.1,0.2l0.6,1.8L432.7,275.6z"/>
<path id="NA" class="st0" d="M135.8,352.4l2.5-0.8l2,0.2l1.2,0.8v0.3l-1.8,0.8h-0.9l-2,1.4l-1.1-1.5l-4.8,1.3l-2.3,0.1l-0.4,12.6
	l-3,0.1l-0.3,10.3l-0.6,13.1l-2.8,1.8l-1.6,0.3l-1.9-0.7l-1.4-0.3l-0.4-1.5l-1.1-1l-1.5,1.8l-2.2-2.7l-1.1-2.5l-0.6-3.5l-0.7-2.5
	l-0.9-5.5l0.1-4.3l-0.3-1.9l-1.2-1.5l-1.5-2.9l-1.5-4.3l-0.6-2.2l-2.4-3.5l-0.2-2.7l1.5-0.7l1.9-0.6l2,0.1l1.8,1.6l0.4-0.3l12.5-0.1
	l2.1,1.7l7.5,0.5L135.8,352.4L135.8,352.4z"/>
<path id="NI" class="st0" d="M-193.6,237.1l-0.3,0.4l-0.3,0.8l0.2,1.3l-0.8,1.2l-0.4,1.4l-0.3,1.5l0.1,0.9l-0.1,1.6l-0.5,0.3
	l-0.4,1.5l0.1,0.9l-0.7,0.9l0.1,0.9l0.4,0.6l-0.8,0.8l-0.9-0.3l-0.4-0.7l-1-0.3l-0.7,0.4l-2-0.9l-0.5,0.4l-1-1.1l-1.4-1.4l-0.6-1.2
	l-1.2-1.2l-1.4-1.6l0.4-0.6l0.4,0.6l0.3-0.2l1-0.2l0.4-0.8h0.4l0.1-1.8l0.7-0.1h0.7l0.8-0.9l0.8,0.7l0.3-0.4l0.7-0.4l1.2-0.9
	l0.1-0.8l0.3,0.1l0.5-0.8l0.3-0.1l0.5,0.6l0.6,0.1l0.7-0.4h0.8l1.1-0.4l0.5-0.5L-193.6,237.1L-193.6,237.1z"/>
<path class="st0" d="M134.4,50.5l-3.5,1.2l-1.8,0.3l0.4-2.1l-3.2-1.2l-3.3,1l-0.6,2.2l-1.9,1.3l-2.6-0.7l-2.9,0.1l-2.8-1.5l-1.2,0.8
	l-1.4,0.1l0.1,2l-4.4-0.5l-0.3,1.7h-2.2l-1.3,2.2l-1.9,3.4l-3.1,4.4l1,1.1l-0.7,1.2l-2.4-0.1l-1.3,3l0.6,4.3l1.7,1.6L95,80.1
	l-1.9,2.2l-1,1.9l-1.8-2L85.6,86l-3.4,0.8l-3.6-1.7l-1-3.5l-1.1-7.5l2.2-2l6.2-2.7l4.5-3.3l4-4.3l4.9-5.9l3.5-2.3l5.7-3.8l4.7-1.3
	l3.7,0.2l2.9-2.4l4.1,0.1l3.9-0.6l7.6,2.2l-2.7,0.8L134.4,50.5z"/>
<path class="st0" d="M113.9,27.1l-4.2,1l-3.8-0.6l1.2-0.7l-1.4-0.8l4-0.5l1,0.9L113.9,27.1z"/>
<path class="st0" d="M99.8,22.4l7,1.9l-4.7,1l-0.7,1.9l-1.7,0.5l-0.5,2.2L96.8,30l-4.7-1.6l1.7-0.9l-3.1-0.8l-4.3-2.2l-1.8-1.9
	l5.1-0.9l1.3,0.8h2.8l0.6-0.8l2.9-0.1L99.8,22.4z"/>
<path class="st0" d="M113.3,20.8l4.1,0.8l-2.4,1.3l-5.6,0.3l-5.9-0.4l-0.6-0.7h-2.8L97.7,21l5.8-0.7l3,0.6l1.7-0.7L113.3,20.8z"/>
<path id="NP" class="st0" d="M330.6,191.5l0.1,1.5l0.8,2.3l-0.1,1.4l-2.5,0.1l-3.8-0.8l-2.4-0.3l-2.1-1.8l-4.3-0.5l-4.3-2l-3.2-1.7
	l-3.2-1.3l0.5-3.3l1.5-1.7l1-0.8l2.7,1.1l3.5,2.3l1.8,0.5l1.4,1.7l2.5,0.7l2.8,1.6l3.6,0.8L330.6,191.5L330.6,191.5z"/>
<path id="PA" class="st0" d="M-177.2,259.6l-0.4,0.5l0.6,2.1l-0.6,1l-1-0.3l-0.5,1.7l-1-1l-0.6-1.9l0.8-0.9l-0.8-0.2l-0.5-1.2
	l-1.5-1l-1.3,0.2l-0.7,1.2l-1.3,0.9l-0.7,0.1l-0.3,0.8l1.4,1.9l-0.9,0.4l-0.4,0.5l-1.5,0.2l-0.4-2.2l-0.4,0.6l-1-0.2l-0.6-1.4
	l-1.3-0.3l-0.8-0.4h-1.3l-0.1,0.8l-0.3-0.6l0.2-0.7l0.3-0.7l-0.1-0.6l0.5-0.4l-0.6-0.5l0.1-1.4l1.2-0.3l1,1.3l-0.1,0.8l1.2,0.2
	l0.3-0.3l0.8,0.9l1.5-0.3l1.4-0.9l1.9-0.7l1.1-1l1.7,0.2l-0.1,0.3l1.7,0.1l1.3,0.7l1,1L-177.2,259.6L-177.2,259.6z"/>
<path id="PE" class="st0" d="M-154.4,305.5l-2.8-0.2l-0.4,0.6l-2.5,0.7l-3.5,2.4l-0.2,1.7l-0.8,1.2l0.4,1.9l-1.9,1l0.1,1.5l-0.8,0.6
	l1.4,3.2l1.8,2.2l-0.6,1.5l2.1,0.2l1.3,1.9l2.8,0.1l2.4-2l0.1,5.4l1.4,0.4l1.8-0.6l3,5.7l-0.6,1.2v2.5l0.2,3l-1,1.8l0.7,1.3
	l-0.6,1.2l1.6,3l-1.6,3.8l-0.6,1.8l-1.5,0.9l-3.3-2l-0.4-1.4l-6.5-3.5l-5.9-3.9l-2.6-2.2l-1.5-2.9l0.4-1l-3-4.6l-3.5-6.5l-3.3-7.1
	l-1.3-1.7l-1.1-2.6l-2.5-2.3l-2.3-1.4l0.9-1.5l-1.8-3.8l0.9-2.5l2.4-2.2l0.4,1.5l-0.9,0.8l0.2,1.3l1.3-0.3l1.3,0.4l1.4,1.8l1.7-1.5
	l0.5-2.4l1.9-3.1l3.7-1.4l3.4-3.8l0.9-2.3l-0.4-2.7l0.8-0.3l2.1,1.7l1,1.7l1.4,0.9l1.9,3.7l2.3,0.5l1.7-0.9l1.2,0.6l1.9-0.3l2.4,1.7
	l-1.9,3.6l0.9,0.1L-154.4,305.5L-154.4,305.5z"/>
<path class="st0" d="M458.4,260.4l0.5,2.4l0.3,2l-0.9,3.2l-1.4-3.6l-1.3,1.8l1.2,2.6l-0.8,1.7l-3.8-2l-1-2.6l0.8-1.7l-2.1-1.7
	L449,264l-1.4-0.2l-2.2,2l-0.6-1l1-3l1.9-1l1.6-1.3l1.2,1.6l2.3-0.9l0.4-1.6l2.2-0.1l-0.4-2.7l2.7,1.7l0.4,1.8L458.4,260.4z"/>
<path class="st0" d="M450.3,253.8l-1,1.2l-0.8,2.3l-0.9,1l-2.2-2.4l0.6-1l0.7-1l0.1-2.2l1.7-0.2l-0.3,2.4l2-3.4L450.3,253.8
	L450.3,253.8z"/>
<path class="st0" d="M433.6,257.2l-3.9,3.4l1.3-2.5l2.1-2.2l1.7-2.4l1.3-3.5l0.9,2.9l-1.9,1.9L433.6,257.2z"/>
<path class="st0" d="M443.2,248.1l2,1.1h1.9l0.1,1.4l-1.3,1.5l-1.9,1l-0.3-1.7l0.1-1.8L443.2,248.1z"/>
<path class="st0" d="M454.3,247.1l1.3,4l-2.5-0.9l0.2,1.2l1,2.2l-1.4,0.8l-0.3-2.5l-1-0.2l-0.7-2.2l1.8,0.3l-0.2-1.3l-2.2-2.7l3,0.1
	L454.3,247.1z"/>
<path class="st0" d="M441.6,243.9l-0.5,3.1l-1.5-1.8l-1.9-2.7l2.7,0.1L441.6,243.9z"/>
<path class="st0" d="M438,224.7l2.1,1l0.8-0.9l0.4,0.9l-0.2,1.5l1.4,2.5l-0.3,2.9l-1.6,1.2l-0.1,2.9l1.1,2.8l1.7,0.4l1.3-0.4
	l4.1,1.9l-0.1,1.9l1.2,0.9l-0.2,1.6l-2.6-1.7l-1.4-1.9l-0.7,1.3l-2.2-2.2l-2.8,0.6l-1.7-0.8l-0.1-1.5l0.9-0.9l-1-0.8l-0.2,1.3
	l-1.8-2l-0.7-1.5l-0.6-3.4l1.4,1.2l-0.6-5.6l0.4-3.2H438L438,224.7z"/>
<path class="st0" d="M550.9,314.4l-0.9,0.4l-1.3-1.4l-1.2-2.3l-0.4-2.7l0.4-0.3l0.3,1l0.9,0.8l1.3,2.2l1.4,1.2L550.9,314.4z"/>
<path class="st0" d="M539.1,309.7l-1.7,0.3l-0.6,1l-1.8,0.9l-1.7,0.8h-1.7l-2.5-1l-1.7-1l0.3-1.1l2.8,0.6l1.8-0.3l0.6-1.7l0.5-0.1
	l0.2,1.9l1.8-0.2l1-1.2l1.8-1.3l-0.2-2.1l1.9-0.1l0.6,0.6l-0.2,2L539.1,309.7z"/>
<path class="st0" d="M503.9,322.6l0.9-11.6l0.6-11.5l5.3,2.4l5.7,2l2,1.8l1.7,1.8l0.3,2.1l5.1,2.2l0.6,1.9l-2.9,0.4l0.5,2.4l2.6,2.3
	l1.7,3.8l1.8-0.1l-0.3,1.5l2.4,0.6l-1,0.7l3.1,1.5l-0.5,1l-2.1,0.2l-0.7-0.9l-2.6-0.4l-3.1-0.5l-2.2-2.3l-1.5-2l-1.4-3.1l-3.9-1.5
	l-2.7,1l-2,1.2l0.2,2.6l-2.5,1.2l-1.7-0.6L503.9,322.6z"/>
<path class="st0" d="M542.9,306.2l-1,0.9l-0.5-2.1l-0.6-1.3l-1.4-1.2l-1.7-1.5l-2.2-1l0.9-0.8l1.7,1l1,0.8l1.3,0.8l1.2,1.5l1.2,1.2
	L542.9,306.2z"/>
<path id="PL" class="st0" d="M115.7,98.7l3.3,0.4l4.9-0.1l1.4,0.4l0.8,1l0.3,1.5l0.9,1.3l0.2,1.3l-1.5,0.7l1,1.5l0.3,1.5l1.8,3
	l-0.2,0.9l-1.3,0.4l-2.1,2.9l0.9,1.5l-0.6-0.2l-2.8-1.3l-1.9,0.5l-1.3-0.3l-1.5,0.7l-1.5-1.2l-1,0.5l-0.2-0.2l-1.4-1.7l-2-0.2
	l-0.4-1.1l-1.9-0.4l-0.3,0.9l-1.5-0.7l0.1-0.9l-2-0.3l-1.4-1.1l-1.3-2.2l0.1-1.2l-0.8-1.8l-1-1.2l0.7-0.9l-0.8-1.7l1.7-1l3.9-1.5
	l3.2-1.1l2.7,0.6l0.3,0.8L115.7,98.7L115.7,98.7z"/>
<path id="KP" class="st0" d="M436.2,140.1l0.8,0.6l-1.2-0.2l-0.6,1.2l-0.2,1.2l1.5,2.5l-1,0.8l-0.2,0.6l-0.5,1l-1.6,0.6l-0.8,0.9
	l0.7,1.5l-0.2,0.4l1.4,0.6l2.4,1.5v0.8l-1.1,0.2l-2,0.2l-0.3,1.5l-1.4-0.1v0.3l-1.8-0.7l-0.1,0.7l-0.7,0.3l-0.4-0.7l-0.9-0.3l-1-0.6
	l0.1-1.5l0.5-0.4l-0.6-0.6l-0.2-1.9l-0.5-0.6l-1.9-0.4l-1.9-0.9l1.2-2.3l2.2-1.9l0.6-2.5l2,1.1l2.5,0.2l-1.5-1.9l3.5-1.5v-2
	L436.2,140.1L436.2,140.1z"/>
<path id="PY" class="st0" d="M-114.7,361.8l1.1,1.9l0.2,4.8l3.3,0.7l1.2-0.7l2.2,1l0.7,1l0.6,3.3l0.4,1.3l1.2,0.2l1.1-0.6l1.2,0.6
	l0.2,2l-0.2,2.1l-0.4,2l-0.2,3.1l-2.4,2.8l-2.3,0.6l-3.5-0.6l-3.2-0.9l2.3-5.4l-0.6-1.5l-3.3-1.4l-4-2.6l-2.5-0.6l-6.2-5.7l0.8-4.3
	l-0.1-1.9l1.2-3.1l5.3-1l2.9,0.1l3,1.8L-114.7,361.8L-114.7,361.8z"/>
<path id="PS" class="st0" d="M170.1,175.4l0.2,2.2l-0.3,1l-1.4,0.4l0.1-0.9l0.7-0.5l-0.8-0.4l0.4-2.3L170.1,175.4L170.1,175.4z"/>
<path id="RO" class="st0" d="M137.3,119.8l0.9,0.4l1,1l1.1,1.4l1.9,2.1l0.3,1.5l-0.1,1.5l0.7,1.6l1.3,0.7l1.3-0.6l1.3,0.6l0.2,0.9
	l-1.3,0.7l-0.9-0.3l-0.2,4.3l-1.7-0.4l-2.2-1.3l-3.3,0.8l-1.3,0.9l-4.2-0.2l-2.2-0.5l-1,0.2l-1-1.4l-0.6-0.6l0.6-0.6l-0.7-0.4
	l-0.8,0.8l-1.7-1l-0.4-1.4l-1.8-0.8l-0.4-1.2l-1.7-1.3l2.2-0.7l1.4-2.4l1-2.3l1.6-0.7l1.1-0.8l1.8,0.4h1.8l1.4,0.9l0.9-0.6l2-0.3
	l0.6-0.8L137.3,119.8L137.3,119.8L137.3,119.8z"/>
<path id="SV" class="st0" d="M-208.5,242.8l-0.4,0.8l-1.8-0.1l-1.1-0.3l-1.2-0.7l-1.7-0.2l-0.8-0.8l0.2-0.5l1.1-0.9l0.7-0.4
	l-0.2-0.4l0.8-0.2l0.9,0.3l0.6,0.7l0.9,0.6l0.1,0.4l1.4-0.4l0.7,0.2l0.4,0.4L-208.5,242.8L-208.5,242.8z"/>
<path id="RS" class="st0" d="M127.9,133.7l-0.6,0.8l0.4,1.3l1.5,1.5l-1,1.1l-0.3,1.1l0.3,0.4l-0.4,0.4l-1.3,0.1l-0.9,0.2l-0.2-0.3
	l0.3-0.4l0.2-0.9l-0.4,0.1l-0.6-0.7l-0.5-0.2l-0.4-0.6l-0.6-0.2l-0.4-0.5l-0.5,0.2l-0.3,1.2l-0.7,0.2l0.2-0.3l-1.2-0.7l-0.9-0.4
	l-0.5-0.5l-0.8-0.6l0.6-0.2l0.3-1.6l-1.5-1.4l0.6-1.5l-1,0.1l0.9-1.3l-0.9-1l-0.8-1.4l2-0.9l1.8,0.2l1.7,1.3l0.4,1.2l1.8,0.8
	l0.4,1.4l1.7,1l0.8-0.8l0.7,0.4l-0.6,0.6L127.9,133.7L127.9,133.7z"/>
<path id="SR" class="st0" d="M-104.5,269.9l-1.7,3l0.2,2.4l1.2,2.1l-0.6,1.5l-0.3,1.7l-0.8,1.5l-1.8-0.8l-1.5,0.4l-1.3-0.3l-0.3,1
	l0.6,0.7l-0.3,0.8l-1.7-0.3l-1.8-3.1l-0.4-2h-1l-1.3-2.5l0.6-1.9l-0.2-0.8l1.9-0.9l0.6-3.2l3.8,0.7l0.3-0.7l2.5-0.3L-104.5,269.9
	L-104.5,269.9z"/>
<path id="SK" class="st0" d="M125.8,116.8l-0.7,0.9l-0.4,1.4l-0.6,0.3l-3-1l-0.9,0.2l-0.6,0.8l-1.3,0.4l-0.3-0.2l-1.3,0.5l-1,0.1
	l-0.1,0.8l-2.3,0.4l-1-0.3l-1.5-0.9l-0.4-1.2l0.2-0.4l0.3-0.8l1.2,0.1l0.9-0.3l0.1-0.3l0.5-0.2l0.1-0.8l0.6-0.2l0.4-0.6h0.8l0.2,0.2
	l1-0.5l1.5,1.2l1.5-0.7l1.3,0.3l1.9-0.5L125.8,116.8L125.8,116.8z"/>
<path id="SI" class="st0" d="M110.2,125.8l-2.2,0.9l-0.2,1.4l-0.9,0.4l0.1,0.9l-1.1-0.1l-1-0.6l-0.4,0.6l-2-0.1l0.6-0.3l-0.8-1.5
	l0.2-1.7l2.3,0.3l1.3-0.8l2.4-0.1l0.5-0.6l0.4,0.1L110.2,125.8L110.2,125.8z"/>
<path id="SE" class="st0" d="M120.3,61.3l-3.9,0.9l-1.9,2.2l0.7,1.9l-3.4,2.5l-4.3,2.8l-1.2,4.5l2,2.3l2.7,1.8l-1.8,3.6l-2.5,0.8
	l-0.3,5.5l-1.2,3.1l-3.1-0.3l-1.2,2.6l-3,0.2l-1-3.1l-2.5-3.8l-2.3-4.6l1-1.9l1.9-2.2l0.4-3.8l-1.7-1.6l-0.6-4.3l1.3-3l2.4,0.1
	l0.7-1.2l-1-1.1l3.1-4.4l1.9-3.4l1.3-2.2h2.2l0.3-1.7l4.4,0.5l-0.1-2l1.4-0.1l3.3,1.5l4,2l1,4.7L120.3,61.3L120.3,61.3z"/>
<path id="SZ" class="st0" d="M160.9,381.8l0.3,1.6l0.2,1.6l-0.8,1.5l-1.8,0.4l-1.7-1.9l0.1-1.2l0.9-1.3l0.3-1l0.9-0.2L160.9,381.8
	L160.9,381.8z"/>
<path id="SY" class="st0" d="M179.3,171.9l-5.4,3.8l-3.5-1.4h-0.1l0.3-0.6l-0.2-1.4l0.5-1.9l1.5-1.4l-0.7-1.4l-1.4-0.2l-0.6-2.7
	l0.6-1.5l0.7-0.8l0.7-0.8l-0.1-1.9l1,0.7l3.1-1l1.7,0.7h2.4l3.1-1.3l1.6,0.1l3.3-0.6l-1.2,2.2l-1.5,0.9l0.7,2.6l-0.6,4.3
	L179.3,171.9L179.3,171.9z"/>
<path id="TH" class="st0" d="M390.5,239.7l-2.9-0.5l-3.9,0.7l-1.7,2.9l1.2,4.3l-2.9-1.7l-2.7,0.1l0.2-2.8h-2.7l0.1,3.9l-1.2,5.2
	l-0.8,3.1l0.4,2.5l2,0.1l1.5,3.3l0.7,3l1.9,2l1.9,0.4l1.7,1.9l-0.9,1.4l-2,0.4l-0.3-1.8l-2.7-1.5l-0.5,0.6l-1.3-1.3l-0.7-1.8l-1.8-2
	l-1.6-1.7l-0.4,2.1l-0.7-2l0.2-2.2l0.7-3.4l1.2-3.6l1.4-3.3l-1.5-3.3l-0.1-1.7l-0.6-2l-2.4-2.8l-1-1.8l1-0.7l0.8-3l-1.6-2.4
	l-2.3-2.6l-1.9-3.1l1.2-0.7l0.8-3.8l2.2-0.2l1.5-1.5l1.7-0.8l1.5,1.1l0.5,2.2l2.1,0.2l-0.2,3.9l0.6,3.2l2.9-2.1l1,0.6l1.8-0.1
	l0.4-1.2l2.4,0.2l2.8,2.9l0.7,3.5l2.9,3.1l0.2,3L390.5,239.7L390.5,239.7z"/>
<path id="TL" class="st0" d="M454.1,323.5l0.1-1l-0.3-0.7l0.4-0.8l2.7-0.8l2.2-0.2l1-0.4l1.2,0.4l-1.2,1l-3.4,1.5L454.1,323.5
	L454.1,323.5z"/>
<path class="st0" d="M183,143.1l3-0.2l3.1,1.8l0.7,1.2l0.1,1.7l2.3,0.9l1.3,1l-1.8,1l1.6,4l-0.4,1.1l2.1,2.8l-1.3,0.6l-1.2-0.9
	l-3.5-0.5l-1.2,0.6l-3.3,0.6l-1.6-0.1l-3.1,1.3h-2.4l-1.7-0.7l-3.1,1l-1-0.7l0.1,1.9l-0.7,0.8l-0.7,0.8l-1.3-1.6l0.9-1.3l-1.8,0.3
	l-2.5-0.8l-1.8,2l-4.4,0.4l-2.6-1.9l-3.1-0.1l-0.6,1.4l-2,0.4l-3-1.9l-3.2,0.1l-2.1-3.5l-2.3-1.9l1.1-2.8l-2-1.7l2.8-3.4l4.4-0.1
	l0.9-2.7l5.5,0.5l3.1-2.3l3.2-1l4.7-0.1l5.4,2.5l4.4,1.4l3.2-0.6l2.5,0.3L183,143.1z"/>
<path class="st0" d="M138.9,145.7l0.7-0.4l0.6-2.2l-1.5-0.9l2.8-1.1l2.5,0.4l0.5,1.4l2.7,1.1l-0.4,0.9l-3.4,0.2l-1.1,1.1l-2.2,1.9
	l-1.1-1.6L138.9,145.7z"/>
<path id="TW" class="st0" d="M434.8,209.5l-0.8,2.9l-2.2-3l-0.8-2.6l1-3.5l1.8-2.7l1.7,1l-0.1,2.2L434.8,209.5L434.8,209.5z"/>
<path id="UA" class="st0" d="M158.4,109.6l1.3,1.5l0.1,0.7l3.7,1.2l2-0.6l2,1.6l1.6-0.1l4.3,1.1l0.2,1l-0.7,1.8l1,1.9l-0.3,1.3
	l-2.7,0.2l-1.2,1l0.2,1.5l-2.2,0.3l-1.7,1.2l-2.5,0.2l-2.2,1.3l0.6,2.2l1.5,0.8l2.8-0.2l-0.3,1.3l-3,0.6l-3.5,2l-1.7-0.7l0.4-1.6
	l-3.3-1l0.4-0.7l2.5-1.2l-0.9-0.8l-4.5-0.9l-0.4-1.3l-2.5,0.4l-0.7,1.9l-1.8,2.5l-1.3-0.6l-1.3,0.6l-1.3-0.7l0.7-0.4l0.3-1.2
	l0.6-1.2l-0.3-0.6l0.6-0.3l0.3,0.5l1.7,0.1l0.7-0.3l-0.6-0.3l0.1-0.6l-1.1-0.9l-0.6-1.4l-1.1-0.6l0.1-1.2L143,120l-1.1-0.2l-2.2-1
	l-1.8,0.3l-0.6,0.5h-1.2l-0.6,0.8l-2,0.3l-0.9,0.6l-1.4-0.9h-1.8l-1.8-0.4l-1.1,0.8l-0.3-0.9l-1.7-0.9l0.4-1.4l0.7-0.9l0.6,0.2
	l-0.9-1.5l2.1-2.9l1.3-0.4l0.2-0.9l-1.8-3l1.3-0.2l1.3-0.9l2.1-0.1l2.7,0.3l3.1,0.8l2.2,0.1l1,0.5l0.9-0.6l0.8,0.8l2.4-0.2l1.2,0.3
	l-0.2-1.7l0.7-0.8l2.3-0.2l1,0.1l0.6-0.8l0.8,0.2l2.7-0.3l2.1,1.9l-0.5,0.7l0.4,1L158.4,109.6L158.4,109.6z"/>
<path id="UY" class="st0" d="M-94.2,409.9l-0.9,2.3l-3,1.9l-2.3-0.7l-1.5,0.4l-3-1.5l-2,0.1l-2.2-2l-0.2-2.3l0.5-0.8l-0.7-3.5
	l0.2-3.6l0.3-2.9l1.9-0.4l3.5,2.8l1-0.1l3.5,2.3l2.6,2l2.1,2.4l-1,1.7L-94.2,409.9L-94.2,409.9z"/>
<path id="VE" class="st0" d="M-122.3,260.6l-2.6,2.1l-0.3,1.3l1,1.3l-0.8,0.7l-1.9,0.6v1.7l-0.9,1l2,2.6l0.4,1l-1.2,1.4l-3.5,1.3
	l-2.3,0.6l-0.9,0.8l-2.5-0.9l-2.3-0.4l-0.6,0.3l1.4,0.9l-0.2,2.4l0.4,2.3l2.6,0.3l0.2,0.8l-2.3,1l-0.4,1.5l-1.3,0.6l-2.3,0.8
	l-0.6,1.1l-2.4,0.2l-1.7-1.9l-0.9-3.5l-0.8-1.3l-1.1-0.8l1.6-1.8l-0.1-0.8l-0.8-1l-0.6-2.4l0.3-2.5l0.7-1.2l0.7-1.9l-1.1-0.6
	l-1.8,0.4l-2.3-0.2l-1.3,0.4l-2.1-3.1l-1.8-0.4l-4,0.3l-0.7-1.2l-0.8-0.3l-0.1-0.8l0.4-1.3l-0.2-1.4l-0.7-0.8l-0.3-1.6l-1.6-0.2
	l1-2.1l0.5-2.5l1-1.3l1.3-1l0.9-1.8l2-0.6l-0.1,0.8l-1.9,0.4l0.9,1.6l-0.2,1.9l-1.5,2l1,2.8l1.4-0.2l0.8-2.6l-0.9-1.2v-2.7l4-1.4
	l-0.3-1.7l1.2-1.2l0.9,2.5l2.2,0.1l1.9,1.9l0.1,1.2h2.8l3.4-0.3l1.7,1.5l2.3,0.4l1.8-1.1l0.1-0.9l3.9-0.2l3.7-0.1l-2.7,1l1,1.7
	l2.5,0.2l2.3,1.8l0.4,2.8l1.6-0.1L-122.3,260.6L-122.3,260.6z"/>
<path id="VN" class="st0" d="M395.4,213.9l-3.6,3l-2,3.4l-0.3,2.5l2.9,3.7l3.6,4.6l3.1,2.2l2.3,2.8l2.2,6.6l0.2,6.2l-2.4,2.3
	l-3.4,2.3l-2.3,2.9l-3.6,3.3l-1.3-2.3l0.7-2.4l-2.4-2l2.5-1.4l3.3-0.3l-1.5-2.1l5-2.8l-0.1-4.3l-1-2.4l0.1-3.5l-1.1-2.5l-2.7-2.5
	l-2.4-3.1l-3.1-4.2l-4-2.2l0.7-1.3l1.8-0.9l-1.7-3.1h-3.8l-1.9-3.2l-2.2-2.8l1.5-0.9l2.4,0.1l2.9-0.4l2.3-1.9l1.7,1.3l2.9,0.7
	l-0.2,2l1.7,1.4L395.4,213.9L395.4,213.9z"/>
<path id="ZW" class="st0" d="M159.6,369.1l-1.6-0.4l-1,0.4l-1.5-0.6h-1.2l-1.9-1.6l-2.4-0.6l-0.8-2.3l0.1-1.3l-1.3-0.4l-3.4-3.9
	l-0.9-2l-0.6-0.7l-1-2.8l3.4,0.4l1,0.4l1-0.1l1.8-2.3l2.8-2.9l1.1-0.3l0.4-1.2l1.8-1.4l2.4-0.5l0.1,1.3l2.6-0.1l1.4,0.7l0.6,0.9
	l1.5,0.3l1.5,1.1l-0.2,4.5l-0.7,2.4l-0.2,2.6l0.4,1l-0.5,2.1l-0.4,0.3l-0.9,2.5L159.6,369.1L159.6,369.1z"/>
<path id="XK" class="st0" d="M125.6,140.6l-0.7,0.2l-1.6,0.6l-0.1,0.7l-0.4-0.1l-0.3-1.3l-0.7-0.4l-0.7-0.9l0.4-0.8l0.7-0.2l0.3-1.2
	l0.5-0.2l0.4,0.5l0.6,0.2l0.4,0.6l0.5,0.2l0.6,0.7l0.4-0.1l-0.2,0.9l-0.3,0.4L125.6,140.6L125.6,140.6z"/>
<path id="ZA" class="st0" d="M159.6,369.1l1.2,5l0.6,2.5l-0.8,3.9l0.2,1.3l-1.5-0.6l-0.9,0.2l-0.3,1l-0.9,1.3l-0.1,1.2l1.7,1.9
	l1.8-0.4l0.8-1.5h2.3l-0.9,2.6l-0.6,2.9l-0.9,1.6l-2.2,1.8l-0.6,0.5l-1.4,1.8l-1,1.8l-1.9,2.5l-3.7,3.6l-2.3,2.1l-2.4,1.7l-3.3,1.3
	l-1.5,0.2l-0.5,1l-1.8-0.6l-1.5,0.7l-3.1-0.7l-1.8,0.4l-1.2-0.2l-3.2,1.4l-2.5,0.6l-1.9,1.3l-1.3,0.1L121,412l-1-0.1l-1.2-1.6
	l-0.2,0.5l-0.3-0.9l0.2-2.1l-0.8-2.4l1-0.7l0.1-2.7l-1.8-3.3l-1.3-3v-0.1l-2-4.6l1.5-1.8l1.1,1l0.4,1.5l1.4,0.3l1.9,0.7l1.6-0.3
	l2.8-1.8l0.6-13.1l0.8,0.6l1.7,3.4l-0.3,2.2l0.6,1.3l2.2-0.4l1.5-1.6l1.5-1l0.8-1.7l1.5-0.8l1.3,0.4l1.4,1l2.5,0.2l2-0.8l0.3-1.1
	l0.7-1.7l1.7-0.3l1-1.3l1.1-2.4l2.9-2.7l4.5-2.6h1.2l1.5,0.6l1-0.4L159.6,369.1L159.6,369.1z M148.4,398.5l0.6-1.1l1.7-0.6l0.6-1.2
	l1-1.7l-0.9-1.1l-1.2-1.1l-1.5,0.8l-1.7,1.4l-1.8,2.2l2,2.8L148.4,398.5L148.4,398.5z"/>
<path class="st0" d="M560.9,435.2l-0.4,1.4l3.1-1.4l-0.3,1.5l-1.2,1.5l-2.3,1.6l-3.9,2.6l-2.6,1.4l-0.3,1.7l-2.2,0.1l-3.5,1.3
	l-2.6,2.3l-4.5,3.5l-3.5,1.5l-2.2,1l-2.5-0.1l-0.8-1.2l-2.8-0.2l0.6-1.3l3.6-2.5l6.3-3.5l2.4-0.7l3.1-1.3l3.9-1.8l3.1-1.8l3.3-2.6
	l1.7-0.9l1.9-2l3.2-1.6L560.9,435.2z"/>
<path class="st0" d="M576.9,418.4l-0.2,3.8l1.6-2.4l0.7,1l-1.3,2.6l1.6,1.2l1.8,0.3l2.6-1.3l1.2,0.4l-2.9,3.1l-2.3,2l-2.2-0.1
	l-1.5,1l-0.8,1.5l-0.9,0.6l-2.5,1.9l-3.3,2.4l-3.3,1.4l0.3-0.9l-0.8-0.5l3.8-2.9l0.5-2l-2.1-1.4l1-1.3l2.9-1.2l2.3-2.8l1.4-2.3
	l0.3-2.4l0.4-0.6l-0.5-1.5l-0.4-3.1l0.2-2.5l1.2-0.3l0.5,2l1.8,0.9L576.9,418.4z"/>
<path class="st0" d="M-118.8,475.8l3.3,7.5h2.8l1.7,0.1l-0.3,1.3l-1.8,1l-1.3-0.1l-1.7-0.3l-2.3-1l-3-0.5l-4.1-1.9l-3.5-1.8
	l-5.4-3.8l2.5,0.7l4.7,2.3l4,1.2l0.7-1.5l-0.2-2.3l1.9-1.4L-118.8,475.8z"/>
<path class="st0" d="M-141.2,370.9l0.5,0.9l-0.7,3.7l-3.1,1.7l0.9,5.9l-0.4,1.2l1.1,1.4l-1.8,2.2l-1.4,3.3l-0.5,3.3l0.9,3.4
	l-1.2,3.6l2.7,6.1l0.9,0.7l0.8,3.3l-0.9,3.4l0.8,3l-1.7,2.3l0.9,3.2l1.8,3.5l-1.4,1.3l0.1,3.1l0.4,3.6l1.8,4.3l-0.9,0.7l2,4l1.7,1.3
	l-0.4,1.5l1.5,0.7l0.8,1.3l-1,0.7l1,2l0.6,4.6l-0.4,3l1,1.8l-0.1,2.2l-1.5,1.5l1.7,3.6l1.4,1.3l1.7-0.2l1,2.5l1.9,2l6.7,0.4l2.7,0.6
	h-2.1l-0.9,0.8l-1.9,1.2l0.9,3.1l-1,0.1l-3.5-1l-4.1-2.4l-4.2-1.9l-1.8-2.2l-0.2-2l-2.3-2.3l-2.8-5.9l-0.1-3.3l1.9-2.6l-4.6-1l1.5-3
	l-1.1-5.8l3.6,1.2l-1-7.2l-2.2-0.9l0.6,4.4l-1.9-0.5l-0.8-5l-1.1-6.5l0.6-2.4l-1.8-3.4l-1.3-4l1.2-0.2l0.3-5.7l0.7-5.7l0.1-5.2
	l-1.8-5.4l0.3-2.9l-1.2-4.4l1-4.3l-0.5-6.8V374l0.1-7.9l-0.8-5.8l-1.2-5l1.5-0.9l0.6-1.8l1.8,2.4l0.7,2.5l1.8,1.5l-0.6,3.4l2,4
	l1.7,4.9L-141.2,370.9z"/>
<path id="NL" class="st0" d="M80.7,111l-1.5-0.8l-1.7-1.5l-2.5,0.7l-2-0.3l1.4-0.9l2.2-5l3.6-1.4l2.2,0.1l0.5,1.2l-0.5,3.1l-0.7,1.3
	h-1.6L80.7,111L80.7,111z"/>
<path id="PT" class="st0" d="M42.3,158.8l-1.2,0.9l-1.5-0.5l-1.5,0.4l0.5-2.8l-0.2-2.2l-1.3-0.3l-0.6-1.3l0.3-2.3l1.2-1.3l0.3-1.4
	l0.7-2.1v-1.5l-0.5-1.3l-0.1-1.2l1-0.9l1.2-0.5l0.7,1.7H43l0.5-0.4l1.7,0.1l0.7,1.8l-1.3,0.9l-0.2,2.8l-0.4,0.5l-0.2,1.7l-1.3,0.3
	l1.1,2.1l-0.9,2.3l1,1l-0.4,0.9l-1.1,1.3L42.3,158.8L42.3,158.8z"/>
<path class="st0" d="M452.3,111.2l7.6,6.1l-4.9-1.1l2,5l5.3,3.5l1.7,2.4l-3.6-2.1l0.1,2.7l-2.6-2.9l-2.1-3.4l-3.1-3.7l-1.3-2.6
	l-3.5-4.5l-4.4-3.4l-3.8-4.6l1-1.5l-2.4-1.5l0.7-0.5l2.7,2.2l3.8,3.3l2.9,3.4L452.3,111.2z"/>
<path class="st0" d="M123.9,99l-4.9,0.1l-3.3-0.4l0.4-1.4l3.5-1.1l2.8,0.6l1.2,0.5l-0.1,0.9L123.9,99z"/>
<path class="st0" d="M374.4,39.8l-3.3,0.1l-4.9-0.3l-0.6-0.2l0.4-1.1l2.3-0.3l4.6,1.1L374.4,39.8z"/>
<path class="st0" d="M381.4,34.6l-0.6,1.1l-3.8-0.2l-5.7-1.1l-1-0.9l4.6,0.4L381.4,34.6z"/>
<path class="st0" d="M367.3,33.3l1.7,2.1l-7.9-0.1l-2.5,0.7l-6.9-1.8l-1.9-1.9l1.9-0.5l5.6,0.1L367.3,33.3z"/>
<path class="st0" d="M192.4,47.1l-1.2,0.2l-7.5-0.4l-1.3-1.3l-4.4-0.8l-1.1-1.6l1.9-0.6l-0.9-1.5l3-2.4l-2.2-0.3l3.7-2.5l-1.4-1.3
	l3.8-1.4l5.7-1.8l6.5-0.5l2.8-1l3.7-0.3l2.3,1l-0.7,0.8l-6.3,1.4l-5.5,1.3l-4.8,2.6l-1.5,2.8l-1.8,2.8l1.7,2.4L192.4,47.1z"/>
<path class="st0" d="M226.8,105.5l-0.8-0.9l2.2-0.9l-2.8-2.3l0.8-1.2l9.4-1.2l0.9-0.8l1.9-0.4c2.7-1.3,5.5-2.3,8.3-3.5
	c0.5-1.2,1.1-2.3,1.6-3.4c0.4-0.7,0.8-1.5,1.1-2.3c0-0.3-0.1-0.6-0.1-0.8c-0.6-6.6-0.8-13.2-1.9-19.6c-0.4-0.5-0.9-1-1.3-1.4
	c-2.9-1.7-5.7-3.7-8.8-3.7c-2,0-3.4-1.1-4.2-2.5l-1.4-0.2l0.8-1.8c-0.2-1.3,0.1-2.7,0.9-3.7c0,0,0-0.1,0-0.1l-0.1-0.7l-3.7-1.8
	l-2.1-4.1l-2.1-2l-2-0.9l0.5-2.3l-1.6-1.6l-6.3-0.8l-1.2,0.6l0.3,2.6l-2.4,2.6l0.6,0.9l2.6,2.3l0.1,1.4l2.9,0.3l0.4,0.6l3.3,1.6
	l-0.6,1.5l-10.3-3.4l-3.6-0.9l-7.2-0.9l-0.7,1l3.3,1.7l-1.5,2l-3.5-1.8l-2.8,1.3l-4.3,0.1l-1.2,1l-3-0.3l1.4-1.8l-1.8-0.1l-6.8,2.5
	l-4.3,1.5l0.2,1.9l-3.3,0.7l-2.3-1l-0.7-1.7l2.8-0.4l-2-1.7l-6.8-1l2.4,1.9l-0.4,1.8l2.6,1.8l-0.6,2.1l-2.5-1l-2.3-0.2l-4.5,3
	l2.4,2.3l-1.8,0.8l-6.4-2l-1.2,1.2l1.9,1.3l0.1,1.5l-2.1-0.8l-3.4-0.9l-1-3.2l-0.6-1.4l-4.5-2.3l1.6-0.4l11.2,2.3l3.6-0.8l2-1.6
	l-0.8-2l-2.3-1.4l-9.8-3.4l-6.5-0.7l-4.3-1.8l-2,1l-3.5,1.2l-1.8,0.3l0.2,2.1l4,2l-1.6,2.3l3.6,3.5l-0.9,2.6l2.7,2.3l-0.5,2.1
	l4.1,2.2l-0.5,1.6l-1.9,1.9l-4.4,4.1l3,1.5l-2.5,1.8l0.5,0.6l-1.4,1.9l1.3,3.1l-0.9,1l1.4,0.7l0.6,1.6l1.2,2l2.9,0.8l0.5,0.8
	l1.3-0.4l2.7,0.8l0.6,1.6l-0.4,0.9l2.1,2.2l1.2,0.6v0.6l1.9,0.6l0.9,0.9l-0.9,0.7l-2.2-0.1l-0.4,0.3l0.8,1.1l1.1,2.2l1,0.1l0.6-0.8
	l0.8,0.2l2.7-0.3l2.1,1.9l-0.5,0.7l0.4,1l2.2,0.2l1.3,1.5l0.1,0.7l3.7,1.2l2-0.6l2,1.6l1.6-0.1l4.3,1.1l0.2,1l-0.7,1.8l1,1.9
	l-0.2,1.2l-2.7,0.2l-1.2,1l0.2,1.5l2.4-0.6l0.2,0.8l-3.8,1.4l1.8,1.4l-1.8,2.9l-2,0.6l2.8,2l3.4,1.3l4.2,3l0.2-0.4l2.5,0.6l4.3,0.6
	l4.2,1.7l0.7,0.7l1.6-0.6l2.8,0.7l1.2,1.4l2,0.8l0.8,0.1l2.4,2.1l1.3,0.3l0.3-0.9l1.4-1.4l-4-4.1l-0.2-2.3l-3.3-3.4l2-3.6l2.5-0.6
	l0.8-2l-1.5-0.6l-0.1-1.8l-2.4-2.3l-2,0.1l-2.9-2.3l0.9-2.6l-1-0.7l1.2-3.8l3.3,2l-0.3-2.5l4.5-3.7l4.2-0.1l6.6,2.4l3.6,1.4l2.4-1.4
	l4.3-0.1l4,1.8l0.4-1l3.9,0.2l0.1-1.6l-5.2-2.4L226.8,105.5z"/>
<path class="st0" d="M162.6,20.5l-2.4,0.3l-1.6,0.2v0.4l-2,0.4l-2.5-0.6l0.6-0.8l-4.3-0.1l3.5-0.4h2.9l0.8,0.6l0.7-0.6l1.5-0.4
	L163,20L162.6,20.5z"/>
<path class="st0" d="M247.3,23.2l4.5,0.9l6.5,0.7l3.8-0.3c0-0.1-0.1-0.2-0.1-0.2l-2.3-2l-7.6-2.3l-5.3-1.1l-3.4,0.5l-3,1.6l3.3,0.4
	L247.3,23.2z"/>
<path id="ES" class="st0" d="M58.7,136.6l1.1,1.3l5.2,1.6l1-0.8l3.2,1.6l3.3-0.4l0.2,2l-2.7,2.3l-3.6,0.8l-0.3,1.2l-1.8,1.9
	l-1.1,2.9l1.1,2l-1.7,1.5l-0.7,2.3l-2.2,0.7l-2,2.7l-3.8,0.1l-2.8-0.1l-1.9,1.2l-1.2,1.3l-1.4-0.3l-1-1.2l-0.8-2l-2.7-0.6l-0.2-1.2
	l1.1-1.3l0.4-0.9l-1-1l0.9-2.3l-1.1-2.1l1.3-0.3l0.2-1.7l0.4-0.5l0.2-2.8l1.3-0.9l-0.7-1.8l-1.7-0.1l-0.5,0.4H41l-0.7-1.7l-1.2,0.5
	l-1,0.9l0.3-2.5l-1.1-1.5l4.1-2.5l3.4,0.6h3.8l3,0.6l2.4-0.2L58.7,136.6L58.7,136.6z"/>
<path class="st0" d="M91.3,141l-0.8,2.7l-1.3-0.7l-0.7-2.3l0.5-1.3l1.8-1.3L91.3,141z"/>
<path class="st0" d="M79.6,115.4l0.6,0.3l0.8-0.1l1.3,0.9l4,0.7l-1.3,2.3l-0.2,2.5l-0.7,0.6l-1.3-0.3l0.1,0.9l-2,1.9v1.6l1.3-0.6
	l1,1.5l-0.1,1l0.8,1.3l-0.9,1l0.8,2.7l1.5,0.4l-0.3,1.5l-2.5,2l-5.6-0.9l-4.1,1.2l-0.3,2.1l-3.3,0.4l-3.2-1.6l-1,0.8l-5.2-1.6
	l-1.1-1.3l1.5-2.1l0.6-7l-2.8-3.6l-2-1.8l-4.2-1.3l-0.2-2.5l3.6-0.7l4.6,0.9l-0.8-3.9l2.6,1.5l6.3-2.6l0.8-2.8L71,110l0.4,1.2
	l1.2,0.1l1.3,1.4l1.9,1.6l1.4-0.3L79.6,115.4z"/>
<path class="st0" d="M-429.9,62.2l-0.6,0.6l-0.7-0.5l0.3-1l-0.2-1.3l0.3-0.4l0.7-0.6l-0.1-0.7l0.2-0.3l0.2,0.1l1,0.6l0.5,0.3
	l0.4,0.4l0.5,1.3v0.2l-1.4,0.8L-429.9,62.2z"/>
<path class="st0" d="M-430.2,56.7l-1.1,0.2l-0.3-0.7l-0.3-0.3v-0.2l0.4-0.3l1,0.3l0.7,0.6L-430.2,56.7z"/>
<path class="st0" d="M-431.9,54.8l-0.2,0.4l-1.7-0.1l0.3-0.4L-431.9,54.8z"/>
<path class="st0" d="M-434.5,54.3l-0.2,0.2l-0.2-0.1l-1-0.1l-0.2-0.8l-0.1-0.1l0.9-0.5l0.2,0.2L-434.5,54.3z"/>
<path class="st0" d="M-439.1,52l-0.4,0.3l-0.9-0.6l0.2-0.3l0.6-0.3l0.7,0.1L-439.1,52z"/>
<path class="st0" d="M-182.6,120.6l-3.4,1.1l-2.6,1.4l-2.5,1.5l-0.3,0.5l3.1-0.7l1.2,1.2l2.5-0.8l2.7-1.2l3-1.2l-1.7,1.8l1.4,0.4
	l1.4,1.3l2.8-0.8l2.8-0.3l0.2,1l0.8,0.1l0.7,0.1l0.8,1.4l-2.6,0.3h-0.1l-2-0.4l-2.5,0.7l-2,0.3l-2.6,2.3l-1.7,1.3l0.2,0.4l3-2.3h0.4
	l-2.6,2.7l-1.6,2.4l-1.4,2l-0.3,1.7l-0.4,0.8l-0.3,0.9l0.1,1.8l0.2,0.3l1-0.1l0.9-0.4l0.8-0.4l1.8-1.7l1-2.3l-0.1-2.2l0.8-1.5
	l1.4-1.7l1.2-1.2l1.5-0.8l-0.2,1.2l1.2-1.7l0.7-0.3l0.9-1.3l2.1,0.7l1.5,1.3l-0.4,1.6l-0.9,1.6l-2.1,1.4l-0.2,0.9h0.6l2.4-1.5
	l0.9,0.3l-0.3,2l-0.4,1.4l-2,1.9l-1.1,1.2l-1.5,1.3l1.5,0.7l1.4,0.2l2.2-0.5l2-0.9l1.7-0.5l2.5-1l3.2-2.1l0.1-0.3l0.2-1l1.5-0.4
	l2.2,0.2l2.2,0.3l2.5-1.2l0.3-1.4l-0.1-0.5l3.8-2.4l1.5-0.6l4.3-0.1h5.1l0.6-0.8l0.9-0.2l1.4-0.6l1.5-1.6l1.8-2.7l3-2.6l0.6,0.9
	l2-0.6l0.9,1l-1.6,4.7l1.2,2l0.1,1.2l-3.5,1.7l-3.3,1.2l-3.3,1l-2.2,2.1l-0.7,0.8l-0.7,1.9l0.4,1.8l1.2,0.1l0.1-1.3l0.6,0.8l-0.6,1
	l-2.1,0.6l-1.4-0.1l-2.3,0.6l-1.3,0.2l-1.7,0.2l-2.8,1l4.5-0.7l0.6,0.7l-4.4,1h-1.8l0.2-0.4l-1.2,1l0.8,0.2l-1.4,2.5l-2.9,2.7
	l0.1-0.9l-0.6-0.2l-0.7-0.9v1.9l0.6,0.6l-0.3,1.3l-1.3,1.4l-2.5,2.8l-0.2-0.1l1.6-2.4l-1.1-1.3l0.6-3l-1,1.5v2.3l-1.8-0.6l1.7,1.1
	l-0.8,3.4l0.8,0.3v1.2l-0.6,3.5l-2.5,2.6l-3.4,1l-2.4,2.1l-1.5,0.2l-1.9,1.3l-0.7,1.2l-3.8,2.3l-2.1,1.7l-1.9,2.1l-1,2.5v2.5l0.3,3
	l0.8,2.5l-0.3,1.5l0.7,4.1l-0.6,2.4l-0.3,1.4l-1.1,2.2l-1,0.4l-1.4-0.4l-0.2-1.5l-1-0.8l-1.1-3l-0.9-2.7l-0.2-1.4l1.1-2.4l-0.4-1.9
	l-1.7-3l-1-0.6l-3.4,1.7h-0.9l-1.1-1.7l-1.7-0.9l-3.5,0.5l-2.5-0.4l-2.4,0.3l-1.4,0.6l0.3,0.9l-0.4,1.4l0.4,0.7l-0.7,0.4l-1-0.5
	l-1.3,0.7l-2.2-0.1l-1.8-1.9l-2.7,0.4l-2-0.8l-1.9,0.3l-2.8,0.8l-3.4,2.6l-3.4,1.5l-2,1.7l-1,1.6l-0.6,2.5l-0.2,1.7l0.3,1.2
	l-1.2,0.1l-2-0.8l-2.2-1.1l-0.5-1.7l-0.1-2.5l-1.3-2l-0.5-2.1l-0.9-2.4l-1.8-1.4l-2.5,0.1l-2.6,2.8l-2.2-1l-1.3-1l-0.2-2l-0.4-1.8
	l-1.3-1.5l-1-1.2l-0.7-1.3h-5.2l-0.4,1.5h-2.4h-6l-6-2.5l-3.9-1.7l0.5-0.7l-3.9,0.4l-3.5,0.3l0.2-1.8l-1.2-2l-1.2-0.4l0.1-1
	l-1.6-0.2l-0.7-0.9l-2.6-0.3l-0.5-0.6l0.4-1.9l-1.4-3.5l-0.3-4.9l0.5-0.8l-0.7-1.2l-0.8-3l1-2.9l-0.5-1.9l2.2-2.9l1.5-3l0.6-2.7
	l3-3.3l2.2-3.1l2.2-3.1l2.4-4.7l1-2.9l0.2-1.6l0.8-0.7l3.2,1.2l-0.6,3.3l1.2-0.9l1.4-2.8l0.9-2.8h7.8h8.1h2.6h8.3h8.1h8.2h8.2h9.3
	h9.4h5.6l0.7-1.3h0.9l-0.5,1.9l0.6,0.6l1.8,0.2l2.5,0.6l2.2,1l2.4-0.4L-182.6,120.6z"/>
<path class="st0" d="M-328.6,89.7l-3.9,1.3l-0.4-0.9l1.3-1.5l3.5-1.2l1.9-0.5l1.4,0.2v1L-328.6,89.7z"/>
<path class="st0" d="M-350.2,80.6l-2.2,0.5l-0.9-0.6l-0.4-0.9l3.1-0.6l1.7,0.3L-350.2,80.6z"/>
<path class="st0" d="M-349.5,68.2l0.7,0.6l1.9-0.3l0.9,0.8l1.8,0.4l-0.7,0.4l-2.7,0.7l-0.9-0.7l-0.2-0.6l-2.4,0.2l-0.2-0.3
	L-349.5,68.2z"/>
<path class="st0" d="M-254.1,50l-13.6,11.3l-19.7,18.1l2.3,0.1l1.5,0.9l0.3,1.4l0.2,2.1l4.2-1.8l3.6-1l-0.3,1.7l0.4,1.3l0.9,1.5
	l-0.6,2.3l-0.8,3.8l2.5,2.1l-1.8,2.1l-2.8,1.6l-0.3-1.2l-1.4-1.1l1.8-2.9l-0.9-2.7l1.5-3.1l-2.3-0.2l-3.9-0.1l-2.1-1l-1.8-3.4
	l-1.8-0.6l-3.1-1.2l-3.8,0.3l-3.3-1.5l-1.5-1.4l-3.5,0.7l-1.9,2.3l-1.6,0.2l-3.6,0.7l-3.4,1.1l-3.5,0.7l1.8-1.9l4.6-3.2l3.8-1
	l0.2-0.8L-313,78l-4.1,2.2l-6.2,2.3l0.1,1.6l-5,2.3l-4.3,1.4l-3.6,1l-2.2,1.4l-5.9,1.7l-2.5,1.5l-4.5,1.4l-1.5-0.2l-3.4,0.9
	l-3.9,1.2l-3.4,1.1l-5.5,1l0.2-0.6l4.5-1.5l3.6-1l4.7-1.8l3.6-0.3l2.8-1.4l5.7-2l1.3-0.7l3.1-1.2l3.2-2.5l3.4-1.9l-4,1l-0.2-0.6
	l-2.7,1.2l0.2-1.7l-2,1.2l0.9-1.6l-4,1.3h-1.5l2-1.9l1.8-1.2l-0.2-1.2l-4,0.7l-0.3-1.5l-0.7-0.8l2.2-1.8l-0.2-1.4l3.3-1.8l4.3-1.8
	l2.9-1.6l2.3-0.2l1,0.5l3.9-1.5l1.4,0.3l3.1-1l1.4-1.4l-0.6-0.6l3.3-1.2l-1.5,0.1l-3.4,0.7l-1.6,0.7l-1-0.7l-3.8,0.4l-2.5-0.8
	l0.7-1.3l-0.6-1.8l5.1-1.3l7.3-1.5h1.9l-2.4,1.5l5.1-0.1l0.7-1.9l-1.3-1.2l0.4-1.5l-0.3-1.6l-1.8-0.9l3.6-1.6l4.1-0.1l4.9-1.3
	l2.6-1.4l4.4-1.4l2.6-0.3l6.2-1.3l1.7,0.2l5.7-1.5l2.4,0.6l-0.3,1.3l1.8-0.6l3.5,0.2l-1,0.7l2.7,0.5l2.7-0.3l3.4,0.9l4,0.3l1.2,0.3
	l3.6-0.4l2.3,0.9L-254.1,50z"/>
<path id="GF" class="st0" d="M-106.5,282.1l0.8-1.5l0.3-1.6l0.6-1.5l-1.2-2.1l-0.2-2.4l1.7-3l1,0.4l2.3,0.8l3.3,3l0.4,1.4l-1.9,3.3
	l-1,2.6l-1.2,1.4l-1.5,0.2l-0.4-1l-0.7-0.1l-0.9,0.9L-106.5,282.1L-106.5,282.1z"/>
<path id="AW" class="st0" d="M-153.1,246.2l-0.3-0.1l-0.3-0.3l0.1-0.3l0.1,0.2l0.2,0.2L-153.1,246.2L-153.1,246.2L-153.1,246.2z"/>
<path id="AI" class="st0" d="M-130.3,225.7L-130.3,225.7l0.1-0.2h0.2l-0.1,0.2H-130.3L-130.3,225.7z"/>
<path class="st0" d="M-435.5,196.3l-0.2,0.2l-0.1,0.2l-0.1,0.1l-0.2-0.2l0.1-0.1h0.2l0.1-0.1L-435.5,196.3z"/>
<path class="st0" d="M-476.5,180.4l-0.3,0.1l-0.1-0.1l0.2-0.1L-476.5,180.4z"/>
<path class="st0" d="M-126.7,229.6l0.3,0.2l-0.1,0.2h-0.1l-0.4,0.1l-0.1-0.1v-0.3l0.2-0.1l0.1-0.2h0.1V229.6z"/>
<path class="st0" d="M-126.7,227.5L-126.7,227.5l0.2,0.1l0.1,0.2l-0.1,0.2l-0.1,0.1l-0.1-0.1l-0.2-0.1v-0.3L-126.7,227.5z"/>
<path class="st0" d="M-160,215.3l-0.2,0.3l-0.1,0.3l-0.3,0.2h-0.3l-0.1-0.1l-0.2,0.1l-0.3,0.1l-0.3-0.1l-0.2,0.1l-0.1-0.3l0.2-0.1
	l0.1-0.2l0.2-0.1l0.2-0.2h0.2l0.2-0.1l0.1,0.2l0.3,0.1l0.3-0.1l0.4-0.6h0.2v0.1L-160,215.3z"/>
<path class="st0" d="M-159.9,214.3l-0.1-0.3l0.3-0.2l0.2,0.2v0.1l-0.2,0.1L-159.9,214.3z"/>
<path class="st0" d="M-159.7,210.8l0.1-0.1l0.3,0.2h0.2l0.2,0.1l0.2,0.1v0.2l-0.1,0.1l-0.3-0.2h-0.2l-0.1-0.2l-0.3,0.1l-0.3-0.1
	v-0.1l0.1-0.3L-159.7,210.8z"/>
<path class="st0" d="M-161.8,209.8l-0.1,0.2v0.4l-0.1,0.2l-0.2,0.2l-0.1,0.2l-0.2,0.2l-0.4,0.2l-0.1,0.1l-0.1-0.1l0.1-0.1l0.2-0.1
	l0.1-0.1V211l0.2-0.1l0.1-0.2l0.2-0.1l0.2-0.2l-0.1-0.2h-0.2l-0.1-0.1l0.2-0.3l0.1-0.1L-161.8,209.8L-161.8,209.8z"/>
<path class="st0" d="M-162.9,209.6L-162.9,209.6l0.3,0.1l0.2,0.1l-0.2,0.2l-0.1-0.1h-0.1l-0.2-0.1l-0.2-0.1l-0.2-0.3l0.2-0.1
	l0.2,0.1L-162.9,209.6z"/>
<path class="st0" d="M-168,206.3l0.3,0.4l0.2,0.1l0.2,0.3l-0.2-0.1l-0.1-0.1l-0.2-0.1l-0.2-0.2l-0.1-0.1l-0.1-0.2L-168,206.3z"/>
<path class="st0" d="M-165.9,206.3l0.2,0.3l0.1,0.3v0.2l0.1,0.1l0.1,0.4v0.5l0.1,0.2l0.3,0.1l0.2,0.3v0.4l-0.2-0.4v-0.1l-0.2-0.2
	l-0.3-0.1l0.1-0.1l-0.2-0.2v-0.2l0.1-0.2l-0.1-0.3l-0.2-0.2l0.1-0.1l-0.2-0.2l-0.1-0.3l-0.1,0.1L-165.9,206.3z"/>
<path class="st0" d="M-164.3,206.3l-0.2,0.1l-0.2-0.1l-0.1-0.1l0.3-0.1L-164.3,206.3z"/>
<path class="st0" d="M-168.9,205.3L-168.9,205.3l-0.2-0.4h0.1L-168.9,205.3z"/>
<path class="st0" d="M-163.1,205l-0.2,0.3h-0.2l0.1-0.2l0.1-0.3l0.2-0.2l0.1,0.2L-163.1,205L-163.1,205z"/>
<path class="st0" d="M-173.3,204.3l-0.2,0.1l-0.1,0.2l-0.2-0.1l0.3-0.2H-173.3z"/>
<path class="st0" d="M-173.2,204.7l0.2,0.1l0.1-0.1l0.1-0.3l0.1-0.1l0.1,0.3v0.3l-0.1,0.2l0.1,0.3v0.2l-0.2,0.4l-0.1,0.1l-0.2-0.1
	l0.1-0.2l0.2-0.1l-0.1-0.1l-0.3,0.2l-0.1-0.1l0.2-0.2h-0.2l-0.1,0.1l-0.1-0.1v-0.4l0.1-0.1l-0.2-0.3v-0.1l0.2-0.1l0.1-0.2l0.2-0.1
	l0.1-0.1l0.3-0.2l0.1,0.2l-0.3,0.2L-173.2,204.7z"/>
<path class="st0" d="M-165.7,204.4l0.1,0.3l-0.1-0.1l-0.3,0.1l-0.2,0.1l-0.1-0.1l0.2-0.1l0.2-0.2v-0.1l-0.2-0.1l-0.1-0.3l-0.1-0.3
	l-0.2-0.2v-0.1l-0.3-0.3l0.2-0.2l0.2,0.2v0.3l0.1,0.2l0.1,0.3l0.2,0.3l0.2,0.2L-165.7,204.4L-165.7,204.4z"/>
<path class="st0" d="M-171.4,201.4l0.2,0.1l-0.3,0.2l-0.2-0.1l-0.1,0.1l-0.3-0.1l0.1-0.2l0.2-0.1h0.4L-171.4,201.4L-171.4,201.4z"/>
<path class="st0" d="M-173.7,201.1l0.2-0.1l0.2,0.2l-0.1,0.1l0.1,0.1l-0.1,0.2l0.2,0.2l0.1,0.5l0.1,0.2l0.2,0.3l-0.1,0.4l0.1,0.3
	l-0.1,0.2l-0.2,0.1l-0.2,0.2l-0.2,0.1h-0.2l-0.2,0.1h-0.2V204l-0.2-0.1l0.1-0.3l-0.2,0.2l-0.1-0.1l-0.3-0.2l-0.2-0.2l-0.1-0.2
	l0.4-0.2l0.3,0.4l0.1-0.3l-0.2-0.1l-0.1-0.2l0.1-0.2l0.3-0.3l0.1-0.2l-0.1-0.1l0.2-0.2v-0.3l-0.1-0.4l0.1-0.1h0.2L-173.7,201.1z"/>
<path class="st0" d="M-169.2,199.7l0.1,0.1l0.2,0.2l0.4,0.4l0.3,0.1l0.1,0.1l0.1,0.2l0.2,0.2l0.3,0.2v0.1l-0.1,0.4l-0.1,0.1v0.2
	l-0.1,0.3l-0.1,0.2l-0.1,0.4l-0.1,0.1l-0.1-0.3l-0.2-0.2l0.1-0.1l0.3,0.1l0.1-0.1l-0.1-0.1l0.1-0.2l0.2-0.2l0.1-0.3v-0.2l-0.3-0.2
	l-0.2-0.4l-0.2-0.1l-0.3-0.2l-0.2-0.2l-0.3-0.1l-0.2,0.1L-169.2,199.7L-169.2,199.7L-169.2,199.7z"/>
<path class="st0" d="M-174.1,195.5l0.3,0.1h0.1l0.4,0.1l0.1-0.1l0.1,0.1h0.3l0.2-0.1h0.2l0.2-0.1l0.1,0.3l-0.1,0.1h-0.2h-0.2
	l-0.6,0.1h-0.2l-0.8,0.2l-0.4,0.2h-0.2l-0.1-0.1l-0.2-0.2l-0.3-0.3l0.3,0.2l0.1,0.1h0.3l0.3-0.1l0.2-0.3l-0.2-0.1l0.1-0.2l0.1-0.2
	L-174.1,195.5z"/>
<path class="st0" d="M-171.7,194.8l0.4,0.1l0.1-0.1l0.2,0.2l0.5,0.6l0.1,0.3l0.2,0.1l0.4,0.3v0.1l-0.1,0.3l0.1,0.4h-0.2l-0.3,0.2
	l-0.1,0.1l-0.2,0.6l-0.1,0.5l-0.1,0.1l-0.2-0.1l-0.1-0.2l-0.2-0.1l0.2-0.3h0.1l0.3-0.2l-0.1-0.2l0.1-0.2V197l0.1-0.2v-0.3l0.1-0.1
	l0.1-0.2l0.1-0.2l-0.2-0.1l-0.3-0.1l-0.1-0.2v-0.1l-0.2-0.1v-0.2l-0.2-0.4l-0.1-0.1l-0.2,0.1l-0.3-0.1h-0.2l-0.3-0.2h0.7V194.8z"/>
<path id="BL" class="st0" d="M-129.8,226.9l-0.1-0.2L-129.8,226.9L-129.8,226.9L-129.8,226.9z"/>
<path id="BM" class="st0" d="M-128.6,175.5h-0.2l-0.1,0.1l0.1,0.1l-0.2,0.1l-0.1-0.1l0.1-0.1h0.1l0.1-0.2L-128.6,175.5L-128.6,175.5
	L-128.6,175.5z"/>
<path id="BB" class="st0" d="M-120.8,244l-0.3-0.1l-0.1-0.3v-0.4l0.1-0.2l0.1,0.1l0.1,0.3l0.3,0.2l0.1,0.2L-120.8,244L-120.8,244z"
	/>
<path class="st0" d="M200.4,334.1l-0.5-0.1l-0.1-0.2v-0.2l0.3,0.1l0.4,0.3L200.4,334.1z"/>
<path class="st0" d="M202.4,333.1l0.1,0.6v0.4l-0.1,0.1l-0.1-0.2l-0.2-0.2l-0.1-0.1l-0.2-0.1l-0.3-0.2l0.1-0.1l0.3,0.1l0.2-0.1
	l0.1-0.2V333L202.4,333.1L202.4,333.1z"/>
<path class="st0" d="M-12.4,237.6l-0.1,0.2l-0.1-0.1v-0.2l0.2-0.1C-12.4,237.4-12.4,237.6-12.4,237.6z"/>
<path class="st0" d="M-11.3,237.7l-0.1,0.1l-0.2-0.1l-0.2-0.2l-0.1-0.2l0.1-0.2l0.3-0.2h0.2l0.1,0.4l-0.1,0.2V237.7z"/>
<path class="st0" d="M-9.4,236l0.1,0.1v0.1l0.1,0.1l0.2,0.3h0.1l0.1,0.2l0.1,0.3l0.1,0.1l-0.2,0.3l-0.2,0.1l-0.3-0.1l-0.2-0.1
	l-0.2-0.2V237l-0.1-0.1l-0.1-0.2l0.1-0.1v-0.2l0.1-0.2l-0.1-0.3h0.4V236z"/>
<path class="st0" d="M-7.7,236l0.2,0.1l0.1,0.3l-0.1,0.2l-0.2,0.1l-0.2-0.2l0.1-0.2l-0.1-0.1L-7.7,236z"/>
<path class="st0" d="M-6.6,232.8l0.2-0.1l0.3,0.1l0.1,0.1v0.4l-0.2,0.2l-0.2,0.1h-0.2l-0.3-0.1v-0.3l0.1-0.1v-0.3l0.1-0.1
	L-6.6,232.8z"/>
<path class="st0" d="M-11,231.3l0.2-0.1l0.2,0.1h0.2l0.2,0.1l0.1,0.1h-0.3l-0.4-0.2l-0.1,0.1l-0.2,0.3l-0.2-0.3l-0.1-0.1l-0.1-0.2
	l0.2-0.1L-11,231.3z"/>
<path class="st0" d="M-6.7,231L-6.7,231v0.4l-0.1,0.1v-0.3l-0.1-0.2v-0.2l-0.1-0.2l0.2-0.2l0.1,0.1V231L-6.7,231L-6.7,231z"/>
<path class="st0" d="M-12.9,230.3l0.1,0.2l0.1,0.2l-0.4,0.2l-0.2-0.1l-0.1-0.1l0.2-0.2L-12.9,230.3z"/>
<path class="st0" d="M-13.4,229.3l0.2,0.1v0.1l0.2,0.2l-0.1,0.2l-0.3,0.2l-0.2,0.2l-0.4,0.1v-0.1V230l-0.1-0.1v-0.1l0.1-0.1h0.1
	l0.1-0.1L-13.4,229.3L-13.4,229.3L-13.4,229.3z"/>
<path id="CW" class="st0" d="M-149.7,247.6h-0.2l-0.2-0.2l-0.2-0.1l-0.2-0.2l-0.1-0.1l-0.2-0.1l-0.1-0.2l-0.2-0.2l0.1-0.3l0.3,0.2
	l0.1,0.3l0.2,0.2l0.4,0.1l0.1,0.2L-149.7,247.6L-149.7,247.6L-149.7,247.6z"/>
<path class="st0" d="M-186.4,221.8l0.2,0.1l0.1-0.2l0.2,0.1h0.3l0.1,0.1l-0.1,0.1l-0.1-0.1l-0.2,0.1l-0.1,0.1h-0.4V221.8z"/>
<path class="st0" d="M-181.9,220.4l-0.4,0.2l0.1-0.2H-181.9z"/>
<path class="st0" d="M-181.5,220.5L-181.5,220.5l0.4-0.2l-0.1,0.2H-181.5z"/>
<path class="st0" d="M164.5,166l0.1,0.1l0.2,0.2l-0.2-0.1h-0.2l-0.2,0.1l-0.2-0.2V166l0.2-0.1l0.1,0.1H164.5z"/>
<path class="st0" d="M163.6,166.3L163.6,166.3l-0.1,0.2l-0.1,0.3l-0.1,0.1h-0.2L163,167l-0.3,0.1l-0.1,0.1l-0.3,0.2l-0.2-0.1
	l-0.3,0.1l-0.2,0.2l-0.1-0.2l-0.2,0.1h-0.1l-0.2-0.2l-0.2,0.2h-0.2l-0.3-0.1l-0.3-0.1l-0.2-0.2l-0.2-0.3l-0.2-0.2l-0.1-0.4l-0.1-0.2
	l0.1-0.2l0.3,0.2l0.2-0.1l0.1-0.2l0.1-0.2l0.2-0.1l0.1,0.1l0.1-0.1h0.1l0.1,0.2l0.3,0.1l0.1,0.1h0.3l0.3-0.3l0.2,0.1l0.2-0.1
	l0.2,0.1l0.2,0.1l0.1-0.2h0.2l0.2,0.2v0.3l0.2-0.1l0.2,0.1l0.1-0.1L163.6,166.3z"/>
<path id="DM" class="st0" d="M-126,235l0.3,0.1l0.1,0.3v0.3l-0.1,0.4l-0.1,0.1l-0.1,0.1l-0.2,0.1l0.1-0.2l-0.1-0.1l-0.1-0.4
	l-0.2-0.3v-0.2l0.1-0.2v-0.2h0.1L-126,235L-126,235z"/>
<path class="st0" d="M-95.4,474.9l0.2-0.1v0.2l-0.4-0.2l0.2-0.2l0.1-0.1L-95.4,474.9z"/>
<path class="st0" d="M-95.8,474.1l0.1,0.1l0.2,0.1l0.1,0.2l-0.2,0.1l-0.1-0.2l-0.1-0.1V474.1z"/>
<path class="st0" d="M-92.4,473.7l0.1,0.1l-0.1,0.2l-0.2-0.1l-0.1-0.2H-92.4L-92.4,473.7z"/>
<path class="st0" d="M-99.1,473.2L-99.1,473.2l0.1,0.3l-0.2,0.1l-0.2-0.1l-0.1-0.1l-0.2-0.1l-0.1-0.2h0.1l0.1-0.1l0.2-0.1l0.1,0.1
	l-0.2,0.2l0.2,0.1L-99.1,473.2L-99.1,473.2z"/>
<path class="st0" d="M-97.5,472.4l-0.2-0.1l-0.3-0.2l-0.4-0.1l0.1-0.2l-0.4-0.1l-0.2-0.1l-0.2-0.2l0.1-0.1l0.4,0.2l0.4,0.2l0.3,0.1
	l0.2,0.1l0.2-0.2l0.1-0.2l0.1,0.1l0.2-0.1l0.1,0.1h0.3v0.2h0.2l0.5-0.1l0.1,0.1h0.2l0.2-0.1l-0.2-0.1l-0.1-0.2h0.2l0.3,0.1l0.1,0.2
	l-0.2,0.3l0.1,0.2l-0.1,0.1h-0.2l-0.2,0.4l-0.2,0.2l-0.2,0.3l-0.1,0.2l-0.3,0.2l-0.1-0.1h-0.2v0.2l-0.4-0.1l-0.1,0.1l0.2,0.2
	l-0.1,0.1l-0.1,0.2h-0.2l-0.2,0.2l-0.2,0.1h-0.1l-0.1-0.2l-0.2-0.2V474h-0.3l0.3,0.2h-0.2l-0.3-0.2l-0.1-0.1l-0.2-0.1l-0.2-0.1v-0.1
	l0.4,0.1l0.3-0.1l-0.3-0.1l-0.1-0.1h0.5l0.2,0.1l0.2,0.1v-0.1l0.2-0.1l0.1-0.2l-0.2-0.1l-0.1-0.3l0.1-0.1h0.3l0.1,0.1l0.2-0.1
	L-97.5,472.4l-0.5,0.1v0.1l-0.2,0.1h-0.2l-0.3-0.2v-0.2l0.4,0.1l0.3-0.1h0.2L-97.5,472.4l0.2,0.1v-0.1H-97.5z"/>
<path class="st0" d="M-96.6,471.4h0.2l0.2,0.2l-0.2,0.1h-0.2V471.4z"/>
<path class="st0" d="M-97.1,471.4h-0.2l-0.1-0.2l0.2,0.1L-97.1,471.4L-97.1,471.4z"/>
<path class="st0" d="M-97.9,471.3l0.3-0.1l0.1,0.2l-0.2,0.2l-0.1-0.1l-0.2,0.1l-0.2-0.1l0.2-0.1l0.2,0.1l0.1-0.1L-97.9,471.3
	L-97.9,471.3z"/>
<path class="st0" d="M-93.9,471.3h0.3l0.1-0.1l0.3-0.1l0.2,0.1l0.2,0.2l0.1,0.2v0.1l-0.3,0.1l-0.1-0.2l-0.1-0.1l-0.1,0.2l0.1,0.1
	l0.1,0.2l0.2-0.1l0.1,0.1l0.1,0.2l0.2,0.1l0.1-0.1l0.3,0.2l0.1-0.2l-0.4-0.1l0.1-0.3l0.2-0.1l0.8-0.1l0.4,0.3l0.1,0.1v0.2l-0.3-0.1
	l-0.3-0.1l-0.3,0.1l0.2,0.1l0.2,0.1l0.5,0.1l0.2,0.1l0.1,0.1l-0.1,0.3h-0.8l-0.1,0.1l-0.4,0.1l-0.3,0.1l0.2,0.1l-0.5,0.2l-0.2-0.1
	l-0.3,0.1h-0.4l-0.3-0.1l-0.3-0.2v0.2l0.2,0.1l0.3,0.1l0.2,0.2l0.1-0.1l0.2,0.1l0.2,0.2l-0.1,0.1l0.1,0.3h-0.1l-0.2-0.2l-0.2-0.1
	l-0.3,0.2l-0.1-0.2l-0.2-0.1h-0.2l-0.3-0.1l-0.1,0.1l0.1,0.2h0.2l0.1,0.1l-0.1,0.1l0.4,0.3l-0.1,0.1l-0.2-0.1h-0.2l-0.2-0.2
	l-0.2-0.1l-0.2-0.1l-0.1,0.3l0.3,0.1v0.2l-0.1,0.1l-0.2-0.1l-0.1-0.1l-0.3-0.1l-0.1-0.1h-0.1l-0.2-0.3l0.2-0.2V474l-0.2-0.3v-0.1
	l0.3-0.1l-0.1-0.1l0.3-0.1l-0.1-0.2l0.3-0.2l0.3-0.1l0.2,0.2v0.2l0.2-0.1l-0.3-0.3l0.1-0.2l-0.3-0.1l-0.2-0.2l0.1-0.1l0.2,0.1
	l0.1-0.3l-0.4-0.1l0.1-0.2l0.1,0.1l0.2-0.1h0.2l0.1-0.2l-0.2-0.2h0.2L-93.9,471.3z"/>
<path class="st0" d="M-96.7,471.1h0.4l0.1,0.1l0.1-0.1l0.1,0.1l0.1,0.2l-0.1,0.1l-0.2-0.1l-0.2-0.1l-0.4-0.1L-96.7,471.1
	L-96.7,471.1z"/>
<path class="st0" d="M-100.4,470.5l-0.3-0.1l0.1-0.1L-100.4,470.5z"/>
<path class="st0" d="M47.1,75.1l0.2,0.1h0.2l0.1,0.1v0.2l0.1,0.2l-0.1,0.1l-0.3-0.2l-0.1-0.2l-0.1-0.1V75.1
	C47,75.1,47.1,75.1,47.1,75.1z"/>
<path class="st0" d="M47.3,74.2l0.4,0.1l0.1,0.1l-0.1,0.2l-0.1,0.1l-0.2-0.3l-0.3-0.1L47,74.1L47.3,74.2z"/>
<path class="st0" d="M46.6,73.4L46.6,73.4l0.3,0.1v0.2h-0.3l-0.1,0.1l-0.3-0.1l-0.1-0.1L46,73.4l0.3-0.1l0.1-0.1L46.6,73.4l-0.2-0.1
	l0.1-0.4l0.3,0.1l0.2,0.3v0.1l0.3,0.1l0.2,0.3l0.2,0.1l-0.1,0.3L47.3,74l-0.1-0.1l-0.1-0.1L47,73.7l-0.1-0.1L46.6,73.4L46.6,73.4z"
	/>
<path class="st0" d="M48.6,73.1L48.5,73l0.2-0.1L48.6,73.1z"/>
<path class="st0" d="M47.3,73.3l-0.2-0.1L46.9,73l-0.1-0.2l0.1-0.1l0.2-0.1h0.2l0.3,0.2l-0.1,0.1l0.1,0.1l0.3,0.1v0.1l-0.2,0.2
	L47.3,73.3z"/>
<path class="st0" d="M48.5,73l-0.2,0.2l-0.2-0.1h-0.2l0.1-0.2l-0.1-0.2l0.1-0.1l0.1,0.2L48.5,73z"/>
<path class="st0" d="M48,73L48,73l-0.2-0.2l0.1-0.2l0.1,0.2V73z"/>
<path class="st0" d="M573.7,271.4l-0.1,0.2l-0.3-0.1v-0.1l0.3-0.2L573.7,271.4z"/>
<path class="st0" d="M558.1,265.6h0.2l0.2,0.1l0.1,0.2l-0.1,0.1l0.1,0.1l-0.1,0.1h-0.3l-0.1-0.1V266l-0.1-0.2L558.1,265.6
	L558.1,265.6z"/>
<path class="st0" d="M494.8,256.4l0.1,0.2h-0.2l-0.2,0.3l-0.1-0.1l0.2-0.4l0.2-0.1V256.4z"/>
<path id="GD" class="st0" d="M-127.6,247.6l-0.2,0.2l-0.1-0.1l-0.1-0.3l0.1-0.3l0.2-0.2h0.2l0.1,0.2l-0.1,0.4L-127.6,247.6z"/>
<path id="GU" class="st0" d="M513.7,242.6l-0.1,0.2v0.3l-0.1,0.2h-0.2l-0.1-0.2l-0.1-0.3v-0.3l0.3-0.3l0.1-0.1l0.1-0.3l0.1-0.1
	l0.1,0.1l0.2,0.1l-0.1,0.3L513.7,242.6z"/>
<path class="st0" d="M-129.2,229.6h-0.2l-0.1-0.1l0.1-0.2h0.1l0.1,0.1V229.6z"/>
<path class="st0" d="M-129.5,228.8l-0.1,0.2h-0.1l-0.2-0.1l-0.1-0.1l0.2-0.2L-129.5,228.8L-129.5,228.8z"/>
<path id="LC" class="st0" d="M-125.1,241.7l-0.1-0.1l-0.2-0.1l-0.1-0.1V241l0.1-0.1l0.4-0.6l0.2,0.1v0.4l-0.1,0.4l-0.1,0.2
	L-125.1,241.7L-125.1,241.7z"/>
<path id="MF" class="st0" d="M-130.3,226.3l-0.2-0.1l0.1-0.2l0.2-0.1L-130.3,226.3z"/>
<path id="MV" class="st0" d="M294.1,275.3v0.1V275.3L294.1,275.3L294.1,275.3z"/>
<path id="MH" class="st0" d="M598.2,265l0.6,0.2h-0.1L598.2,265z"/>
<path class="st0" d="M106.9,163.2l-0.1,0.2l-0.3-0.1l-0.3-0.2v-0.3l-0.1-0.1h0.3l0.2,0.2l0.1,0.1L106.9,163.2z"/>
<path class="st0" d="M106,162.6l-0.3-0.1v-0.1l0.2-0.1l0.2,0.2L106,162.6z"/>
<path class="st0" d="M514.7,240.2L514.7,240.2h-0.2l-0.1-0.1l0.3-0.1l0.1,0.1L514.7,240.2z"/>
<path class="st0" d="M515.5,237.4L515.5,237.4l-0.3-0.3l0.1-0.2h0.2v0.2l0.1,0.1L515.5,237.4z"/>
<path class="st0" d="M515.8,236.5l-0.1,0.1l0.1,0.2h-0.2v-0.4l0.1-0.1l0.2-0.1L515.8,236.5L515.8,236.5z"/>
<path class="st0" d="M514.7,232.3L514.7,232.3l-0.2-0.1h0.2V232.3L514.7,232.3z"/>
<path class="st0" d="M513.7,226.3l-0.1-0.1v-0.3l0.2-0.1l0.1,0.2L513.7,226.3z"/>
<path class="st0" d="M513,223.9l-0.2-0.1v-0.2l0.1-0.1l0.1,0.1L513,223.9L513,223.9z"/>
<path id="MS" class="st0" d="M-128.1,230.7l0.1,0.2v0.2l-0.1,0.1l-0.1-0.1l-0.1-0.2L-128.1,230.7z"/>
<path class="st0" d="M241.5,361.5l0.2,0.5l-0.1,0.3l-0.2,0.2l0.1,0.2l-0.2,0.2L241,363h-0.3l-0.3-0.1l-0.1,0.1l-0.2-0.2l0.1-0.1
	l0.1-0.2l0.1-0.4l0.1-0.2l0.3-0.2l0.1-0.1l0.1-0.3l0.2-0.2l0.2,0.1L241.5,361.5z"/>
<path class="st0" d="M259.1,360.3l-0.2-0.2l0.2-0.1l0.2-0.1l0.1,0.1l-0.1,0.1L259.1,360.3z"/>
<path class="st0" d="M576.9,370.4L576.9,370.4l-0.2,0.3l-0.2-0.1l0.1-0.3l0.1-0.1L576.9,370.4L576.9,370.4z"/>
<path class="st0" d="M579.3,366.1L579.3,366.1l0.1,0.3h0.2l0.2-0.1l-0.1,0.3l-0.1,0.1l-0.1,0.2l-0.3,0.2L579,367v-0.1l-0.2-0.2
	l0.1-0.1l-0.1-0.1l0.1-0.2l-0.1-0.2h0.1l0.2,0.1L579.3,366.1z"/>
<path class="st0" d="M577.8,363.7l-0.1,0.3v0.2l-0.1,0.2l0.2,0.1l0.1,0.1l0.1,0.1l-0.1,0.1l0.2,0.2H578l-0.1,0.3l-0.1,0.1l-0.2-0.1
	l-0.1-0.2l-0.1-0.1l-0.3-0.1l-0.2-0.3v-0.1l-0.1-0.2h0.2l0.2-0.1l0.2-0.2l0.1-0.2l-0.2-0.1l-0.2,0.1l0.1-0.2l0.2-0.1l0.1,0.1
	l0.2-0.2L577.8,363.7z"/>
<path class="st0" d="M576,362.8l-0.2,0.3l-0.1,0.2h0.2l-0.3,0.3l-0.1,0.1l-0.1-0.1l0.2-0.2l0.1-0.3L576,362.8z"/>
<path class="st0" d="M576,362.8l-0.1-0.2h0.2l0.1,0.2H576z"/>
<path class="st0" d="M568.3,361.5L568.3,361.5l0.4,0.6l0.2,0.2l0.2-0.1l0.1-0.2l0.5,0.3l0.2,0.3l0.4,0.3l0.2,0.2l0.1,0.2l0.2,0.2
	l0.1,0.1h0.1l0.2,0.2l0.5,0.1l0.1,0.2v0.2l0.2,0.2l0.2,0.1l-0.2,0.3l0.1,0.1l0.2,0.3h0.1l0.2,0.3l-0.1,0.2l0.4,0.1l0.2,0.3h0.2
	l0.2,0.1l0.3,0.2l-0.1,0.2h0.2l0.2,0.3l0.3,0.2v0.1l0.2,0.1l0.2,0.2v0.1l0.2,0.3l0.2,0.2l0.1-0.1l0.2,0.3l0.3,0.1l0.2,0.2v0.2
	l0.1,0.2l0.1,0.1l-0.1,0.3l-0.4,0.2l-0.1-0.2l-0.2,0.1l-0.2,0.2l-0.3-0.4h-0.2l-0.1-0.1h-0.1l-0.1,0.2l-0.5-0.5h-0.1l-0.2-0.3
	l0.1-0.4h-0.2h-0.2l-0.2-0.1l-0.1-0.1l-0.1-0.1h-0.2v-0.2l-0.1-0.3l-0.2,0.1l-0.4-0.3l-0.1-0.1V367l-0.2,0.1l-0.3-0.2l-0.1-0.2
	l-0.2-0.2l-0.1-0.3l-0.3-0.1l0.1-0.1l-0.2-0.2l-0.2-0.1l-0.2-0.4v-0.2l-0.1-0.2h-0.5l-0.1-0.3l0.1-0.1l-0.4-0.2l-0.2-0.1l-0.2-0.3
	l0.2-0.1l-0.1-0.1l-0.1-0.2v-0.3l-0.3-0.2v-0.3l-0.1-0.2h0.2l0.1-0.2l-0.1-0.1h-0.3l-0.1-0.2l0.3-0.4l-0.2-0.2V361.5z"/>
<path class="st0" d="M568.9,361.6l-0.2-0.1l0.1-0.2L568.9,361.6z"/>
<path class="st0" d="M567.6,360.3L567.6,360.3l-0.2-0.1l0.1-0.1L567.6,360.3z"/>
<path id="NR" class="st0" d="M586.7,292.2L586.7,292.2l-0.2-0.2h0.2V292.2L586.7,292.2z"/>
<path id="PW" class="st0" d="M484.4,263.4l-0.1,0.2l0.1,0.1l-0.1,0.3l0.1,0.1l-0.3,0.1l-0.1-0.4l0.2-0.1l-0.1-0.1L484.4,263.4
	l0.1-0.2L484.4,263.4L484.4,263.4z"/>
<path class="st0" d="M-145.3,226.3l-0.2-0.1l0.1-0.1h0.2l0.1,0.1L-145.3,226.3z"/>
<path class="st0" d="M-137.2,226L-137.2,226l-0.6,0.2h-0.3l0.1-0.1l0.2-0.1l0.2-0.1L-137.2,226L-137.2,226z"/>
<path class="st0" d="M-142.5,224.7l0.3,0.1h0.3l0.2,0.1l0.3-0.1l0.2,0.1l0.2-0.1l0.1,0.1l0.3-0.1l0.2,0.1h0.2l0.4,0.1v-0.1l0.3,0.1
	l0.1-0.1l0.4,0.1l0.1,0.1h0.1l0.3,0.2l0.1-0.1l-0.1,0.4l0.1,0.2l-0.5,0.2l-0.2,0.2l-0.2,0.3l-0.2,0.1l-0.2,0.1h-0.2l-0.3,0.1
	l-0.2,0.1l-0.4-0.1l-0.1-0.1l-0.3,0.1l-0.2-0.2l-0.4,0.1l-0.5-0.1l-0.2,0.1l-0.3,0.1l-0.1,0.1l-0.1-0.1l-0.2-0.1l-0.2,0.1l-0.3-0.1
	l0.2-0.4V226l0.1-0.2l-0.1-0.3l-0.1-0.1l-0.1-0.2l0.2-0.1l0.1-0.1v-0.3l0.2-0.1L-142.5,224.7z"/>
<path class="st0" d="M-387.6,227.8L-387.6,227.8l-0.2-0.2l0.1-0.1l0.2,0.1L-387.6,227.8z"/>
<path class="st0" d="M-381.9,206.8L-381.9,206.8l-0.2-0.1l0.1-0.1L-381.9,206.8z"/>
<path class="st0" d="M-385.4,193.2l-0.1-0.1l0.1-0.3l0.3-0.2h0.2v0.1l-0.1,0.2L-385.4,193.2z"/>
<path class="st0" d="M-411.7,192.6l0.4,0.1l0.2,0.2v0.2l-0.1,0.1l-0.3-0.1l-0.2-0.3l-0.1-0.1l-0.3,0.1h-0.1l-0.3-0.1l-0.1-0.2
	l-0.2-0.3V192l0.1-0.1l0.3-0.1h0.3l0.3,0.1l0.1,0.2l0.1,0.3L-411.7,192.6z"/>
<path class="st0" d="M-413.4,191.8l-0.1,0.3l-0.3-0.1l0.1-0.2H-413.4L-413.4,191.8z"/>
<path class="st0" d="M-417.5,189.4l-0.1,0.1l-0.1-0.2l0.2-0.1V189.4z"/>
<path class="st0" d="M-418.7,189.6l-0.2,0.1h-0.2l-0.1-0.4l0.1-0.1L-418.7,189.6L-418.7,189.6z"/>
<path class="st0" d="M-419.3,188.6L-419.3,188.6l0.1,0.4l-0.2-0.1l-0.1-0.2L-419.3,188.6z"/>
<path class="st0" d="M-403.6,187l-0.2,0.1l0.1-0.2L-403.6,187z"/>
<path class="st0" d="M-382.7,167.2h-0.2V167l-0.1-0.2l0.2,0.1L-382.7,167.2L-382.7,167.2z"/>
<path class="st0" d="M-384.4,165.3h-0.1v-0.2l0.1-0.2l0.2,0.1l-0.1,0.1L-384.4,165.3z"/>
<path class="st0" d="M-383.7,164.4v0.2l-0.2,0.1h-0.3v0.2l-0.2-0.1l-0.1-0.1l-0.1-0.2l0.4-0.2h0.2l0.1,0.1H-383.7z"/>
<path class="st0" d="M-387.5,163v0.2v0.1h-0.2l-0.2-0.2l0.2-0.2L-387.5,163z"/>
<path class="st0" d="M-386.2,161.3l0.2,0.1l0.1,0.1l-0.3,0.1l-0.1-0.2L-386.2,161.3z"/>
<path class="st0" d="M-388.2,161l0.5,0.1l0.2,0.2v0.1l-0.2,0.2h-0.4l-0.1-0.3l-0.1-0.2L-388.2,161L-388.2,161z"/>
<path class="st0" d="M583.3,331.3l0.2,0.1l-0.1,0.2h0.2v0.1h-0.4l-0.2-0.3l0.1-0.2L583.3,331.3L583.3,331.3z"/>
<path class="st0" d="M562.2,331L562.2,331l0.7,0.4l0.3,0.2l0.5,0.4l-0.1,0.2h-0.1l-0.1,0.1l-0.1-0.2h-0.1l-0.1-0.1l-0.1-0.2
	l-0.2-0.1v-0.2l-0.2-0.1l-0.1,0.1h-0.1l-0.5-0.2l-0.1-0.2l0.2-0.2L562.2,331z"/>
<path class="st0" d="M582.5,330.2l-0.1,0.2l-0.2-0.1v-0.1H582.5L582.5,330.2z"/>
<path class="st0" d="M581.3,328L581.3,328l0.2,0.1l-0.1,0.2l-0.3,0.1h-0.2l-0.2,0.1l-0.2,0.3l-0.1-0.2l-0.2,0.1l-0.1-0.1v-0.2
	l0.3-0.1v-0.1l0.2-0.2l0.4,0.1L581.3,328z"/>
<path class="st0" d="M566.7,326.5l0.2-0.1l0.3,0.2l0.3,0.3l0.2,0.2h0.1l0.1,0.1h0.1l0.2,0.2l0.2-0.1l0.2,0.1l0.1,0.1h0.2l0.2-0.1
	l0.1,0.2l0.1,0.4l0.2,0.2v0.3l-0.1,0.1l0.1,0.2l-0.2-0.1l-0.2,0.1l-0.2-0.1l-0.3-0.2h-0.1l-0.3-0.1l-0.2-0.1l-0.1-0.2l-0.3-0.1
	l-0.2-0.1l-0.1-0.2l-0.2-0.1l0.1-0.2l-0.1-0.2V327l-0.1-0.1l-0.3-0.1l-0.2,0.1l-0.1-0.1l0.1-0.2l0.1-0.2h0.1L566.7,326.5
	L566.7,326.5z"/>
<path class="st0" d="M568.9,324.6l-0.1,0.1v0.4l-0.1-0.1v-0.3L568.9,324.6z"/>
<path class="st0" d="M567.3,323.6l0.2,0.5l0.1,0.2v0.2l0.1,0.3l-0.1,0.2l-0.2-0.4l-0.1,0.2l-0.2-0.3l0.1-0.6l0.1-0.1L567.3,323.6
	L567.3,323.6z"/>
<path class="st0" d="M562.7,323.7h0.2l0.2-0.1l0.2,0.1l0.1-0.1h0.3h0.4l0.1,0.2l0.2,0.1l0.1,0.2h0.1l0.1,0.1l0.2,0.2v0.3h0.1
	l0.2,0.1l0.1,0.2v0.3l-0.1,0.1l-0.4,0.1l-0.1,0.1l-0.2-0.1l-0.2-0.1h-0.2l-0.1-0.1l-0.3-0.2h-0.3l-0.3,0.1h-0.3l-0.3-0.1l-0.2-0.1
	l-0.2,0.1l-0.2-0.2l-0.2-0.1l-0.2-0.4l0.1-0.4l0.1-0.1l-0.1-0.1v-0.4l0.1-0.2l0.3-0.2l0.2,0.1l0.2,0.3l0.1,0.2L562.7,323.7z"/>
<path class="st0" d="M564,322.4l0.3,0.3l-0.2,0.2l-0.2-0.1v-0.1L564,322.4z"/>
<path class="st0" d="M564,322.4l-0.1,0.2h-0.1l-0.2-0.2l-0.2,0.1l-0.1-0.1l-0.1-0.1l0.2-0.1l0.1-0.1l0.3,0.1L564,322.4z"/>
<path class="st0" d="M560.3,322.1l0.1,0.1l0.1,0.1l-0.1,0.2l-0.2,0.1l-0.2-0.2L560.3,322.1z"/>
<path class="st0" d="M555.6,321.1l0.1,0.2l-0.1,0.2l-0.4-0.2l0.3-0.2H555.6z"/>
<path class="st0" d="M557.5,321.6l-0.2-0.1l0.1-0.2l0.2-0.2v0.3l0.1,0.1L557.5,321.6z"/>
<path class="st0" d="M557,320.6l0.1-0.1h0.2v0.1l-0.2,0.2l0.1,0.1v0.2l-0.2,0.2l-0.1,0.1l-0.2-0.1l-0.2-0.2l0.1-0.3l0.2-0.1l0.1-0.2
	l0.2-0.1L557,320.6L557,320.6z"/>
<path class="st0" d="M555,320.6l-0.1,0.1l-0.1,0.3l0.2,0.3l-0.3-0.1V321l-0.1-0.2l-0.2-0.2v-0.1l0.2-0.1l0.1-0.2l0.2-0.2l0.2,0.1
	v0.2L555,320.6z"/>
<path class="st0" d="M562.2,320.3l0.1,0.1l-0.1,0.1l-0.1-0.1l-0.3-0.3l0.1-0.2l0.2-0.1l0.1,0.1l-0.1,0.2L562.2,320.3z"/>
<path class="st0" d="M565.7,319.9l0.2,0.4l0.3,0.4v0.2L566,321v0.3v0.2l0.1,0.1h0.1l0.1,0.2l0.3,0.2l0.1,0.3l0.1,0.2l0.1,0.1
	l-0.1,0.1l0.2,0.2l-0.1,0.1l0.1,0.3l-0.1,0.1l0.2,0.2l0.1,0.3l0.1,0.3v0.3l-0.1,0.1l-0.2-0.2l-0.2-0.3v-0.2l-0.2-0.2l-0.2-0.2
	l-0.2-0.2l-0.3-0.3l-0.2-0.2l-0.2-0.5l-0.1-0.6l-0.1-0.4V321l-0.1-0.2l0.2-0.2l-0.1-0.2L565,320l-0.1-0.2l0.1-0.1l0.2,0.1l0.1,0.1
	l0.2-0.2L565.7,319.9z"/>
<path class="st0" d="M554.3,319.7l-0.1-0.2l-0.2-0.2h0.2L554.3,319.7z"/>
<path class="st0" d="M554.3,319.2l0.2,0.1l0.1,0.1l0.1,0.3h-0.1l-0.1-0.2L554.3,319.2z"/>
<path class="st0" d="M556,319.3l-0.1,0.2h0.1h0.3l0.2,0.4v0.1l0.1,0.2l0.1,0.3l-0.1,0.1v0.2l-0.3-0.1l-0.1-0.1H556l-0.2-0.2
	l-0.1-0.1l-0.1-0.3l0.2,0.1l-0.2-0.4l-0.1-0.1l-0.3,0.1l-0.1,0.1h-0.2l-0.2,0.2l-0.2-0.1v-0.3l0.1-0.1h0.2v-0.2l0.2-0.3l0.2-0.2
	l0.2-0.1l0.2,0.2l0.1,0.2l-0.1,0.4L556,319.3z"/>
<path class="st0" d="M552.7,319.3L552.7,319.3l-0.2-0.4l0.1-0.2v-0.2l0.1,0.1l0.1,0.2v0.4L552.7,319.3z"/>
<path class="st0" d="M554.6,319l-0.2,0.1l-0.1-0.1h-0.2l-0.2-0.2l-0.1-0.2l-0.1-0.2l0.1-0.2l0.2-0.2l0.3-0.1l0.1,0.1l0.2,0.3v0.3
	V319z"/>
<path class="st0" d="M552.9,317.1l0.2,0.3v0.1l0.4,0.2l-0.1,0.2l-0.3,0.4v0.2l-0.2,0.1v-0.2h-0.1V318l-0.1-0.2l-0.2-0.1l-0.1-0.2
	l0.1-0.2l0.1-0.1l0.1-0.1L552.9,317.1L552.9,317.1z"/>
<path class="st0" d="M558.6,317.1l0.2,0.1l-0.1,0.1l-0.3,0.1l-0.1-0.2l0.1-0.1H558.6z"/>
<path class="st0" d="M559.1,317.1l0.1-0.1l0.3,0.2l0.2,0.1l0.1,0.1l0.2,0.3l0.2,0.1l0.2,0.2v0.2l0.3,0.1v0.2l0.2,0.1l0.2-0.1
	l0.1,0.1l0.2,0.1l0.1,0.1l0.2-0.1l0.2,0.1l0.1,0.2l0.2,0.2l0.2,0.2l0.2,0.2l0.6,0.6l-0.6-0.2l0.2,0.3l0.1,0.3l-0.2-0.1l-0.2-0.2
	l-0.4-0.4l-0.2-0.1l-0.3-0.2l-0.3-0.1l-0.1-0.2l-0.3-0.1l-0.3-0.2h-0.1l-0.4-0.3l-0.3-0.2v-0.1l-0.2-0.1l-0.1-0.1l-0.1-0.2l-0.2-0.2
	l-0.1-0.1v-0.2l-0.2-0.3l-0.1-0.1V317L559.1,317.1z"/>
<path class="st0" d="M558.3,316.8l0.1,0.1l0.1-0.1l0.2,0.1l-0.1,0.1l-0.2-0.1L558.3,316.8z"/>
<path class="st0" d="M555.8,316.5h0.3l-0.1,0.1L555.8,316.5L555.8,316.5z"/>
<path class="st0" d="M558.2,316.5l-0.1,0.3l-0.1-0.1L558.2,316.5z"/>
<path class="st0" d="M556.7,316.7l-0.3,0.1l-0.1-0.1l0.2-0.2l0.2,0.1L556.7,316.7z"/>
<path class="st0" d="M549.8,316.2l0.1,0.2l-0.1,0.1l-0.2-0.1l-0.1-0.1L549.8,316.2z"/>
<path class="st0" d="M550.6,315.2l0.2,0.1l-0.1,0.2l-0.4,0.1l-0.2-0.2l0.2-0.3l0.1-0.1L550.6,315.2z"/>
<path class="st0" d="M551.6,314.7v0.3l-0.1-0.1L551.6,314.7L551.6,314.7z"/>
<path class="st0" d="M553.2,313.8l0.2,0.1l0.2,0.3l0.2,0.1l0.2,0.1l0.2,0.2l0.4,0.2l0.2,0.3v0.2l0.1,0.3l0.1,0.1l0.2,0.2h0.1
	l0.1,0.2l0.4,0.2l0.2-0.1l0.1,0.1v0.2l-0.2,0.1l-0.1,0.2l-0.3-0.1l-0.4-0.2h-0.5l-0.2-0.2l-0.4-0.2l-0.3-0.6l-0.3-0.6l-0.3-0.2
	l-0.4-0.4V314v-0.1l0.2-0.1l0.2,0.1L553.2,313.8z"/>
<path id="SX" class="st0" d="M-130.3,226.3L-130.3,226.3h-0.2v-0.1L-130.3,226.3z"/>
<path class="st0" d="M-156,212.9h0.4l0.2,0.2h-0.2l-0.2-0.1l-0.3,0.1l-0.1-0.2H-156z"/>
<path class="st0" d="M-157.5,212.8l0.2,0.2l0.3-0.1l-0.1,0.1h-0.3l-0.2-0.1L-157.5,212.8z"/>
<path class="st0" d="M-156.3,212.5v0.3l-0.3-0.1l-0.1-0.2l0.1-0.1L-156.3,212.5z"/>
<path class="st0" d="M-442.6,221.8l-0.3-0.2v-0.1l0.2-0.1L-442.6,221.8z"/>
<path class="st0" d="M-444.2,220.6h0.2l0.2,0.2l0.2,0.1l0.1-0.2l0.2,0.2l-0.2,0.2l0.1,0.1l-0.1,0.1l-0.1-0.1l-0.2-0.2l-0.4-0.1
	L-444.2,220.6L-444.2,220.6z"/>
<path class="st0" d="M-444.6,215.9l-0.1,0.1l-0.1-0.3l0.1,0.1L-444.6,215.9z"/>
<path class="st0" d="M-442.2,211.7l-0.3,0.2h-0.1l-0.1-0.1l0.2-0.3l0.2,0.1L-442.2,211.7z"/>
<path class="st0" d="M-450,201.1L-450,201.1h-0.2l0.1-0.1L-450,201.1C-450,201-450,201.1-450,201.1z"/>
<path class="st0" d="M-125.6,251.8l-0.1,0.3l-0.2,0.2l-0.1,0.1l-0.1,0.2l0.1,0.3l-0.1,0.1v0.4l0.1,0.2l0.1,0.1l-0.1,0.1l-0.1,0.2
	v0.4l-0.1,0.1l-0.2,0.1l-0.3,0.1h-0.2l-0.3,0.1l-0.3-0.1l-0.2,0.1l-0.2-0.1l-0.3,0.1l-0.2-0.1h-0.3l-0.2,0.1l-0.2-0.1l0.3-0.1
	l0.2-0.2l0.2-0.1l0.2-0.2l0.1-0.2l0.3,0.1l0.2-0.2l-0.1-0.4l0.1-0.2v-0.3v-0.1l-0.2-0.2l-0.2-0.1l-0.2-0.1l-0.1-0.1l0.2-0.2l0.6-0.1
	l0.1-0.1h0.6l0.1-0.1l0.7-0.1L-125.6,251.8L-125.6,251.8z"/>
<path class="st0" d="M-124.2,250.1l-0.1,0.3l-0.2,0.1l-0.2,0.2h-0.1l-0.4,0.2l-0.1-0.1l0.2-0.2l0.4-0.3L-124.2,250.1z"/>
<path id="TV" class="st0" d="M608.1,160.1V160h0.1L608.1,160.1L608.1,160.1L608.1,160.1z"/>
<path id="VC" class="st0" d="M-125.9,243.7L-125.9,243.7l-0.3-0.1v-0.2l0.1-0.2l0.1-0.3h0.2l0.1,0.2l-0.1,0.4L-125.9,243.7
	L-125.9,243.7z"/>
<path id="VG" class="st0" d="M-134.8,224.9l-0.2,0.1h-0.1l-0.2,0.1l-0.1-0.1l0.1-0.2l0.3-0.1L-134.8,224.9L-134.8,224.9z"/>
<path class="st0" d="M-135.7,227.3l0.2,0.2l-0.6,0.1l-0.1-0.3l0.4-0.1L-135.7,227.3z"/>
<path class="st0" d="M-135.3,225.2l-0.1,0.1h-0.3v-0.1l0.2-0.1L-135.3,225.2z"/>
<path class="st0" d="M-136.1,225.1l0.2,0.2l-0.1,0.1l-0.2-0.1h-0.2l0.1-0.1L-136.1,225.1z"/>
<path class="st0" d="M586.1,362l-0.3-0.1l0.1-0.2l0.3-0.1l0.1,0.2L586.1,362L586.1,362z"/>
<path class="st0" d="M585.4,359.9L585.4,359.9l-0.3-0.1l-0.2-0.3l-0.1-0.2v-0.2l0.1-0.1l0.1-0.2l0.2-0.1h0.2l-0.1,0.2v0.3l0.4,0.3
	l-0.2,0.2L585.4,359.9z"/>
<path class="st0" d="M585.4,356.7h0.2l0.1,0.1l-0.3,0.1l0.1,0.2l0.2,0.1l0.1,0.2l-0.1,0.2l-0.2,0.1l-0.2-0.2h-0.2l-0.1-0.1l-0.2-0.1
	l0.1-0.2v-0.2l0.1-0.3l0.2-0.2h0.3l0.1,0.1L585.4,356.7L585.4,356.7z"/>
<path class="st0" d="M583.7,352.5l0.3-0.1l0.1,0.1l0.1,0.3l0.1,0.2l0.1,0.1l-0.2,0.3l-0.4,0.1l-0.2-0.2l-0.1-0.3l-0.2-0.1l-0.2,0.2
	L583,353l0.1-0.2l0.2-0.2l0.2-0.3L583.7,352.5z"/>
<path class="st0" d="M585,350.3l-0.1-0.2h0.2L585,350.3z"/>
<path class="st0" d="M584.1,349l0.1,0.3v0.1l0.2,0.1l0.1,0.3h0.3v0.2l-0.1,0.1l-0.2-0.2l-0.2-0.1l-0.3,0.1l-0.2-0.1l-0.1-0.1
	l-0.1-0.2l0.1-0.3l0.1-0.2L584.1,349z"/>
<path class="st0" d="M584.6,348.9L584.6,348.9l-0.1-0.2h0.1V348.9z"/>
<path class="st0" d="M584.7,348.1L584.7,348.1l-0.4,0.1l-0.2,0.1l-0.1-0.1l-0.2-0.1l-0.3-0.2l0.1-0.1l0.3-0.1l0.2-0.1l0.2-0.2
	l0.1-0.2h0.1l0.1,0.2v0.3l0.3,0.2L584.7,348.1z"/>
<path class="st0" d="M582.1,347.4l0.1,0.2l0.3,0.2l0.4,0.4l0.1,0.1v0.2l0.1,0.2l-0.2,0.1l-0.2,0.2v-0.1l-0.2-0.1h-0.2l-0.1,0.1v0.1
	l-0.2,0.1l-0.2-0.1v-0.4l-0.1-0.3l0.1-0.3l0.1-0.3l-0.1-0.3l-0.3,0.2l-0.1-0.1l-0.1-0.2v-0.2l0.2-0.2v-0.2l0.1-0.2l0.2-0.1l0.3,0.2
	l-0.1,0.1l0.1,0.3l-0.1,0.1L582.1,347.4z"/>
<path class="st0" d="M581.8,346.1h-0.2l-0.3-0.2v-0.1l0.1-0.2l0.1-0.1l0.3,0.1l-0.1,0.2L581.8,346.1L581.8,346.1z"/>
<path class="st0" d="M581.5,345.5l0.2-0.2l0.1,0.1l0.1,0.2L581.5,345.5L581.5,345.5z"/>
<path class="st0" d="M584.7,347L584.7,347v-0.8l-0.1-0.2l0.1-0.3l0.2-0.4l0.1-0.3l0.1,0.3l-0.1,0.2v0.3v0.6l-0.1,0.3L584.7,347z"/>
<path class="st0" d="M584,345.1h-0.4l-0.2-0.1l0,0l0.5-0.4l0.3-0.1l0.3-0.1v0.1l-0.2,0.2l-0.1,0.2L584,345.1z"/>
<path class="st0" d="M585,344.7L585,344.7l-0.2,0.1l0.1-0.2l0.1-0.7v-0.1l0.1-0.7l0.1,0.1l-0.1,0.7l0.1,0.2l-0.1,0.3L585,344.7z"/>
<path class="st0" d="M581.5,345.5l-0.5-0.1l-0.3,0.2l-0.1,0.1h-0.1l-0.1-0.3l-0.1-0.1l-0.2-0.6l0.2-0.4v-0.2l-0.1-0.1v-0.8l-0.1-0.2
	v-0.3l0.1-0.2v-0.2l0.1-0.2V342l0.2-0.1l0.1,0.3l0.1,0.2l0.1,0.2l0.1,0.7l-0.1,0.4v0.1l0.3-0.1l0.2-0.2l0.1-0.4V343l0.2-0.1l0.2,0.1
	l-0.1,0.2v0.5l0.2,0.1v0.3l-0.1,0.1l0.2,0.2l-0.1,0.1v0.3l0.1,0.3l-0.1,0.1h-0.2L581.5,345.5z"/>
<path class="st0" d="M583.9,340.4l0.2,0.2l-0.1,0.2l-0.2,0.2l-0.1,0.1h-0.3v-0.2l0.1-0.2l0.1-0.2L583.9,340.4z"/>
<path class="st0" d="M584.2,339.3l-0.2,0.1l-0.1,0.1v0.1l-0.1,0.1v-0.2l-0.1-0.1l-0.1-0.2l0.1-0.2l0.1-0.1l0.2-0.1l0.1,0.1l0.1,0.2
	v0.1V339.3z"/>
<path class="st0" d="M581.4,337L581.4,337v-0.3l0.1,0.1L581.4,337z"/>
<path class="st0" d="M-438.7,195.2l0.2,0.1l0.2,0.1l0.2,0.1l-0.1,0.2h-0.6l-0.2-0.1l-0.2,0.1l-0.1-0.1l-0.2-0.1l-0.2,0.1l-0.2-0.1
	l-0.1-0.1l-0.3-0.2l0.1-0.2l0.2-0.1h0.2h0.3l0.5,0.2L-438.7,195.2L-438.7,195.2z"/>
<path class="st0" d="M-441.1,193.6l0.3,0.3l0.1,0.4l-0.1,0.2l0.1,0.2h-0.2l-0.2-0.1l-0.2,0.1l-0.5,0.1l-0.2-0.2l-0.1-0.2l-0.1-0.1
	l-0.2-0.2l-0.3-0.2l-0.1-0.1v-0.1l0.2,0.1l0.2-0.1l0.3-0.1h0.2l0.3-0.1h0.2L-441.1,193.6z"/>
<path id="BQBO" class="st0" d="M-148.1,247.6L-148.1,247.6l-0.2-0.3l0.1-0.2l-0.1-0.2l-0.2-0.1l-0.2-0.2l0.1-0.2l0.7,0.3l-0.1,0.1
	v0.2l-0.1,0.1L-148.1,247.6L-148.1,247.6z"/>
<path id="BQSE" class="st0" d="M-130.3,228.3l-0.1,0.1L-130.3,228.3v-0.1V228.3L-130.3,228.3z"/>
<path id="BQSA" class="st0" d="M-131.1,227.8L-131.1,227.8v-0.1V227.8L-131.1,227.8z"/>
<path id="MQ" class="st0" d="M-124.9,237.9v0.1l0.2-0.1l-0.1,0.3l0.1,0.1v0.1l0.1,0.1l0.1,0.5l-0.2,0.2l-0.1-0.2l-0.1,0.1l-0.3-0.1
	h-0.2l-0.1-0.2l0.3-0.3h-0.2l-0.2-0.2l-0.1-0.3l-0.1-0.3l0.2-0.2l0.2,0.1l0.3,0.2L-124.9,237.9L-124.9,237.9z"/>
<path id="YT" class="st0" d="M204.2,335.1l0.1,0.2l0.3,0.1v0.2l-0.1,0.1l0.1,0.1l-0.2,0.3l0.1,0.1l-0.2,0.1l-0.1-0.2V336l0.1-0.1
	l-0.1-0.4l-0.1-0.1l-0.1-0.1L204.2,335.1z"/>
<path id="RE" class="st0" d="M234.5,364.2h0.2l0.2,0.1l0.2,0.2v0.2l0.1,0.3l0.2,0.1l0.1,0.1l0.1,0.1l-0.1,0.3l-0.1,0.2l-0.1,0.1
	l-0.2,0.1h-0.5l-0.1-0.1l-0.4-0.2l-0.2-0.3v-0.2l-0.2-0.3l0.1-0.2l0.1-0.1l0.1-0.2h0.1l0.3-0.1L234.5,364.2L234.5,364.2z"/>
<path class="st0" d="M-125.5,234h-0.2l-0.1-0.2l0.1-0.1l0.2-0.2l0.2,0.1l0.1,0.2v0.1L-125.5,234z"/>
<path class="st0" d="M-126.5,232.6h0.2v0.1v0.1l-0.1,0.1v0.4v0.2l-0.1,0.1l-0.3,0.2v-0.1l-0.1-0.1l-0.1-0.3V233l-0.1-0.3v-0.2
	l0.1-0.2l0.2-0.1l0.3,0.2V232.6z"/>
<path class="st0" d="M-125.7,232.3l0.2,0.1l0.3,0.2l-0.7,0.2l-0.2,0.1l-0.2-0.2l0.1-0.3l0.1-0.1l-0.1-0.3l0.1-0.1l0.2-0.1l0.2,0.2
	V232.3L-125.7,232.3z"/>
<path class="st0" d="M602.7,197.8l-0.2,0.1l0.1-0.2L602.7,197.8z"/>
<path class="st0" d="M613.6,357.3L613.6,357.3l0.3,0.2v0.2l-0.3,0.1l-0.3-0.2l-0.3,0.2h-0.2l-0.1,0.2l0.1,0.2l-0.2-0.1l-0.1,0.1
	l-0.2-0.1l-0.1,0.1l-0.2-0.1l0.2-0.1l0.1-0.1l0.1-0.1l0.2,0.1l0.2-0.2l0.1-0.2l0.3-0.1l0.3-0.2L613.6,357.3L613.6,357.3z"/>
<path class="st0" d="M599.1,196.9L599.1,196.9h-0.2H599.1L599.1,196.9z"/>
<path class="st0" d="M602.3,193.5l0.1,0.3l-0.1,0.3l-0.1-0.1l-0.1-0.2H602l0.1-0.3H602.3L602.3,193.5z"/>
<path class="st0" d="M600.9,192.7L600.9,192.7l-0.1-0.2l0.1-0.1l0.2-0.1v0.2L600.9,192.7L600.9,192.7z"/>
<path class="st0" d="M614.7,351.8l-0.1,0.2l0.2,0.1l0.1,0.2l0.2,0.2l0.2,0.1l0.1,0.2h0.1l0.1,0.2l-0.2,0.3l0.1,0.1l0.1,0.3l-0.2,0.1
	v0.3h0.1l0.1,0.3l-0.2,0.2l-0.3,0.1l-0.1-0.1l-0.2,0.1l-0.1,0.1l-0.2-0.2l-0.4,0.2l-0.4,0.4l-0.2-0.1l-0.2,0.1l-0.2-0.1l-0.3,0.1
	l-0.2-0.1l-0.5-0.2l-0.2-0.1l-0.3-0.1l-0.1-0.1l-0.3-0.1l-0.1-0.6l0.2-0.4h0.2l0.2-0.1l0.1-0.3l0.2-0.1l0.1-0.2l-0.1-0.1l0.3-0.2
	l0.2-0.3l0.1,0.1l0.3-0.3h0.1l0.5-0.2l0.3,0.1l0.2-0.1l0.3-0.1l0.3-0.1l0.2-0.2L614.7,351.8z"/>
<path class="st0" d="M603.1,191.5L603.1,191.5v-0.4h0.2l-0.1,0.2L603.1,191.5z"/>
<path class="st0" d="M611.8,350.8l-0.1,0.2l-0.3,0.2V351l0.2-0.2H611.8z"/>
<path class="st0" d="M605.1,190.1L605.1,190.1v-0.2l0.3-0.3l0.2-0.3l-0.2,0.6L605.1,190.1z"/>
<path class="st0" d="M605.6,187.4l-0.2,0.2l-0.4,0.6l-0.2,0.1l-0.4,0.2l-0.1,0.3l-0.2,0.1l-0.1,0.2l-0.1,0.1l0.2,0.1l0.3-0.2
	l0.1-0.1l0.2-0.2l0.1-0.2l0.3-0.2l0.2-0.2l0.3-0.2v0.2l-0.3,0.4l-0.1,0.1l0.1,0.3l-0.2,0.2l-0.2-0.2h-0.2l-0.3,0.1l-0.2,0.2
	l-0.4,0.1h-0.6l0.3-0.3l-0.2-0.1l-0.3,0.1l-0.2,0.1v0.1l-0.2,0.1l-0.1,0.1l-0.1,0.2l-0.1,0.2l-0.2-0.1v-0.1l-0.2-0.1l-0.2,0.1
	l-0.1,0.3l-0.2,0.1h-0.2v-0.2v-0.2l-0.1-0.2l0.1-0.1l-0.1-0.1l-0.3,0.1v-0.2l0.2-0.2h0.1l-0.1-0.3l0.2-0.1l0.3,0.2l0.3-0.2h0.1
	l0.2-0.2h0.1l0.2-0.2V188l0.4-0.1l0.5-0.2l0.2-0.1l0.2,0.1l0.3-0.1l0.1-0.2h0.1l0.1-0.2l0.2,0.1l0.1-0.1l0.1,0.1l0.6-0.3l0.1,0.2
	l0.1-0.1l0.1,0.1l0.2-0.2l0.3-0.1l0.1,0.1l-0.3,0.2L605.6,187.4L605.6,187.4z"/>
<path id="_x30_" class="st0" d="M70.5,117.6L70.5,117.6L70.5,117.6z"/>
<path id="_x31_" class="st0" d="M-108.6,413L-108.6,413L-108.6,413z"/>
<path id="_x32_" class="st0" d="M512.3,410.3L512.3,410.3L512.3,410.3z"/>
<path class="st0" d="M468.9,343.1l4.6,0.3l2.7-2.5l4.1-3.5l2.9-1l-0.6,9.4l-2.1,3.6l-1.3,6.9l-1.4-1.4l-4.1,7.4l-0.9,0.1l-3,1.3
	l-2.2-5.4l-0.2-5l-2.2-5.6l0.5-3.8L468.9,343.1z"/>
<path class="st0" d="M525.2,373.5l4.2,6.3v2.9l-1.5,4.2l0.4,3l-1.7,2.9l-2.9,5l-0.8,2l-4.5,5.7l-5.5,4.5l-10.6,12.8l-2.4,1.2
	l-3.4,0.1l-8.2,4.4l-2.9-2.2l16.7-16.1l10.3-23.3l12.4-16.8L525.2,373.5z"/>
<path class="st0" d="M410.1,391.3l-0.6-4.2l11.4,9.8l12.7,10.1l-2.9,3.3l-2.6,0.1l-6.6,0.1l-5.4,1.9l-3.8,2.1l-4-0.1l-3.6-2.9
	l2.4-2.5l1.2-2l1.7-4.6l-0.4-3.6l0.9-4L410.1,391.3z"/>
<path id="GW_00000087371357201578306690000015846488772542158977_" class="st1" d="M60.8,154.3l-2.9,1.6l-1.6,4.4h-5l-1.9,1.2l0.1-5
	l2.6-4.1l0.5-1.8l0,0l0.8-2l-0.2-1.3l0.7-1l0.6-0.1l0.4-1.1l0.7-0.4l1.8,0.3l0.9,2l0.9,2.3l0.8,1.9L60.8,154.3z"/>
</svg>
