<?xml version="1.0" encoding="utf-8"?>
<!-- Generator: Adobe Illustrator 26.0.1, SVG Export Plug-In . SVG Version: 6.00 Build 0)  -->
<svg version="1.1"
	 id="svg1926" inkscape:output_extension="org.inkscape.output.svg.inkscape" sodipodi:version="0.32" xmlns:cc="http://creativecommons.org/ns#" xmlns:dc="http://purl.org/dc/elements/1.1/" xmlns:inkscape="http://www.inkscape.org/namespaces/inkscape" xmlns:rdf="http://www.w3.org/1999/02/22-rdf-syntax-ns#" xmlns:sodipodi="http://sodipodi.sourceforge.net/DTD/sodipodi-0.dtd" xmlns:svg="http://www.w3.org/2000/svg"
	 xmlns="http://www.w3.org/2000/svg" xmlns:xlink="http://www.w3.org/1999/xlink" x="0px" y="0px" viewBox="0 0 1000 1250"
	 style="enable-background:new 0 0 1000 1250;" xml:space="preserve">
<style type="text/css">
	.st0{fill:#FFFFFF;stroke:#D3D3D3;stroke-width:0.3636;stroke-miterlimit:1.4438;}
	.st1{fill:#FFFFFF;stroke:#D3D3D3;stroke-width:0.2278;stroke-miterlimit:3.9745;}
	.st2{fill:#FFFFFF;stroke:#D3D3D3;stroke-width:0.1367;stroke-miterlimit:3.9745;}
	.st3{fill:#FFFFFF;}
	.st4{fill:#FFFFFF;fill-opacity:0;}
</style>
<sodipodi:namedview  bordercolor="#666666" borderopacity="1.0" gridtolerance="10.0" guidetolerance="10.0" id="base" inkscape:current-layer="svg1926" inkscape:cx="500" inkscape:cy="625" inkscape:pageopacity="0.0" inkscape:pageshadow="2" inkscape:window-height="718" inkscape:window-width="1024" inkscape:window-x="31" inkscape:window-y="16" inkscape:zoom="0.4104" objecttolerance="10.0" pagecolor="#ffffff" showgrid="false">
	</sodipodi:namedview>
<defs>
	
		<inkscape:perspective  id="perspective1028" inkscape:persp3d-origin="194.5 : 125.66667 : 1" inkscape:vp_x="0 : 188.5 : 1" inkscape:vp_y="0 : 1000 : 0" inkscape:vp_z="389 : 188.5 : 1" sodipodi:type="inkscape:persp3d">
		</inkscape:perspective>
</defs>
<path id="pe" class="st0" d="M195.6,378.8c2-4.1,3.1-6.8,6.2-10.2c1.4-1.5,2.5-3.3,4.1-4.7c1.2-0.9,3.8-2.1,3.9-3.9
	c2,0.6,4.1,8.5,2.3,9.5c-1.2,0.7-2.7,0.1-3.6,1.4c-1,1.5-0.7,3.5,1.2,3.7c-1.7,2.2-1.2,5.1,1.5,2.2c2.3-2.5,3.5-0.7,5.7,1.1
	c1.8,1.6,4.1-0.9,5.5,1.6c1.5,2.5,1.6,6.5,5.1,7.2c3,0.6,3.2,0.4,4.1-2.8c5.7-21.8,10.4-29.6,3.8-5.8c-1,3.5,1-6.3,2.5-9.5
	c0.7-1.7,1.4-2.6,1.4-4.6c0-1.2,1.8-4.9,2.6-1.6c0.5-0.7,0.6-1.6,0.2-2.5c-0.1-1.1,1.5-2.2,2.1-3.1c1.5-2,3.5-3.5,5.7-4.6
	c4.9-2.2,10.8-3.1,15.4-6.3c9.6-6.5,16.2-16.5,18.2-27.7c0.7,0.9,1.7,1.1,2.8,1c-1.4-3.2,0.1-6.2-1.8-8.9c-0.7-1.1-4.6-4.4-4.3-5.8
	c1.6,0.2,3.5,0.9,5.1-0.1c1.5-0.9,1-1.2,2.7-0.5c3,1.1,5.2,2.2,7.2,4.7c2.6,3.2,4.2,4.3,5.4,8.4c0.5,1.7-0.1,3.1,2.2,3.3
	c2.2,0.2,1.7,1.1,3.2,2.5c3.1,2.7,5.3,1.2,6.4,5.9c0.9,3.6,0.6,4.4,4.6,5.5c4.2,1.2,0.2,6,2.3,8.4c1.1,1.4,3,1.7,4.6,1.7
	c1-0.1,2.1-0.2,3.2-0.2c1.4,0,3.1,0.9,4.3,0.7c2.8-0.1,6.2-2.1,7.4-4.6c1.4-2.6,4.9,2.3,6.4,2.5c2.3,0.1,6.2-3.5,7.8-2.2
	c1.4,1,2.3,2.7,3.7,3.6c1.2,0.9,4.2,0.6,4.9,1.4c3.1,3.3,3.2,4.4,0.7,8.3c-2,3.1-5.7,8.3-6.3,11.8c-0.6,4.3,4.3,0.9,6.2,2.6
	c1.5,1.4,2.6,3.1,3.7,4.7c0.5,0.7,1.1,1.1,0.9,1.7c-0.1,1.4-1.4,1.8-2.2,0.2c-0.4,0.5-0.7,1-1.1,1.4c-2.2-3-7.2-4.9-9.9-1.5
	c-3.2,3.9-10.1,3-14.7,4.2c-2.3,0.6-3.6,3.3-5.9,4.1c-2.5,0.7-1.7,1.7-3.3,3.2c-3.9,3.6-6.8,2.6-6.8,8.6c0,2.1,0.1,3.9-1.1,5.8
	c-1.2,1.7-2.6,3.6-2.1,5.8c0.5,2.3,2.5,5.7-0.1,7.4c-2.2,1.5-4.3,2.3-6.2,4.4c-1.4,1.5-2,3.3-1.6,5.3c0.2,1,0.6,2,1,2.8
	c-1.1,0.5-2.2,1.1-3.1,2c-3.2,3.5,6.3,6.4,2.3,8.8c2,1.2,3.3,3.6,3.8,5.9c0.2,1.4,1.1,1.8,2.1,2.6c1.2,1,1.1,2.5,1.8,3.7
	c1.4,2.1,4.2,3.1,5.2,5.5c1.2,3-1.1,4.7-2.7,6.8c3.5,1.8,8.6,0.1,12.2,2.5c2.2,1.5,4.3,5.4,3.5,8.1c4.7,0.6,10.7,1.6,14.9-1.2
	c2.6-1.8,6-8.3,9.6-8.4c-0.4,1.7-1.7,1.7-0.7,3.6c1.1,1.8-0.7,3.7-0.6,5.8c0.2,5.5,0.5,11.2,1.1,16.8c1.8-1.6,3.1,1.7,4.9,1.5
	c2.6-0.2,4.4-2.3,7.2-2.3c2.6,0,4.4-0.2,5.2,2.2c1.1,3.8,3.8,7,5.8,10.5c2,3.6,3.9,7,5.9,10.6c1.7,3.1,3.3,4.9,0.5,7.2
	c-2.6,1.8-2.8,5.3-2,8c0.9,2.3,0.2,5.5,0.4,9.7c0,1.8,2.3,4.2,2.3,6c0,0.1-1.6,4.7-1.7,4.8c-1.7,1.6-2.7,4.3-3.6,6.5
	c-1.5,3.9,2.5,4.3,2.5,7.4c0,2.2-1.5,3.1-1.8,5.2c-2.3-1.6-7.5-6.9-8.5-3c-0.7,2.7,0.6,1.8,0.9,5.3c0.1,0.4-2.3-2.2-1.4-1.5
	c0,0.6-3.3,3.5,2.6,5.5c0.2-2.7,3.6,1.7,5.2,1.2c0.9-0.2,0.4,1,0.2,3.1c1.8,0.5,4.9,1.4,5.3,0.2c0.2,0,1.7,0.2,2.1,0.5
	c-1.1,6.3-0.4,4.9,0.5,5.7c-0.6,1.4,0.2,1-0.6,2.2c-1.6,2-3,5.1-4.8,6.9c-0.9,0.9-2,1.2-2.6,2.2c-1.2,1.8,1.2,1,1.6,2.5
	c0.4,2,1.2,1.8,0.5,2.7c-11.3,14.2-3.8,2-4.3,3c-1.1,2.2,1.7,5.1,0.2,7.6c-1.2,2.2-3.9,3-6.4,3c-2.7,0-4.8-2-6.5-3.7
	c-2.1-2-4.6-3-6.8-4.6c-4.2-3-3.8-8.3-8.8-10.2c-5.9-2.3-9.9-8.1-16-9.6c-3-0.7-5.9-2.7-8.4-4.3c-3.1-1.8-6.3-2.5-9.4-4.2
	c-3-1.6-5.5-4.1-8.6-5.8c-3.5-2-6.8-3.8-10.2-5.7c-3-1.6-4.7-5.2-6.9-7.5c-3.1-3.1-7.3-4.7-9.4-8.5c-1.2-2.2-2.7-4.8-4.8-6
	c-1.8-1.1,0.6-5.5-2.6-4.9c0-0.5,0.1-1.1,0.4-1.6c0.5,0.2,1,0.6,1.5,0.9c1.2-6.3-1.5-9.5-4.7-14.7c-2.8-4.7-4.8-9.6-8.9-13.4
	c-1.2-1.1-2.5-1.7-2.1-3.3c0.4-1.8-0.7-3.8-1.6-5.3c-0.9-1.5-1.8-3.1-3.2-4.2c-1.2-1-3.3-1.5-4.1-3c-0.1-0.7,0-1.6,0.2-2.3
	c-0.2-1.7-1.4-3.6-2.1-5.2c-1.5-2.8-3.6-5.4-5.2-8.1c-1.6-2.6-2.5-5.8-3.6-8.5c-2.6-6.5-6.7-11.6-8.5-18c-2.6-8.6-10-13.9-13.3-22.6
	c-3.8-9.9-11.8-16.8-21.5-20.8c-0.9-0.4-4.1-1.1-4.2-2.3c-0.1-1.6-0.5-4.3,1.8-4.1c4.2,0.5,2.6-3.5,1.2-5.4c-2-2.8-3.8-4.1-3.9-7.8
	c0.4-0.5,0.7-1,1.1-1.4c-0.1-0.5-1.7-2.1-2.1-2.5C195.2,382.6,196.3,381.3,195.6,378.8"/>
<path id="gf" class="st0" d="M597.5,263.2c2.6-0.1,4.6-4.4,5.4-6.3c1.6-3.6,0-7.5,2.5-10.7c2.8-3.8,0.2-6.7-2.2-9.7
	c-2.6-3.2-2.5-8.8-2.7-12.7c-0.2-4.4,0.4-7,3.7-10.2c1.2-1.1,2.7-2.5,3.2-4.2c0.5-2.2,1.1-5.1,4.3-3.8c2.1,0.7,3.5,2.5,5.7,3.1
	c2.3,0.6,5.3,0.6,7.3,2.2c2.3,1.8,5.5,9,9.2,8.8c-0.6,0.9-1.1,1.8-1.2,3c1.1-4.7,9.1,3.3,4.6,6.5c2.2-0.9,1-2.8,2.1-4.3
	c1.7-2.2,3,3,3.1,4.1c0.6,5.3-3.5,10.8-6.3,15.2c-3.2,4.8-5.4,8.9-7.5,14.4c-0.7,2-1.7,3.7-3.5,5.1c-0.7,0.6-2,1.8-3,2.1
	c-1.6,0.4-2.7-0.9-4.4,0c0.7-2-0.5-2-2-1.5c-2,0.6-3.8-0.2-5.7-0.9c-1-0.4-4.8,2.3-5.4,3.1C603.6,267.6,598.3,264,597.5,263.2"/>
<g id="bo" transform="matrix(4.4075902,0,0,4.3787433,-1727.6242,-2961.3857)">
	<path id="path2375" class="st1" d="M477.8,787.8c0.9,0,1.7,0.1,2.6,0.2c0.4,0,0.2,0.1,0.2,0.4c0.1,0.4,0.7,0,0.9-0.1
		c0.2-0.1,0.6-0.1,0.7-0.4c0.2-0.2,0.2-0.7,0.5-1c0.6-0.5,1.1,0.4,1.5-0.5c0.2-0.7,1.2-0.7,1.8-1.2c0.5-0.4,0.9-1.2,1.5-1.4
		c0.9-0.2,1.7-0.6,2.6-0.5c1,0.1,0.7,0.2,1.4-0.4c1.4,1-0.1,2.7,0.2,3.9c0.1,0.2,0.4,0.5,0.5,0.7c0.1,0.2-0.1,0.6-0.2,0.9
		c-0.2,0.9,0.6,1.2,0.7,1.8c0.1,0.5,0.1,0.4,0.5,0.7c0.2,0.2,0.1,0.7,0.4,0.9c0.2,0.1,0.5,0,0.7,0.2c0.2,0.2,0.6,0.4,1,0.6
		c0,0,0.2,0.5,0.4,0.5c0.2,0.2,0.5,0.4,0.7,0.4c0.5,0.1,0.7,0.2,1.2,0c0.4-0.2,0.6-0.1,0.9,0.1c0.2,0.1,0.5,0.4,0.7,0.6
		c0.4,0.2,0.5-0.2,0.7-0.1c0.6,0.1,0.6,1.2,1.4,1.2c0.6,0.1,1.1,0.6,1.7,0.6c0.9,0,1,1.4,1.7,1.5c0.6,0.1,1.1,0,1.7,0
		c0.9-0.1,1.7,0.5,2.3,1c1.1,0.6,0.4,1.2,0.9,2.2c0.5,1,0.6,2,0.9,3c-0.2,0-0.6,0-0.9,0c0,0.7,1,1.2,1.2,2.1c0.1,0.6,0,1.4,0.4,2
		c0.4,0.7,1.7,0.5,2.5,0.6c1.2,0.1,2.6,0.4,3.8,0c0,0.6-0.4,0.9-0.4,1.5c0,0.4,0.1,1,0.2,1.4c0.1,0.6,1,1.6,1.6,1.7
		c0.4,0.1,0.5-0.1,0.7,0.2c0.1,0.4,0.2,0.6,0.4,1c0.4,0.9,0.9,1.4,0.6,2.3c-0.1,0.5-0.5,1.4-0.4,1.8c0.2,0.7-0.2,1.2-0.5,2
		c-0.4,0.9-0.4,1.4,0.4,2c0.5,0.5-0.4,0.7-0.7,1c0.2-0.9-0.9-1.8-1.5-2.3c-0.7-0.5-1.5-0.9-2.3-1c-2.3-0.5-4.7,0.7-6.9,1
		c-1.1,0.1-1.6,0.2-1.7,1.4c-0.1,1-0.9,1.5-1,2.5c-0.1,0.9,0.2,1.7,0,2.6c-0.2,1.2-0.4,2.7-0.6,3.9c-1-0.6-0.6-1.1-1.5-1
		c-0.7,0-1.5-0.1-2.2,0.1c-0.7,0.2-0.7-0.4-1.1,0.7c-0.4,0.9-0.5,1.6-0.6,2.6c-1-1.4-0.9-2.7-2.7-3c-0.7-0.1-1.8,0.2-2.6-0.1
		c-0.6-0.2-1-1-1.6-1.1c-0.1,1,0,1.2-1,1.6c-0.5,0.1-1,1.1-1.2,1.6c-0.4,0.7-0.6,1-1.5,1.1c-0.4,0-0.9-0.1-1-0.4
		c-0.6-1.6-0.7-2.5-1.5-3.8c-0.6-1-0.5-1.8-1-2.6c-0.2-0.4-0.7-0.7-1-1.1c-0.4-0.5,0.1-1.1,0-1c-0.4,0-0.6-0.4-0.9-0.7
		c-0.2-0.4,0.2-0.6-0.2-1.2c1-0.6,0.9-0.5,0.2-1.4c-0.1-0.1,0.2-0.7,0.4-0.9c0.2-0.5,0-0.7-0.5-1.1c-0.9-0.7-1.2-1.4-1.6-2.5
		c-0.1-0.5-0.9-1.7-0.4-2.2c-1.6-0.4-1.6-2.7-2.3-3c0-0.2,0.2-0.5,0.5-0.6c0.4-0.2,0.5-0.6,0.7-1c0.2-0.2,0.4-0.6,0.6-0.7v-0.5
		c0.2,0.1,0.9,0.2,0.2-0.5c0.2,0.1,1-0.7,1-0.5c0-0.9-1.4,0.5-0.9-1.4c-0.9-0.1-0.1-0.4-1.8-1.5c0.1-0.5,0.6-1,0.4-1.5
		c-0.4-0.7-1-0.9-0.5-1.8c0.2-0.6,0.6-1.1,0.9-1.6c0.2-0.7,0.4-0.7,0-1.5c-0.4-0.7-0.1-1.2-0.1-2c0-0.6-0.4-1.8,0-2.3
		c0.5-0.5,0.9-0.9,0.5-1.5C479.9,791.7,478.8,789.8,477.8,787.8"/>
	<path id="path5225" class="st1" d="M481.3,808.3c0,0-0.2,0-0.5-0.1c-0.1,0,0.1-0.4,0.2-0.5C481.2,807.8,481.5,808.2,481.3,808.3"/>
</g>
<g id="br" transform="matrix(4.4075902,0,0,4.3787433,-1859.4186,-3158.7554)">
	<path id="path2886" class="st2" d="M612.3,843.1C612.8,841.8,611.5,842.8,612.3,843.1"/>
	<path id="path2814" class="st2" d="M564.9,796.5c0.4-0.1,0.6-0.2,0.9-0.5C565.4,795.8,565,796.1,564.9,796.5"/>
	<path id="path2816" class="st2" d="M565.6,796.8c0.2-0.2,0.7-0.2,1-0.5C566.2,796,565.5,796.3,565.6,796.8"/>
	<path id="path2846" class="st2" d="M571.5,782.3c0.1-0.1,0.1-0.2,0.2-0.4C571.4,781.9,571.3,782,571.5,782.3"/>
	<path id="path2848" class="st2" d="M571.8,783.3c0.5-0.2,0.2-0.6,0-1C571.3,782.5,571.5,782.9,571.8,783.3"/>
	<path id="path2818" class="st2" d="M566.6,796.2c0.9-0.2,3-2.3,2.5-3.3c-0.5-1-1.5,0.4-1.6,0.9c-0.1,0.4,0.1,0.9-0.4,1.1
		C566.7,795.2,566.4,795.7,566.6,796.2"/>
	<path id="path2820" class="st2" d="M568.3,792.4c0.4-0.2,1.2-0.9,0.9-1.4C568.7,791.3,568.6,791.9,568.3,792.4"/>
	<path id="path2822" class="st2" d="M568.4,795.2c0.5-0.1,0.9-0.9,0.5-1.4C568.9,794.5,568.4,794.7,568.4,795.2"/>
	<path id="path2824" class="st2" d="M569.8,793.9c-0.4,0.1-0.6,0.5-0.7,0.9c0.5-0.1,0.5-0.6,0.9-0.9
		C569.9,793.9,569.8,793.9,569.8,793.9"/>
	<path id="path2826" class="st2" d="M569.3,792.6c0.1-0.4,0.2-0.6,0.6-0.9C569.4,791.3,569.2,792.3,569.3,792.6"/>
	<path id="path2828" class="st2" d="M569.2,794.2c0.2-0.4,0.5-0.7,0.9-1c0.2-0.1,0.4-0.6-0.1-0.4C569.6,793,569.2,793.9,569.2,794.2
		"/>
	<path id="path2830" class="st2" d="M569.4,792.6c0.2-0.1,0.5-0.2,0.4-0.6C569.6,792.1,569.4,792.4,569.4,792.6"/>
	<path id="path2832" class="st2" d="M570.2,791.6c0.2-0.2,0.5-0.4,0.7-0.7c0.2-0.4-0.2-0.5-0.4-0.4
		C570.1,790.8,569.2,791.4,570.2,791.6"/>
	<path id="path2834" class="st2" d="M569.8,792.8c0.2-0.1,0.9-0.4,0.6-0.7C569.9,792,569.9,792.5,569.8,792.8"/>
	<path id="path2836" class="st2" d="M569.9,793.7c0.1-0.1,0.2-0.2,0.4-0.4C570.1,793.4,569.8,793.5,569.9,793.7"/>
	<path id="path2838" class="st2" d="M570.1,790.5c0,0.1,0,0.1,0,0.2c0.2,0,0.5-0.1,0.6-0.4C570.4,790.2,570.2,790.3,570.1,790.5"/>
	<path id="path2840" class="st2" d="M570.4,796.2c0.2,0.4,0.4,0.9,0.7,1.1c0.2,0.2,1.2,0.4,0.7,0c0.5,0,1-0.2,1.5-0.1
		c0.2,0.1,0.7,0.4,0.6-0.2c0.1,0.1,0.1,0.2,0.2,0.4c0.4-0.2,0.6-0.5,0.6-1c0.1,0.6,1.4,0.2,1.7,0c0.6-0.4,0.6-1.1,1-1.6
		c0.4-0.6,0.5-1.1,0.6-1.7c0.1-0.6,0.9-1.6-0.2-1.7c-0.9,0-1.8-0.6-2.7-0.2c-0.4,0.1,0,0.2-0.5,0.2c-0.5,0-0.9-0.1-1.4-0.2
		c-0.9-0.2-2-0.6-2.6,0.4c-0.4,0.5-0.4,1.4,0.4,1.6c-0.2,0-0.5-0.1-0.7-0.2c-0.1,0.2,0.1,0.5,0.1,0.7c0,0.4-0.2,0.6-0.1,0.9
		c0.2,0.4,0.7-0.1,1,0c-0.5,0.7-0.4,0.2-1.1,0.4C570.5,795.2,570.4,795.8,570.4,796.2"/>
	<path id="path2842" class="st2" d="M571.2,790.5c0.4,0.4,0.4-0.1,0.2-0.4C571.2,789.4,570.8,790.2,571.2,790.5"/>
	<path id="path2844" class="st2" d="M571.5,789.8c0.4-0.5,0.6-1.1,0.1-1.6C571.5,788.7,571.2,789.7,571.5,789.8"/>
	<path id="path2850" class="st2" d="M572.9,790.5c0.4,0.6,1-0.4,1.2-0.6c0.7-0.7-0.5-0.6-0.9-0.5c-0.4,0.1-1.2,0.1-1.4,0.6
		C571.7,790.4,572.6,790.4,572.9,790.5"/>
	<path id="path2852" class="st2" d="M572.3,789.2c0.1-0.1,1.1-0.9,0.7-1.1C572.4,787.6,571.8,788.8,572.3,789.2"/>
	<path id="path2854" class="st2" d="M572.3,789.7c0.2-0.1,0.4-0.2,0.5-0.4C572.5,789.2,572.3,789.4,572.3,789.7"/>
	<path id="path2856" class="st2" d="M572.3,787.6c0.4,0,0.7-0.1,0.6-0.5C572.6,787,572.1,787.2,572.3,787.6"/>
	<path id="path2858" class="st2" d="M573,787c0.2-0.1,0.2-0.2,0.1-0.5C572.9,786.6,572.9,786.7,573,787"/>
	<path id="path2860" class="st2" d="M573.9,790.5c-0.5,0.7,0.6,0.6,1,0.5C575.6,790.8,574.5,789.9,573.9,790.5"/>
	<path id="path2862" class="st2" d="M576.7,797.4c0.1-0.2,0.1-0.6,0.2-0.9C576.5,796.8,576.2,797.2,576.7,797.4"/>
	<path id="path2864" class="st2" d="M578.4,795C579.3,795.8,578.6,794,578.4,795"/>
	<path id="path2866" class="st2" d="M581,793.1c0.4,0.1,0-0.4,0-0.4C581,792.9,581,793,581,793.1"/>
	<path id="path2872" class="st2" d="M585.1,794.5c0.1,0,0.2-0.1,0.2-0.4C585,794,584.8,794.1,585.1,794.5"/>
	<path id="path2874" class="st2" d="M590.3,796c0.2-0.1,0.4-0.2,0.2-0.5c-0.1,0.4-0.2,0.5-0.2,0.2
		C590.3,795.7,590.3,795.8,590.3,796"/>
	<path id="path2876" class="st2" d="M591,796.9c0.1,0,0.2-0.1,0.4-0.1C591.1,796.7,591,796.7,591,796.9"/>
	<path id="path2878" class="st2" d="M591.8,802.4c0.2-0.4,0.4-0.9,0.4-1.4C591.6,801.3,591.8,802,591.8,802.4"/>
	<path id="path2882" class="st2" d="M594.7,799.7c0.1-0.1,0.2-0.2,0.2-0.4C594.7,799.3,594.6,799.4,594.7,799.7"/>
	<path id="path2812" class="st1" d="M491.8,819.6c0.2-0.5,0.1-0.6,0.6-0.7c0.5-0.1-0.1-0.7,0-1.4c0.2-1.1,1.1-1.2,1.7-1.6
		c0.5-0.4,0.1-1.1,0-1.6c-0.1-0.5,0.1-1,0.4-1.4c0.5-0.7,0-1.8,0.5-2.6c0.2-0.4,0.9-0.4,1.2-0.7c0.2-0.2,0.4-0.6,0.7-0.7
		c0.5-0.2,0.9-0.7,1.4-1c0.5-0.2,1.2-0.1,1.7-0.2c0.6-0.1,1.1-0.1,1.6-0.6c0.1-0.1,0.2-0.4,0.9-0.6c0.2,0,0.4,0,0.6,0.1
		c0.2,0.1,0.6,0.4,0.7,0.6c0.1-0.1,0.1-0.2,0.2-0.4c0.5,0.7,0.7-0.7,0.7-1c0.2-1.2,0.4-2.5,0.5-3.7c0.1-1.7,0.4-3.5,0.7-5.1
		c0.1-0.7,0.5-1.4,0.2-2.1c-0.1-0.7-0.6-1.1-0.7-1.8c0-0.7-0.4-0.9-1-1.5s-0.6-1.2-0.6-2c0-0.5-0.1-1,0.1-1.4c0.6-0.6,1.8-1,2.3-0.5
		c0.5,0.2,0.7,0.1,0.6-0.5c-0.1-1-1.5-1.5-2.3-1c0-0.7-0.4-1.8,0-2.5s1.5-0.1,1.8-0.1c1,0,1.8,0,2.8,0c0.1,0,0.7,0.1,0.7-0.2
		c0-0.1,0-0.5,0.1-0.6c0.7-0.5,0.5,1,1.1,0.7c0.5-0.2,0.7-0.9,1.1-1.1c0.7-0.6,1.1,0.2,1.4,0.7c0.4,0.9,0.4,1.2,0.2,2.1
		c0,0.2-0.1,0.6,0.2,0.6c0.5-0.1,0.4-0.4,0.7,0c0.5,0.5,0.7,1.1,1.5,1.4c0.9,0.4,1.5-0.2,2.1-0.5c1.4-0.6,0.6,0.9,0.7,1.2
		c0.4-0.1,0.9-1,1-1.2c0.4-0.5,0.5-0.7,1-1c0.5-0.2,0.7-0.2,1.1-0.6c0.2-0.2,1-0.7,0.9,0c0.4-0.6,0.9-0.9,1-1.6
		c0.1-0.6,0.4-0.6,0.9-0.7c0.2-0.1,1.1-0.5,1.1-0.7c0.6-1,0.1-1.1-0.6-1c-0.4,0-1,0-1.2-0.2c-0.1-0.1,0-0.7,0-1
		c-0.4-0.9-0.7-1.2-0.6-2.7c0-0.6-0.5-1.1-1-1.6c-0.2-0.2-1.2-1.4-0.7-1.7c0.2,0.1,0.5,0.5,0.7,0.6c0.4,0,1.4-0.2,1.5,0.4
		c0.1,0.5,0.2,0.6,0.7,0.5c0.9-0.1,1.4,0.2,1.5,0c0.6-1.1,1.1,1.5,2.1,1.2c0.6-0.1,0-1.2,0.4-1.7c0.1-0.2,0.6-0.1,1-0.5
		c0.4-0.5,0.7,0.1,1.1,0c0.6-0.2,2-0.6,2.2-1.1c0,0,0.7-0.5,0.9-0.5c0.4,0,0.7,0.2,1-0.2c0.4-0.7,1.8-1.2,0.9-2.5
		c0.5-0.1,0.9,0,1.4-0.1c0.4-0.1,0.7,0,1,0.4c0.6,0.9-0.1,1.5-0.2,2.2c-0.1,0.4,0.9,0.2,1.4,0.7c0.1,0.1-0.1,0.5,0,0.6
		c0.1,0.4,0.4,0.6,0.5,1c0.2,0.4-0.7,1.4-0.9,1.6c-0.1,0.2-0.1,0.6-0.1,1c-0.1,0.6-0.5,1.1-0.5,1.6c-0.1,0.9,0,1.7,0.6,2.3
		c0.4,0.4,0,1.7,0.5,1.7c0,0.1-0.1,0.2-0.1,0.4c0.6,0.1,1.2,0.9,1.5,1.4c0.2,0.4,0.6,0,1,0.4c0.2,0.4,0.6,0.2,0.9,0.2
		c0.2,0,0.5-0.6,0.7-0.9c1-0.7,1.6-0.7,2.3-1c0.5-0.2,0.6,0.1,1-0.4c0.5-0.6,1-0.9,1.8-0.6c0.7,0.2,1-0.2,1.7,0c0.5,0.1,1.7,0.7,2,0
		c0.1-0.7-0.7-0.7-0.4-1.5c0.6-1.2,0.7-0.1,1.5-0.4c0.5-0.1,0.7-0.2,1.2-0.4c0.9-0.4,0.9-0.1,1.5,0.4c0.1,0.1,0-0.2,0.2,0
		c0.2,0.4,0.5,0.4,0.9,0.6s0.7,0.4,1.1,0.5c0.1,0.1,0.4-0.5,1.2-0.7c0.2-0.1,0.5,0.1,0.7,0.2c0.2,0,1.4-0.2,1.2,0.2
		c0.4-0.1,0.9,0.2,1.1,0c0.4-0.4,0.7-0.5,1-0.9c0.4-0.6,1.1-2.6,1.5-3.1c1.2-1.8,2.5-3.5,1.8-4.7c0,0.2,0.7,1.6,0.9,1.8
		c-0.1-0.4-0.5-1-0.1-1.4c1,0.6,1.1,1.6,1,2.6c0-0.4,0.1-0.6,0.4-0.9c0,1.4,0.1,2.8,0.6,4.2c0.2,0.5,1,2.2,0.4,2.7
		c0.5-0.1,0.5,0.4,0.7,0.6c0.2,0.6,1,0.4,1.5,0.6c1.1,0.5,0.9,1.8-0.1,2.2c0.2-0.1,0.5,0,0.7,0.1c-0.5,0.5-1.2,0.9-1.4,1.5
		c-0.1,0.4-0.5,0.5-0.6,0.7c-0.2,0.4-0.4,0.9-0.7,1.2c-0.5,0.5-1,0.9-1.5,1.4c-0.6,0.5-0.9,1.2-1.5,2c-0.5,0.6-0.6,1-0.6,1.7
		c0,0.4-0.7,0.5-0.7,1.1c0,0.7-0.6,0.4-1,0.4s-1.5,0.5-1.6,0.9c0.4-0.1,2.1-0.4,1.6,0.4c0.4-0.4,0.9-0.4,1.2-0.6
		c0.5-0.2,0.9-0.6,1.4-0.7c0.6-0.2,1.6-1.1,2-1.7c0.9,0.5,0,1.7,0.6,2.5c0.2,0.2,0,1,0.4,1.1c0.2,0.1,0.9-0.1,0.6,0.5
		c0.7,0.1,2-1.1,2.1,0.4c-0.1-0.5,0.4-0.5,0.7-0.6c0.1,0,0.2-0.1,0.4-0.2c0.1-0.4,0.5-0.2,0.9-0.2c-0.4,1.2-0.7,2-0.7,3.2
		c0.5-0.7,0.2-2.2,1.1-2.7c0.6-0.2,0.7-0.4,1.1-1c0.6-1,0.7-0.2,1.4,0.1c0-0.2-0.1-0.4-0.1-0.6c0.4,0,0.6-0.1,1-0.1
		c-0.4-0.1-0.7,0-1.1,0c-0.1-0.5,0.2-0.5,0.5-0.7c0.4-0.4,0-1.2,0.5-1.7c0.6-0.6,0.4-0.1,0.9-0.2c0.2-0.1,0.9-0.7,0.9-0.1
		c0.5-0.5,0.6,0.2,1.1,0c-0.2-0.1-0.2-0.5-0.1-0.7c0.2,0.1,1,0.2,0.9,0.7c0.1,0,0.2-0.1,0.4-0.1c0,0.1,0.1,0.2,0.1,0.4
		c0.2-0.2,0.4-0.2,0.4,0.1c0.2-0.1,0.5-0.2,0.5-0.6c-0.1,0.4,0.4,0.5,0.2,0.9c0-0.2,0.2-0.5,0.5-0.4c0,0.2-0.2,0.5-0.5,0.5
		c0.5-0.2,0.9,0.4,1.4,0c0,0.6,0.4,0.2,0.5-0.1c-0.2,0.7,0.4,0.4,0.4,0.9c0.1-0.1,0.2-0.2,0.4-0.4c0,0.4,0.5,0.2,0.5,0.6
		c0.1-0.1,0.2-0.2,0.4-0.4c0,0.2,0.1,0.5,0.2,0.6c0.1-0.1,0.2-0.1,0.4-0.2c0,0.4,0.1,0.5,0.5,0.1c-0.2,0.1-0.2,0.5-0.1,0.6
		c0.1-0.2,0.2-0.5,0.5-0.5c-0.4,0.4-0.2,1,0.1,1.4c0.1-0.2,0-0.7,0.4-0.9c0.6-0.2,0.4,0.2,0.7,0.4c0-0.2,0.1-0.5,0.4-0.6
		c-0.1,0.2-0.1,0.5-0.1,0.6c0.7-0.5-0.1,0.9,0.7,0.4c-0.1,0.1-0.2,0.2-0.4,0.4c0.2,0.1,0.5,0,0.6-0.2c-0.2,0.5,0.6,0.2,0.2,0.9
		c-0.2,0.6-0.1,1-0.9,1.2c0.2-0.1,0.5,0,0.5,0.2c0-0.4,0.5-1,0.9-0.5c0.4,0.6-0.2,0.7-0.5,1.2c-0.2,0.4-0.5,1.5-0.4,1.8
		c0.1,0.5-0.5,0.7-0.2,1.1c0-0.6,0.7-0.7,1-1.2c0.2-0.5,0.1-1.4,0.4-1.7c0.1-0.2,0.7-0.6,1-0.4c0.4,0.6-0.7,0.9-0.9,1.4
		c0.4-0.2,0.4-0.1,0.4,0.2c0.4-0.1,0.9-1.6,1.1-0.9c0-0.5,1-0.7,1.4-0.6c0-1,2.1,0.1,2.5,0.4c0.2,0.1,1.7,0.7,1.7,1
		c0.4-0.2,1.1,0.4,1-0.4c0.4,0.1,0.7,0.4,1.1,0.6c0.5,0.2,0.9,0.1,1.2,0.5c0-0.6,0.4-0.5,0.9-0.6c1,0,1.8-0.4,2.8-0.2
		c1.8,0.4,3.5,2,4.9,3.1c0.5,0.4,1,0.4,1.4,0.9c0.4,0.5,0.6,1,1,1.4c0.4,0.5,1,0.7,1.2,1.2c0.4,0.5,1.1,0.6,1.5,1.1
		c0.4,0.6,1.1,0.4,1.6,0.9c0.6,0.6,1.6,0.4,2.2,0.2c1.6-0.2,2.8,0.4,3.2,2c0.1,0.6,0.5,1.2,0.5,1.8c0,0.2-0.1,0.5,0,0.6
		c0.1,0.1,0.2,0.4,0.4,0.5c0.2,0.7,0.7,2.2,0.4,3c0.1-0.1,0.2-0.4,0.2-0.5c-0.1,0.7,0.5,1.6-0.2,2.2c0.1,0,0.2,0,0.4,0.1
		c-0.2,0.6,0.1,1.4-0.2,1.8c-0.4,0.6-0.1,1.4-0.4,2c-0.4,0.7-0.5,1.5-0.7,2.2c-0.4,0.7-1.1,1.2-1.5,2.1c-0.1-0.1-0.2-0.1-0.4-0.2
		c0,0.4-0.1,0.7-0.4,0.2c0,0.2,0.1,0.4,0.4,0.4c-0.5,1-1.1,2.1-2,2.8c-0.4,0.2-0.7,0.4-1.1,0.7c-0.4,0.2-0.6,0.7-1,0.9
		c0.1-0.2-0.1-0.5-0.4-0.5c0,0.2,0.4,0.4,0.2,0.6c-0.1,0.4-0.4,0.9-0.7,0.4c0.1,0.2,0.6,0.5,0.4,0.9c-0.1,0.2-0.7,0.9-0.5,0.1
		c-0.2,0.4-0.1,0.7-0.5,1c0.1,0,0.2-0.1,0.4-0.1c-0.7,1-1.8,6.2-3.7,5.8c0.4-0.7-0.5-0.9-0.6-1.5c0,0.4-0.4,1.4-0.7,0.6
		c0.1,0.4,0.6,0.5,0.6,0.7c0,0.6-0.7,1-0.6,1.7c-0.5-0.4-0.4,0.5-0.4,0.9c0-0.1,0.1-0.4,0.1-0.5c0.1,0.5,0.1,0.9,0.1,1.4
		c-0.1-0.1-0.2-0.2-0.4-0.4c0.2,0.2,0.5,1,0.4,1.4c0.1-0.2,0.1-0.5,0.2-0.7c0,1.4-0.4,2.6-0.2,3.9c0.1,1.2,0.7,2.5,0.7,3.6
		c0.1,2.1-1.2,4.1-0.6,6.2c0.4,1.2-0.5,1.4-1,2.2c-0.6,1-0.7,2.3-0.5,3.5c0.1,0.9,0.6,2.5-0.4,3c-1,0.4-0.1,2.2-1.2,2.3
		c0.7,0.7-0.5,1.6-1,2c-0.4,0.4-0.2,0.6-0.4,1.1c-0.2,0.7-0.5,1.4-0.4,2.1c0,0.4,0.4,1,0,1.4c-0.5,0.6-1.2,0.6-1.8,1
		c-0.4,0.2-0.9,0.7-1,1.2c-0.1,0.2,0,0.6,0.1,0.9c0.1,0.2-0.2,0.5-0.1,0.7c-0.5-0.5-1.7-0.2-2.2-0.1c-0.4,0.1-0.9,0.2-1.1,0.1
		c-0.5-0.2-0.1-0.7-0.1-1.1c-1,0.1-0.2,0.5-0.4,1.1c-0.1,0.5-2.2,0.4-2.7,0.6c0.4-0.4,0.9-0.2,1.2-0.4c-0.4-0.4-0.9-0.6-1.5-0.2
		c-0.5,0.2-0.6,0-1.1,0.1c-0.4,0-1,0.1-1.1,0.5c-0.1,0.4,0.5,0.6,0.7,0.7c-0.5,0.4-1.2,0-1.5,0.5c-0.2,0.4-0.7,0.5-1.1,0.7
		c-0.4,0.2,0.1,0.6-0.2,0.9c-0.5,0.4-1.4-0.6-2,0c-0.1,0-0.5,1-0.7,0.7c-0.1-0.2,0-0.5-0.4-0.4c0.2,0.6-0.6,0.6-1,1
		c-0.5,0.4-0.7,0.9-1.1,1.2c-0.5,0.5-1.1,0.6-1.6,1.1c-0.4,0.4-0.6,1-1.1,1.2c0.1,0.1,0.2,0.1,0.4,0.2c-0.4,0.4-0.7,0.9-1,1.2
		c0-0.2,0-0.5,0.2-0.6c-0.4,0.1-0.7,0-1-0.1c0.1,0.6-0.2,1.1-0.9,0.5c0,0.4,0.9,0.7,1.2,0.7c-0.2,0.2-0.4,0.5-0.4,0.9
		c0,0.2-0.5,0.1-0.7,0.2c0.2,0,0.4,0,0.6,0c-0.1,0.2,0,0.6,0,0.9c-0.1,0.4-0.5,0.4-0.6,0c0.1,0.2,0.1,0.6,0.4,0.7
		c0.4,0.1,0.1,1,0.2,1.2c0.1,0.5,0.7,1.2,0.5,1.8c0.5-0.1,0.4,0.5,0,0.5c0.4,0.4,0.1,1.7,0.5,2.2c0.4,0.5-0.2,1.8-0.2,2.3
		c-0.1-0.1-0.4-0.2-0.4-0.5c0.1,0.2,0.1,0.6,0.5,0.7c-0.4,0.5-1,0.9-1.4,1.2c-0.5,0.4-0.9,1-1.1,1.6c-0.7,1.4-1,2.8-1.4,4.3
		c-0.4,1.4-1.1,2.7-1.8,3.8c-0.7,1.1-2,2-2.8,3.1c0.1-0.4-0.1-0.9-0.1-1.4c0.5,0.1,0.6,0.1,1.1-0.1c0.4-0.2,0.6-0.9,0.9-1
		c0.5-0.2,0.5-0.5,0.5-1c0-0.4,0-1,0.5-0.5c-0.1-0.5,0.1-0.7,0.4-1.1c0.2-0.2,0.2-0.6,0.2-1c0-0.2-0.4-1.2,0.2-0.6
		c0-0.1-0.1-1-0.4-1c-0.1,0-0.9,0.6-0.9,0.9c-0.2-0.2-0.4-0.5-0.6-0.6c-0.4-0.1-0.2-0.6-0.6-0.9c0,0.9,0.4,0.9,0.7,1.5
		c-0.7,0.1-0.2,1-0.2,1.5c0-0.2-0.1-0.5-0.2-0.6c-0.1,0.2,0.1,0.7,0,1c-0.1,0.1-0.2,0.1-0.2,0.2c0.1,0.7-0.5,1.1-1,1.5
		c-0.4,0.2-0.2,0.7-0.4,1.1c-0.1,0.4-0.9,1.1-0.1,1.2c-0.4,0.2-0.1,0.9,0.2,0.5c0.1,0.4-0.2,0.7-0.4,1.1c-0.2,0.6-0.2,1.2-0.4,1.8
		c-0.1,1.2-0.9,2-1.5,2.8c-0.2,0.4-0.6,0.6-0.7,0.5c-0.2-0.1-0.5-0.6-0.6-0.9c-0.2-0.5-0.1-0.9-0.1-1.2c0-0.5,0.5-0.9,0.7-1.4
		c0.4-0.6-0.4-1-0.9-1.2c-0.5-0.2-0.7-0.7-1.1-1.1c-0.7-1.1-1.7-1-2.5-1.7c-0.6-0.6-1.2-1-2-1.4c-0.2-0.1-0.4-0.4-0.6-0.5
		c-0.7,0.5-1.6-1.1-2.3-1.7c0.4,0.6-1.2,1.5-1.1,0.4c0-1-1.1-1.5-1.8-2c-0.5-0.4-1.5-1.6-2.2-1.1c-0.2,0.1-0.2,0.5-0.6,0.6
		c-0.4,0.1-0.9,0-1.2-0.4c0.7-0.2,0.5-1.4,1.4-1.7c0.7-0.2,1-1.2,1.2-2c0.4-0.9,0.9-1.5,1.4-2.3c0.2-0.4,0.7-1.5,1.2-0.9
		c0.1-0.2,0-0.5-0.2-0.6c0.5-0.5,0.9-1.2,1.5-1.5c0.6-0.4,0.7-0.6,1.1-1.1c0.4-0.5,1-0.5,1.5-0.7c0.4-0.2,1.1-1,1.6-0.9
		c0.1-0.7,0.1-1.5,0.1-2.2c0-1-0.1-1.5-0.5-2.3c-0.2-0.6-0.4-1.4-1.1-1.6c-0.4-0.1-1.2-0.2-1.2,0.4c-0.1-0.1-0.5,0-0.6-0.2
		c-0.1-0.1-0.1-0.5-0.1-0.9c0-0.7,0.2-1.4,0.2-2.1c0.1-0.5-0.1-1.4,0.1-1.8c0.2-0.5-0.5-1,0.1-1.4c-0.4-0.2-0.7-0.7-1.2-0.9
		c-0.5-0.1-1,0.4-1.4,0.5c-1.4,0.5-1.6-0.9-1.8-1.8c-0.1-0.6-0.6-1.2-0.7-1.8c-0.4-1.5-0.9-2-1.2-2.6c-0.5-0.1-1.1-0.2-1.5-0.6
		c-0.5-0.4-0.5-0.1-0.9,0.6c-0.9,1.5-0.7,0-1.2-0.1c-0.6-0.1-1.4-0.1-1.8-0.4c-0.2-0.1-1.5-0.2-1.6-0.6c-0.1-0.4,0.2-0.7,0.2-1.1
		c0.1-0.4-0.2-0.9-0.1-1.2c0.2-0.6,0-1.1,0.1-1.7c0.1-0.5-0.7-0.6-0.2-1.1c-0.5-0.2-0.7-1.1-1-1.7c-0.6-0.9,1.4-0.9,0.6-1.5
		c-1-0.7-0.6-1.4-0.1-2.5c0.1-0.2,0.5-0.9,0.4-1.2c-0.2-0.5,0-0.9,0.1-1.4c0.5-1.5,0.1-1.6-0.4-2.7c-0.5-0.6-0.4-1.7-0.9-1.6
		c-0.7,0.2-1.6-0.6-1.8-1.4c-0.1-0.5-0.4-1.1-0.4-1.7c0-0.5,0.4-1,0.4-1.6c-1.1,0.2-2.2,0.1-3.3,0c-0.7-0.1-2.3,0.1-2.8-0.4
		c-0.5-0.5-0.4-1.6-0.5-2.2c-0.1-0.9-1.1-1.4-1.2-2.1c0.2,0,0.6,0,0.9,0c-0.2-1-0.5-2.2-0.9-3c-0.1-0.4-0.2-0.5-0.1-0.9
		c0-0.5,0-0.9-0.4-1.1c-1-0.7-2-1.2-2.6-1.2c-1.7,0.2-1.4,0-1.8,0c-0.5,0-1-1-1.2-1.2c-0.2-0.2-0.4-0.1-0.7-0.2
		c-0.2,0-0.9-0.5-1.1-0.6c-0.1-0.1-0.4,0-0.6-0.1c-0.5-0.2-0.5-0.6-0.7-1c-0.2-0.4-0.4-0.2-0.7-0.1c-0.5,0.2-0.7-0.4-1-0.5
		c-0.9-0.5-1,0.1-1.8-0.1c-1-0.2-1-0.2-1.5-1c-0.2-0.4-1.1-0.9-1.5-1c-0.4,0-0.2-0.6-0.5-0.9c-0.1-0.2-0.5-0.1-0.5-0.5
		c0-0.6-0.7-1.2-0.7-1.8c0-0.4,0.2-0.6,0.4-1c0-0.4-0.4-0.4-0.5-0.7c0-0.4-0.1-0.7-0.1-0.9c0-0.4,0.2-0.7,0.2-1.1
		c0.1-0.6,0.1-1.7-0.5-2.1c-0.1,0.1-0.2,0.5-0.5,0.5c-0.6,0-1.1-0.1-1.7,0c-0.7,0.1-1.8,0.2-2.2,0.7c-0.7,0.9-0.9,1.4-1.8,1.5
		c-0.2,0-0.9,0.5-1,0.9c-0.1,0.5-0.6,0.2-0.9,0.2c-0.5,0-0.9,0.4-0.9,0.7c-0.1,0.5-0.5,0.7-1.1,0.9c-0.1,0-1,0.5-0.9-0.1
		c0-0.1-0.5-0.2-0.9-0.2c-1,0-2.3-0.2-3.1-0.2c-0.5,0-1,0.6-1.5,0.5c-0.2-0.1-0.6-0.6-1-0.2c-0.1-1.2-0.2-2.5-0.2-3.6
		c0-0.6,0.1-0.7,0.2-1.2c0-0.1,0-0.2-0.1-0.4c-0.1-0.4,0.1-0.5,0.2-0.7c-0.7,0.1-1.5,1.4-2.1,1.8c-0.9,0.7-2.3,0.4-3.5,0.2
		c0.1-0.6-0.2-1.5-0.7-1.7c-0.7-0.6-2-0.2-2.8-0.6c1-1.2,0.6-1.6-0.4-2.6c-0.2-0.2-0.2-0.4-0.4-0.6c-0.1-0.2-0.4-0.5-0.6-0.6
		c-0.4-0.5-0.4-1.2-1-1.6C493.2,820.9,492,820.1,491.8,819.6"/>
	<path id="path2868" class="st2" d="M583.7,892.6c0.1,0.1,0.2,0.2,0.2,0.2c0.1-0.4,0.2-0.6,0-1C583.9,892.1,583.7,892.4,583.7,892.6
		"/>
	<path id="path2870" class="st2" d="M584.8,898.3c0.2-0.4,0.5-1.2,0.2-1.6C584.6,896.9,584.8,897.9,584.8,898.3"/>
	<path id="path2880" class="st2" d="M594.1,883.4c0-0.2-0.2-0.5-0.1-0.9c-0.4-0.1-0.5,0.4-0.6,0.6
		C593.7,883.2,594,883.2,594.1,883.4"/>
	<path id="path2884" class="st2" d="M596.9,880.5c0.2,0,0.5-0.2,0.6-0.4C597.3,879.8,596.8,880,596.9,880.5"/>
	<path id="path2888" class="st2" d="M612.8,841.5c0.2-0.2,0.9-0.6,0.4-1C613.2,840.8,612.8,841.1,612.8,841.5"/>
</g>
<g id="ve" transform="matrix(4.4075902,0,0,4.3787433,-1859.4186,-3158.7554)">
	<path id="path3410" class="st1" d="M494.2,754.9c0.9-1,1.4-2.2,1.6-3.5c0.2-1.2,0.6-2.2,1.2-3.3c0.5-0.9,1.7-1.4,2.2-2.3
		c0.6-1.1,1.6-0.7,2.6-1.4c-0.4,1-1.4,0.6-2,1.2c-0.5,0.6,0,1.8,0.6,2.1c-0.6,0,0,1.2,0,1.5c0.1,0.7-0.5,1.5-1,1.8
		c-0.6,0.6-0.9,1.4-0.5,2.1c0.1,0.2,0.2,0.6,0.5,0.9c0.4,0.2,0.4,0.1,0.4,0.6c-0.1,0.9,0.6,1.1,1.2,0.7c0.7-0.4,1-1.1,1.1-1.8
		c0.1-1.1-0.4-1.6-0.9-2.5c-0.2-0.4-0.4-0.7-0.5-1.1c-0.1-0.4,0.1-0.9-0.1-1.1c0.4,0,0.7-0.6,1.1-0.7c0.6-0.4,1.1-0.7,1.7-0.9
		c0.6-0.1,1-0.1,1.5-0.5c0.2-0.1,0.7-0.6,1-0.5c0-0.1-0.1-0.4-0.2-0.5c0.2,0.1,1,0.7,1.2,0.5c0.1-0.2,0-0.7-0.2-0.7
		c-0.4-0.1-0.9,0.2-1.2,0.2c0.1-0.5-0.2-2.8,1-2.2c0.6,0.2,0.5,1.6,0.6,2.1c0.2,1.1,1.5,0.4,2.2,0.6c0.9,0.4,2,0.6,2.5,1.6
		c0.2,0.6-0.4,2.1,0.7,2.3c1.2,0.2,2.8-0.4,4.1-0.5c1.1-0.1,2.2-0.4,2.8,0.6c0.2,0.4,0.6,0.7,1.1,0.9c0.4,0.1,0.7,0.2,1.1,0.4
		c0,0,1.2,0.2,0.6,0.2c1,0.5,1.5-0.6,2.3-0.7c0.5,0,0.6-0.5,1-0.7c0.6-0.2,1.2,0.2,1.7-0.1c-0.5-0.5-1.6,0-2-0.6c0.2,0,0.6,0,0.9,0
		c0.4,0,0.5-0.2,0.9-0.2c0.1,0,0.2,0.1,0.4,0.1c0.4,0.1,0.9,0,1.2,0c1.7-0.2,3.3,0,5.1-0.2c-0.2,0.5-1.1,0.4-1.6,0.6
		c-0.7,0.4-1.6-0.2-2.3,0.4c0.2-0.2,0.5-0.2,0.5,0.1c-0.2,0-0.5,0.1-0.5,0.4c0.6-0.4,1.1,0,1.1,0.7c0,0.6-1,0.2-1.2,0.1
		c0.2,0.7,1.5,0.2,1.4-0.5c0.4,0,0.5,0.5,0.5,0.7c0,0.4,0.4,0.9,0.4,1.2c0.2-0.2,0.4-0.6,0.2-1c0.4,0.4,0.4,1,0.1,1.2
		c0.4-0.2,0.2-0.7,0.1-1.1c0.1,0,0.4,0.1,0.5,0.1c0,0-1.1-0.6-0.5-0.5c0.6,0.1,1.4,0.7,1.1,1.4c0.1-0.2,0.4-0.2,0.2-0.5
		c0.2-0.1,0.5-0.1,0.7-0.1c-0.5-0.6,0.4,0,0.5,0.2c0.4,0.6,1,0.4,1.5,0.7c1.2,1-0.2,1-0.5,1.8c0.1-0.1,0.2-0.2,0.4-0.4
		c0.1,0.5-0.4,1.2-0.6,1.6c-0.1,0.2-0.1,0.5-0.4,0.5s-1.1-0.2-1.2,0c0.4,0.2,1,0.2,1.2,0.7c0.2-0.4,0.6-0.6,0.6,0
		c0.4-0.4,0.6-0.6,1.2-0.7c0.5-0.1,0.7,0.5,1.2,0c0.9-0.7,2.3,1.1,1.8,1.4c-0.5,0.2-0.7,0.6-1.1,0.9c-0.4,0.4-1,0.5-1.2,0.7
		c-0.2,0.2-0.4,0.5-0.5,0.7c-0.4,0.5,0.1,0.7,0.1,1.2c0,0.4,0.1,0.6,0.5,0.5c0.5-0.2,0.7,0.4,0.4,0.6c-0.4,0.4-0.9,0.5-1.2,0.9
		c-0.1,0.1-0.5-0.1-0.6-0.1c-0.1,0-0.2,0.2-0.4,0.4c-1.4,0.5,0,1.4-0.7,2.2c-0.1,0.2-0.9,0.6-0.6,1c0.5,0.6,0.9,1.2,1.4,1.7
		c0.6,0.7,1.7,1.7,0.6,2.6c-0.4,0.2-0.6,0.7-1,1c-0.2,0.1-0.9,0-1,0c-0.2,0.4-0.7,0.2-0.7,0.6s-0.7,0.4-1,0.5
		c-0.5,0.2-1.2,0.6-1.7,0.2c-0.4-0.2-0.7,0.2-1.2,0.4c-0.5,0.1-0.5,0.6-0.4,1c0.1,0.6-0.4,1.1-0.9,0.6c-0.4-0.2-0.5-0.7-0.9-1
		c-0.4-0.4-0.6,0.1-1.1,0c-0.5-0.2-0.7,0-1.4-0.1c-0.5,0-0.4,0.1-0.5-0.4c-0.1-0.5-0.9-0.5-1.2-0.5c-0.6,0.1-0.5-0.4-1-0.6
		c-0.4,0.4,0.4,1.2,0.5,1.5c0.6,0.7,1.2,1,1.2,2.1c0,0.4,0,0.7,0.1,1.1c0.1,0.5,0.6,0.9,0.5,1.4c-0.1,0.9-0.1,1.1,0.9,1.2
		c0.2,0,1.4-0.2,1.2,0.2c-0.1,1-0.6,0.9-1.1,1.2c-0.4,0.2-1,0.2-1.1,0.6c-0.1,0.4-0.1,0.6-0.4,1c-0.2,0.4-0.5,0.6-0.7,0.9
		c0-0.9-1.4,0.5-1.6,0.5c-0.6,0.1-1,0.5-1.4,1c-0.2,0.4-0.7,1.2-1.1,1.4c-0.2-0.4,0.1-0.7,0-1.1c-0.1-0.6-1,0-1.2,0.1
		c-1.4,1-2.3-0.1-3.2-1.2c-0.4-0.5-0.4-1.1-0.5-1.7c-0.2-0.7-0.7-1.7-0.7-2.5c0-0.6-1.5-2.5-2.2-2c0-0.6,1-1.4,1.5-1.7
		c0.7-0.6,0.2-1.2-0.2-2c-1.2-1.4-0.9-3.8-0.9-5.5c0-0.6,0.2-0.9,0.6-1.4c0.2-0.2,0.1-0.9,0.4-1.1c0.2-0.4,0.5-0.6,0.6-1
		c0.1-0.6-0.6-1.2-1-1c-0.7,0.4-1.5,0.5-2.1,0.4c-0.4,0-1,0.4-1.7,0.1c-0.5-0.1-0.5,0.1-1.1,0.1c-0.1,0-1.1-0.2-1-0.2
		c-0.4-0.2-0.5-0.7-0.7-1.1c-0.4-0.5-0.6-1-0.9-1.5c-0.1-0.2-0.4-0.6-0.7-0.5c-0.7,0.2-1.1-0.5-1.7-0.5c-0.4,0-0.6,0.2-1,0.4
		c-0.6,0.1-1.1-0.2-1.6-0.1c-0.4,0.1-0.6-0.1-1,0c-0.4,0.2-0.9,0-1.1-0.4c-0.1-0.2-0.2-0.5-0.4-0.7c-0.1-0.4-0.6-0.4-0.9-0.6
		c-0.4-0.5-0.1-1.7,0.2-2.2c0.6-0.9-0.5-1.7-0.7-2.3c-0.2-0.6,0-2.2-1-2c0-0.2,0-0.5-0.1-0.6C495.1,754.8,494.7,755,494.2,754.9"/>
	<path id="path3412" class="st2" d="M535.4,757.6c-0.4-0.1-0.6-0.1-1-0.2C534.8,757.2,535.4,757.1,535.4,757.6"/>
	<path id="path3414" class="st2" d="M535.8,756.9c0.2-0.2,0.5-0.6,0.9-0.5C536.5,756.8,536.1,756.8,535.8,756.9"/>
	<path id="path3416" class="st2" d="M535.9,757.6c-0.1-0.1-0.1-0.2-0.2-0.2c0.2,0,0.5,0,0.7-0.1
		C536.3,757.4,536.1,757.5,535.9,757.6"/>
	<path id="path3418" class="st2" d="M536.1,757c-0.1,0-0.2-0.1-0.4-0.1c0.2-0.1,0.4-0.1,0.6-0.1C536.4,756.9,536.3,757,536.1,757"/>
	<path id="path3420" class="st2" d="M536.5,757.1c0-0.2,0.1-0.2,0.4-0.1C536.8,757,536.6,757.1,536.5,757.1"/>
	<path id="path3422" class="st2" d="M536.6,756c-0.1,0-0.2,0-0.4,0c0.1-0.2,0.2-0.4,0.5-0.4C536.8,755.9,536.8,755.9,536.6,756"/>
	<path id="path3424" class="st2" d="M536.9,755.3c-0.4-0.1-0.2-0.2,0.1-0.4C536.9,755,536.9,755.1,536.9,755.3"/>
	<path id="path3426" class="st2" d="M536.9,755.4c-0.4,0.1-0.6,0.4-0.9,0.6C536.1,755.6,536.5,755.4,536.9,755.4"/>
	<path id="path3428" class="st2" d="M537,755.1c0-0.1,0.1-0.2,0.4-0.2C537.1,755,537,755.1,537,755.1"/>
	<path id="path3598" class="st2" d="M522.2,748.4c-0.1,0-0.2-0.1-0.4-0.1c0.1-0.1,0.2-0.2,0.4-0.2
		C522.3,748.1,522.3,748.2,522.2,748.4"/>
	<path id="path3600" class="st2" d="M526.4,748.5c-0.1-0.2-1.6-0.6-0.9-0.9c0.4-0.1,0.5,0.4,0.7,0.2c0.4,0,0.5-0.5,0.9-0.6
		C527.3,748.1,527.1,748,526.4,748.5"/>
	<path id="path3602" class="st2" d="M530.6,749.8c0.1,0.2,0.4,0.4,0.4,0.6C530.8,750.5,530.6,750.2,530.6,749.8"/>
</g>
<path id="co" class="st0" d="M230.2,275.8c-0.5-0.1-1-0.2-1.6-0.4c0.5-3.3,4.2-4.4,6.9-2.8c1.5-2.8-2.2-5.5-0.7-8.5
	c1.8-3.8,6.2-3.6,9.7-4.2c0.6-0.1,0.5-1.7,1.4-1.2c0.6,0.4,2.2,0.7,2.2-0.4c0-2.3,3.1-5.3,1.2-6.9c3.3-0.1,4.1-4.4,5.1-6.8
	c0.7-1.8,2.3-3.1,3.9-4.2c-2-1.6,0.4-1.8,1-3.6c-1.4,0-3.2,1.2-3.7-0.9c1.1-0.2,1.8-1.1,1.8-2.2c-1.1-0.4-3.2,2.5-3.5,0.2
	c-0.2-2.3,1.1-2.7,3-3.7c-2.8,0-1.6-3.7-1.1-5.3c0.7-3.1,0.1-7.2-0.2-10.2c-0.2-2.3-1.2-4.6-1.5-6.9c-0.1-1.2,4.1-1.7,3.3-4.8
	c-0.4-1.8-4.6-5.9-1.8-6.9c2.5-1,0.4-6.2-0.7-7.4c-2.2-2.5-2.5-6-4.8-8c-1.6-1.4,0-3,0.9-4.2c1.1-1.5,0-3.3,1.4-4.7
	c0.7,0.9,1.2,1.7,1.6,2.8c3.1-2.1,7.4-6.3,5.9-10.4c-1.5-4.2-4.1-5.1-1.5-9c1.5,1.8,3.1,4.4,4.3,6.5c1.4,2.2,4.6,2.8,1.6,5.4
	c3.8,4.4,2-8.1,1.4-9.5c-0.7-2,8.3-6.4,9.4-8c1.5-2,2.5-5.3,4.9-6.3c1.4-0.6,4.6-0.2,5.4-1.7c1.1-2.2-1-3-0.6-4.3
	c0.7-2.3,1.1-5.4,2.6-7.5c-2.1-0.2-1.5-0.9-0.1-1.6c1.4-0.6,0.7-2.5,0.7-3.6c-0.1-2.6,4.3-3.3,4.3-4.2c0-1.4,5.3-6.7,6.7-6.5
	c2.5,0.1,4.6,2.2,7,2.2c-2.1-0.2-1.8,2-3.7,2c1.5,5.3,4.6-1.7,5.3-3.7c1.8-4.8,3.9-4.4,9-3.6c6.9,1.1,9.1-3.3,14.7-6.7
	c3-1.8,11.8-3.9,9.1-9.1c1.1-0.4,4.4-1.4,2.6,1c2.1-0.4,0.7-2.5,3.1-3.5c2.8-1.2,5.3-1.2,7.6,0.7c8.3,6.8-9.5,9.6-12.1,12.9
	c-1.4,1.8-2,4.4-3.6,5.9c-1.1,1.1-3.1,0.9-4.1,2.1c-2,2.2-3.9,5.5-5.3,8.3c-1.8,3.9-2,8-3,12.1c-1,4.1-4.1,9-6.8,12.2
	c2.2,0.1,4.1-0.9,5.7-2.2c0.4,1,0.5,2,0.4,3c4.3-1.1,2.8,6.5,5.1,9.2c3.1,3.9,3.9,6.3,2.1,11.1c-0.9,2.5-2.3,7.6,0.9,8.9
	c3.7,1.4,1.7,5.8,5.7,6.8c1.6,0.4,3.1-0.6,4.6-0.7c2.5-0.2,4.8,1.4,7.3,1.1c2.2-0.2,4.1-1.7,6.4-1.7c2,0,3.6,2,5.4,2.5
	c1.4,0.4,2.7-0.9,3.9,0.2c1.7,1.5,2.8,4.2,4.1,5.9c1.1,1.7,2.2,3.5,3.2,5.2c1.4,2.2,1.8,1.6,3.9,2.2c3,0.9,5.7-1.6,9.5-0.1
	c1.2,0.5,3.8-0.6,5.1-0.7c2.8-0.1,5.2,0.1,7.6-1.4c2.7-1.7,7.4,1.6,5.9,4.6c-0.9,1.6-2.8,3-3.2,4.8c-0.5,2.2,0.5,3.5-1.7,4.9
	c-3,2-1.7,9.9-2.1,13.1c-0.4,3.8,1.2,7.9,2,11.8c0.5,3.1,6.4,7,5.4,10.1c-1.1,3.8-8.4,5.3-8.3,9.9c2.6-2,9,5.2,9.9,7.4
	c-0.1,0.6-0.1,1.2-0.2,1.7c0.4,1.1,1.2,2.2,1.2,3.3c0,2.5,1.5,5.1,2.1,7.5c0.2,1,1.5,4.7,1.7,6.2c0.2,1.5-0.5,0.5-1.7,0.9
	c-2,0.6-2.6-0.4-2.1-1.5c0.7-1.8-0.4-14.3-5.3-14.2c-2,0.1-7.3,10.1-8.8,4.6c-0.5-2.1-3.2-3-3,0c0.4,3.3-3.9,2.1-6.3,2.1
	c-3.5,0-6.9,0-10.2,0c-2.2,0-4.7-1.4-6.9-0.4c-3.3,1.5-0.7,8.9-1,11.6c2.7-1.8,9-0.2,10.2,2.7c0.5,1.1,0.7,4.8-1.4,4.6
	c-1.4-0.1-2.1-1.8-3.5-1.6c-3.1,0.5-8.5,1.4-8.8,4.9c-0.2,4.3-0.6,10.5,3.1,13.3c2,1.5,4.2,2.7,4.1,5.4c-0.1,2.6,1.2,3.6,2.2,5.8
	c2.3,5.1-0.7,11.8-1.4,17c-1.7,12.3-1.5,25.8-5.3,37.7c-0.9-2.2-2.7-3.9-4.3-5.7c-1.8-2.1-4.2,0-6.4-1.2c-2-1.1,3.1-9.5,3.7-10.6
	c1.4-2.3,5.4-6.8,3.3-9c-0.9-1-1.8-3.5-3.2-3c-2.6,0.9-5.5-3.2-6.2-3.7c-2.5-2-4.6,0-7.2,1.2c-2.5,1.2-4.1-2.1-6.4-2.5
	c-1.4-0.2-5.3,5.8-10,4.4c-1.6-0.5-2.7-0.5-4.7-0.2c-2.8,0.4-4.2,0.1-6.4-1.6c-1.7-1.4,0.1-4.8-0.5-6.8c-0.9-2.7-5.2-1.2-5.7-3.9
	c-0.4-2-1.4-4.2-2.1-6c-0.9-2-3.3-1.1-4.6-2.8c-1.2-1.8-2.1-2.3-3.8-3c-2.2-0.7-3.5-3.7-3.7-5.7c-0.4-3.7-7.2-9.7-10.7-10.7
	c-0.6-0.2-1.4-1-2,0c-0.6,1-0.6,1-2,0.4c-2.1-1-5.2-2-6.9-3.3c-1.4-1-7.5-8.9-8.3-3.3c-0.4,2.8-11.3-0.7-13.6-1.2
	c-3.7-0.6-1-3.7-3.7-4.9c-2.3-1-1.4-3.1-4.4-3.1c-2.5,0-7.2-2.7-9-4.2C235,281.9,232.6,279,230.2,275.8"/>
<path id="sr" class="st0" d="M551,242.2c-1.6-1-4.4-6.9-4.3-8.8c0-2.8,0.4-9.9,0.4-12.3c0-4.8,6.3-3.5,9.4-3.5
	c1.5,0,4.3-4.1,1.1-4.9c3.2-3.8,2-12.2,8.9-11.2c2.2,0.2,13.9,1.4,12.8,5.2c1.5-3-0.9-5.1,4.1-5.1c1.8,0,7.5-0.2,7.6,2.6
	c1-1.2,2.7-0.5,3.9-0.6c-0.2-0.2-4.2-1.6-3.7-2.1c2.6-1.7,9.4,1,12.2,1.5c4.9,0.9,4.7,4.2,2.6,7.8c-2.3,3.9-5.5,6.2-5.3,11.2
	c0.1,4.3-0.4,9.6,1.8,13.6c1.7,3.2,5.9,5.8,3.6,9.9c-0.7,1.4-1.6,3-2,4.6c-0.4,1.6-0.1,3.7-0.6,5.3c-1.1,3.9-4.2,8.4-5.5,8.4
	c-1.1,0-5.1-2.8-5.5-3.5c-1.8-2.3-6,0.5-8.8,1c-2.2,0.4-2.6,0.9-4.6-0.2c-2.1-1.1-2-0.2-2.8,1.2c-2.1,3.2,0.7,3,1.4,6.4
	c0.7,4.4-6.9,2-8.6,0.9c-1.2-0.7-3.5-1.8-4.4-2.8c-1.4-1.4-1.5-2.3-1.5-3.6c0-3.1-4.9-7-4.9-10c0-1.1-0.5-7-2-7.2
	c-1.1-0.1-2.8,1-3.7-0.1C551.8,244.6,551.8,243,551,242.2"/>
<g id="ar" transform="matrix(4.4075902,0,0,4.3787433,-1859.4186,-3158.7554)">
	<path id="path4200" class="st2" d="M550.3,941.8c0-0.2,0-0.2-0.4-0.1C550.1,941.8,550.2,941.8,550.3,941.8"/>
	<path id="path4202" class="st2" d="M550.8,942.6c0-0.4-0.4-0.6-0.6-0.4C550.3,942.3,550.6,942.4,550.8,942.6"/>
	<path id="path4518" class="st1" d="M515.1,904c0-0.4,0.5-0.4,0.5-0.7c0.1-0.4-0.1-1-0.1-1.5c0-1.2,0.7-1.7,1.2-2.8
		c0.2-0.7,0.2-1.4,0.5-2.1c0.1-0.4,0.1-0.7,0.4-1.1s0.6,0,0.9-0.2c1.4-0.6,0-1.5-0.5-2.1c-0.5-0.7,0.4-1.4,0.1-2.1
		c-0.2-0.5-1.7-3.3-0.4-3.5c-0.1-0.4-0.9-1.2-0.7-1.5c0.2-0.9,0.7-1.4,1.6-1.7c0.7-0.2,1.7-0.6,2.1-1.4c0.4-0.7,0.2-1.7,0.4-2.6
		c0-0.4,0-1.2-0.1-1.5c-0.1-0.2-0.6-0.1-0.5-0.2c0.2,0,1.1-2,1.8-2.3c0.9-0.5,1-0.5,1.1-1.6c0.7,0.1,1.1,0.9,1.7,1.2
		c0.7,0.4,1.6-0.1,2.5,0c1.8,0.2,1.7,1.7,2.7,3.1c0.1-0.6,0-1.1,0.2-1.7c0.1-0.2,0.4-1.4,0.6-1.5c0.2-0.1,0.7,0,1-0.1
		c0.5-0.1,1.1,0,1.6,0c0.4,0,1-0.1,1.1,0.1c0.1,0.5,1.1,1,1.5,1.4c0.4,0.4,0.7,0.5,1,1c0.2,0.4,0.5,0.9,0.7,1.2
		c0.6,0.9,1.7,1.4,2.6,2c0.5,0.4,0.7,0.9,1.1,1.2c0.4,0.4,1,0.4,1.5,0.5c0.6,0.2,1.1,0.4,1.7,0.4c0.5,0,1,0.5,1.4,0.7
		c1.1,0.6,2.1,1.7,3.3,2.1c0.4,0.1,0.9,0.1,1.1,0.5c0.5,0.4,0.6,0.1,1.1,0.5c0.5,0.2,1,0.2,1.4,0.7c0.2,0.2,0.5,0.5,0.7,0.9
		c0.5,0.6-0.4,1.2-0.5,1.8c-0.1,1-1.1,1.2-0.9,2.5c0.2,1.1-0.6,1.4-0.9,2.3c-0.1,0.5-0.2,0.2,0,0.9c0.6-0.2,1.4-0.2,2.1-0.1
		c1.2,0.2,2.3,1,3.6,0.6c0.4-0.1,0.5,0.5,1,0.1c0.4-0.2,0.7,0.4,1.1,0.5c0.2-0.5,0.2-1,0.9-1.1c0.5-0.1,0.7,0.5,1.1,0.4
		c0.6-0.1,0.5-0.9,0.7-1.2c0.1-0.5,1.2-0.4,1.1-0.7c0-0.1,0.6-1,0.6-1c0.5,0.1,0.4-1,0.4-1.4c0.1-0.7,0.1-1.5-0.1-2.2
		c-0.2-0.7,0.2-0.5,0.6-0.2c0.1-0.6,0.9-0.5,1.2-0.4c0.7,0.2,0.9,1,1.1,1.6c0.4,0.9,0.4,1.4,0.5,2.3c0,0.5,0.1,1,0.1,1.5
		c0,0.2-0.1,0.5-0.1,0.7c-0.1,0-0.4,0-0.5,0c-0.5,0.2-0.9,0.7-1.5,1c-0.2,0.1-1.2,0.5-1.2,0.9c0,0.6-0.7,0.6-1.1,0.9
		c-0.2,0.1-0.2,0.5-0.5,0.6c-0.2,0.2-0.6,0.5-1,0.9c0.2,0.1,0.4,0.4,0.2,0.6c-0.6-0.6-1.7,1.8-2.1,2.3c-0.6,0.9-0.7,2.5-1.8,3
		c-0.5,0.2-0.5,0.9-0.7,1.2c-0.1,0.2-0.4,0.4-0.6,0.4c0.1,0.4,0,0.9-0.2,1c-0.7,0.6,0.1,0.7,0.2,1.5c0,0.4-0.1,0.4-0.2,0.6
		c0,0.4,0,0.4,0,0.7c0,0.4,0,0.6-0.1,0.9c-0.2,0.6,0.2,0.2,0.2,0.9c-0.1,0.7-0.5,0.9-0.4,1.6c0.1,0.6,0.5,0.9,0.2,1.6
		c-0.2,0.6,0.2,1.4,0.5,1.8c0.5,0.9-0.6,0.5-0.6,1.1s-0.4,1.4,0,2c0.1,0.4,1.6,2.3,0.5,2.3c0.5,0.4,0.6,1,1.2,1.4
		c0.6,0.4,1.4,0.7,2.1,1.1c1.1,0.5,2.8,1.5,2.1,2.8c-0.5,1,0.9,3.1,2.1,2.6c0.5-0.2,0.7,1.2,0.9,1.5c0.2,0.7-0.2,1.7-0.5,2.3
		s-1.1,1.6-1.1,2.2c0,0.7,0,1-0.6,1.5c-1.2,0.9-2.7,1.4-4.2,1.7c-1.8,0.4-3.6,0.9-5.4,1c-0.7,0-1.4,0-2,0c-0.9-0.1-1.4-0.6-2.1-0.7
		c0.1,0.2,0.2,0.4,0.5,0.5c0.2,0.1,0,0.6,0.1,0.9c0.1,0.1,1.5,1.2,0.6,0.9c0.4,0.4,0.6,0.5,0.7,1.1c0.1,0.4,0.1,1-0.5,0.7
		c0.1,0.4,0.2,0.7,0.2,1.2c0,0.4-0.4,0.6-0.1,0.9c0.1,0.2,0.4,0.4,0.6,0.5c0.4,0.2,0.1,0.7,0.6,0.5c-0.2,1.6-1.8,1.8-3.2,2
		c-1.7,0.1-3.2-1-4.9-1.4c0.7-0.1,0-0.4-0.2-0.2c-0.2,0.1-0.5,0.5-0.5,0.9c0,1,1.1,1.6,1.4,2.6c0.1,0.7,0.1,1.7,1,2
		c0.4,0.1,1.6,0.2,1.2,1c0.1,0,1.8,0.2,1.7-0.2c-0.1-0.4-0.9-0.4-1.1-0.5c0.5,0.1,0.9-0.5,1.4-0.5c0.5,0,1.1,0.7,1.1,1.1
		c0.1,0.4,0.6,1,0.4,1.5c-0.2,0.2-1,0.4-1.2,0.4c-0.5-0.1-0.5-0.7-0.7-1c-0.5-0.5-1-0.6-1.6-0.2c-1.5,1,1,1.7,1.7,1.5
		c-0.1,0.5-0.5,0.6-0.9,0.7c-0.7,0.2-0.7,0.6-1,1.2c-0.2,0.6-0.4,0.9,0.1,1.5c0.1,0.2,0.4,0.5,0.4,0.7c0,0.2,0,0.4,0,0.6
		c0.2,0.1,0.2,0.4,0.2,0.6c0,0.1,0,0.6-0.1,0.6c-0.2,0.1-0.6,0.1-0.6,0.5c0,0.5,0.7,0.6,0.6,1c-0.1,0.5-3.3-0.2-2.6,1
		c-1.4-0.2-1.7,1.4-2,2.3c-0.4,1.7,0.7,2.3,2.1,3.2c0.6,0.4,1.1,1,1.8,1.2c0.9,0.4,2-0.1,2.8,0.4c1.2,0.7,1.4,3.1-0.5,2.8
		c0.4,0.1,0.6-0.1,0.9-0.2c0.5,0,0.7,0.2,1,0.6c-0.2,0-0.4,0.2-0.2,0.5c-0.5-0.1-1.6,1.2-2,1.6c-0.5,0.4-0.7,0.9-1.1,1.4
		c-0.2,0.4-0.4,0.6-0.4,1c0,0.4,0,0.6-0.2,0.9c0.2,0,0.5-0.1,0.5-0.4c0,1,1.1,2.6-0.4,3.1c-1.1,0.4-1.4-1.2-2.3-1.5
		c0.2,0.1,0.9,0.6,0.6,0.9c-0.1,0.2-0.7,0-1,0.2c0.9-0.4,1.2,0.2,2,0.4c-0.1,0.6-1,0.6-1.2,1.2c-0.2,0.9,0.4,1.5-0.1,2.3
		c0.6-0.9,1.6,1,1.8,1.5c0.4,0.7-1.1,0.2-1.5,0.6c0.4-0.1,1.2,0.2,1.5,0.1c0.5-0.4,1,0.4,1.4,0.7c0.7,0.6,1.6,1.1,2,2
		c-0.2-0.4-0.6-0.4-1-0.4c-0.6,0-1.1-0.4-1.6-0.5c-1.4-0.4-2.8-0.6-4.3-0.6c-0.6,0-1.2,0-1.8,0c-0.5,0-1.6,0.2-2.1-0.1
		c-0.7-0.5-1.4-1.5-2.2-1.6c0.2-0.5,0-1.1-0.4-1.4c-0.5-0.4-0.1-0.9-0.4-1.2c-0.1-0.2-0.6-1-1.1-0.7c-0.4,0.1-0.6,0-0.9,0
		s-0.4,0.4-0.6,0.5c-0.4,0.2-1-0.9-1.1-1.1c-0.2-0.5-1.4-0.9-1.4-1.5c0-0.2-0.2-0.2-0.4-0.5c-0.1-0.2,0-0.4-0.1-0.6
		c-0.1-0.2-0.5-0.4-0.5-0.6c-0.1-0.4,0-0.6-0.1-1c0.5,0.1,0.6-0.2,0.7-0.6c0.1-0.2-0.1-0.5,0.1-0.6c0.1-0.2,0.5,0,0.7-0.2
		c0.4-0.4,0-1.1-0.2-1.4c-0.4-0.4,0.5-0.5,0.5-0.7c0-0.4-0.5-0.9-0.7-1c-0.5-0.4-0.6-0.6-0.6-1.2c0-0.5,0.1-2,0.9-1.8
		c-0.1-0.4-0.6-0.4-0.6-0.7c0-0.2-0.2-0.4-0.1-0.7c0.1-0.1,0.2-0.2,0.4-0.5c0.4-0.7-0.9-1.8-1.4-2.2c0.5,0,0.7-0.9,0.2-1
		c-0.4-0.1-0.9-0.9-0.5-1.2c0.4-0.2,0.4-0.1,0.6-0.6c0.2-0.4,0.2-0.4-0.1-0.7c-0.4-0.2-0.6-0.6-1-0.9c-0.5-0.4-1.2,0-1.6-0.5
		c-0.4-0.4,2.1-0.2,2.3-0.5c-0.1,0.1,0-0.9,0.1-0.6c-0.4-1.1-2.1,0-2.5-1c-0.1-0.1-0.2-0.4-0.2-0.5c-0.1-0.2,0.4-0.5,0.1-0.7
		c-0.2-0.4-0.9-0.5-0.5-0.9c0.4-0.5-1.6-0.9-0.9-1.5c0.4-0.4-0.1-0.6-0.5-0.7c-0.7-0.1-1-0.4-1.1-1c-0.1-0.5-0.1-1.1-0.4-1.6
		c-0.1-0.4-0.7-0.6-0.1-1c0.4-0.2,0.9,0,0.5-0.6c-0.4-0.5-1.1-1.1-1-1.7c0.1-1.1-1-2.1-1.2-3.1c-0.1-0.4,0-1,0.1-1.4
		c0.2-0.6-0.5-0.7-0.6-1.2c0.7,0.2,0.2-0.9,0-1.1c-0.5-0.5-0.4-0.7,0.2-0.7c-0.4-0.4-0.2-1.5-0.4-2c-0.2-0.9,0.5-1,1-1.5
		c0.5-0.5-0.6-1.2-0.7-1.8c-0.2-0.7-1.4-1.7-1.2-2.5c0.1-0.5-0.4-1.7-0.6-2.2c-0.2-0.5-0.4-1.6,0-2.1c0.2-0.2,0.4,0,0.5-0.2
		c0.1-0.2,0.1-0.5,0.2-0.7c0.1-0.1,0.5-0.2,0.5-0.5c0-0.5-0.1-1.1-0.4-1.6c-0.1-0.4-0.4-0.7-0.6-1.2c0-0.1-0.5-0.4-0.5-0.4
		c0-0.4,0.5-0.2,0.5-0.6c0-0.4,0-0.7-0.1-1.2c0-0.4,0-2.1,0.6-2.1c0.6,0.1-0.2-1.4-0.2-1.4c-0.2-0.5,0-2.3-0.5-2.5
		c-0.4-0.1-0.1,0.5-0.6-0.1c-0.4-0.5-0.2-0.6-0.1-1.1c0-0.4-0.2-0.5-0.5-0.7c-0.4-0.2-0.2-0.5-0.4-0.9c-0.2-0.7-1-1.2-1.2-2
		c0.7,0.4-0.1-0.6-0.4-0.7c-0.6-0.4-0.9-1.5-0.9-2.1c0-0.7,0.6-0.5,0.4-1.4c-0.1-0.6,0.5-1.7,0-2.2c1.1,0.7,0.7-1.1,0.5-1.6
		C515.7,906.1,514.7,904.5,515.1,904"/>
	<path id="path4520" class="st1" d="M549.5,993.3c0.6,0.6,1.5,1,2,1.7c-0.5-0.9-1.5,0.6,0.2,0.6c0.6,0,0.9,0.7,1.2,1.1
		c0.5,0.5,1.2,0.6,1.7,1c1.2,1.1,3.1,1.6,4.6,2.3c0.7,0.4,1.7,0.7,2.5,0.7c0.4,0,0.7-0.1,1.1-0.1c0.5,0,0.4,0.6,0.2,1
		c-0.4-0.2-0.9,0.1-1.5,0c-0.5-0.2-1.4,0.5-2,0.4c-0.7-0.1-1.5-0.4-2.2-0.4c-0.9,0-2,0-2.8-0.4c-0.5-0.2-0.9,0.4-1.4-0.4
		c-0.4-0.6-0.6-1.4-1-2.1C551.2,997,550.2,995.2,549.5,993.3"/>
	<path id="path4874" class="st2" d="M564.9,1001.7c0.5-0.5,1.4-0.4,2-0.6c-0.9-0.2-1.6,0.1-2.3,0.4
		C564.6,1001.6,564.8,1001.6,564.9,1001.7"/>
</g>
<path id="py" class="st0" d="M499.7,680c1.4-5.7,2.2-11.5,2.8-17.1c0.4-3.2-0.1-6.2-0.2-9.2c-0.2-3.1,1.5-5.7,2.7-8.4
	c1.7-3.7,0.9-9.1,6.5-9.9c6-0.7,12.1-2.1,17.9-3.9c9.4-2.8,16-2.3,24.5,2.3c3.3,1.8,8.1,4.4,8.4,8.8c0.1,2.6,2.2,10.6,4.9,11.5
	c-1.7,2.1,1.1,2.8,1.6,4.3c0.4,1.2,0,4.9-0.2,6.2c-0.4,1-0.5,1.8-0.5,2.8c0.1,1.4,1.1,2.6,0.6,3.9c-0.5,1.6-1.5,3.7-1.2,5.4
	c0.1,1,10.6,4.1,12.1,4.1c2.2,0,4.9,1,7.2,0.9c2.1-0.1,2-4.9,4.1-3.5c2.1,1.5,5.5,3.2,8.1,3.6c2,0.2,2.1,0.9,2.5,2.8
	c0.4,2.1,1.8,3.9,2.2,6.4c0.4,3.2,3.2,4.9,3.7,8.1c0.4,3.7,1.4,11.1,6.4,10.6c2.8-0.2,4.7-2.3,7.4-2.8c2.5-0.5,4.3,2.5,6.2,3.7
	c-1.1,0.7-1.2,1.8-0.6,3c1.1,2.2-0.7,3.5-0.1,5.5c0.6,2.2-0.7,6.2-1.1,8.4c-0.4,2.1-1,6.5-0.6,8.6l2.1,13.7c0.1,1.2-0.9,4.4-2.5,4.7
	c-0.9,0.1-3.2,3.5-2.8,4.3s-3.3,1.4-3.8,1.6c-0.9,0.5-2.2,1.5-2,2.3c0.4,1.2-1.8,6.4-3.7,4.8c-3.8-3.3-5.9-0.5-7.6,3.1
	c-1.1-0.4-2.6-2.3-3.8-2.1c-1.6,0.4-2,1.7-3.6-0.2c-1.1-1.4-2.5,0.6-4.1,0.6c-1.5,0-3.2-0.5-4.6-0.9c-4.6-1.2-9.1-3-13.9-2.5
	c-2.3,0.2-3.7,1.8-4.6-0.9c-0.1-0.5,1.6-5.4,2.1-5.8c4.9-3.2-0.1-11.5,4.6-13.8c2.1-1.1,2.1-6,3.3-8.1c2.1-3.8-0.2-5.7-3.6-8.1
	c-2.6-2-6.3-1.8-8.6-3.7c-1.4-1.1-3.1-1.5-4.7-1.8c-2.1-0.4-3.9-1.7-5.7-2.7c-3.9-2.2-6.8-4.4-10.4-7.3c-3.9-3.1-7.5-2.3-11.8-4.1
	c-2.7-1.1-6.4-1.5-8.9-4.1c-3.6-3.7-9.1-7-11.7-9.4c-3.1-2.7-6.3-6.3-7-8.5C505.7,683.7,502.1,683.2,499.7,680"/>
<path id="gy" class="st0" d="M496.9,201.8c1.5-2.8,3.8-4.2,3.5-8.5c-0.2-3,1.1-3.8,2.8-4.8c0.4-0.2,1.5-2,2.8-1.1
	c1.7,1.1,1.6-0.1,3.1-1.1c1.4-0.9,3.8-1.6,4.6-2.8c0.6-1.1-0.4-2.8-1.7-2.2c-3.6,1.2-1.7-2.3-3.2-4.3c-1.4-1.7,0.4-3.8,1.5-5.2
	c1.5-1.7,1.1-1.7,3.2-2.7c2.7-1.4,4.3-4.2,6.8-5.4c3.5-1.6,0.7-2.8-0.9-5.7c2.3,2.7,5.7,4.4,8.4,6.8c-1.2-2-3.9-2.5-4.9-4.7
	c3.3,1.5,6.8,3.6,9.1,6.3c2,2.2,4.4,6.3,6.9,7.8c2.7,1.6,3.5,6.7,2.5,9.2c-0.7,2-1.7,3.3-2,5.5c-0.2,1.8-0.2,3.9-1.4,5.5
	c3.7-0.7,0.9-9.9,6.7-7.8c4.3,1.5,9.7,4.6,10.7,9.6c2.8-2.6,4.8,2.7,5.2,4.7c0.7,3.5-0.6,8.8-3,11.5c3.8,1.1,0.5,3.8-0.4,4.8
	c-0.9,1-10.7-2.1-10.2,4.3c0.4,3.9,0.2,6.5-0.4,10.4c-0.4,2.6,2,7.8,3.8,9.5c2,1.8,0.6,3.9,3.6,4.3c0.6,0.1,2.2-0.6,2.6-0.1
	c1.2,1.8,1.4,4.2,1.7,6.4c0.6,3.9,4.8,7.3,4.8,11.2s4.6,3.8,6,6.3c-4.8,3.1-9.6-3.1-14.3,0.6c-0.7,0.6-1.2,1.5-2,2.2
	c-1.2,1.4-3,0.7-4.4,1.2c-2.8,1-3,2.3-6.3,2.5c-1,0-1.6,0.9-2.3,1.5c-0.5,0.1-1,0.2-1.5,0.6c0.1,0.6,0.2,1.2,0.2,1.7
	c-0.7,1.5-4.8,2.1-6.4,1.6c-1-0.4-0.4-1.6-1.8-1.6c-1.2,0-3.6-0.9-3.9-2.1c-0.7-2-3.6-4.9-5.7-5.3c0.2-0.5,0.4-1,0.6-1.4
	c-2,0.1-1.7-1.6-1.5-3c0.4-2.3-0.2-3.2-1.6-4.9c-2.3-2.8-2.2-8.3-1.5-11.6c0.6-2.6,2.5-4.9,2.5-7.8c0-2.3,0.6-2.2,2.1-4.2
	c0.9-1.2,2.7-3.5,1.8-4.9c-0.6-1.2-2.3-2.8-2.3-4.3c0-1.4,0.7-2.7-0.9-3.3c-1.1-0.5-3.9-0.5-4.6-1.6c-0.6-1.1,1.6-4.3,1.8-5.5
	c0.4-2.1,0.1-4.4-1.6-5.9c-2.5-2.2-6.5,1.2-9.5-0.2C502.7,212.3,498.5,205.2,496.9,201.8"/>
<path id="uy" class="st0" d="M590.2,820.8c1.2-1.8,3.7-3.5,2.7-5.9c1.8,1.4,3.8,2.5,6.2,1.2c1.2-0.6,1.4-2.7,3-3
	c3.1-0.4,6,3.3,8.1,5.1c2.7,2.3,7.9,4.3,8.4,8.3c0.1,1.5-0.1,3.8,2,3.3c1.5-0.4,4.1-1.7,3.2-3.7c2.5,0.6,7.4,8.5,9.4,7.8
	c1.8-0.7,2.2,0.9,3.8,1.7c2.1,1.2,4.1,1.2,5.9,3.1c1.4,1.4,2.5,3,4.1,4.1c2.1,1.4,4.7,1.6,6.7,3.2c3.6,3.1,4.7,7,9.1,9.1
	c5.1,2.5,2.6,3.9,0.2,7.6c-1.7,2.7-0.5,9.7,2.2,11.5c1.7,1.1-1.1,7.8-2.3,9.7c-1,1.6-4.2,8.6-7.2,6c1.5,2-1.8,3-3.1,3.5
	c-3.6,1.4-4.7,1.5-8.5,0.7c-3.1-0.6-6.3-2.2-9.2-0.6c-1.2,0.6-2.6,1.5-4.1,1.6c-2.2,0.2-2.1-1.4-3.5-2.1c-2.5-1.4-5.5-0.9-8-2.2
	c-3.3-2-4.6-4.1-8.8-3.8c-2.7,0.1-4.8,1.2-6.8-0.9c-2.7-3-6.7-4.9-8.9-8.3c-1.5-2.3-3.8-12.3-0.5-13.3c3.5-1,0.9-4.9-0.1-6.8
	c-0.7-1.4-1.2-2.7-1.8-4.1c-0.5-1.1,1.1-2.1,0.5-3.7c-0.5-1.4-3.1-5.5-1.8-6.9c2.7-3.1-0.7-5.1,0.4-7.2c0.9-1.5-0.2-8.3,0.1-8.5
	C594.1,825.6,590.9,823.2,590.2,820.8"/>
<g id="cl" transform="matrix(4.4075902,0,0,4.3787433,-1859.4186,-3158.7554)">
	<path id="path6426" class="st2" d="M552.1,1003.7c-0.1-0.1-0.1-0.1-0.4-0.2C551.8,1003.6,551.9,1003.7,552.1,1003.7"/>
	<path id="path6432" class="st2" d="M558.3,1005.3c0-0.1,0-0.1,0-0.2c-0.2,0-0.5,0-0.6,0.1C558,1005.2,558.1,1005.2,558.3,1005.3"/>
	<path id="path6440" class="st2" d="M559.3,1005.3c0-0.2,0-0.2-0.4-0.1C559.2,1005.2,559.2,1005.3,559.3,1005.3"/>
	<path id="path6442" class="st2" d="M559.8,1005.4c-0.1-0.1-0.1-0.2-0.2-0.4C559.6,1005.2,559.7,1005.3,559.8,1005.4"/>
	<path id="path6428" class="st2" d="M558.5,1002.6c-0.5-0.6-3.2-1.2-3.8-0.4c0.5-0.2,0.6,0.4,0.9,0.6c0.2,0.2,1.7,0.2,0.9,0.2
		c0.2,0,0.5,0,0.7,0c0.1,0,0-0.2,0-0.2c0.2-0.2,0.5,0.4,0.6,0.5C558.2,1003.5,558.6,1002.8,558.5,1002.6"/>
	<path id="path6430" class="st2" d="M557.5,1004.3c0.1-0.1,0.1-0.2,0.2-0.2C557.4,1004,557.2,1004,557.5,1004.3"/>
	<path id="path6434" class="st2" d="M559,1004.9c-0.1-0.2-0.2-0.4-0.5-0.5c-0.1,0.1-0.1,0.2-0.2,0.4
		C558.5,1004.8,558.7,1004.9,559,1004.9"/>
	<path id="path6436" class="st2" d="M558.3,1002c0,0.2,0.5,0.2,0.6,0.2C558.8,1002.2,558.6,1002.1,558.3,1002"/>
	<path id="path6438" class="st2" d="M559.2,1003c-0.1,0-0.4,0.1-0.4,0.2c0.2,0.1,0.4,0.1,0.6,0.1
		C559.3,1003.1,559.3,1003,559.2,1003"/>
	<path id="path6444" class="st2" d="M560.2,1003.1c0.2-0.2,0-0.5-0.2-0.4C559.9,1002.8,560.1,1003,560.2,1003.1"/>
	<path id="path6364" class="st2" d="M534.8,995.6c-0.2,0-0.4,0-0.4,0.2C534.5,995.8,534.7,995.7,534.8,995.6"/>
	<path id="path6372" class="st2" d="M536,996.9c0.1-0.1,0.1-0.2,0.2-0.4C535.9,996.4,535.8,996.6,536,996.9"/>
	<path id="path6374" class="st2" d="M536.9,996.2c-0.1,0-0.4,0-0.5,0.1c0.1,0.1,0.1,0.2,0.2,0.4c-0.2-0.1-0.5-0.1-0.6-0.1
		C536.3,996.4,537.4,996.8,536.9,996.2"/>
	<path id="path6376" class="st2" d="M540.1,998.9c0.4-0.2,0.7-0.5,1.1-0.5c-0.4-0.1-0.4-0.7,0.1-0.5c-0.1-0.6-0.9-0.4-1.1-0.7
		c-0.2-0.2-0.7-0.6-0.7,0c-0.1-0.2-0.6-0.7-0.6-0.1c-0.1-0.2-0.7-1-1.1-0.7c0,0.1,0.1,0.2,0.2,0.4c-0.2,0-0.5,0-0.6,0
		c0.5,0.2,0.9,0.5,1.4,0.6c-0.5,0-1.4-0.7-1.6,0c0.2-0.1,0.4,0,0.4,0.4c0.9-0.4,0.6,0.1,0.9,0.6c0.1,0.2,0.5,0.4,0.6,0
		c0.2-0.4,0.7-0.5,1.1-0.2c-0.1,0.1-0.2,0.2-0.4,0.4c0.1,0.1,0.2,0.1,0.4,0.2c-0.2,0.1-0.5,0.1-0.6,0.2
		C539.6,998.6,539.8,998.8,540.1,998.9"/>
	<path id="path6378" class="st2" d="M538.7,998.9c0-0.4-0.5-0.4-0.6-0.2C538.4,998.5,538.6,998.6,538.7,998.9"/>
	<path id="path6380" class="st2" d="M541.4,998.6c-0.1,0-0.1,0-0.2,0c0.2,0.2,0.1,0.4-0.2,0.5C541.6,999.6,542.2,998.9,541.4,998.6"
		/>
	<path id="path6382" class="st2" d="M541.7,1000c0.1-0.2,0.1-0.2,0.4-0.2c-0.2-0.1-0.5-0.1-0.6,0
		C541.4,999.8,541.6,999.9,541.7,1000"/>
	<path id="path6384" class="st2" d="M541.8,997.8c-0.1,0-0.2,0-0.4,0.1C541.6,997.9,541.7,997.9,541.8,997.8"/>
	<path id="path6386" class="st2" d="M543.1,998.2c-0.2-0.1-0.5,0.1-0.6-0.1c-0.1-0.2-0.7,0.2-0.9,0.2c0.1,0.5,1.6,0.6,1.4,1.2
		c0.9,0,0-0.6-0.2-0.9c0.1,0.2,0.4,0.2,0.6,0.1C543.2,998.6,543.1,998.4,543.1,998.2"/>
	<path id="path6388" class="st2" d="M542.3,999.5c-0.1-0.1-0.2-0.2-0.4-0.2C542.1,999.3,542.2,999.4,542.3,999.5"/>
	<path id="path6390" class="st2" d="M542.4,1000.1c-0.1,0-0.2-0.1-0.4-0.1C542.2,1000.1,542.3,1000.1,542.4,1000.1"/>
	<path id="path6392" class="st2" d="M542.6,1000c0.1-0.4,0-0.4-0.4-0.2C542.4,999.9,542.4,999.9,542.6,1000"/>
	<path id="path6394" class="st2" d="M544.3,998.4c-0.4-0.1-0.9-0.2-1.1-0.1c0.1,0,1,1.7,1,0.5c0,0.7,0.9,0,0.7,0.7
		c0.2,0,0.5-0.1,0.7-0.2c-0.1-0.2-1-1.2-0.7-0.2C544.5,998.9,544.3,998.6,544.3,998.4"/>
	<path id="path6396" class="st2" d="M543.7,1001.1c0-0.2,0-0.4-0.2-0.4C543.5,1001,543.5,1001.1,543.7,1001.1"/>
	<path id="path6398" class="st2" d="M544.2,999.3c0,0.2,0,0.2,0.2,0.4C544.4,999.5,544.3,999.4,544.2,999.3"/>
	<path id="path6400" class="st2" d="M546.9,999.3c-0.1-0.4-0.5-0.6-0.7-1c0.2,0.2,0.4,0.2,0.6,0c-0.5-0.2-0.5-1-1-1.2
		c-0.7-0.4-0.4,0.6-0.1,0.9c-0.2-0.1-0.5-0.1-0.7,0C545.5,998.5,546,999,546.9,999.3"/>
	<path id="path6402" class="st2" d="M546.8,1001.9c0-0.1,0.1-0.1,0.1-0.2c-0.5,0-0.9-0.2-1.2-0.1c0,0.1,0.1,0.2,0.2,0.4
		C546,1001.5,546.5,1001.6,546.8,1001.9"/>
	<path id="path6404" class="st2" d="M547.2,998.9c0.1-0.4,0-0.5-0.4-0.1C547,998.9,547.1,998.9,547.2,998.9"/>
	<path id="path6406" class="st2" d="M548.7,1002.8c0.1-0.2,0.2-0.5,0.5-0.4c-0.1-0.5-0.9-0.4-1.2-0.4c0.2,0,0.5-0.1,0.6-0.4
		c-0.2,0-0.5,0.2-0.7,0.2c-0.4,0-0.6-0.1-1,0C547.2,1002.6,548.4,1002,548.7,1002.8"/>
	<path id="path6408" class="st2" d="M547.6,999.4c0.1-0.4-0.5-0.4-0.6-0.2C547.2,999.3,547.4,999.3,547.6,999.4"/>
	<path id="path6410" class="st2" d="M548.2,1001.5c-0.2,0-0.5,0-0.7,0.2C547.7,1001.7,548,1001.6,548.2,1001.5"/>
	<path id="path6412" class="st2" d="M549.7,1001.7c-0.1,0.1-0.1,0.2-0.2,0.4C549.7,1002.1,549.7,1002,549.7,1001.7"/>
	<path id="path6414" class="st2" d="M550.2,1003c-0.1-0.1-0.1-0.2-0.4-0.2C550,1002.8,550.1,1002.8,550.2,1003"/>
	<path id="path6418" class="st2" d="M550.2,1002.2c0.6-0.1,1.2,0,1.7-0.4c-0.5-0.1-1.6-0.2-2,0.1
		C550,1002,550.1,1002.1,550.2,1002.2"/>
	<path id="path6420" class="st2" d="M550.1,1002.5c0.1,0.2,1,0.4,1.2,0.4c-0.2,0.6,1.2,1,1.6,0.7c-0.2-0.1-0.5-0.4-0.7-0.5
		c-0.9-0.6,0.6-0.2-0.4-0.6c0.4-0.1,0.9,0.4,1.4,0.4c0.4,0,0.7,0.5,0.5,0.7c0.4-0.2,1.4,0,1.7,0.1c0.5,0.1,0.5,0.7,1.1,0.5
		c-0.4-0.4-0.6-0.7-1.2-1c-0.4-0.1-1.1-0.1-1.4-0.5c0.4,0.2,1,0.1,1.4,0.1c-0.9-0.6-2-0.1-2.7-0.9c0.6,0.2,0.9,0.1,1.5,0.1
		c0.5,0,0.2-0.5-0.1-0.5c-0.5-0.1-1,0.1-1.5,0.2c-0.2,0.1-1.7-0.1-1.2,0.5C551.2,1002,550.4,1002.2,550.1,1002.5"/>
	<path id="path6422" class="st2" d="M550.4,1003.2c-0.2,0-0.2,0.1,0.1,0.2C550.6,1003.3,550.4,1003.2,550.4,1003.2"/>
	<path id="path6424" class="st2" d="M551.4,1003.6c-0.1-0.2-0.1-0.2-0.4-0.2C551.2,1003.5,551.3,1003.5,551.4,1003.6"/>
	<path id="path6318" class="st2" d="M529.1,990.6c0.4-0.1,0.1-0.5-0.1-0.6C528.9,990.1,529,990.4,529.1,990.6"/>
	<path id="path6322" class="st2" d="M530,991.4c0.2-0.4,0.1-1.7-0.6-1.6c0.1,0.2,0.2,0.5,0.4,0.6C529.1,990.4,529.6,991.3,530,991.4
		"/>
	<path id="path6326" class="st2" d="M530.2,991.5c0.2-0.2,0.4-1.1-0.2-1C530.1,990.9,530.2,991.1,530.2,991.5"/>
	<path id="path6328" class="st2" d="M531,992.1c0.4-0.5-0.5-0.4-0.7-0.4C530.6,991.9,530.7,992,531,992.1"/>
	<path id="path6332" class="st2" d="M530.6,991.3c0.2,0,0.4-0.1,0.5-0.4C530.8,990.8,530.6,991,530.6,991.3"/>
	<path id="path6334" class="st2" d="M532,990.8c0-0.5-1-0.9-1.4-0.9C531.1,990.4,531.5,990.6,532,990.8"/>
	<path id="path6340" class="st2" d="M532.1,990.3c0.1,0,0.1-0.1,0.2-0.1c-0.4-0.2-0.5-0.6-0.9-0.7
		C531.6,989.9,531.6,990,532.1,990.3"/>
	<path id="path6344" class="st2" d="M532.9,992.5c0.1,0,0.4-0.1,0.4-0.2c-0.4-0.2-1.2-1.1-1.6-0.6c0.4-0.1,0.7,0.2,1,0.4
		C532,991.7,532.7,992.4,532.9,992.5"/>
	<path id="path6346" class="st2" d="M536.6,995.8c0.2,0.1,0.6,0.1,0.9,0c-0.5-0.1-0.9-0.5-1.4-0.7c1,1-1.4-1-0.4,0
		c-0.7-0.5-1.4-0.5-2.2-0.7c-0.6-0.1-1.1-0.9-1.8-0.6c0.9,0.4,1.5,0.9,2.3,1.2c0.5,0.1,0.9,0,1.4,0.2
		C535.9,995.3,536.3,996.1,536.6,995.8"/>
	<path id="path6348" class="st2" d="M532.3,991.5c-0.1-0.1-0.1-0.2-0.4-0.1C532.1,991.4,532.2,991.4,532.3,991.5"/>
	<path id="path6350" class="st2" d="M532.8,990.3c0-0.4-0.5-0.4-0.6-0.5C532.3,990,532.6,990.1,532.8,990.3"/>
	<path id="path6352" class="st2" d="M533.8,991.9c-0.1-0.6-1.1-1.1-1.6-1.1C532.6,991.3,533.3,991.4,533.8,991.9"/>
	<path id="path6354" class="st2" d="M532.8,990.6c-0.1-0.1,0-0.2-0.4-0.1C532.6,990.5,532.7,990.5,532.8,990.6"/>
	<path id="path6356" class="st2" d="M533.8,992.5c0.1,0,0.1,0,0.2-0.1c-0.2-0.5-0.7-0.7-1.2-0.6C533.1,992,533.4,992.1,533.8,992.5"
		/>
	<path id="path6358" class="st2" d="M533.2,991c0.2-0.1,0.1-0.2-0.2-0.4C532.9,990.8,533.1,990.9,533.2,991"/>
	<path id="path6360" class="st2" d="M533.4,991.7c0-0.2-0.1-0.2-0.4-0.1C533.2,991.6,533.3,991.7,533.4,991.7"/>
	<path id="path6362" class="st2" d="M534.2,993.7c0.5-0.2,0.2-1.2-0.4-1.1C533.4,992.6,534.2,993.5,534.2,993.7"/>
	<path id="path6366" class="st2" d="M535,995.1c0.1,0.1,0.1,0.2,0.4,0.2C535.3,995.2,535.2,995.2,535,995.1"/>
	<path id="path6368" class="st2" d="M536,994.6c-0.1-0.5-0.7-0.4-1-0.2C535.4,994.2,535.8,994.3,536,994.6"/>
	<path id="path6370" class="st2" d="M535.3,991.1c0.2-0.1,0.4-0.2,0.2-0.6C535.3,990.6,535.2,990.9,535.3,991.1"/>
	<path id="path6272" class="st2" d="M525.3,983.1c-0.2-0.6-1-1-1.6-1.1c0.1,0.4,0.4,0.9,0.9,0.5C524.6,983,525.1,982.9,525.3,983.1"
		/>
	<path id="path6286" class="st2" d="M526.4,984.6c0.1-0.2,0.2-0.5,0.5-0.6c-0.4,0.2-0.7,0.2-0.6-0.2c-0.1,0.1-0.4,0-0.5-0.1
		c-0.2-0.2-0.6,0-0.9,0c0.2,0.2,1.1,0.4,1,0.7c-0.4,0.1-0.4-0.5-0.9-0.4c0,0.2,0,0.5,0.1,0.6c0.2,0.2,0.9-0.1,0.5,0.5
		C526,985.1,526.3,984.8,526.4,984.6"/>
	<path id="path6290" class="st2" d="M526.4,986.4c0.1-0.4-0.1-0.6-0.4-0.9c0.2,0.1,0.5,0,0.5-0.2c-0.4,0.1-0.6-0.2-1,0.1
		c0.4,0.1,0.4,0.4,0.1,0.5C526.2,986,526,986.4,526.4,986.4"/>
	<path id="path6294" class="st2" d="M526.7,985c-0.1-0.1-0.2-0.1-0.4,0C526.5,985,526.7,985,526.7,985"/>
	<path id="path6300" class="st2" d="M527.4,986.6c0-0.2,0-0.6-0.4-0.6C526.9,986.2,527.1,986.4,527.4,986.6"/>
	<path id="path6304" class="st2" d="M527.5,985.5c0.1-0.1,0.2-0.2,0.2-0.5C527.5,985,527.4,985.1,527.5,985.5"/>
	<path id="path6306" class="st2" d="M528.5,986.8c0-0.2-0.7-1-1-0.7C527,986.6,528.1,986.8,528.5,986.8"/>
	<path id="path6308" class="st2" d="M528.7,987.7c0.2-0.2,0.5-0.5,0.9-0.4c-0.5-0.4-0.6-1.1-1.5-1c0.2,0.2,0.4,0.5,0.5,0.7
		c-0.4-0.1-0.7-0.1-1-0.1c0,0.4,0.7,0.7,1,0.5C528.7,987.4,528.7,987.6,528.7,987.7"/>
	<path id="path6310" class="st2" d="M528,989.6c0.5-0.1,0.2-0.7,0.2-1.1c-0.2,0.2-0.5,0.1-0.5-0.2
		C527.8,988.7,527.8,989.3,528,989.6"/>
	<path id="path6314" class="st2" d="M529.9,986.7c0-0.4-0.5-0.6-0.9-0.7c0.6,0,0.1-0.1-0.1-0.4c-0.2-0.2-0.5-0.4-0.9-0.2
		c0.2,0.1,0.4,0.5,0.5,0.7C529,986.4,529.5,986.4,529.9,986.7"/>
	<path id="path6316" class="st2" d="M528.7,989c0.4-0.1,0.6-0.5,0.7-0.1c0-0.1,0-0.2,0-0.4c0.1,0.1,0.2,0.1,0.4,0.2
		c-0.4-0.5-0.7-1.1-1.2-0.2C528.7,988.5,528.9,988.8,528.7,989"/>
	<path id="path6320" class="st2" d="M529.9,988c0.1-0.4-0.4-0.4-0.5-0.6C529,987.8,529.6,987.9,529.9,988"/>
	<path id="path6324" class="st2" d="M530.2,988c0.1,0,0.1,0,0.2-0.1c-0.2-0.4-0.5-0.7-0.9-1C529.9,987.4,530.1,987.8,530.2,988"/>
	<path id="path6330" class="st2" d="M531.1,988.9c0-0.4-0.2-0.6-0.6-0.5C530.7,988.7,530.8,988.9,531.1,988.9"/>
	<path id="path6338" class="st2" d="M531.2,988.7c0.1-0.1,0.2-0.1,0.2-0.2c-0.1-0.2-0.4-0.4-0.6-0.1
		C531,988.4,531.1,988.5,531.2,988.7"/>
	<path id="path6342" class="st2" d="M532.1,988.7c0-0.2-0.1-0.4-0.4-0.4C531.6,988.5,531.7,988.7,532.1,988.7"/>
	<path id="path6206" class="st2" d="M523.2,978.7c0.6-0.6-1.5-2.7-2.2-2.3c0.1,0.2,0.6,0.4,0.6,0.6c0,0.4,0.5,0.4,0,0.5
		c0.2,0.1,0.6-0.2,0.7,0.1C522.5,977.9,522.8,978.4,523.2,978.7"/>
	<path id="path6218" class="st2" d="M521.7,975.3c0.1-0.2,0.1-0.4-0.1-0.5c-0.1,0.1-0.1,0.2-0.2,0.4
		C521.5,975.2,521.6,975.3,521.7,975.3"/>
	<path id="path6220" class="st2" d="M522,978.6c0.5,0.1,0.7-0.2,0.5-0.6c-0.2-0.5-0.6-0.1-1,0c0.1,0.4,0.5,0.4,0.9,0.5
		C522.1,978.4,522.1,978.6,522,978.6"/>
	<path id="path6224" class="st2" d="M522.1,978.9c0.2-0.1,0.5-0.2,0.7-0.5c-0.4-0.1-0.6,0.2-1,0.1
		C521.8,978.8,522,978.9,522.1,978.9"/>
	<path id="path6226" class="st2" d="M522.2,975.2c0.1-0.4,0-0.4-0.4-0.2C522,975,522.1,975.1,522.2,975.2"/>
	<path id="path6230" class="st2" d="M523.1,976.2c0.1-0.4,0-0.7-0.4-1c-0.1,0.2-0.1,0.4,0,0.6c-0.2-0.2-0.7-0.2-0.6,0.2
		C522.3,975.8,522.7,976.2,523.1,976.2"/>
	<path id="path6232" class="st2" d="M523.2,977.7c1-0.7-0.5-1.4-1.1-1.2C522.3,977,522.8,977.3,523.2,977.7"/>
	<path id="path6234" class="st2" d="M523.7,980c0-0.5-1-1-1.5-0.7C522.3,980,523.3,979.5,523.7,980"/>
	<path id="path6236" class="st2" d="M523,976.5c-0.1-0.2-0.4-0.4-0.6-0.2C522.6,976.2,522.8,976.3,523,976.5"/>
	<path id="path6242" class="st2" d="M522.7,980.2c0-0.2,0-0.2-0.4-0.1C522.6,980,522.7,980,522.7,980.2"/>
	<path id="path6254" class="st2" d="M523.2,980.8c-0.1-0.4,0.7-0.7-0.1-1C523.2,980.2,522.3,980.6,523.2,980.8"/>
	<path id="path6258" class="st2" d="M523.7,979.8c0.1,0,0.2-0.1,0.4-0.1c-0.1-0.4-0.5-0.5-1-0.5
		C523.2,979.3,523.4,979.5,523.7,979.8"/>
	<path id="path6260" class="st2" d="M523.3,976.1c-0.1-0.1-0.1-0.2-0.2-0.4C523.2,975.8,523.2,976,523.3,976.1"/>
	<path id="path6262" class="st2" d="M523.6,979.2c0-0.2-0.1-0.4-0.2-0.5C523.2,978.9,523.3,979,523.6,979.2"/>
	<path id="path6264" class="st2" d="M524.8,978.6c0.6-0.1-1.1-1.8-1.4-2.1c0,0.2,0.1,0.5,0.1,0.6c0.1,0.2,0.4,0.4,0.4,0.6
		c-0.2-0.6-1-0.2-0.6,0.2C523.7,978.6,524.4,978.4,524.8,978.6"/>
	<path id="path6266" class="st2" d="M523.7,981.8c-0.1-0.1-0.2-0.1-0.4-0.2C523.6,981.6,523.6,981.8,523.7,981.8"/>
	<path id="path6268" class="st2" d="M526.4,983.5c0.2,0.1,0.7,0.1,1,0c-0.1-0.1-0.1-0.2-0.2-0.2c0.6,0.4,0.4-0.6-0.1-0.6
		c0.9,0.1-0.4-1-0.2-0.1c-0.1-0.7-0.1-1.8-0.7-2.3c-0.2-0.2-0.1-0.5-0.4-0.6c-0.2-0.1-0.5-1.2-0.5-0.4c-0.4-1.4-1.6,0.6-0.6,0.1
		c-0.7,0.2,0,0.6,0.2,0.4c-0.2,0.2,0.4,1.2,0.4,1.6c-0.2-0.1-0.4-0.4-0.6-0.4c0.5,0.9-0.7-0.4,0,0.5c-0.1-0.2-0.4-0.4-0.6-0.2
		c0.2,0.2,0.5,0.4,0.6,0.6c-0.4-0.2-0.6-0.6-1-0.7c0,0.6,0.6,0.7,0.9,1.1c0.2,0.5,0.7,1.1,1.4,1.1c0-0.5-0.5-0.6-0.5-1
		s0.4-0.4,0.4-0.9c0.4,0,0.5,0.5-0.1,0.4c0,0.2,0.1,0.5,0.4,0.5c-0.1,0-0.2,0.1-0.4,0.2c0.1,0.2,0.5,0.2,0.6,0.4
		c0.5,0.2-0.4,0.6,0.4,0.5C526.5,983.4,526.5,983.5,526.4,983.5"/>
	<path id="path6270" class="st2" d="M523.8,978.8c0.4-0.2,0.2-0.4-0.1-0.4C523.7,978.6,523.7,978.7,523.8,978.8"/>
	<path id="path6274" class="st2" d="M523.8,975.5c0.1-0.1,0.2-0.1,0.1-0.4C523.8,975.3,523.8,975.3,523.8,975.5"/>
	<path id="path6276" class="st2" d="M524.8,980.8c0.1-0.6-0.7-1.4-1-0.7C523.8,980.3,524.7,980.6,524.8,980.8"/>
	<path id="path6278" class="st2" d="M524.3,980.8c-0.1-0.1-0.2-0.1-0.4-0.1C524.1,980.6,524.2,980.6,524.3,980.8"/>
	<path id="path6280" class="st2" d="M524.6,977.3c0.5-0.4-0.1-0.7-0.5-0.6C524.3,976.8,524.4,977.1,524.6,977.3"/>
	<path id="path6282" class="st2" d="M524.6,976c0.4-0.1,0.9,0,1.1-0.4c-0.5-0.2-1.1-0.1-1.6-0.1C524.2,975.7,524.3,975.8,524.6,976"
		/>
	<path id="path6284" class="st2" d="M525.5,977.8c0.1-0.4-0.4-0.5-0.6-0.6C524.8,977.6,525.3,977.6,525.5,977.8"/>
	<path id="path6288" class="st2" d="M526.2,977.8c-0.1-0.2-0.4-0.4-0.6-0.4C525.8,977.7,526,977.8,526.2,977.8"/>
	<path id="path6292" class="st2" d="M526.5,976.1c0-0.1-0.1-0.2-0.4-0.2C526.3,975.8,526.4,976,526.5,976.1"/>
	<path id="path6296" class="st2" d="M527,982.1c0.1-0.1,0.2-0.1,0.2-0.2c-0.1-0.2-0.4-0.4-0.6-0.5
		C526.8,981.6,526.9,981.9,527,982.1"/>
	<path id="path6298" class="st2" d="M527,976.5c-0.1-0.1-0.2-0.1-0.4-0.1C526.8,976.3,526.9,976.3,527,976.5"/>
	<path id="path6166" class="st2" d="M519.6,967.3c-0.1-0.1-0.2-0.1-0.4-0.1C519.4,967.2,519.5,967.2,519.6,967.3"/>
	<path id="path6176" class="st2" d="M519.7,967.5c0.1,0,0.2,0,0.4,0.1c0-0.2,0-0.5-0.1-0.6C519.7,966.8,519.6,967.1,519.7,967.5"/>
	<path id="path6222" class="st2" d="M522.2,968.1c0-0.2,0.1-0.7-0.4-0.6C521.8,967.7,522,968,522.2,968.1"/>
	<path id="path6240" class="st2" d="M522.6,968.3c0.1-0.2,0.2-0.4,0.5-0.4C522.7,967.6,522.2,968.1,522.6,968.3"/>
	<path id="path6244" class="st2" d="M522.7,967.6c0-0.1-0.1-0.2-0.2-0.4C522.6,967.3,522.6,967.5,522.7,967.6"/>
	<path id="path6248" class="st2" d="M523,965.2c-0.1-0.1-0.1-0.2-0.2-0.4C522.7,965,522.8,965.1,523,965.2"/>
	<path id="path6250" class="st2" d="M522.8,972.9c0.1-0.1,0.2-0.2,0.2-0.4C522.7,972.4,522.6,972.5,522.8,972.9"/>
	<path id="path6252" class="st2" d="M523.3,969.2c0.1-0.5-0.2-0.9-0.6-0.5C523,968.8,523.2,968.9,523.3,969.2"/>
	<path id="path6256" class="st2" d="M523.3,968.6c-0.1-0.2-0.2-0.4-0.5-0.4C523,968.4,523.1,968.6,523.3,968.6"/>
	<path id="path6144" class="st2" d="M518.6,961.2c-0.1-0.1-0.1-0.1-0.4-0.1C518.4,961.2,518.5,961.2,518.6,961.2"/>
	<path id="path6174" class="st2" d="M520,962.5c0.2-0.2-0.2-0.4-0.4-0.1C519.7,962.4,519.9,962.4,520,962.5"/>
	<path id="path6130" class="st2" d="M517.5,952.5c-0.4-0.2-0.4-0.1-0.6,0.1c-0.2,0.2-0.9-0.4-1.1-0.4c0.6,0.6,0,1.4,0.4,1.8
		c0.5,0.7,0.4,2,0.7,2.7c0.1,0.4-0.2,0.5,0,0.9c0.1,0.4,0.6,0.5,0.9,0.5c0.2,0.1,0.6,0.1,0.9,0.2c0.6,0.1,0.1-0.9,0-1
		c1-0.1,0-0.7-0.2-1c0.2,0,0.4,0,0.6,0c-0.1-0.2-1.8-1.4-0.9-1.4c-0.7-0.5,0-0.7,0.4-1C518.1,953.6,517.7,953.2,517.5,952.5"/>
	<path id="path6132" class="st2" d="M516.3,959.4c0.1-0.1,0.2-0.1,0.4-0.2c-0.2-0.1-0.4-0.1-0.6,0
		C516.1,959.3,516.2,959.3,516.3,959.4"/>
	<path id="path6134" class="st2" d="M517.4,964.4c0.1-0.2,0-0.4-0.4-0.4C517.2,964.1,517.3,964.3,517.4,964.4"/>
	<path id="path6136" class="st2" d="M517.9,963.4c0-0.2,0-0.2-0.2-0.4C517.8,963.1,517.8,963.3,517.9,963.4"/>
	<path id="path6138" class="st2" d="M518.4,955.6c0-0.2,0-0.2-0.4,0C518.1,955.6,518.3,955.6,518.4,955.6"/>
	<path id="path6140" class="st2" d="M518.9,955.3c-0.1-0.2-0.4-0.5-0.6-0.4C518.4,955,518.6,955.1,518.9,955.3"/>
	<path id="path6142" class="st2" d="M518.9,963.5c-0.1-0.4-0.5-0.2-0.7-0.1C518.4,963.4,518.6,963.4,518.9,963.5"/>
	<path id="path6146" class="st2" d="M518.9,962.9c0.1-0.1,0.2-0.4,0.1-0.5c-0.2,0.2-0.4,0.2-0.6,0.1
		C518.4,962.8,518.6,962.9,518.9,962.9"/>
	<path id="path6148" class="st2" d="M518.8,961.3c-0.1,0-0.2,0-0.4,0C518.5,961.3,518.6,961.3,518.8,961.3"/>
	<path id="path6150" class="st2" d="M518.8,961.9c-0.1-0.1-0.2-0.1-0.4-0.1C518.6,961.9,518.6,961.9,518.8,961.9"/>
	<path id="path6152" class="st2" d="M519.1,960.6c0-0.2,0.1-0.5,0.4-0.5c-0.4,0.1-0.7-0.1-1,0.2C518.8,960.3,519,960.4,519.1,960.6"
		/>
	<path id="path6154" class="st2" d="M519.4,964.1c0.1-0.4-0.4-0.5-0.6-0.5C519,963.9,519.1,964,519.4,964.1"/>
	<path id="path6156" class="st2" d="M519.1,952.7c0-0.1-0.1-0.2-0.2-0.4C518.9,952.4,519,952.5,519.1,952.7"/>
	<path id="path6158" class="st2" d="M519.6,957c-0.1-0.1-0.4-0.2-0.6-0.2C519.1,956.9,519.4,956.9,519.6,957"/>
	<path id="path6160" class="st2" d="M519.7,963.9c0.4-0.1,0.6-0.5,1-0.5c-0.4-0.2-0.9-0.4-1.2-0.2
		C518.8,963.3,519.3,963.8,519.7,963.9"/>
	<path id="path6162" class="st2" d="M519.7,962c0-0.1,0.1-0.2,0.1-0.4c-0.2-0.1-0.5-0.1-0.7-0.1C519.3,961.8,519.5,961.9,519.7,962"
		/>
	<path id="path6168" class="st2" d="M519.7,960.7c-0.1-0.1-0.2-0.1-0.4-0.1C519.5,960.7,519.6,960.7,519.7,960.7"/>
	<path id="path6170" class="st2" d="M520,962.9c0-0.1,0.1-0.2,0.1-0.2c-0.2-0.1-0.5-0.1-0.6-0.1C519.5,962.6,519.7,962.9,520,962.9"
		/>
	<path id="path6172" class="st2" d="M520,961.5c-0.1-0.2-0.2-0.4-0.4-0.4C519.5,961.4,519.7,961.5,520,961.5"/>
	<path id="path6178" class="st2" d="M519.7,964.6c0.4,0.1,0.9-0.1,1.2-0.2C520.6,964.1,520,964.1,519.7,964.6"/>
	<path id="path6180" class="st2" d="M520.2,965.7c0.1-0.2-0.1-0.5-0.4-0.5C519.9,965.5,520,965.7,520.2,965.7"/>
	<path id="path6182" class="st2" d="M520.2,962c0-0.4-0.1-0.4-0.4-0.1C520,962,520.1,962,520.2,962"/>
	<path id="path6186" class="st2" d="M520.2,966.1c0.1-0.4,0-0.4-0.4-0.1C520,966,520.1,966.1,520.2,966.1"/>
	<path id="path6188" class="st2" d="M520.5,961.3c0.1-0.4-0.2-0.6-0.5-0.6C520.1,960.9,520.2,961.2,520.5,961.3"/>
	<path id="path6190" class="st2" d="M520.4,962.5c0.1-0.2,0.1-0.4-0.2-0.4C520.2,962.4,520.2,962.4,520.4,962.5"/>
	<path id="path6192" class="st2" d="M520.5,964.1c0-0.1,0-0.2,0-0.4c-0.1,0.1-0.2,0.1-0.4,0.2C520.2,964,520.4,964,520.5,964.1"/>
	<path id="path6194" class="st2" d="M520.6,967.6c0.5-0.2,0.6-1.1-0.1-1.1C519.9,966.3,520.5,967.3,520.6,967.6"/>
	<path id="path6196" class="st2" d="M521.1,964.6c-0.2,0.1-0.6,0.1-0.9,0.2c0.1,0.6,1.4,0.6,1.8,0.5
		C522,965,521.5,964.6,521.1,964.6"/>
	<path id="path6198" class="st2" d="M521.4,966c0.2,0,0.4,0,0.6-0.1c-0.2-0.4-1-0.5-1.2-0.4C520.9,965.7,521.1,965.9,521.4,966"/>
	<path id="path6200" class="st2" d="M521.2,964.5c0.2-0.4-0.1-0.6-0.5-0.5C520.9,964.1,521,964.4,521.2,964.5"/>
	<path id="path6202" class="st2" d="M521.2,963.6c0.1,0,0.2-0.1,0.4-0.1C521.1,962.6,520.4,963.4,521.2,963.6"/>
	<path id="path6204" class="st2" d="M521.1,953.8c0.1-0.2,0-0.2-0.4-0.1C520.9,953.6,521,953.6,521.1,953.8"/>
	<path id="path6208" class="st2" d="M521.2,966.8c0.1-0.4,0.6-0.2,0.9-0.1C522,966.2,521,966.2,521.2,966.8"/>
	<path id="path6210" class="st2" d="M521.5,964c0.1,0,0.1,0,0.2,0c0-0.2-0.1-0.4-0.4-0.4C521.4,963.8,521.5,963.9,521.5,964"/>
	<path id="path6212" class="st2" d="M521.7,966.2c0-0.2-0.1-0.4-0.4-0.1C521.5,966.2,521.6,966.2,521.7,966.2"/>
	<path id="path6214" class="st2" d="M521.8,960.9c0-0.4-0.1-0.6-0.5-0.4C521.5,960.7,521.6,960.9,521.8,960.9"/>
	<path id="path6216" class="st2" d="M522,967.3c0.5-0.2-0.2-0.7-0.6-0.5C521.5,967.1,521.7,967.3,522,967.3"/>
	<path id="path6228" class="st2" d="M523.8,963.6c-0.1-0.1-0.1-0.2-0.2-0.4c0.5-0.1,0.4-0.6-0.1-0.6c-0.1,0-0.2,0-0.4-0.1
		c-0.4-0.4-0.4,0.1-0.9-0.1c-0.1,0.2,0.1,0.5,0.4,0.5c-0.2,0.1-0.5,0.2-0.7,0.2c0.1,0.4,0.4,0.7,0.7,0.7c-0.7,0.1,0,0.5,0.2,0.5
		C523.3,964.4,523.7,963.9,523.8,963.6"/>
	<path id="path6238" class="st2" d="M523.1,967.5c0-0.1-0.1-1.2-0.5-1.1C521.8,966.7,522.7,967.2,523.1,967.5"/>
	<path id="path6462" class="st1" d="M507.4,861.5c0.7-0.4,1.6,0,1.8-1c0.1-0.5-0.5-1.1-0.1-1.5c0.1,0,0.1-0.1,0.2,0
		c0.2,0,0.5-0.5,0.7-0.6c0,0.6,0.6,0.9,0.7,1.4c0.1,0.5,0.5,0.6,1,0.7c-0.5,0.4,0.2,1.6,0.4,2.1c0.4,1.1,0.6,1.8,1.6,2.6
		c0.9,0.7,0.5,1,0.1,1.8c-0.1,0.1,0.6,0.6,0.6,0.9c0,0.4-0.6,0.4-0.9,0.6c0.5,0.5,0.1,1,0.4,1.5c0.1,0.2,0.5,0.1,0.6,0.4
		c0.2,0.4,0,0.4,0,0.7c0.1,1,1.5,1.5,1.6,2.6c0.1,1.4,1.1,2.5,1.5,3.8c0.2,1,0.2,2.2,1.7,1.8c1.5-0.5,1.5,0.5,1.4,1.6
		c-0.1,0.9,0,2.6-0.9,3.3c-1.6,0.5-2.8,1.2-3.2,2.3c-0.1,0.4,0.6,1.1,0.7,1.6c-1,0-0.4,1.6-0.1,2.1c0.2,0.4,0.5,1,0.6,1.5
		c0.2,0.6-0.4,0.9-0.4,1.4c0,0.9,1.5,1.5,1.2,2.2c-0.1,0.4-0.9,0.9-1.2,0.6c-0.4-0.2-0.6,1-0.6,1.2c-0.1,1.1-0.5,2.5-1.4,3.7
		c-0.6,0.9,0.2,1.6-0.1,2.6c-0.1,0.5-0.7,0.5-0.5,1.1c0.1,0.5,0.5,1,0.6,1.5c0.1,0.2,0.2,0.5,0.2,0.9c0.1,0.2,0.2,0.5,0.4,0.7
		c0.1,0.5-0.4,1.4-0.9,0.7c0.4,0.4,0,1.2,0,1.7c0,0.4,0.2,0.9-0.1,1.1c-0.2,0.2-0.2,0.1-0.2,0.6c0,0.7,0.5,1.5,0.9,2.1
		c0.1,0.2,0.4,0.2,0.6,0.5c0.1,0.2,0.1,0.6-0.2,0.5c0.2,0.9,1.1,1.4,1.2,2.2c0.1,0.4,0.2,0.6,0.6,0.7c0.5,0.2,0,0.7,0.1,1.1
		c0.2,1,1.4,0.1,1.2,1.2c0,0.9-0.1,1.6,0.4,2.5c0.1,0.1,0.5,0.9,0,0.9c-0.4,0-0.4,0.2-0.4,0.4c-0.1,0.4-0.1,0.7-0.2,1.1
		c-0.1,0.5,0.1,0.9,0.1,1.4c0.1,0.6-0.2,0.7-0.5,0.7c-0.4-0.1,0.1,0.2,0.2,0.5c0.6,0.9,0.9,1.7,1,2.7c0,0.2,0,0.5-0.2,0.5
		s-0.4,0.5-0.4,0.6c0,0.7-0.6,0-0.9,1c-0.1,0.4,0,0.7,0.1,1.1c0.1,0.4,0.1,0.7,0.4,1.1c0.5,1,0.5,1.4,0.5,2c0.1,0.7,0.7,1.1,1,1.7
		c0.2,0.4,0.4,0.9,0.6,1.2c0.1,0.1,0.5,0.6,0.4,0.9c-0.2,0.6-1.2,0.6-1.1,1.5c0.1,0.5-0.1,1.8,0.2,2.2c-0.5,0.1-0.7,0.2-0.4,0.4
		c0.1,0,1.1,1.8,0.1,1.6c0.1,0.5,0.5,0.5,0.6,0.9c0.1,0.2-0.1,0.7-0.1,1c-0.1,0.9,0.1,1.5,0.7,2c0.5,0.5,0.6,1.4,0.6,2.1
		c0,0.6,0.7,1.1,1.1,1.6c-0.2,0.2-0.7,0.1-0.9,0.5c-0.1,0.4,0.5,1,0.5,1.4c0,0.5,0.2,1.5,0.7,1.8c0.4,0.2,1.2,0.1,1.2,0.7
		s-0.9,0.1,0,0.9c0.1,0.1,0.5,0.4,0.6,0.5c0.4,0.4,0,0.2,0.1,0.5c0.1,0.2,0.4,0.4,0.5,0.6c0.2,0.4-0.1,0.6,0,1
		c0.2,0.4,0.2,0.7,0.7,0.9c0.6,0.1,1.4-0.1,1.8,0.4c0.1,0.1,0,0.9-0.1,1c-0.5,0.4-1.2,0.2-1.7,0.2c-1.1,0,0.1,0.5,0.6,0.5
		c1.1,0.1,2.7,1.2,1.5,2.2c-0.1,0.1-0.4,0-0.5,0.1c-0.1,0.2,0.4,0.6,0.4,0.9s0.2,0.2,0.5,0.5c0.2,0.2-0.1,0.9-0.5,0.9
		c0.5,0.4,1.7,1.5,1.4,2.1c-0.1,0.2-0.5,0.4-0.2,0.9c0,0.1,0,0.5,0.1,0.6c0.2,0.1,0.4,0.2,0.4,0.5c-0.5-0.1-0.9,1.2-0.9,1.6
		s-0.1,0.9,0.2,1.2c0.2,0.4,1.4,1,1.2,1.4c-0.1,0.2-0.5,0.4-0.6,0.6c-0.1,0.5,0.7,1,0.4,1.6c-0.2,0.4-0.6,0.1-0.7,0.5
		c-0.1,0.5,0,1.2-0.9,1.1c0.1,0.5-0.1,1.1,0.4,1.4c0.5,0.4,0.7,1,0.9,1.4c0,0.5,0.9,0.9,1.2,1.4c0.2,0.4,0.5,1,1,1.2
		c0.4,0.1,0.5-0.1,0.7-0.2c0.2-0.2,0.5-0.1,0.9-0.1c0.7,0,0.9,0.1,1.2,0.7c0.2,0.5-0.1,1.1,0.4,1.4c0.4,0.2,0.7,1.1,0.5,1.5
		c0.6,0.1,1.6,0.9,2,1.4c0.5,0.6,2.5,0.2,3.1,0.1c2.5-0.2,5.1,0.4,7.8,1.4c-0.6,0-1.2-0.2-1.8-0.4c-1.1-0.2-0.6,0.4-1,0.9
		c-0.4,0.4-1,0-1.4,0.5c-0.5,0.5-1.2,0.4-1.8,0.6c0.4,0.5,0.4,1.1,0.6,1.7c0.1,0.6,0.5,1,0.7,1.5c0.7,1.4-1,0.9-1.7,0.7
		c-0.9-0.1-2.7-0.6-3-1.6c-0.4-0.9,1.5-0.4,0.7,0.2c0.4,0,0.2-0.5,0.5-0.7c0.1-0.1,1,0.6,0.6,1.1c0.7-0.2-0.6-1.4,0.7-1.6
		c0.2,0,0.2-0.6,0.2-0.9c0-0.5-0.7-0.4-1-0.6c0,0.5-0.6,0.9-1,1.1c-0.6,0.4-1.1-0.2-1.6,0.1c0.4-0.1,0.7,0.2,1,0.5
		c-0.2,0-0.5,0-0.6-0.1c0.1,0.2,0,0.5-0.1,0.7c0.4,0,0.7,0.4,1,0.6c-1,0.2-2.6-0.9-3.3-1.5c0.5,0.2,1.1,0.2,1.7,0.2
		c-0.1-0.5-1.1-0.5-1.1-1.4c0-0.5,0.9-0.7,0.7-0.1c0.6-0.1,0.6-0.1,1-0.6c0.4-0.5,1.5,0.2,2-0.1c-0.4-0.5-2.7-0.7-2.8,0
		c-0.4-0.1-0.5-0.2,0-0.5c-0.2,0-1.5,0-1.2,0.6c0.2-0.2,0.5-0.2,0.6,0c-0.1,0.2-0.2,0.5-0.5,0.5c0.1,0.2,0.7,1,0,1
		c-0.4,0-1.4-0.5-0.5-0.7c-0.4,0.1-0.7-0.2-1-0.4c0.2,0,0.5,0,0.6,0c-0.1,0-0.2-0.1-0.4-0.2c0.5-0.2,0-0.7,0.5-0.6
		c-0.5-0.1-0.5-0.2,0-0.2c-0.2-0.1-0.5-0.1-0.6,0c0.2,0.1,0.2,0.5,0.1,0.6c-0.1-0.2-0.4-0.4-0.6-0.4c0,0.2-0.1,0.5-0.4,0.6
		c0.1-0.4,0-0.4-0.2-0.4c0.7-0.6-1-1.7-1.1-2.2c0.2,0.4,0.9,0.7,1.4,0.6c0.2,0,1.1-0.7,0.9,0.1c0.4-0.2,1,0.1,0.5-0.5
		c0.1,0.7-0.2-0.2-0.2-0.6c0.4,0,0.7,0.4,1,0.6c0.5,0.4,0.2,0.7-0.1,1.2c0.4-0.2,0.6,0,1,0c-0.5-0.2-0.1-0.7-0.5-1
		c-0.2-0.1-1.1-0.7-0.4-0.9c-0.5-0.4-0.6-0.9-1.1-1.2c-0.5-0.4-1.1-0.4-1.6-0.7c-0.1,0.1-0.1,0.2-0.2,0.4c0.4,0,2.3,0.5,2.3,1
		c0,0.5-2.1-0.6-2.3-0.6c0.2,0.2,0.5,0.2,0.7,0.4c0.2,0.2,0.1,0.6,0.5,0.6c-0.1,0.2-0.2,0.4-0.4,0.6c-0.2-0.5-0.5-1-1-1.4
		c0.4,0.5,0.9,1,0.9,1.6c-0.5-0.5-1.1-0.6-1.4-1.2c0.2,0.1,0.5,0.4,0.6,0.5c-0.1-0.2-0.7-0.5-0.6-1c-0.2,0-0.5,0.2-0.6,0.1
		c-0.2,0-0.1-0.4-0.4-0.4c-0.2,0-0.6-0.7-0.6-1c0.6,0.1,0.9,0.6,1.4,1c-0.5-0.5-0.7-1.1-1.2-1.6c0.7,0.6,0.1-0.1-0.1-0.2
		c0,0.1-0.1,0.2-0.1,0.4c-0.2-0.1-0.5-0.2-0.7-0.4c0.5,0.7-0.6-0.5-0.7-0.6c-0.2-0.1,0.2-0.2,0.4-0.2c0.1,0,0.2,0,0.5,0
		c0.6,0-0.5-0.6,0.2-0.1c-0.2-0.2-0.2-0.7,0.2-0.7c-0.4,0-0.7-0.4-0.5-0.7c-0.4,0.4,0,1-0.2,1.4c-0.2,0.5-1.4-1.1-1.6-1.2
		c0.2,0.1,0.5,0.2,0.6,0.4c-0.6-0.6,0-0.1,0.4-0.2c-0.4-0.4-1.4-0.4-1.5-0.9c0,0.7-0.9-0.4-1.2-0.4c0.5-0.9,2,0.5,2.6,0.4
		c-0.6-0.1-2-0.5-2.1-1.4c0.5,0,0.9,0.5,1.5,0.4c-0.4,0-0.4-0.2-0.2-0.5c-0.4,0.7-1.8-0.4-0.7-0.6c-0.2,0.1-1.1-0.2-0.6-0.5
		c0.6-0.4,1.2,0.4,1.7,0.5c-0.4-0.2-0.9-0.5-1.2-0.7c-0.2-0.1-0.5-0.1-0.5-0.5c0-0.2,0.4-0.4,0.5-0.2c-0.4-0.1-1-1.5-0.2-1.1
		c-0.2-0.1-0.5-0.1-0.6,0.1c0.1,0.1,0.2,1.5,0.1,1.7c-0.5-0.5-1.2-1.4-1.2-2.1c0-0.1-0.6-0.5-0.4-0.7c0.2-0.1,0.7-0.1,1-0.1
		c-0.1-0.1-1.7-0.2-1.1-0.9c0.2-0.2,0.9,0.1,1.1,0.2c-0.2-0.1-0.4-0.4-0.2-0.6c-0.2,0-1.5-0.1-0.7-0.4c-0.7,0.4-1.2-1.1-2-0.9
		c-0.1-0.9,1.1,0.1,1.4,0.4c-0.1-0.2-0.2-0.5-0.5-0.6c0.6-0.1,1.1,0.2,1.6,0.4c0.2,0.1,0.5,0,0.7,0.1c0.2,0.2,0.6,0.1,0.9,0.2
		c0.1-0.2,0.1-0.4-0.1-0.5c-0.1,0.7-1.2-0.2-1.2-0.6c0.4,0.4,0.9,0.2,1.4,0.4c-0.1-0.1-0.4-0.1-0.5-0.1c-0.4,0-0.5-0.4-0.9-0.6
		c-0.2-0.1-0.5-0.1-0.6-0.4c-0.1-0.2,0-0.5-0.2-0.7c0.2,0.4,0.4,1.2-0.4,1.1c-0.6-0.1-2,0-2.3-0.5c0.2-0.1,0.4-0.2,0.2-0.5
		c0.6-0.1,0.9,0.6,1.5,0.7c-0.5-0.1-0.2-0.6,0.2-0.5c-0.1-0.6-0.4,0-0.7-0.2c-0.2-0.1-0.4-0.5-0.7-0.5c-0.4,0,0.1-1.5,0.6-0.6
		c-0.1-0.2,0-0.4,0.2-0.4c0-0.1-0.1-0.4-0.2-0.5c0,0.4-0.5,0.5-0.6,0.1c0.2-0.1,0.4-0.1,0.6-0.1c-0.2-0.2-0.6-0.4-1-0.5
		c-0.6-0.4-0.7-0.6-1.5-0.2c0.2-0.1,0.5,0,0.6,0.2c-0.5-0.1-1.1-0.2-1.6-0.5c-0.9-0.5-0.2-0.7-0.6-1.2c-0.4,0.6-1.6,0.7-1.6,1.2
		c0.6-1,1.5,1.5,0.2,0.4c-0.9-0.7-0.1-2.5,1-2c-0.4,0-0.4-0.2-0.2-0.5c0.5,0.4,0.2-0.6,0.9,0c-0.4-0.4,0.1-0.7-0.4-1
		c0.2,1.2-1.2,0.2-0.4,0.2c-0.4,0-0.7-0.1-0.9-0.5c0.5,0.1,0.9-0.2,1.4-0.1c0.4,0.1,0.5,0.5,0.9,0.5c-0.6-0.4,0-0.6,0.4-0.6
		c0.4,0,0.2,0.5,0.7,0.5c-0.2,0.4,0.2,0.9,0.1,0.2c1,0.5-0.5,1.1-1,0.9c0.4,0.2,1.6,0.4,2,0.4c-0.2-0.1-0.4-0.4-0.4-0.6
		c0.2,0.1,0.6,0.2,0.7,0.6c0.1,0.4-0.2,0.7-0.1,1.1c0.6-0.1,0.9-1.6,0.7-2.1c-0.1,0.4-0.2,0.7-0.4,1c0-0.7-0.9-2.5,0.5-2.3
		c-0.4-0.2-0.7,0.1-1,0.4c-0.1-0.4-0.2-0.7-0.2-1c0.1-0.4,0.5-0.4,0.6-0.7c0.2,0.2,0.6,0.4,0.9,0.6c0.4,0.2,0.5-0.2,0.1-0.2
		c-0.2,0-0.5-0.1-0.6-0.2c-0.4-0.2-0.9,0-1.2-0.2c0.7-0.5-1-1.1,0.4-1.2c1-0.1,1.4-1.5,0.9-2.2c-0.4,0.5-2.3-0.5-2.3-1.1
		c0.1-0.1,0.2-0.1,0.4,0c-0.6-0.6,0.6-1,0.2-1.6c-0.1,0.4-0.5,0.4-0.5,0c0-0.5-0.4-0.4-0.6-0.9c-0.2-0.4,0-0.6,0.1-1
		c0-0.2-0.4-0.9,0.2-0.7c0-0.4-0.2-0.5-0.5-0.7c-0.1-0.2-0.1-0.5-0.2-0.7c-0.5-0.9,0.1-0.4,0.6-0.5c-0.5-0.1-1-0.6-1.1-1.1
		c0.7-0.2,1.1,0.4,1.5,0.9c-0.1-0.6-0.5-1.4-0.9-2c-0.6,0.6-1.6-0.2-0.7-0.9c0.5-0.4,1.2-0.6,0.5-1.2c0.4,1.7-1,0.5-1.7,0.2
		c-0.6-0.1-0.2,0.9-0.5,1c-0.5,0.4-2.3-0.2-1.4-0.6c-1.7,0-2-2.8-2.2-4.1c-0.1-0.5-0.5-1.7-0.2-2.3c0.2-0.5,0.6-0.1,0.5-0.7
		c-0.1-0.5,0.1-1,0-1.4c-0.1-0.7-0.4-1.1-0.9-1.8c-0.5-0.7-1.1-1.5-1.4-2.3c-0.1-0.6,0-1-0.4-1.5c-0.2-0.4-0.6-0.6-0.7-1
		c-0.1-0.4,0.1-0.5,0-0.7c-0.2-0.4-0.5-0.7-0.4-1.2c0.4,0.2,1,0.5,1.2-0.1c0.2-0.7-0.5-1.2-0.2-2c0,0.2,0.1,0.4,0.4,0.4
		c0-0.1,0-0.4-0.1-0.5c-0.1-0.4,0.2-0.7,0.1-1c0-0.7-0.4-1.1,0-1.7c0.4-0.5-0.2-0.9,0-1.5c0.2-0.5,0.5-1.2,0.6-1.7
		c0.1-1.2-0.4-2.5-0.2-3.6c0-0.6,0.6-1.2,0.6-1.7c0-0.5-0.4-1.1-0.6-1.6c-0.1-0.4,0.1-0.9,0.2-1.2c0.1-0.4-0.1-1-0.1-1.4
		c0-0.2,0.1-0.5-0.1-0.7c-0.2-0.2-0.4-0.5-0.5-0.9c-0.2-0.7-0.4-1.4-0.6-2.1c-0.5-1.4-1.1-2.7-1.4-4.1c-0.1-0.7,0-0.7,0.5-1.1
		c0.4-0.2,0-0.9,0.2-1.2c0.2-0.4-0.5-2.2-0.9-2.5c-0.4-0.2-0.7-1.1-0.5-1.6c0.4-0.6,0.4-1.2,0.6-1.8c0.1-0.5-0.1-1.2-0.1-1.7
		c0-0.7,0.6-1.2,0.2-2.1c-0.5-1.2,0.1-2.6,0.1-3.9c0-1.1-0.6-2-0.6-3.1c0-0.6,0.6-0.7,0.6-1.2c0-0.7-0.6-1.5-0.7-2.2
		c-0.1-0.7,0-1.6-0.1-2.3c0-0.4-0.2-0.6-0.1-1.1c0.1-0.4,0.2-0.6,0.1-1c-0.1-0.4-0.7-0.1-0.9-0.6c-0.1-0.5,0-1,0.1-1.5
		c0.7,0.7,0.7-1.5,0.7-1.8c0-1.8,0.4-4.1-0.4-5.8c-0.7-1.8-0.2-3.9-1-5.9c-0.2-0.9-0.6-1.7-0.7-2.6
		C507.8,862.9,508,861.9,507.4,861.5"/>
	<path id="path6464" class="st2" d="M521.1,967.7c0-0.1-0.1-0.2-0.1-0.4C521.5,967.3,521.5,967.5,521.1,967.7"/>
	<path id="path6470" class="st2" d="M536.3,991.7c0-0.1,0-0.2,0-0.4c0.1,0.1,0.1,0.2,0.2,0.4C536.3,991.7,536.3,991.7,536.3,991.7"
		/>
	<path id="path6472" class="st1" d="M545.3,995.8c-0.2-0.2-0.6-1-0.4-1.4c0.1,0.5,0.7,0.4,0.6-0.1c0-0.2-0.7-0.5-1-0.6
		c0.4-0.4,0.9,0.1,1.2,0.1c0.9,0.2,0.5-0.7,0.7-1.1c0.2-0.4,1,0.5,1.4,0.6c0.5,0.1,0.9-0.5,1.4-0.1c0.5,0.4,0.5,1,0.9,1.5
		c0.5,0.6,0.7,1.4,1.1,2.1c0.7,1.6,1.7,3.2,2.3,4.8c-0.4-0.2-0.7-0.2-1-0.4c0.1,0.1,0.4,0.4,0.6,0.4c-0.5,0.5-1.6,0.2-2.1,0
		c-0.2-0.1-0.6-0.6-0.9-0.5c-0.4,0.1-0.5,0.2-0.9-0.1c0.1,0.1,0.1,0.2,0.2,0.4c-0.2-0.2-1.4,0.2-1-0.5c-0.1,0.4-1.2,0.5-1.5,0.4
		c0.2-0.1,0.4-0.4,0.6-0.5c-0.4-0.2-1,0.2-1.4,0.4c0-0.2-0.1-0.5-0.4-0.6c-0.1,0.9-0.7-0.1-1-0.2c0.5,0.6-0.5,0.4-0.7,0.4
		c-0.2,0-0.5,0.2-0.7,0.1c-0.2-0.1-0.4-0.5-0.5-0.6c0.4,0,0.6,0.2,1,0.4c0-0.2-0.1-0.5-0.5-0.4c0.2-0.1,0.5,0,0.7,0.1
		c-0.7-0.7,1.5,0,1.6-0.2c0.2-0.2,0-0.6,0.5-0.5c0.4,0.1,0,1.2,0.6,1c-0.2-0.1-0.4-0.4-0.2-0.6c0.6,0,1.1,0.7,1.7,0.5
		c-0.5-0.2-1.1-0.5-1.6-0.9s-1-0.1-1.4-0.6c0.9,0.1,2,0.4,2.7,1c-0.2-0.1-0.4-0.6,0.1-0.5c0.4,0.1,0.7,0.5,1,0.7
		c-0.1-0.2-0.2-0.5-0.5-0.6c0.4-0.1,0.9,0.4,1.1,0.2c0.5-0.2,1.1,0.4,0.7,0.9c0.1-0.2,0.4-0.4,0.6-0.2c-0.4-0.4,0-0.4,0.2-0.4
		c-1.2-1-3.6-0.6-4.6-2.1c-0.6-1,1.8-0.7,1.5-1.7C548.4,995.1,546,996.9,545.3,995.8"/>
</g>
<g id="ec" transform="matrix(4.4075902,0,0,4.3787433,-1859.4186,-3158.7554)">
	<path id="path6588" class="st2" d="M431.1,792.4c0.4-0.1,0.5-0.7,0-0.9C430.4,791.4,430.6,792.3,431.1,792.4"/>
	<path id="path6590" class="st2" d="M430.7,790.5c0.6,0.1,0.6,0.5,0.7,0.9c0.2,0.6,0.7,1,0.9,1.6c-0.6,0.1-1.8,1-0.7,1.5
		c0.6,0.2,1.8-0.2,1.8-0.9c0.1-0.5-0.6-0.5-0.6-0.9c0.1-0.6-0.4-0.9-0.7-1.2C431.7,790.7,431.8,789.9,430.7,790.5"/>
	<path id="path6592" class="st2" d="M434.1,792c0.4-0.5-0.2-0.9-0.6-0.9C432.6,791.2,434.1,791.9,434.1,792"/>
	<path id="path6594" class="st2" d="M434.6,789.5c0.2-0.4,0.1-0.4-0.2-0.4C434.4,789.3,434.4,789.4,434.6,789.5"/>
	<path id="path6596" class="st2" d="M435,793.5c0.6-0.1,0.6-1.2-0.1-1.1C434.2,792.6,434.3,793.5,435,793.5"/>
	<path id="path6598" class="st2" d="M434.7,795.7c0.1-0.1,0.2-0.2,0.2-0.4C434.6,795.1,434.3,795.6,434.7,795.7"/>
	<path id="path6600" class="st2" d="M437.8,794.2c0.4,0,1-0.6,0.7-1.1C438.3,793.2,437.5,793.9,437.8,794.2"/>
	<path id="path4798" class="st2" d="M471,800.8c0.1-0.2,0.1-0.5,0-0.6C470.9,800.3,470.9,800.5,471,800.8"/>
	<path id="path6602" class="st2" d="M470.6,800.9c-0.4,0-0.7,0.2-0.9,0.6c0,0.1,0.1,1,0.4,0.7c0.1-0.1,0.2-0.5,0.2-0.6
		c0-0.2,0.5-0.4,0.6-0.6C470.8,801,470.7,800.9,470.6,800.9"/>
	<path id="path6790" class="st1" d="M467.2,799c0.7,0.2,0.7-0.9,0.6-1.2c0-0.4-0.1-0.6-0.2-0.9c-0.2-0.5,0.4-0.9,0.2-1.5
		c-0.2-0.6-0.9-1.4,0.1-1.4c0.4,0,0.6-0.2,0.6-0.6c0.1-0.5,0.4-0.4,0.9-0.5c-0.7-0.1-0.9-1-0.4-1.5c0.7-0.7,1.1-1.2,1.2-2.2
		c0-0.2-0.4-1.6-0.1-1.8c0.4-0.2,1.5-1.1,1.5-0.2c-0.2-0.5,0.5-0.7,0.9-0.9c0.4-0.1,1.2-0.6,1.4-0.1c0.1-0.4,0.4-0.9,0.6-1.2
		c0.9,0.9,2.3,2.3,3.7,2.3c0.4,0,0.5,0.5,0.9,0.6c0.5,0.1,0.1,1.2,1,1.2c0.7,0,1.2,0.4,2,0.4c0.2,0,0.7,0.4,0.9-0.1
		c0-0.1-0.2-0.2,0-0.4c0.6-0.4,1.2,0.2,1.6,0.7c0.6,0.7,1.4,0.7,2.2,1.2c-0.4,0.1-0.7,0-1.1,0c0,0.2,0.7,1.1,1,1.2
		c0.5,0.6,0.1,1.4,0.5,2.1c-0.2,0-0.5,0-0.6-0.2c-0.5,2.6-2,4.8-4.2,6.3c-1,0.7-2.3,1-3.6,1.5c-0.6,0.2-0.9,0.6-1.2,1.1
		c-0.1,0.1-0.2,0.2-0.4,0.5c-0.1,0.2,0.1,0.4-0.1,0.6c-0.2-1-0.6,1-0.7,1.1c-0.4,0.6-0.7,1.5-0.6,2.2c0,0.9-0.6,0.9-0.9,1.5
		c-0.2,0.7-0.1,0.9-0.9,0.9c-0.9,0-1-0.9-1.2-1.5c-0.4-0.7-0.7-0.1-1.2-0.5c-0.4-0.2-0.7-0.9-1.2-0.5c-0.6,0.6-1.2,0.5-0.6-0.4
		c-0.5-0.1-0.6-0.6-0.2-1c0.2-0.1,0.6,0,0.7-0.2c0.4-0.2-0.1-2-0.6-2.2c0.5-0.2,0.9-0.1,1.2-0.7c0.2-0.5,0.4-1.1,0.5-1.6
		c0.2-0.6,0.2-0.7,0-1.4c-0.2-0.6-0.2-1.1,0.1-1.7c-0.7,0.4-0.2,1.1-0.4,1.7c-0.1,1-0.9,0.1-0.1,0c-0.4,0-0.4-0.4-0.2-0.6
		c-0.2,0.2-1.1,1.2-0.9,1.6c-0.5-0.4-0.9-1-1.5-1.2C467.7,799.7,467.4,799.5,467.2,799"/>
</g>
<g id="tt" transform="matrix(4.4075902,0,0,4.3787433,-1727.6242,-2961.3857)">
	<g id="tt-" transform="translate(-29.9017,-45.0745)">
		<path id="path6114" class="st3" d="M533.4,751.6c0.4-0.6,1.4-0.5,1.6-1.1c0.1-0.4,0-1.4-0.6-1.4c0.4-0.5,1.1-0.5,1.7-0.6
			c1.2-0.1,0.1,0.6,0.2,1.4c0.1,0.6,0.5,1.2-0.4,1.5C535.3,751.7,534.3,751.2,533.4,751.6"/>
		<path id="path6120" class="st3" d="M537.5,747.4c0.1-0.4,0.5-0.6,0.9-0.7C538.4,747,537.8,747.1,537.5,747.4"/>
	</g>
	<path id="tt." class="st4" d="M505.6,707.2c3.5,0,3.5-5.4,0-5.4C502.2,701.8,502.2,707.2,505.6,707.2"/>
</g>
<g id="gd" transform="matrix(4.4075902,0,0,4.3787433,-1727.6242,-2961.3857)">
	<path id="gd-" class="st3" d="M504.8,698.9c-0.4-0.4,0-0.7,0.2-0.9C505.1,698.3,505.1,698.7,504.8,698.9"/>
	<path id="gd." class="st4" d="M503.9,701.7c3.5,0,3.5-5.4,0-5.4C500.5,696.4,500.5,701.7,503.9,701.7"/>
</g>
</svg>
